<?xml version="1.0" encoding="utf-8"?>
<!-- Generator: Adobe Illustrator 21.0.0, SVG Export Plug-In . SVG Version: 6.00 Build 0)  -->
<svg version="1.1" id="Layer_1" xmlns="http://www.w3.org/2000/svg" xmlns:xlink="http://www.w3.org/1999/xlink" x="0px" y="0px"
	 viewBox="0 0 310.6 248.9" style="enable-background:new 0 0 310.6 248.9;" xml:space="preserve">
<style type="text/css">
	.st0{fill:#001928;}
	.st1{clip-path:url(#SVGID_3_);}
	.st2{clip-path:url(#SVGID_4_);fill:url(#XMLID_7_);}
	.st3{clip-path:url(#SVGID_7_);}
	.st4{clip-path:url(#SVGID_8_);fill:url(#XMLID_9_);}
	.st5{clip-path:url(#SVGID_11_);}
	.st6{clip-path:url(#SVGID_12_);fill:url(#XMLID_10_);}
	.st7{fill:#E61F37;}
	.st8{fill:#292949;}
	.st9{fill:#CECECE;}
	.st10{fill:#FF979C;}
	.st11{fill:#0F1F2D;}
	.st12{fill:#43C0B5;}
	.st13{fill:#D67086;}
	.st14{fill:#F89F22;}
	.st15{fill:#FFFFFF;}
	.st16{opacity:0.19;fill:#2B292A;}
	.st17{fill:#71D3CA;}
	.st18{fill:#CC2340;}
	.st19{opacity:0.1;enable-background:new    ;}
	.st20{fill:#0F1F2C;}
</style>
<path class="st0" d="M113.2,230.5c17.8,2.3,35.8,2.6,53.7,3.3c8.2,0.3,16.3-0.1,23.9,2.9c7.1,2.8,12.8,8.3,20.1,10.7
	c5.7,1.8,11.8,1.8,17.8,1.1c25.1-2.9,48.8-16.9,63.4-37.5c13.4-18.9,19-43.1,15.5-66c-2.1-13.9-8.5-26.8-10-40.8
	c-1.6-14.8,4-27.7,7.6-41.8c2.5-9.8,3.6-20,3.2-30.1c-0.2-5.8-0.9-11.8-3.7-16.9c-7.5-14-26.4-16.6-42.1-15
	c-19.5,1.9-39,8-56.1,17.4c-13.5,7.5-27,18.4-42.5,21.3c-17.5,3.3-31.1-8.7-46.9-14.2C81.5,12.6,38.7,36.8,23,69
	C3.7,108.8,5.9,173.8,42,203.3c19.7,16.1,45.1,23.7,70.3,27C112.6,230.4,112.9,230.4,113.2,230.5z"/>
<g>
	<g>
		<defs>
			<polygon id="SVGID_1_" points="23.6,25.1 24.5,25.1 23.6,26 			"/>
		</defs>
		<defs>
			<polygon id="SVGID_2_" points="21.8,23.3 20.9,23.3 21.8,22.4 			"/>
		</defs>
		<clipPath id="SVGID_3_">
			<use xlink:href="#SVGID_1_"  style="overflow:visible;"/>
		</clipPath>
		<clipPath id="SVGID_4_" class="st1">
			<use xlink:href="#SVGID_2_"  style="overflow:visible;"/>
		</clipPath>
		
			<linearGradient id="XMLID_7_" gradientUnits="userSpaceOnUse" x1="778.3491" y1="27.3287" x2="799.0327" y2="27.3287" gradientTransform="matrix(1.919 -5.460000e-02 -2.840000e-02 -0.9996 -1282.3701 293.4745)">
			<stop  offset="0" style="stop-color:#FFFFFF"/>
			<stop  offset="1" style="stop-color:#000000"/>
		</linearGradient>
		<path id="XMLID_121_" class="st2" d="M249.5,223c0.8-0.3,1-0.6,0.4-1c-0.5-0.4-2.1-0.2-2.8-0.2c-3.3-0.1-6.5-0.2-9.8-0.1
			c-6.6,0-13.2,0.3-19.7,0.7c-1,0.1-8,0.4-6.9,1.5c0.6,0.6,3.4,0.3,4.5,0.2c2.2,0,4.6,0,6.8,0c4.6,0,9,0,13.6-0.1
			C236.4,224.2,246.6,224,249.5,223z"/>
	</g>
</g>
<g>
	<g>
		<defs>
			<polygon id="SVGID_5_" points="23.6,25.1 24.5,25.1 23.6,26 			"/>
		</defs>
		<defs>
			<polygon id="SVGID_6_" points="21.8,23.3 20.9,23.3 21.8,22.4 			"/>
		</defs>
		<clipPath id="SVGID_7_">
			<use xlink:href="#SVGID_5_"  style="overflow:visible;"/>
		</clipPath>
		<clipPath id="SVGID_8_" class="st3">
			<use xlink:href="#SVGID_6_"  style="overflow:visible;"/>
		</clipPath>
		
			<linearGradient id="XMLID_9_" gradientUnits="userSpaceOnUse" x1="750.7463" y1="29.015" x2="771.4299" y2="29.015" gradientTransform="matrix(1.919 -5.460000e-02 -2.840000e-02 -0.9996 -1282.3701 293.4745)">
			<stop  offset="0" style="stop-color:#FFFFFF"/>
			<stop  offset="1" style="stop-color:#000000"/>
		</linearGradient>
		<path id="XMLID_119_" class="st4" d="M196.4,222.8c0.8-0.3,1-0.6,0.4-1c-0.5-0.4-2.1-0.2-2.8-0.2c-3.3-0.1-6.5-0.2-9.8-0.1
			c-6.6,0-13.2,0.3-19.7,0.7c-1,0.1-8,0.4-6.9,1.5c0.6,0.6,3.4,0.3,4.5,0.2c2.2,0,4.6,0,6.8,0c4.6,0,9,0,13.6-0.1
			C183.4,224,193.6,223.8,196.4,222.8z"/>
	</g>
</g>
<g>
	<g>
		<defs>
			<polygon id="SVGID_9_" points="23.6,25.1 24.5,25.1 23.6,26 			"/>
		</defs>
		<defs>
			<polygon id="SVGID_10_" points="21.8,23.3 20.9,23.3 21.8,22.4 			"/>
		</defs>
		<clipPath id="SVGID_11_">
			<use xlink:href="#SVGID_9_"  style="overflow:visible;"/>
		</clipPath>
		<clipPath id="SVGID_12_" class="st5">
			<use xlink:href="#SVGID_10_"  style="overflow:visible;"/>
		</clipPath>
		
			<linearGradient id="XMLID_10_" gradientUnits="userSpaceOnUse" x1="733.6" y1="29.0207" x2="749.9873" y2="29.0207" gradientTransform="matrix(1.919 -5.460000e-02 -2.840000e-02 -0.9996 -1282.3701 293.4745)">
			<stop  offset="0" style="stop-color:#FFFFFF"/>
			<stop  offset="1" style="stop-color:#000000"/>
		</linearGradient>
		<path id="XMLID_117_" class="st6" d="M155.4,223.8c0.6-0.2,0.8-0.4,0.3-0.8c-0.4-0.3-1.6-0.1-2.1-0.1c-2.6-0.1-5.2-0.1-7.8-0.1
			c-5.2,0-10.4,0.2-15.6,0.6c-0.8,0.1-6.3,0.3-5.4,1.2c0.4,0.4,2.7,0.2,3.5,0.2c1.8,0,3.6,0,5.4,0c3.6,0,7.1,0,10.7,0
			C145.1,224.7,153.2,224.5,155.4,223.8z"/>
	</g>
</g>
<g>
	<g>
		<g>
			<g>
				<polygon class="st7" points="304,151.6 305.2,180 301.6,228.2 296.2,228.6 289.7,184.8 280.7,147.7 				"/>
				<polygon class="st8" points="296.4,230.8 302.4,233.3 305.1,230.2 302,227.5 296.2,227.9 				"/>
			</g>
			<g>
				<polygon class="st7" points="266,141.6 264.8,163 268.3,226.7 273.7,227 281.7,185.2 288.8,139.3 				"/>
				<polygon class="st8" points="273.5,229.3 267.6,231.9 264.8,228.8 267.9,226.1 273.7,226.4 				"/>
			</g>
			<g>
				<path class="st9" d="M297.2,78.4l-16.8-1.8c0,0-9.3,1-15.6,23.1c-3.5,12.3-4.6,31.7-4.8,46.5c0.4,2.1,2.7,11.4,12.4,9.8
					c16.7-2.7,25.6-5.4,32.9-4c6.2,1.3,5.7-7.2,5-13.7l-2.5-20.1L297.2,78.4z"/>
			</g>
			<g>
				<path class="st10" d="M294,57.5c-4.2-0.9-8.6-1.8-12.8-0.9c-0.9,0.2-1.9,0.5-2.4,1.3c-0.2,0.3-0.3,0.7-0.4,1
					c-1.1,4-2.4,9.8,0.2,13.5c0.5,0.7,1.2,1.3,1.9,1.7c1,0.6,2,1,3.1,1.2c-0.2,1-0.5,2-0.9,2.9c1,1.5,5.5,1.6,6.3,0.2
					c0-1.2,0.1-2.4,0.1-3.6c0.5-0.2,1.1-0.5,1.6-0.8c1.9-1.3,3.2-3.2,3.9-5.4c0.8-2.3,1.9-4.6,2.7-7c0.3-0.9,0.5-1.9,0-2.7
					c-0.5-0.8-1.5-1.1-2.5-1.3C294.5,57.7,294.3,57.6,294,57.5z"/>
				<path class="st7" d="M279.9,59.8c2.1-1.3,5.2-1.9,7.2-1.8c5.9,0.4,8.1,4.8,8.4,10.2c1.6-2.1,4.7-4.7,4.9-7.4
					c0.2-2.2-0.2-5.2-1.4-7.1c-1.1-1.8-4.1-2.7-5.8-3.8c-1.6-1-3.3-1.9-4.9-2.9c-0.3-0.2-0.7-0.4-1.1-0.5c-0.5-0.1-0.9,0-1.4,0.2
					c-3.9,1-7.8,2-11.7,3c-0.7,0.2-1.6,0.5-1.9,1.2c-0.2,0.4-0.1,0.9,0,1.4c0.4,2,1.3,4.1,1.5,6.1c0.2,1.2,0.9,7.3,3,6.6
					c0.6-1,0.7-2.3,1.2-3.3C278.4,61,279.1,60.3,279.9,59.8z"/>
			</g>
			<polygon class="st9" points="280.5,76.6 274.3,78.5 251.6,102.2 250.3,110 261.1,127.9 264,121.3 259.5,108.1 266.7,103 
				276.4,81.2 			"/>
		</g>
	</g>
	<g>
		<g id="XMLID_1018_">
			<g id="XMLID_1020_">
				<polygon class="st8" points="57,228.4 56.7,231.3 50.7,233.9 48.2,230.7 51.3,228 57.3,225.4 				"/>
			</g>
			<g id="XMLID_1019_">
				<polygon class="st11" points="62,168.4 57.4,227.4 51.6,228.2 46.9,177.9 42.9,162 				"/>
			</g>
		</g>
		<g id="XMLID_1015_">
			<g id="XMLID_1017_">
				<polygon class="st11" points="75.8,152.9 79.3,223.1 74,224.1 63,171 57,155.6 				"/>
			</g>
			<g id="XMLID_1016_">
				<polygon class="st8" points="74.5,226.4 80.7,228.3 83,224.8 79.6,222.3 73.9,223.4 				"/>
			</g>
		</g>
		<g id="XMLID_1014_">
			<path class="st12" d="M68.4,77.2c-4.3-3.5-14.5-1.5-19.9-1.5c0.5,0-5.1,30.2-5.3,32.8c-0.7,9.6-3.6,19.3-7.7,28.1
				c-1.7,3.7-3.8,7.3-5,11.2c-2,6.5-2,14.1-1.5,20.8c5.8,1.6,11.2,4.6,17.2,5.4c4.9,0.6,9.9-0.3,14.8-0.7c5.8-0.5,11.7-0.4,17.5-0.8
				c5.8-0.4,11.7-1.5,16.9-4.3c-2.3-4.5-4.1-9.2-5.6-14c-1.5-4.8-3.4-10.1-3.9-15c-0.5-4.5-0.6-9.1-1.2-13.6
				c-0.8-5.3-1.7-10.6-2.9-15.8c-1.5-6-3.4-11.8-5.7-17.4c-1.8-4.3-3.9-11.4-7.3-14.7C68.6,77.4,68.5,77.3,68.4,77.2z"/>
		</g>
		<polygon class="st13" points="70.7,80 86,104.5 94.4,92.8 102.3,94.1 98.6,113.1 88.2,120.8 70.7,110.3 		"/>
	</g>
	<g>
		<polygon class="st14" points="168.4,83.6 161.6,85.9 150.7,102.3 136.7,92.9 132.3,98.2 139.3,108.6 152,117.7 168.4,100.6 		"/>
		<polygon class="st10" points="197.7,29 198.2,21.7 192.2,17.1 189.7,20.4 192.4,25.2 191.5,27.6 194.1,31.6 		"/>
		<g>
			<g>
				<g>
					<polygon class="st7" points="152.5,130.7 152,172.2 156.5,225.7 162.5,225.7 169.7,176.4 177.9,126.9 					"/>
					<polygon class="st8" points="162.4,228.3 155.9,231.5 152.7,228.3 155.9,225 162.4,225 					"/>
				</g>
				<g>
					<polygon class="st7" points="193.8,130.7 193.9,154.7 189.9,225.7 183.8,225.7 173.8,178.6 168.4,126.9 					"/>
					<polygon class="st8" points="183.9,228.3 190.4,231.5 193.6,228.3 190.4,225 183.9,225 					"/>
				</g>
			</g>
			<path class="st14" d="M200.1,145.2c0.1,3.8,0,8.9-1.6,9.1c-0.3,0-0.6-0.1-0.9-0.2c-2.8-1.4-4.8-3.3-7.5-4.6
				c-2.9-1.4-6.2-2.1-9.4-2.6c-4.8-0.8-9.6-1.2-14.4-1.3c-4.1,0-8.4,1.8-12.3,2.9c-1.5,0.4-2.7,1.5-4,2.4c-1.8,1.3-2.7,1.8-2.4-0.8
				c0.4-4.2,0.8-8.5,1.4-12.7c1-8.4,2.5-16.8,4.8-25c0.9-3.1,2-6.2,3-9.3c1.3-3.7,2.6-7.5,3.9-11.2c1.6-4.6,4.3-7.9,9-9.5
				c4.1-1.4,9.1-1.8,13.1,0.2c4.4,2.2,6.5,9.6,8.6,13.6c1.9,3.5,4.2,13,4.9,16.8c0.8,4.5,1.6,9,2.2,13.5c0.7,5,1.2,9.9,1.3,14.9
				C199.9,141.8,200,143.3,200.1,145.2z"/>
			<g>
				<path class="st10" d="M173.4,83.3c0.1,0.1,0.2,0.1,0.3,0.2c0.3,0.1,0.5,0.1,0.8,0c1.1-0.1,2.2-0.3,3.2-0.4
					c-0.4-3.3,1.6-4,3.4-6.2c1.9-2.1,1.3-5,1.2-7.7c0-0.7-0.1-1.5-0.4-2.2c-0.5-1.2-1.8-1.8-3-2.2c-3.1-1-6.7-0.7-9.5,1
					c-0.7,0.5-1.4,1.1-1.8,1.8c-0.6,1.2-0.5,2.6-0.3,4c0.3,2.1,0.9,4.1,2,5.8c1.1,1.6,3.1,2.4,3.4,4.3C172.8,82.4,173,83,173.4,83.3
					z"/>
				<g>
					<path class="st7" d="M167.5,69.4c0.2,0.8,0.6,1.7,0.4,2.5c-1.3-0.4-2.2-1.8-2.6-3.2c-0.2-0.6-0.4-1.3-0.3-1.9
						c0.1-0.7,0.3-1.3,0.9-1.7c0.7-0.5,2-0.3,2.2,0.6C168.2,66.7,167.2,68.2,167.5,69.4z"/>
					<path class="st7" d="M160.5,62.2c0-1,0.4-1.9,1.3-2.5c0.8-0.5,1.6-0.9,2.1-1.8c0.4-0.6,0.4-1.4,0.8-2.1
						c0.6-1.2,2.1-1.5,3.3-1.9c3.1-1,4.7-2.1,7.9-0.9c2.3,0.9,5.3,1,7.4,2.3c0.9,0.5,1.7,1.4,2.3,2.4c2.2,3.4,2.7,8.1,1.3,11.6
						c-0.3,0.8-0.7,1.5-1.1,2.2c-0.9,1.4-1.8,3.1-3.3,3.8c-0.1-0.7-0.6-1-0.7-1.7c-0.1-0.5-0.1-0.9,0-1.4c0.1-1.8,0.7-4.8-1.2-5.7
						c-2.3-1.2-6.7-0.1-9,0.9c-2,0.9-5.4,2-7.5,1.1C162,67.7,160.4,64.3,160.5,62.2z"/>
				</g>
			</g>
		</g>
		<polygon class="st14" points="180.9,82.1 195.6,57.5 192.2,30.8 198.8,28.5 208.2,55 208.6,68.4 191.5,96.1 		"/>
	</g>
	<g id="XMLID_1010_">
		<g id="XMLID_1012_">
			<g id="XMLID_1013_">
				<path class="st10" d="M10,120.4c-1.2,1-5.1,2-6.6,1.2c-3.4-1.8,1.4-3.3,3-4.3c-0.5-0.4-1-0.9-1.3-1.4c-0.3-0.5,5-1.7,5.8-1.5
					c1.7,0.6,1.7,1.7,2.5,3.3C12.1,118.6,11,119.5,10,120.4z"/>
			</g>
		</g>
		<g id="XMLID_1011_">
			<polygon class="st12" points="55,87.8 38.4,118.3 9.5,121.7 12,115.2 31.8,107.6 41.1,87.7 51.8,78.9 			"/>
		</g>
	</g>
	<g id="XMLID_1006_">
		<g id="XMLID_1009_">
			<path class="st7" d="M59.3,60.8c2.7,0.5,6,2.8,6.7,5.6c0.3,1.4-0.1,2.6,0.3,4.1c0.8,2.9-2.7,7.1,0.7,9.1c1.8,1,4,0.7,6,0.3
				c0.2,0,0.5-0.1,0.7-0.2c0.3-0.3,0.4-0.7,0.3-1.1c-0.1-0.4-0.4-0.7-0.6-1.1c-2.4-3.6-1.8-8.7-2.7-12.7c-0.9-4-3.1-8.1-7.1-9.7
				c-2,1.3-3.4,3.4-3.9,5.7L59.3,60.8z"/>
		</g>
		<g id="XMLID_1008_">
			<path class="st10" d="M62.7,78.2c2.6-1.1,4.3-3.8,4.9-6.5c0.6-2.8,0.1-5.7-0.6-8.4c-2.5-9.1-13.9-6.5-16.6,1.3
				C48.1,71.4,55.2,81.5,62.7,78.2z"/>
		</g>
		<g id="XMLID_1007_">
			<path class="st7" d="M49.5,83.2c1.3-0.8,2.5-1.6,3.3-3.1c1.2-2.4,0.7-6.1,0.8-8.7c0.1-2.7,0.4-5.7,2.3-7.7
				c1.2-1.3,2.7-1.7,4.4-1.8c1.2-0.1,1.2,0.3,2.2-0.4c0.7-0.5,1.2-2,1.3-2.9c0.2-1.4-0.5-2.9-1.6-3.9c-1.6-1.6-3.4-2.3-5.5-2.1
				C49.1,53,43.8,58,42.3,65.6c-0.7,3.7,0.4,7.6-0.4,11.1c-0.5,2.2-1.7,3.7-2.1,6c-0.9,6-3.5,13.8-2.8,19.8c0,0.2,0.1,0.5,0.3,0.6
				c0.4,0.3,0.8-0.1,1.1-0.5c1.6-2.2,3.1-4.3,4.7-6.5c0.6-0.9,1.2-1.7,1.6-2.7c0.9-2.5,0.1-5.5,1.6-7.6
				C47.1,84.7,48.3,83.9,49.5,83.2z"/>
		</g>
	</g>
	<polygon class="st9" points="297.4,78.6 280.1,97.6 258.1,99.5 254.9,106.6 287.4,115.2 296.6,108.9 302.4,87.5 	"/>
	<g>
		<g>
			<path class="st15" d="M56.1,92.3c-0.4,7.5-6.8,13.3-14.4,12.8l-3.3,60.3c7.5,0.4,13.3,6.8,12.8,14.4l148.1,8.2
				c2.5,0.1,4.6-1.8,4.7-4.2l4.4-78.5c0.1-2.5-1.8-4.6-4.2-4.7L56.1,92.3z"/>
			<path class="st12" d="M278.1,178.7l3.3-60.3c-7.5-0.4-13.3-6.8-12.8-14.4l-55.8-3.1c-2.3-0.1-4.3,1.6-4.4,3.9l-4.4,79.1
				c-0.1,2.3,1.6,4.3,3.9,4.4l55.8,3.1C264.2,184,270.6,178.3,278.1,178.7z"/>
			<path class="st16" d="M204.8,100.5l-4-0.2c2.2,0.1,3.8,2.2,3.7,4.7l-4.4,78.5c-0.1,2.5-2,4.4-4.2,4.3l4,0.2
				c2.2,0.1,4-1.8,4.2-4.3l4.4-78.5C208.6,102.7,206.9,100.6,204.8,100.5z"/>
		</g>
	</g>
	<polygon class="st10" points="93.4,91.4 99.8,90.9 104,96 101.2,98.2 96.9,95.9 94.8,96.8 91.3,94.6 	"/>
	<polygon class="st10" points="135.2,92 128.3,94.6 126.6,102 130.6,102.9 133.9,98.4 136.5,98.3 139,94.2 	"/>
	<polygon class="st10" points="268,102.6 269.6,106.1 263.8,108.7 258.4,104.9 261.2,100 	"/>
	<polygon class="st10" points="255.9,101.1 257.5,104.6 251.7,107.2 246.3,103.4 249.1,98.5 	"/>
</g>
<path class="st17" d="M249.6,145.6c-1,0-1.9-0.7-2.2-1.6c-0.3-0.9,0-2,0.8-2.6c0.3-0.2,0.6-0.4,0.9-0.5c2-1.1,4.1-2.2,6.1-3.3
	c0.3-0.1,0.5-0.3,0.8-0.4c1.2-0.4,2.5,0.2,3,1.4c0.4,1,0,2.2-0.9,2.8c-0.2,0.1-0.3,0.2-0.5,0.3c-2.2,1.2-4.3,2.3-6.5,3.5
	C250.6,145.4,250.1,145.6,249.6,145.6z"/>
<path class="st17" d="M227.6,157.6c-0.9-0.1-1.6-0.7-1.9-1.5c-0.3-0.9-0.1-1.7,0.5-2.4c0.2-0.2,0.5-0.4,0.8-0.6
	c2.2-1.2,4.3-2.3,6.5-3.5c0.2-0.1,0.4-0.2,0.6-0.3c0.7-0.3,1.6-0.2,2.2,0.3c1,0.7,1.3,2.1,0.6,3.1c-0.1,0.1-0.2,0.3-0.3,0.4
	c-0.3,0.3-0.7,0.5-1.1,0.7c-1.3,0.7-2.5,1.4-3.8,2.1c-0.9,0.5-1.9,1-2.8,1.5C228.6,157.6,228.1,157.7,227.6,157.6z"/>
<path class="st17" d="M237.5,143.1c0,1.7-1.9,2.8-3.3,2c-0.3-0.1-0.5-0.3-0.8-0.4c-1.9-1.2-3.8-2.4-5.8-3.6
	c-0.3-0.2-0.6-0.4-0.8-0.6c-1-0.8-1.1-2.3-0.3-3.3c0.2-0.3,0.5-0.5,0.9-0.7c0.6-0.3,1.3-0.3,2,0c0.2,0.1,0.4,0.2,0.6,0.4
	c2,1.2,4,2.5,6,3.7c0.2,0.1,0.5,0.3,0.7,0.5C237.2,141.7,237.5,142.4,237.5,143.1z"/>
<path class="st17" d="M256.3,158.2c-0.4,0-0.7-0.1-1.1-0.3c-0.5-0.3-1.1-0.6-1.6-1c-1.6-1-3.2-2-4.8-3c-0.3-0.2-0.6-0.4-0.9-0.7
	c-1.2-1.1-0.9-3.2,0.9-3.9c0.6-0.2,1.2-0.2,1.7,0.1c0.3,0.2,0.7,0.4,1,0.6c1.8,1.1,3.5,2.2,5.3,3.3c0.4,0.2,0.7,0.5,1.1,0.7
	c1,0.8,1.2,2.3,0.4,3.3c-0.2,0.3-0.5,0.5-0.8,0.7C257.1,158.2,256.7,158.2,256.3,158.2z"/>
<path class="st17" d="M240.2,134.8c0-1.3,0.1-2.7,0.1-4c0-0.7,0.4-1.3,0.9-1.7c0.7-0.5,1.6-0.6,2.3-0.3c0.8,0.3,1.3,1,1.4,1.9
	c0,0.2,0,0.4,0,0.6c-0.1,2.5-0.1,5.1-0.2,7.6c0,0.5-0.1,1-0.4,1.4c-0.6,0.9-1.6,1.3-2.6,1c-1-0.3-1.6-1.1-1.7-2.1c0-0.8,0-1.5,0-2.3
	C240.2,136.1,240.2,135.5,240.2,134.8L240.2,134.8z"/>
<path class="st17" d="M239.8,159.3c0-1.3,0.1-2.6,0.1-3.9c0-0.4,0.1-0.9,0.3-1.2c0.6-0.9,1.6-1.3,2.6-1c1,0.3,1.6,1.1,1.7,2.1
	c0,0.3,0,0.6,0,0.9c-0.1,2.3-0.1,4.5-0.2,6.8c0,0.3,0,0.6,0,0.9c-0.2,1.3-1.4,2.1-2.7,2c-1.1-0.2-1.9-1-2-2.1c0-0.3,0-0.6,0-0.9
	C239.8,161.6,239.8,160.5,239.8,159.3L239.8,159.3z"/>
<path class="st17" d="M224.9,144.8c0.6,0,1.1,0,1.7,0c1.2,0,2.2,1.1,2.2,2.3c0,0,0,0,0,0c0,1.4-1.1,2.2-2.3,2.3c0,0-0.1,0-0.1,0
	c-1.1,0-2.2-0.1-3.3-0.1c-0.3,0-0.6-0.1-0.8-0.2c-1-0.4-1.6-1.5-1.3-2.6c0.1-0.8,0.9-1.8,2.1-1.8
	C223.6,144.7,224.2,144.7,224.9,144.8L224.9,144.8z"/>
<path class="st17" d="M236.9,133.6c0,1-0.6,1.7-1.6,2.1c-1,0.4-2.1-0.1-2.6-0.8c-0.1-0.2-0.3-0.4-0.4-0.6c-0.4-0.7-0.8-1.5-1.3-2.3
	c-0.1-0.2-0.2-0.4-0.3-0.6c-0.5-1.1,0.2-2.4,1.1-2.8c1-0.5,2.3-0.3,3,0.6c0.1,0.1,0.2,0.2,0.2,0.4c0.5,0.9,1,1.8,1.5,2.8
	C236.8,132.7,236.9,133.1,236.9,133.6z"/>
<path class="st17" d="M236.4,160.5c0,0.4-0.1,0.9-0.4,1.2c-0.6,0.9-1.1,1.8-1.7,2.7c-0.1,0.2-0.2,0.3-0.4,0.5
	c-0.6,0.6-1.4,0.9-2.2,0.7c-0.8-0.2-1.5-0.8-1.7-1.6c-0.2-0.6-0.1-1.3,0.2-1.8c0.6-1,1.2-2,1.9-3c1.2-1.6,3.2-1.1,3.9,0.3
	C236.4,159.8,236.5,160.2,236.4,160.5z"/>
<path class="st17" d="M251.5,166.4c-0.7,0-1.4-0.3-1.9-0.9c-0.1-0.1-0.1-0.2-0.2-0.2c-0.6-1.1-1.1-2.1-1.6-3.2c-0.5-1.2,0-2.4,1.1-3
	c0.9-0.4,2.1-0.2,2.7,0.6c0.1,0.1,0.2,0.3,0.3,0.5c0.5,0.9,1,1.9,1.5,2.8c0.1,0.1,0.1,0.3,0.2,0.4
	C254.3,164.7,253.2,166.4,251.5,166.4z"/>
<path class="st17" d="M250.5,136c-1.7,0-2.8-1.9-2.1-3.3c0.2-0.5,0.5-0.9,0.8-1.4c0.4-0.6,0.7-1.3,1.1-1.8c0.5-0.7,1.4-1.1,2.2-1
	c1.6,0.2,2.4,1.9,1.9,3.1c-0.1,0.1-0.1,0.3-0.2,0.4c-0.6,0.9-1.1,1.9-1.7,2.8c-0.2,0.3-0.5,0.6-0.8,0.8
	C251.3,135.9,250.9,136.1,250.5,136z"/>
<path class="st17" d="M259.9,149.9c-0.6,0-1.2,0-1.7,0c-1.3-0.1-2.2-1.3-2.1-2.5c0.1-0.9,0.7-1.7,1.5-2c0.2-0.1,0.4-0.1,0.6-0.1
	c1.2,0,2.4,0,3.6,0.1c1.2,0.1,2.1,1.2,2.1,2.4c0,1.2-1,2.2-2.2,2.3C261.1,150,260.5,149.9,259.9,149.9L259.9,149.9z"/>
<path class="st18" d="M82.7,31.3l38.2-9.2l-0.9-3.6c-0.5-2-2.5-3.2-4.4-2.7l-31,7.5c-2,0.5-3.2,2.5-2.7,4.4L82.7,31.3z"/>
<path class="st18" d="M101.6,19.2l14-3.4c2-0.5,4,0.7,4.4,2.7l0.9,3.6l-10.4,2.5L101.6,19.2z"/>
<path class="st15" d="M88.7,56.3c0.5,2,2.5,3.2,4.4,2.7l31-7.5c2-0.5,3.2-2.5,2.7-4.4l-6-25.1l-38.2,9.2L88.7,56.3z"/>
<rect x="103.5" y="30.7" transform="matrix(0.9723 -0.2339 0.2339 0.9723 -4.864 25.8578)" class="st12" width="6.1" height="5.5"/>
<g class="st19">
	<rect x="105.7" y="37.1" transform="matrix(0.9723 -0.2339 0.2339 0.9723 -6.3048 26.5446)" width="6.1" height="5.5"/>
	<rect x="98.5" y="38.8" transform="matrix(0.9723 -0.2339 0.2339 0.9723 -6.9062 24.9182)" width="6.1" height="5.5"/>
	<rect x="111.3" y="28.7" transform="matrix(0.9723 -0.2339 0.2339 0.9723 -4.1875 27.6876)" width="6.7" height="5.5"/>
	<rect x="96.9" y="32.3" transform="matrix(0.9723 -0.2339 0.2339 0.9723 -5.4153 24.3669)" width="6.1" height="5.5"/>
</g>
<rect x="100.2" y="45.4" transform="matrix(0.9723 -0.2339 0.2339 0.9723 -8.4649 25.4945)" class="st12" width="6.1" height="6.1"/>
<g class="st19">
	<rect x="91.4" y="40.5" transform="matrix(0.9723 -0.2339 0.2339 0.9723 -7.5076 23.2917)" width="6.1" height="5.5"/>
	<rect x="89.8" y="34" transform="matrix(0.9723 -0.2339 0.2339 0.9723 -6.0167 22.7405)" width="6.1" height="5.5"/>
	<rect x="93" y="47.1" transform="matrix(0.9723 -0.2339 0.2339 0.9723 -9.0663 23.8681)" width="6.1" height="6.1"/>
	<rect x="112.8" y="35.3" transform="matrix(0.9723 -0.2339 0.2339 0.9723 -5.6784 28.2389)" width="6.7" height="5.5"/>
	<rect x="114.5" y="41.8" transform="matrix(0.9723 -0.2339 0.2339 0.9723 -7.2371 28.8152)" width="6.7" height="6.1"/>
	<rect x="107.3" y="43.6" transform="matrix(0.9723 -0.2339 0.2339 0.9723 -7.8635 27.121)" width="6.1" height="6.1"/>
</g>
<g>
	<path class="st20" d="M111.5,19.9c0.2,1,1.2,1.6,2.2,1.4l0,0c1-0.2,1.6-1.2,1.4-2.2l-0.9-3.6c-0.2-1-1.2-1.6-2.2-1.4l0,0
		c-1,0.2-1.6,1.2-1.4,2.2L111.5,19.9z"/>
	<path class="st20" d="M86.5,26c0.2,1,1.2,1.6,2.2,1.4l0,0c1-0.2,1.6-1.2,1.4-2.2l-0.9-3.6c-0.2-1-1.2-1.6-2.2-1.4l0,0
		c-1,0.2-1.6,1.2-1.4,2.2L86.5,26z"/>
	<path class="st20" d="M99,23c0.2,1,1.2,1.6,2.2,1.4l0,0c1-0.2,1.6-1.2,1.4-2.2l-0.9-3.6c-0.2-1-1.2-1.6-2.2-1.4l0,0
		c-1,0.2-1.6,1.2-1.4,2.2L99,23z"/>
</g>
</svg>
