<?xml version="1.0" encoding="utf-8"?>
<!-- Generator: Adobe Illustrator 21.0.0, SVG Export Plug-In . SVG Version: 6.00 Build 0)  -->
<svg version="1.1" id="Layer_1" xmlns="http://www.w3.org/2000/svg" xmlns:xlink="http://www.w3.org/1999/xlink" x="0px" y="0px"
	 viewBox="0 0 349 249" style="enable-background:new 0 0 349 249;" xml:space="preserve">
<style type="text/css">
	.st0{fill:#001928;}
	.st1{fill:#E4DAEE;}
	.st2{fill:#EBB044;}
	.st3{fill:#FFFFFF;}
	.st4{fill:#E8C5BF;}
	.st5{fill:url(#SVGID_1_);}
	.st6{fill:#43C0B5;}
	.st7{fill:#0F1F2C;}
	.st8{fill:#F89F22;}
	.st9{fill:#E4253C;}
	.st10{fill:url(#SVGID_2_);}
	.st11{filter:url(#Adobe_OpacityMaskFilter);}
	.st12{filter:url(#Adobe_OpacityMaskFilter_1_);}
	.st13{mask:url(#XMLID_2_);fill:url(#XMLID_3_);}
	.st14{opacity:0.22;fill:url(#XMLID_4_);}
	.st15{filter:url(#Adobe_OpacityMaskFilter_2_);}
	.st16{filter:url(#Adobe_OpacityMaskFilter_3_);}
	.st17{mask:url(#XMLID_5_);fill:url(#XMLID_6_);}
	.st18{opacity:0.22;fill:url(#XMLID_7_);}
	.st19{filter:url(#Adobe_OpacityMaskFilter_4_);}
	.st20{filter:url(#Adobe_OpacityMaskFilter_5_);}
	.st21{mask:url(#XMLID_8_);fill:url(#XMLID_9_);}
	.st22{opacity:0.22;fill:url(#XMLID_11_);}
	.st23{fill:#E8DBCE;}
	.st24{fill:#1A1A1A;}
	.st25{filter:url(#Adobe_OpacityMaskFilter_6_);}
	.st26{filter:url(#Adobe_OpacityMaskFilter_7_);}
	.st27{mask:url(#XMLID_12_);fill:url(#XMLID_14_);}
	.st28{opacity:0.22;fill:url(#XMLID_15_);}
	.st29{fill:#564A47;}
	.st30{fill:#333333;}
	.st31{fill:#3D322B;}
	.st32{fill:#CACACA;}
	.st33{fill:#736357;}
	.st34{fill:#F0E5D4;}
	.st35{fill:#F0F0F0;}
	.st36{filter:url(#Adobe_OpacityMaskFilter_8_);}
	.st37{filter:url(#Adobe_OpacityMaskFilter_9_);}
	.st38{mask:url(#XMLID_16_);fill:url(#XMLID_17_);}
	.st39{opacity:0.22;fill:url(#XMLID_18_);}
	.st40{fill:#666666;}
	.st41{filter:url(#Adobe_OpacityMaskFilter_10_);}
	.st42{filter:url(#Adobe_OpacityMaskFilter_11_);}
	.st43{mask:url(#XMLID_19_);fill:url(#XMLID_20_);}
	.st44{opacity:0.22;fill:url(#XMLID_21_);}
	.st45{fill:#414141;}
	.st46{filter:url(#Adobe_OpacityMaskFilter_12_);}
	.st47{filter:url(#Adobe_OpacityMaskFilter_13_);}
	.st48{mask:url(#XMLID_22_);fill:url(#XMLID_23_);}
	.st49{opacity:0.22;fill:url(#XMLID_24_);}
	.st50{fill:#E7FFE7;}
</style>
<path class="st0" d="M126.2,230.6c17.8,2.3,35.8,2.6,53.7,3.3c8.2,0.3,16.3-0.1,23.9,2.9c7.1,2.8,12.8,8.3,20.1,10.7
	c5.7,1.8,11.8,1.8,17.8,1.1c25.1-2.9,48.8-16.9,63.4-37.5c13.4-18.9,19-43.1,15.5-66c-2.1-13.9-8.5-26.8-10-40.8
	c-1.6-14.8,4-27.7,7.6-41.8c2.5-9.8,3.6-20,3.2-30.1c-0.2-5.8-0.9-11.8-3.7-16.9c-7.5-14-26.4-16.6-42.1-15
	c-19.5,1.9-39,8-56.1,17.4c-13.5,7.5-27,18.4-42.5,21.3c-17.5,3.3-31.1-8.7-46.9-14.2C94.5,12.7,51.7,36.9,36,69.1
	c-19.3,39.8-17.1,104.8,19,134.3c19.7,16.1,45.1,23.7,70.3,27C125.6,230.5,125.9,230.5,126.2,230.6z"/>
<g id="XMLID_2021_">
	<g id="XMLID_2022_">
		
			<rect x="47.7" y="48.3" transform="matrix(4.539933e-02 -0.999 0.999 4.539933e-02 -24.2595 115.7079)" class="st1" width="1.5" height="44.5"/>
	</g>
</g>
<g id="XMLID_2019_">
	<g id="XMLID_2020_">
		
			<rect x="53.8" y="23.2" transform="matrix(0.7997 -0.6004 0.6004 0.7997 -19.1442 42.7513)" class="st1" width="1.5" height="53.7"/>
	</g>
</g>
<g id="XMLID_2016_">
	<g id="XMLID_2018_">
		<polygon class="st2" points="201.1,101.1 201.3,97.7 202.7,97.6 203.1,99.9 203.8,99.6 203.3,102.5 201.8,102.7 		"/>
	</g>
</g>
<g id="XMLID_1992_">
	<g id="XMLID_1993_">
		<polygon class="st3" points="108.1,113.5 111.4,118.1 112.9,118 115.5,113.3 		"/>
	</g>
</g>
<g id="XMLID_1990_">
	<g id="XMLID_1991_">
		
			<rect x="265.7" y="5" transform="matrix(0.1321 -0.9912 0.9912 0.1321 199.5465 291.7587)" class="st1" width="1.5" height="53.8"/>
	</g>
</g>
<g id="XMLID_1988_">
	<g id="XMLID_1989_">
		
			<rect x="88.9" y="64.7" transform="matrix(0.6841 -0.7293 0.7293 0.6841 -46.8691 97.9378)" class="st1" width="1.5" height="76.8"/>
	</g>
</g>
<g id="XMLID_1986_">
	<g id="XMLID_1987_">
		
			<rect x="274" y="13.6" transform="matrix(0.5612 -0.8277 0.8277 0.5612 74.7286 251.6653)" class="st1" width="1.5" height="83.5"/>
	</g>
</g>
<g id="XMLID_1944_">
	<g id="XMLID_1955_">
		<g id="XMLID_1957_">
			<polygon class="st4" points="275,147.7 273.4,147.4 271.7,149.8 272.6,151.5 274.6,151.8 275.3,149.4 			"/>
		</g>
	</g>
	<g id="XMLID_1945_">
		<g id="XMLID_1947_">
			<polygon class="st4" points="316.3,100.8 318.3,101.4 320.8,98.6 319.9,96.3 317.6,95.6 316.3,98.6 			"/>
		</g>
	</g>
</g>
<g id="XMLID_1942_">
	<g id="XMLID_1943_">
		
			<rect x="110.7" y="106.3" transform="matrix(0.8219 -0.5697 0.5697 0.8219 -34.2961 104.4006)" class="st1" width="78.3" height="1.5"/>
	</g>
</g>
<g id="XMLID_1940_">
	<g id="XMLID_1941_">
		
			<rect x="147.8" y="24.7" transform="matrix(0.5271 -0.8498 0.8498 0.5271 15.8423 156.5368)" class="st1" width="1.5" height="78.6"/>
	</g>
</g>
<g id="XMLID_1938_">
	<g id="XMLID_1939_">
		
			<rect x="119.1" y="16.5" transform="matrix(9.446931e-02 -0.9955 0.9955 9.446931e-02 30.0381 190.7345)" class="st1" width="1.5" height="124.8"/>
	</g>
</g>
<g id="XMLID_1936_">
	<g id="XMLID_1937_">
		<rect x="169" y="55.8" transform="matrix(0.7292 -0.6843 0.6843 0.7292 18.2031 159.12)" class="st1" width="82.4" height="1.5"/>
	</g>
</g>
<g id="XMLID_1934_">
	<g id="XMLID_1935_">
		
			<rect x="219.1" y="63.2" transform="matrix(0.5457 -0.838 0.838 0.5457 7.1671 234.4784)" class="st1" width="1.5" height="94.8"/>
	</g>
</g>
<g id="XMLID_1932_">
	<g id="XMLID_1933_">
		
			<rect x="181.9" y="80.2" transform="matrix(0.9995 -3.261174e-02 3.261174e-02 0.9995 -2.5066 8.0998)" class="st1" width="130.2" height="1.5"/>
	</g>
</g>
<g id="XMLID_1931_">
	<linearGradient id="SVGID_1_" gradientUnits="userSpaceOnUse" x1="137.4195" y1="78.8555" x2="215.961" y2="78.8555">
		<stop  offset="0" style="stop-color:#E4253C"/>
		<stop  offset="1" style="stop-color:#A52B31"/>
	</linearGradient>
	<circle class="st5" cx="176.7" cy="78.9" r="39.3"/>
</g>
<g id="XMLID_1930_">
	<circle class="st6" cx="113.8" cy="38.9" r="18.4"/>
</g>
<g id="XMLID_1929_">
	<path class="st7" d="M49.2,71.6c0-11.5,9.4-20.9,20.9-20.9c11.5,0,22,9.4,22,20.9c0,11.5-10.4,20.9-22,20.9
		C58.5,92.5,49.2,83.1,49.2,71.6z"/>
</g>
<g id="XMLID_1928_">
	<circle class="st6" cx="120.4" cy="129.3" r="16.5"/>
</g>
<path class="st8" d="M239.7,11.5c10.1,0,18.2,8.2,18.2,18.2c0,10.1-8.2,18.2-18.2,18.2c-10.1,0-18.2-8.2-18.2-18.2
	C221.5,19.7,229.6,11.5,239.7,11.5"/>
<g id="XMLID_1926_">
	<circle class="st7" cx="259.6" cy="134.4" r="19.9"/>
</g>
<g id="XMLID_1925_">
	<circle class="st6" cx="309.3" cy="78.8" r="22.5"/>
</g>
<g id="XMLID_1924_">
	<circle class="st9" cx="293.1" cy="35.5" r="11.1"/>
</g>
<g id="XMLID_1923_">
	<linearGradient id="SVGID_2_" gradientUnits="userSpaceOnUse" x1="28.3145" y1="28.5785" x2="50.5794" y2="28.5785">
		<stop  offset="0" style="stop-color:#E4253C"/>
		<stop  offset="1" style="stop-color:#A52B31"/>
	</linearGradient>
	<circle class="st10" cx="39.4" cy="28.6" r="11.1"/>
</g>
<g id="XMLID_1922_">
	<circle class="st8" cx="26.2" cy="69.5" r="12.2"/>
</g>
<g id="XMLID_1921_">
	<circle class="st8" cx="60.2" cy="126.4" r="13.6"/>
</g>
<defs>
	<filter id="Adobe_OpacityMaskFilter" filterUnits="userSpaceOnUse" x="210.5" y="221.3" width="44.5" height="3">
		<feFlood  style="flood-color:white;flood-opacity:1" result="back"/>
		<feBlend  in="SourceGraphic" in2="back" mode="normal"/>
	</filter>
</defs>
<mask maskUnits="userSpaceOnUse" x="210.5" y="221.3" width="44.5" height="3" id="XMLID_2_">
	<g class="st11">
		<defs>
			<filter id="Adobe_OpacityMaskFilter_1_" filterUnits="userSpaceOnUse" x="210.5" y="221.3" width="44.5" height="3">
				<feFlood  style="flood-color:white;flood-opacity:1" result="back"/>
				<feBlend  in="SourceGraphic" in2="back" mode="normal"/>
			</filter>
		</defs>
		<mask maskUnits="userSpaceOnUse" x="210.5" y="221.3" width="44.5" height="3" id="XMLID_2_">
			<g class="st12">
			</g>
		</mask>
		
			<linearGradient id="XMLID_3_" gradientUnits="userSpaceOnUse" x1="703.273" y1="226.6359" x2="726.4415" y2="226.6359" gradientTransform="matrix(1.919 -5.460000e-02 2.840000e-02 0.9996 -1145.5664 35.3409)">
			<stop  offset="0" style="stop-color:#FFFFFF"/>
			<stop  offset="1" style="stop-color:#000000"/>
		</linearGradient>
		<path id="XMLID_121_" class="st13" d="M254.1,222.8c0.9-0.3,1.1-0.7,0.4-1.1c-0.6-0.4-2.3-0.2-3.1-0.2c-3.7-0.1-7.3-0.2-11-0.1
			c-7.4,0-14.8,0.3-22.1,0.8c-1.1,0.1-9,0.4-7.7,1.7c0.7,0.7,3.8,0.3,5,0.2c2.5,0,5.1,0,7.6,0c5.1,0,10.1,0,15.2-0.1
			C239.5,224.1,250.9,223.9,254.1,222.8z"/>
	</g>
</mask>
<linearGradient id="XMLID_4_" gradientUnits="userSpaceOnUse" x1="703.273" y1="226.6359" x2="726.4415" y2="226.6359" gradientTransform="matrix(1.919 -5.460000e-02 2.840000e-02 0.9996 -1145.5664 35.3409)">
	<stop  offset="0" style="stop-color:#000000"/>
	<stop  offset="1" style="stop-color:#000000"/>
</linearGradient>
<path id="XMLID_3982_" class="st14" d="M254.1,222.8c0.9-0.3,1.1-0.7,0.4-1.1c-0.6-0.4-2.3-0.2-3.1-0.2c-3.7-0.1-7.3-0.2-11-0.1
	c-7.4,0-14.8,0.3-22.1,0.8c-1.1,0.1-9,0.4-7.7,1.7c0.7,0.7,3.8,0.3,5,0.2c2.5,0,5.1,0,7.6,0c5.1,0,10.1,0,15.2-0.1
	C239.5,224.1,250.9,223.9,254.1,222.8z"/>
<defs>
	<filter id="Adobe_OpacityMaskFilter_2_" filterUnits="userSpaceOnUse" x="151" y="221.2" width="44.5" height="3">
		<feFlood  style="flood-color:white;flood-opacity:1" result="back"/>
		<feBlend  in="SourceGraphic" in2="back" mode="normal"/>
	</filter>
</defs>
<mask maskUnits="userSpaceOnUse" x="151" y="221.2" width="44.5" height="3" id="XMLID_5_">
	<g class="st15">
		<defs>
			<filter id="Adobe_OpacityMaskFilter_3_" filterUnits="userSpaceOnUse" x="151" y="221.2" width="44.5" height="3">
				<feFlood  style="flood-color:white;flood-opacity:1" result="back"/>
				<feBlend  in="SourceGraphic" in2="back" mode="normal"/>
			</filter>
		</defs>
		<mask maskUnits="userSpaceOnUse" x="151" y="221.2" width="44.5" height="3" id="XMLID_5_">
			<g class="st16">
			</g>
		</mask>
		
			<linearGradient id="XMLID_6_" gradientUnits="userSpaceOnUse" x1="672.3384" y1="224.7999" x2="695.5068" y2="224.7999" gradientTransform="matrix(1.919 -5.460000e-02 2.840000e-02 0.9996 -1145.5664 35.3409)">
			<stop  offset="0" style="stop-color:#FFFFFF"/>
			<stop  offset="1" style="stop-color:#000000"/>
		</linearGradient>
		<path id="XMLID_119_" class="st17" d="M194.7,222.6c0.9-0.3,1.1-0.7,0.4-1.1c-0.6-0.4-2.3-0.2-3.1-0.2c-3.7-0.1-7.3-0.2-11-0.1
			c-7.4,0-14.8,0.3-22.1,0.8c-1.1,0.1-9,0.4-7.7,1.7c0.7,0.7,3.8,0.3,5,0.2c2.5,0,5.1,0,7.6,0c5.1,0,10.1,0,15.2-0.1
			C180.1,223.9,191.5,223.7,194.7,222.6z"/>
	</g>
</mask>
<linearGradient id="XMLID_7_" gradientUnits="userSpaceOnUse" x1="672.3384" y1="224.7999" x2="695.5068" y2="224.7999" gradientTransform="matrix(1.919 -5.460000e-02 2.840000e-02 0.9996 -1145.5664 35.3409)">
	<stop  offset="0" style="stop-color:#000000"/>
	<stop  offset="1" style="stop-color:#000000"/>
</linearGradient>
<path id="XMLID_3980_" class="st18" d="M194.7,222.6c0.9-0.3,1.1-0.7,0.4-1.1c-0.6-0.4-2.3-0.2-3.1-0.2c-3.7-0.1-7.3-0.2-11-0.1
	c-7.4,0-14.8,0.3-22.1,0.8c-1.1,0.1-9,0.4-7.7,1.7c0.7,0.7,3.8,0.3,5,0.2c2.5,0,5.1,0,7.6,0c5.1,0,10.1,0,15.2-0.1
	C180.1,223.9,191.5,223.7,194.7,222.6z"/>
<defs>
	<filter id="Adobe_OpacityMaskFilter_4_" filterUnits="userSpaceOnUse" x="114.2" y="222.5" width="35.2" height="2.4">
		<feFlood  style="flood-color:white;flood-opacity:1" result="back"/>
		<feBlend  in="SourceGraphic" in2="back" mode="normal"/>
	</filter>
</defs>
<mask maskUnits="userSpaceOnUse" x="114.2" y="222.5" width="35.2" height="2.4" id="XMLID_8_">
	<g class="st19">
		<defs>
			<filter id="Adobe_OpacityMaskFilter_5_" filterUnits="userSpaceOnUse" x="114.2" y="222.5" width="35.2" height="2.4">
				<feFlood  style="flood-color:white;flood-opacity:1" result="back"/>
				<feBlend  in="SourceGraphic" in2="back" mode="normal"/>
			</filter>
		</defs>
		<mask maskUnits="userSpaceOnUse" x="114.2" y="222.5" width="35.2" height="2.4" id="XMLID_8_">
			<g class="st20">
			</g>
		</mask>
		
			<linearGradient id="XMLID_9_" gradientUnits="userSpaceOnUse" x1="653.1193" y1="224.6486" x2="671.4794" y2="224.6486" gradientTransform="matrix(1.919 -5.460000e-02 2.840000e-02 0.9996 -1145.5664 35.3409)">
			<stop  offset="0" style="stop-color:#FFFFFF"/>
			<stop  offset="1" style="stop-color:#000000"/>
		</linearGradient>
		<path id="XMLID_117_" class="st21" d="M148.7,223.7c0.7-0.2,0.9-0.5,0.3-0.9c-0.5-0.3-1.8-0.1-2.4-0.1c-2.9-0.1-5.8-0.1-8.7-0.1
			c-5.8,0-11.7,0.2-17.5,0.7c-0.9,0.1-7.1,0.3-6.1,1.4c0.5,0.5,3,0.2,3.9,0.2c2,0,4,0,6,0c4,0,8,0,12,0
			C137.2,224.7,146.2,224.5,148.7,223.7z"/>
	</g>
</mask>
<linearGradient id="XMLID_11_" gradientUnits="userSpaceOnUse" x1="653.1193" y1="224.6486" x2="671.4794" y2="224.6486" gradientTransform="matrix(1.919 -5.460000e-02 2.840000e-02 0.9996 -1145.5664 35.3409)">
	<stop  offset="0" style="stop-color:#000000"/>
	<stop  offset="1" style="stop-color:#000000"/>
</linearGradient>
<path id="XMLID_3965_" class="st22" d="M148.7,223.7c0.7-0.2,0.9-0.5,0.3-0.9c-0.5-0.3-1.8-0.1-2.4-0.1c-2.9-0.1-5.8-0.1-8.7-0.1
	c-5.8,0-11.7,0.2-17.5,0.7c-0.9,0.1-7.1,0.3-6.1,1.4c0.5,0.5,3,0.2,3.9,0.2c2,0,4,0,6,0c4,0,8,0,12,0
	C137.2,224.7,146.2,224.5,148.7,223.7z"/>
<g id="XMLID_3952_">
	<path id="XMLID_3960_" class="st7" d="M136.4,192.5c-0.5-8.3,0.5-16.7,0.4-25c0.3-2.9-0.2-5.8-1.4-8.5c-0.1-0.2-0.2-0.3-0.3-0.5
		c-0.5-0.4-1.3-0.2-1.9,0c-6,2-13,1.6-18.5-1.3c-1.1,1.4-1.4,3-1.7,4.6c-0.4,2.6-0.9,5.2-1,7.8c0,0,0,0,0,0l0,0c0,0.6,0,1.1,0,1.7
		c0.1,3.2,0.8,6.5,1.4,9.7c0.4,2.1,0.7,4.2,0.8,6.3c0,1.7-0.3,3.3,0.2,5c1.2,4.2,1.2,8.7,1.6,13c0.5,4.6,1,9.1,1.5,13.7
		c0,0.2,0,0.4,0.1,0.5c0.3,0.1,4.5,0.9,4.5,0c0.3-8.9,0.7-17.8,1-26.7c0.1-3.7-0.2-16.4,1-19.9c0.5,0,0.9,0.1,1.4,0.1
		c2.6,11.8,5.7,32.4,8.3,44.1c0.2,1,0.5,2.2,1.3,2.8c0.8,0.7,2.4,0.5,2.6-0.6C136.9,210.4,136.8,201.4,136.4,192.5z"/>
	<path id="XMLID_3959_" class="st23" d="M128.7,112.1c0-3-2.6-5.5-5.9-5.5c-3.3,0-5.9,2.5-5.9,5.5c0,0.5,0.1,1,0.2,1.5
		c0,0.1,0,0.2,0,0.4c0,1.1,0,2.2,0.2,3.3c0.4,2.1,1.5,4.1,3.6,5.3c0.7,0.4,1.5,0.7,2.3,0.7c1.1,0,2.1-0.6,2.9-1.3
		c2.5-2.3,2.8-5.8,2.6-9.1C128.7,112.5,128.7,112.3,128.7,112.1z"/>
	<path id="XMLID_3956_" class="st9" d="M137,163.9c0-5.7,0-11.4-0.1-17.1c0-4.8-1.1-9.9-1.8-14.6c-0.4-2.6-0.9-3.5-2-5.8
		c-0.2-0.3-0.2-0.6-1.8-1.1c-0.3-0.1-1.1-0.6-1.6-0.5c-2,0.3-4.1-0.4-6.2-0.1c-2.2,0.4-5.8-0.7-7.5,0.7c-2.3,2-2.4,6.7-2.8,9.8
		c-0.5,4.2-1.6,8.4-1.9,12.6c-0.2,3.7-0.3,7.4-0.3,11.1c0,1.9-0.7,8.6,1,9.9c1,0.8,3.7,1.1,6.5,1.2c0.1,0,0.2,0,0.3,0
		c0,0,0.1,0,0.1,0c1.1,0,2.3,0,3.3,0c1.5,0,2.8-0.1,3.5-0.2c3.3-0.3,6.5-1,9.7-1.7c0.6-0.1,1.2-0.3,1.5-0.8
		C137.2,167.2,137,164.3,137,163.9z"/>
	<path id="XMLID_3955_" class="st24" d="M119.3,223.6c-0.4,0.3,0.1,0.6,0.4,0.6c0.5,0,1,0,1.4-0.1c0.1,0,0.3-0.1,0.4-0.1
		c0.1-0.1,0.1-0.1,0.2-0.2c0.2-0.2,0.5-0.6,0.6-0.9c0-0.2-0.1-0.4-0.2-0.6c-0.2-0.4-0.6-0.9-0.6-1.4c-1,0.1-2-0.2-2.9,0
		c-0.1,0.4-0.3,0.7-0.2,0.9c-0.1-0.2-2.6,0.4-2.9,0.5c-0.5,0.1-1,0.2-1.4,0.2c-0.4,0-1.1-0.1-1.3,0.2c-0.1,0.1-0.1,0.3-0.1,0.4
		c0,0.1,0,0.2,0,0.3c0.1,0.2,0.2,0.3,0.4,0.4C115.2,224.8,117.2,223.6,119.3,223.6z"/>
	<path id="XMLID_3954_" class="st24" d="M136.7,223.1c0.4,0.4-0.1,0.7-0.4,0.7c-0.5,0.1-0.9,0-1.4-0.1c-0.1,0-0.2-0.1-0.3-0.2
		c-0.1-0.1-0.1-0.2-0.2-0.2c-0.2-0.2-0.5-0.6-0.6-0.9c0-0.2,0.1-0.5,0.2-0.7c0.2-0.5,0.6-1.3,0.6-1.8c1,0.1,2.5,0.1,3.3,0.4
		c-0.2,0.4-0.2,0.7-0.3,1c0.1-0.2,2.5,0.5,2.8,0.5c0.5,0.1,0.9,0.2,1.4,0.2c0.4,0,1.1-0.2,1.3,0.3c0.1,0.1,0.1,0.3,0.1,0.5
		c0,0.1,0,0.3,0,0.4c-0.1,0.2-0.2,0.4-0.4,0.4C140.7,224.3,138.8,223.1,136.7,223.1z"/>
	<path id="XMLID_3953_" class="st9" d="M131.5,108.4c-0.1-0.2-0.3-0.5-0.5-0.8c-0.2-1.1-0.6-2.1-1.3-2.7c-0.4-0.4-0.8-0.5-1.3-0.4
		c-0.5-0.2-1-0.3-1.6-0.4c-0.6-0.4-1.2-0.6-1.9-0.8c-3.4-0.7-7.1,0.7-9,3.6c-0.3-1.2-2.6-1.4-2.7,0c-0.2,1.4,0.3,2.7,1.7,3.2
		c1.2,0.5,2,0.1,2.7-0.6c0,0,0.1,0,0.1,0c1.2-0.7,2.5-1.5,3.9-1.9c1,0.4,2.1,1.2,2.9,2c0.5,0.4,1.1,0.9,1.6,1.1
		c0.1,0.2,0.2,0.4,0.3,0.6c0,0.7,0.4,1.5,1.4,1.6c0.4,0,0.7,0,1.1-0.1c0,0.1,0,0.2-0.1,0.3c-0.1,0.4-0.2,1.8-0.6,2
		c-1,0.5-0.9,1.9,0,2.4c0.8,0.5,2.2-0.1,2.1-1.2c0-0.3,0.2-0.8,0.3-1.1c0.1-0.4,0.3-0.7,0.4-1.1c0.1-0.4,0.2-0.8,0.2-1.2
		c0-0.2-0.1-1,0-1.1c0.2-0.3,0.3-0.7,0.1-1c0-0.1,0.1-0.1,0.1-0.2C131.8,109.9,131.8,109.1,131.5,108.4z"/>
</g>
<g>
	<defs>
		<filter id="Adobe_OpacityMaskFilter_6_" filterUnits="userSpaceOnUse" x="250" y="221.3" width="44.5" height="3">
			<feFlood  style="flood-color:white;flood-opacity:1" result="back"/>
			<feBlend  in="SourceGraphic" in2="back" mode="normal"/>
		</filter>
	</defs>
	<mask maskUnits="userSpaceOnUse" x="250" y="221.3" width="44.5" height="3" id="XMLID_12_">
		<g class="st25">
			<defs>
				<filter id="Adobe_OpacityMaskFilter_7_" filterUnits="userSpaceOnUse" x="250" y="221.3" width="44.5" height="3">
					<feFlood  style="flood-color:white;flood-opacity:1" result="back"/>
					<feBlend  in="SourceGraphic" in2="back" mode="normal"/>
				</filter>
			</defs>
			<mask maskUnits="userSpaceOnUse" x="250" y="221.3" width="44.5" height="3" id="XMLID_12_">
				<g class="st26">
				</g>
			</mask>
			
				<linearGradient id="XMLID_14_" gradientUnits="userSpaceOnUse" x1="723.8585" y1="227.7069" x2="747.0269" y2="227.7069" gradientTransform="matrix(1.919 -5.460000e-02 2.840000e-02 0.9996 -1145.5664 35.3409)">
				<stop  offset="0" style="stop-color:#FFFFFF"/>
				<stop  offset="1" style="stop-color:#000000"/>
			</linearGradient>
			<path id="XMLID_105_" class="st27" d="M293.6,222.7c0.9-0.3,1.1-0.7,0.4-1.1c-0.6-0.4-2.3-0.2-3.1-0.2c-3.7-0.1-7.3-0.2-11-0.1
				c-7.4,0-14.8,0.3-22.1,0.8c-1.1,0.1-9,0.4-7.7,1.7c0.7,0.7,3.8,0.3,5,0.2c2.5,0,5.1,0,7.6,0c5.1,0,10.1,0,15.2-0.1
				C279,224,290.5,223.8,293.6,222.7z"/>
		</g>
	</mask>
	
		<linearGradient id="XMLID_15_" gradientUnits="userSpaceOnUse" x1="723.8585" y1="227.7069" x2="747.0269" y2="227.7069" gradientTransform="matrix(1.919 -5.460000e-02 2.840000e-02 0.9996 -1145.5664 35.3409)">
		<stop  offset="0" style="stop-color:#000000"/>
		<stop  offset="1" style="stop-color:#000000"/>
	</linearGradient>
	<path id="XMLID_3981_" class="st28" d="M293.6,222.7c0.9-0.3,1.1-0.7,0.4-1.1c-0.6-0.4-2.3-0.2-3.1-0.2c-3.7-0.1-7.3-0.2-11-0.1
		c-7.4,0-14.8,0.3-22.1,0.8c-1.1,0.1-9,0.4-7.7,1.7c0.7,0.7,3.8,0.3,5,0.2c2.5,0,5.1,0,7.6,0c5.1,0,10.1,0,15.2-0.1
		C279,224,290.5,223.8,293.6,222.7z"/>
	<g id="XMLID_3932_">
		<path id="XMLID_3951_" class="st29" d="M252.1,94.2c0.1-0.5,0.1-1,0-1.5c-0.1-0.5-0.3-1-0.8-1.1c-0.5-0.1-0.8,0.4-1,0.8
			c-0.9,1.9-1.1,4.2-1.2,6.3c-0.5-0.1-0.2,0.2,1.8,0c-0.1-0.9,0.6-1.6,1-2.5c0.4-0.9,1-1.7,0.9-2.7c-0.1,0-0.3,0-0.4,0
			C252.3,93.9,252.2,94,252.1,94.2z"/>
		<path id="XMLID_3950_" class="st7" d="M276.4,192.9c-0.5-8.3,0.5-16.7,0.4-25c0.3-2.9-0.2-5.8-1.4-8.5c-0.1-0.2-0.2-0.3-0.3-0.5
			c-0.5-0.4-1.3-0.2-1.9,0c-6,2-13,1.6-18.5-1.3c-1.1,1.4-1.4,3-1.7,4.6c-0.4,2.6-0.9,5.2-1,7.8c0,0,0,0,0,0l0,0c0,0.6,0,1.1,0,1.7
			c0.1,3.2,0.8,6.5,1.4,9.7c0.4,2.1,0.7,4.2,0.8,6.3c0,1.7-0.3,3.3,0.2,5c1.2,4.2,1.2,8.7,1.6,13c0.5,4.6,1,9.1,1.5,13.7
			c0,0.2,0,0.4,0.1,0.5c0.3,0.1,4.5,0.9,4.5,0c0.3-8.9,0.7-17.8,1-26.7c0.1-3.7-0.2-16.4,1-19.9c0.5,0,0.9,0.1,1.4,0.1
			c2.6,11.8,5.7,32.4,8.3,44.1c0.2,1,0.5,2.2,1.3,2.8c0.8,0.7,2.4,0.5,2.6-0.6C277,210.9,276.9,201.9,276.4,192.9z"/>
		<path id="XMLID_3949_" class="st29" d="M268.8,112.5c0-3.1-2.7-5.5-5.9-5.5c-3.3,0-5.9,2.5-5.9,5.5c0,0.5,0.1,1,0.2,1.5
			c0,0.1,0,0.2,0,0.4c0,1.1,0,2.2,0.2,3.3c0.4,2.1,1.5,4.1,3.6,5.3c0.7,0.4,1.5,0.7,2.3,0.7c1.1,0,2.1-0.6,2.9-1.3
			c2.5-2.3,2.8-5.9,2.6-9.2C268.8,113,268.8,112.7,268.8,112.5z"/>
		<path id="XMLID_3948_" class="st30" d="M260.2,122.9c0.3,0.4,0.6,0.8,1,1c0.5,0.3,1.1,0.4,1.7,0.4c0.7,0,1.5-0.1,2.1-0.5
			c0.4-0.3,1.4-1.1,1.7-1.5c0.9-1.3,1.4-2.3,1.9-3.8c0.1-0.5,0.3-0.9,0.3-1.4c-0.2-0.1-0.4,0-0.5,0.2c-0.1,0.2-0.1,0.3-0.1,0.5
			c0,0.9-0.5,1.8-1,2.6c-0.4,0.7-1.5,1.4-2.1,1.9c-0.6,0.6-1.5,1-2.4,0.9c-0.1,0-0.2,0-0.3-0.1c-0.2-0.1-0.3-0.4-0.4-0.6
			c-0.1-0.2-0.1-0.5-0.4-0.6c-0.2-0.1-0.6,0-0.6,0.2c0,0.1,0.2,0.3,0.2,0.4c0,0.2-0.2,0.3-0.4,0.2c-0.2,0-0.3-0.2-0.4-0.3
			c-0.3-0.3-0.6-0.6-0.9-0.9c-0.1-0.1-0.3-0.2-0.4-0.2C259.4,121.9,259.8,122.4,260.2,122.9z"/>
		<path id="XMLID_3947_" class="st31" d="M261.6,220.1c-1.7-0.1-3.4-0.1-5.1,0.2c-1.3,0.9-2.7,1.6-4.2,2.1c-0.4,0.2-0.9,0.3-1.2,0.6
			c-0.3,0.3-0.5,0.8-0.2,1.1c0.3,0.3,0.7,0.3,1.1,0.3c3.1,0,6.3-0.2,9.4-0.7c0.2,0,0.4-0.1,0.5-0.2c0.1-0.1,0.2-0.2,0.2-0.4
			C262.4,222.1,262.2,221,261.6,220.1z"/>
		<path id="XMLID_3946_" class="st31" d="M276.1,219.1c-1.5,0.2-3,0.5-4.5,1c-1,1-2.1,1.8-3.3,2.5c-0.4,0.2-0.7,0.4-1,0.7
			s-0.2,0.8,0.1,1c0.3,0.2,0.7,0.2,1.1,0.1c2.8-0.5,5.5-1.2,8.2-2.1c0.2-0.1,0.3-0.1,0.4-0.2c0.1-0.1,0.1-0.2,0.1-0.3
			C277.3,220.8,276.9,219.8,276.1,219.1z"/>
		<path id="XMLID_3945_" class="st8" d="M250.9,99c0.1-0.8,0.2-1.9-0.5-2.2c-0.7-0.2-1.3,0.7-1.7,1.4c-0.8,1.7-1.7,3.4-2.5,5.1
			c-1.6,3.3-3.3,6.7-4,10.4c-0.3,1.5-0.3,3.2,0.6,4.2c0.5,0.6,1.3,0.8,2.1,0.9c3.8,0.6,3.4-3.8,4-7.1
			C249.6,107.5,250.3,103.2,250.9,99z"/>
		<path id="XMLID_3944_" class="st30" d="M252.9,170.1c0.4,0.1,0.9,0.1,1.3,0c0.9-0.1,1.7-0.4,2.4-1c0.6-0.5,1-1,1.3-1.6
			c0.6-0.9,1-1.9,1.3-3c-0.1,0-0.2,0-0.3,0c-0.1,0.5-0.3,1-0.5,1.5c-0.4,1.2-1.2,2.6-2.5,3.4c-1.1,0.6-2.4,0.5-3.6,0.4
			c-0.2,0-0.2,0.3,0,0.3c0,0,0,0,0,0c0,0,0-0.1,0.1-0.1C252.4,170,252.7,170.1,252.9,170.1z"/>
		<path id="XMLID_3943_" class="st30" d="M257.8,167.9c0.6-1,1-2.1,1.4-3.3c0,0-0.1,0-0.1,0c-0.3,1-0.7,2-1.3,3
			c-0.4,0.6-0.8,1.2-1.3,1.6c-0.6,0.5-1.5,0.9-2.4,1c-0.4,0.1-0.9,0.1-1.3,0c-0.1,0-0.5-0.2-0.6-0.1c0,0,0,0.1-0.1,0.1
			C254.5,170.5,256.8,169.8,257.8,167.9z"/>
		<path id="XMLID_3942_" class="st8" d="M277.1,164.3c0-5.7,0-11.4-0.1-17.1c0-4.8-1.1-9.9-1.8-14.6c-0.4-2.6-0.9-3.5-2-5.8
			c-0.2-0.3-0.2-0.6-1.8-1.1c-0.3-0.1-1.1-0.6-1.6-0.5c-2,0.3-4.1-0.4-6.2-0.1c-2.2,0.4-5.8-0.7-7.5,0.7c-2.3,2-2.4,6.7-2.8,9.8
			c-0.5,4.2-1.6,8.4-1.9,12.6c-0.2,3.7-0.3,7.4-0.3,11.1c0,1.9-0.7,8.6,1,9.9c1,0.8,3.7,1.1,6.5,1.2c0.1,0,0.2,0,0.3,0
			c0,0,0.1,0,0.1,0c1.1,0,2.3,0,3.3,0c1.5,0,2.8-0.1,3.5-0.2c3.3-0.3,6.5-1,9.7-1.7c0.6-0.1,1.2-0.3,1.5-0.8
			C277.3,167.6,277.1,164.8,277.1,164.3z"/>
		<path id="XMLID_3941_" class="st8" d="M252.3,134.9c0.8,0.9,1.8,1.7,2.8,2c1.1,0.3,2.3-0.2,2.6-1.4c0.3-1.1-0.1-2.3-0.6-3.4
			c-1.2-2.7-2.7-5.3-4.2-7.8c-1.6-2.7-3.1-5.3-4.7-8c-0.5-0.8-1-1.7-1.7-2.1c-1.3-0.8-4.1,0.3-4.3,2.1c-0.1,1.6,2.1,5.3,2.7,6.8
			C246.9,127.5,249.2,131.7,252.3,134.9z"/>
		<path id="XMLID_3940_" class="st8" d="M262.8,126c0.1-0.1,0.2-0.3,0.1-0.4c0-0.1-0.2-0.2-0.3-0.2c-0.6-0.2-1.1-0.4-1.7-0.6
			c-0.2-0.1-0.4-0.1-0.6,0c-0.1,0-0.2,0.1-0.2,0.2c-0.4,0.5-0.7,0.9-1.1,1.4c-0.1,0.1-0.1,0.2-0.1,0.2c0,0.1,0.1,0.2,0.2,0.3
			c0.4,0.4,0.7,0.8,1.1,1.2c0.2,0.3,0.5,1,1,0.7c0.4-0.2,0.5-0.9,0.7-1.3C262.2,126.9,262.5,126.4,262.8,126z"/>
		<path id="XMLID_3939_" class="st8" d="M264.8,127.8c0.1,0.3,0.1,0.6,0.2,0.9c0,0,0,0.1,0.1,0.1c0.1,0.1,0.3,0,0.3-0.2
			c0.6-0.9,1.4-1.7,2.3-2.5c0.2-0.1,0.4-0.3,0.5-0.5c0.1-0.2,0.1-0.4-0.1-0.6c-0.1-0.1-0.3-0.1-0.4-0.2c-0.3-0.1-0.7-0.2-1-0.3
			c-0.2-0.1-0.4-0.1-0.6-0.1c-0.2,0-0.4,0.1-0.5,0.2c-0.4,0.2-1.5,0.7-1.5,1.2c0,0.3,0.3,0.7,0.4,0.9
			C264.6,127.1,264.7,127.4,264.8,127.8z"/>
		<path id="XMLID_3938_" class="st8" d="M277.8,109.8c-1.8,7.1-3.7,14.1-5.8,21.1c-0.2,0.8-0.5,1.7-0.4,2.5c0.1,0.8,0.6,1.7,1.4,2.1
			c1,0.4,2.3,0,3.1-0.7c0.8-0.7,1.2-1.7,1.5-2.7c3.2-8.7,4.5-18,3.8-27.1c-0.1-0.9-0.2-1.9,0.2-2.8c0.2-0.5,0.4-1.1,0-1.4
			c-0.5-0.4-1.5-0.4-1.9,0c-0.5,0.6-0.4,2.3-0.5,3C278.8,105.9,278.3,107.8,277.8,109.8z"/>
		<path id="XMLID_3937_" class="st29" d="M279.1,96c0-0.5,0-1,0.1-1.5c0.1-0.5,0.4-1,0.9-1c0.5,0,0.8,0.5,0.9,0.9
			c0.7,2,0.6,4.3,0.4,6.4c0.5-0.1,0.2,0.2-1.7-0.2c0.2-0.9-0.4-1.7-0.7-2.6c-0.3-0.9-0.8-1.8-0.6-2.8c0.1,0,0.3,0,0.4,0
			C279,95.6,279.1,95.8,279.1,96z"/>
		<path id="XMLID_3933_" class="st30" d="M268.2,114.9c-0.6,0.2-1.2,0.4-1.9,0.6c-0.1-0.2-0.2-0.4-0.4-0.5c-0.3-0.1-0.8-0.1-1.1-0.1
			c-0.7,0-1.5,0-2.2,0c-0.1,0-0.2,0.1-0.2,0.1c-0.1,0-0.2,0-0.3,0c-0.1,0-0.2,0.1-0.2,0.2c0,0.3,0,0.5,0,0.8c-0.1,0-0.3,0-0.4,0
			c-0.3,0-0.6,0-0.9,0c0-0.2,0-0.3,0-0.4c0-0.1,0-0.2,0-0.4c0-0.1-0.1-0.2-0.2-0.2h0c0,0,0,0,0,0c-0.7,0-1.3-0.1-2-0.1
			c-0.5,0-1.1-0.2-1.5,0c-0.6,0.2-0.5,1-0.5,1.7c-0.1,0.3-0.1,0.6,0.1,0.7c0.1,0.1,0.3,0.2,0.4,0.2c0.5,0.1,1.1,0,1.6,0
			c0.5,0,1.5,0.2,1.9-0.1c0.2-0.2,0.3-0.5,0.3-0.8c0,0,0,0,0,0c0,0.1,0.1,0.1,0.1,0.1c0.4,0.1,0.7,0.1,1.1,0.1
			c0.1,0.3,0.3,0.6,0.7,0.7c0.5,0.2,1.2,0,1.8,0.1c0.3,0,0.6,0,0.9-0.1c0.2,0,0.4-0.1,0.7-0.1c0.1,0,0.1-0.1,0.1-0.1
			c0.1,0,0.1-0.1,0.1-0.1c0.1-0.3,0.2-0.8,0.2-1.2c0.6-0.2,1.3-0.4,1.9-0.6C268.5,115.2,268.4,114.8,268.2,114.9z M260.1,116.6
			C260,116.6,260,116.7,260.1,116.6c-0.7,0.2-1.3,0.3-1.9,0.2c-0.3,0-0.5-0.1-0.7-0.2c0,0,0,0,0,0c0-0.4,0-0.8,0-1.2
			c0.4,0,0.8,0,1.2,0c0.5,0,1,0,1.5,0c0,0.2,0,0.4,0,0.6C260.1,116.3,260.1,116.4,260.1,116.6z M265.6,116.2
			c-0.1,0.4-0.2,0.7-0.5,0.8c-0.5,0.1-1.1,0.1-1.7,0c-0.5,0-0.6,0-0.7-0.5c0-0.1,0-0.2,0-0.2c0-0.1,0-0.1,0-0.2c0-0.2,0-0.4,0-0.6
			c0.9,0,1.8,0,2.7,0c0.1,0,0.1,0.1,0.1,0.2C265.6,115.8,265.6,116,265.6,116.2C265.6,116.1,265.6,116.2,265.6,116.2z"/>
	</g>
</g>
<g id="XMLID_3892_">
	<g id="XMLID_3898_">
		<path id="XMLID_3930_" class="st24" d="M217.1,223.7c-0.4,0.3,0.1,0.6,0.4,0.6c0.5,0,0.9,0,1.4-0.1c0.1,0,0.2-0.1,0.3-0.1
			c0.1-0.1,0.1-0.1,0.2-0.2c0.1-0.2,0.5-0.6,0.5-0.8c0-0.2-0.1-0.4-0.2-0.6c-0.2-0.4-0.6-0.8-0.5-1.3c-1,0.1-1.9-0.2-2.7,0
			c-0.1,0.3-0.3,0.6-0.2,0.9c-0.1-0.2-2.5,0.4-2.7,0.5c-0.5,0.1-0.9,0.2-1.4,0.2c-0.4,0-1-0.1-1.2,0.2c-0.1,0.1-0.1,0.3-0.1,0.4
			c0,0.1,0,0.2,0,0.3c0.1,0.2,0.2,0.3,0.4,0.4C213.2,224.8,215.1,223.6,217.1,223.7z"/>
		<g id="XMLID_3899_">
			<path id="XMLID_3929_" class="st9" d="M218,178.5c-2.2-0.1-4.5-0.1-6.7-0.2c-0.1-0.3,0.4,0,0.4,0.3c-0.1,10.1,0.8,20.3,2.7,30.2
				c0.8,4.3,1.9,8.6,1.9,12.9c0.9,0,1.8,0,2.8,0c0.3-13.6,0.6-27.3,0.9-40.9c0-0.7,0-1.5-0.5-1.9C219.1,178.5,218.5,178.5,218,178.5
				z"/>
			<path id="XMLID_3928_" class="st9" d="M236.9,219.7c1.2,0,2.5-0.5,3.4-1.2c-2.2-3.8-4.4-7.7-6.5-11.5c-0.7-1.2-1.4-2.4-1.9-3.8
				c-0.6-1.6-0.9-3.3-1-5c-0.9-18.9-0.9-18.9,0.5-22.9c0.2-0.5,3.6-2.5,0,0c-1.3,0.9-6.4,0.2-7.9,0.4c-0.3,0.1-0.7,0.1-1,0.4
				c-0.3,0.3,0.1,1.4-0.2,1.2c-2.8-1.7-0.9,0.6-0.5,5.8c0.1,1.8,2.1,13.6,2.6,15.4c1,3.1,2.3,6.3,4.3,8.9
				C231.8,211.3,233.8,215,236.9,219.7z"/>
			<path id="XMLID_3927_" class="st7" d="M234.7,151.8c-0.5-7.2-1.8-14.6-5.8-20.8c-2.9-4.4-6.9-9.5-12.5-4.9
				c-0.5,0.4-4-1.2-4.3-0.6c-0.9-0.2-1.8,0-2.4,1c-1.9,3.3-2.6,7-2.9,10.8c-0.3,4.3-0.5,8.7-0.6,13.1c-0.1,2-0.1,4-0.1,6.1
				c-0.8,5.4-1.2,10.8-0.3,16.3c0,0.3,0.1,0.5,0.3,0.7c0,1.4,0,2.7,0.1,4.1c0,0.9,0.7,2,1.6,2.2c8.5,1.2,17.1,0.9,25.5-1
				c1-0.2,1.6-1.2,1.6-2.2C235.3,168.3,235.3,160,234.7,151.8z"/>
			<g id="XMLID_3919_">
				<path class="st23" d="M191.5,102.5c0.1-0.9,0.5-1.9,0.1-2.8c-0.1,0-0.2,0.1-0.4,0.1c-0.1,0.2-0.1,0.4-0.2,0.6
					c0-0.5-0.2-1-0.4-1.4c-0.2-0.4-0.6-0.9-1-0.8c-0.5,0.1-0.7,0.6-0.8,1.1c-0.4,2.1,0.1,4.3,0.6,6.4c0.8,0,1.5-0.2,2.3-0.5
					C191.4,104.3,191.3,103.4,191.5,102.5z"/>
				<g id="XMLID_3920_">
					<path id="XMLID_3925_" class="st7" d="M209.2,137.4c3.6,1.3,7.2-8.8,2.7-10.4c-4.1-1.4-10.7-1-14.5-3.4c-1.8-1.2-3-3-3.5-5.3
						c-0.8-4.5-1.5-9.1-2.1-13.7c-1,0.1-2,0.1-3,0.2c0,5.7,0,11.5,0.1,17.2c0,1.1,0,2.3,0.4,3.3c0.4,1,1.1,1.8,1.9,2.5
						C196.1,132.7,203.5,135.3,209.2,137.4z"/>
					<path id="XMLID_3924_" class="st32" d="M193.4,117c-1.5,0-3,0.3-4.4,0.6c-0.3,0.1-0.2,0.5,0.1,0.4c1.4-0.4,2.8-0.5,4.3-0.7
						C193.6,117.3,193.7,117,193.4,117z"/>
					<path id="XMLID_3923_" class="st32" d="M200.2,132.9c-0.5-1.9-0.7-5.4,1-7c0.2-0.1-0.1-0.4-0.2-0.2c-2,1.5-1.7,5.3-1.3,7.4
						C199.7,133.4,200.3,133.3,200.2,132.9z"/>
					<path id="XMLID_3922_" class="st32" d="M193.7,118.4c-0.6-0.1-1.2,0-1.8,0.1c-0.9,0.2-1.7,0.4-2.6,0.6
						c-0.4,0.1-0.2,0.7,0.2,0.6c0.6-0.2,1.3-0.3,1.9-0.5c0.7-0.2,1.5-0.4,2.3-0.5C193.8,118.7,193.9,118.4,193.7,118.4z"/>
					<path id="XMLID_3921_" class="st32" d="M202.8,133.6c-0.6-2.4-0.9-4.7,0.4-6.9c0.2-0.3-0.2-0.6-0.4-0.3c-1.9,2.1-1.3,5-0.7,7.4
						C202.1,134.3,202.9,134.1,202.8,133.6z"/>
				</g>
			</g>
			<path id="XMLID_3918_" class="st23" d="M218.9,121.8c0.5-0.9,0.8-2,0.8-3.2c0-2.4-0.3-4.8-1.4-6.9c-1.2-2.4-4.1-4.6-6.9-3.7
				c-3.2,1.1-2.7,5.5-2.3,8.4c0.3,2.3,1.3,4.6,3.1,6.1C214.8,124.6,217.6,124,218.9,121.8z"/>
			<path id="XMLID_3917_" class="st24" d="M239.1,221.6c-0.2,0.5,0.4,0.5,0.6,0.4c0.5-0.2,0.9-0.4,1.3-0.7c0.1-0.1,0.2-0.2,0.3-0.3
				c0-0.1,0.1-0.2,0.1-0.3c0-0.3,0.2-0.8,0.2-1c0-0.2-0.3-0.4-0.4-0.5c-0.4-0.3-1.1-0.9-1.2-1.4c-0.9,0.5-2.3,1.2-3,1.8
				c0.4,0.3,0.4,0.5,0.6,0.7c-0.2-0.1-2.2,1.5-2.5,1.7c-0.4,0.3-0.8,0.6-1.3,0.8c-0.3,0.2-1.1,0.3-1.1,0.8c0,0.2,0,0.3,0.1,0.5
				c0,0.1,0.1,0.2,0.2,0.3c0.1,0.2,0.4,0.2,0.6,0.2C235.7,224.4,237.2,222.4,239.1,221.6z"/>
			<g id="XMLID_3910_">
				<path id="XMLID_3916_" class="st32" d="M225.6,132.3c-0.1-0.3-0.3-0.6-0.4-1c-5.8,1.1-11.6,2.1-17.5,2.6c0,0.3-0.1,0.6-0.1,1
					C213.7,134.5,219.7,133.5,225.6,132.3z"/>
				<path id="XMLID_3915_" class="st32" d="M206.9,152.5c0,0.3,0,0.6,0,0.9c8.1-0.6,16.2-1.8,24.1-3.4c-0.1-0.4-0.1-0.8-0.2-1.2
					C222.9,150.5,215,151.8,206.9,152.5z"/>
				<path id="XMLID_3914_" class="st32" d="M208.6,170.5c0,0.2,0.1,0.4,0.1,0.7c1.7-0.2,3.4-0.4,5.1-0.7c6.4-0.9,12.8-2.1,19-3.7
					c0-0.3,0-0.6,0-1c-4.9,1.3-9.8,2.4-15,3.2C214.9,169.6,211.8,170.1,208.6,170.5z"/>
				<path id="XMLID_3913_" class="st32" d="M207,155.3c0,0.1,0,0.3,0,0.4c8.2-0.6,16.5-1.8,24.4-3.3c0-0.2-0.1-0.4-0.1-0.6
					c-6.3,1.1-12.6,2.2-19,2.9C210.6,155,208.8,155.2,207,155.3z"/>
				<path id="XMLID_3912_" class="st32" d="M207.4,136.4c0,0.2,0,0.3,0,0.5c6.4-0.5,12.8-1.4,19.1-2.5c-0.1-0.2-0.1-0.4-0.2-0.6
					c-5.2,0.9-10.4,1.7-15.7,2.3C209.5,136.2,208.5,136.3,207.4,136.4z"/>
				<path id="XMLID_3911_" class="st32" d="M209.1,173.9c8.2-0.5,16.4-2,23.8-4.3c0-0.2,0-0.3,0-0.5c-7.7,2.4-15.7,3.8-23.9,4.3
					C209.1,173.5,209.1,173.7,209.1,173.9z"/>
			</g>
			<g id="XMLID_3900_">
				<path id="XMLID_3907_" class="st23" d="M198.5,153.7c-0.4,0.1-0.7,0.3-1,0.5c-0.3,0.2-0.5,0.6-0.5,1c0,0.4,0.4,0.7,0.8,0.7
					c0,0.1,0,0.2,0.1,0.3c0.8,0.2,1.5-0.3,2.3-0.6c0.5-0.3,1.1-0.5,1.7-0.7c0.5-0.2,1.1-0.3,1.3-0.8c0.2-0.3,0.2-0.7,0.1-1.1
					c-0.1-0.4-0.3-0.7-0.5-1c-0.9,0.2-1.9,0.3-2.8,0.5c-0.2,0-0.3,0.1-0.4,0.2c-0.1,0.1-0.2,0.3-0.1,0.4c0.2,0,0.4,0.1,0.5,0.3
					C199.4,153.4,199,153.5,198.5,153.7z"/>
				<g id="XMLID_3901_">
					<path id="XMLID_3906_" class="st7" d="M226.9,132.9c-0.7-3.3-4.9-4-5.8,0.2c-0.7,3.7-1,7.5-2.7,11.1c-0.8,1.7-2.3,3-4.2,3.7
						c-3.9,1.3-7.9,2.5-11.8,3.6c0.2,0.8,0.3,1.7,0.5,2.5c5.1-0.8,10.2-1.5,15.2-2.3c1-0.1,2-0.3,2.9-0.8c0.8-0.5,1.5-1.2,2-2
						C226.6,144.1,228.1,138.2,226.9,132.9z"/>
					<path id="XMLID_3905_" class="st32" d="M213.1,148.5c0.2,1.3,0.6,2.6,1.1,3.8c0.1,0.2,0.4,0.1,0.3-0.1
						c-0.5-1.2-0.8-2.4-1.1-3.6C213.3,148.3,213.1,148.3,213.1,148.5z"/>
					<path id="XMLID_3904_" class="st32" d="M226.3,140.5c-1.7,0.7-4.7,1.3-6.3,0.1c-0.2-0.1-0.3,0.1-0.2,0.2
						c1.6,1.5,4.9,0.8,6.7,0.2C226.8,140.9,226.6,140.4,226.3,140.5z"/>
					<path id="XMLID_3903_" class="st32" d="M214.3,148.1c0,0.5,0.2,1.1,0.3,1.6c0.2,0.7,0.5,1.5,0.8,2.2c0.1,0.3,0.6,0.1,0.5-0.2
						c-0.2-0.5-0.4-1.1-0.7-1.6c-0.2-0.6-0.6-1.3-0.7-1.9C214.6,147.9,214.3,147.9,214.3,148.1z"/>
					<path id="XMLID_3902_" class="st32" d="M226.6,138.2c-2.1,0.8-4,1.4-6.2,0.6c-0.3-0.1-0.5,0.3-0.2,0.4c2.1,1.4,4.6,0.5,6.7-0.3
						C227.3,138.7,227,138.1,226.6,138.2z"/>
				</g>
			</g>
		</g>
	</g>
	<path id="XMLID_3897_" class="st8" d="M228,112c-0.5-0.8-1.2-1.1-1.9-1.1c0,0,0-0.1,0-0.1c0.9-0.8,1.3-2.2,0.2-3.5
		c-0.3-0.4-0.6-0.6-1-0.7c-1.1-0.8-2.2-1.5-3.5-2c-0.1,0-0.2-0.1-0.3-0.1c-0.3-2-1.8-3.7-4.2-4c-0.5-0.1-1.1-0.1-1.7,0
		c-2.3-1.2-5,0-6.4,2c-0.1,0.1-0.2,0.1-0.3,0.2c-0.8,0.5-1.3,1.3-1.5,2.2c0,0-0.1,0-0.1,0c-2,0.5-3.3,2.6-2.7,4.6
		c0.3,1,1.3,1.8,2.3,1.8c0.5,0,1,0,1.6-0.1c0.6,0,1.1-0.3,1.5-0.6c0.1,0.1,0.2,0.1,0.3,0.1c0.4,0.1,0.8,0.2,1.2,0.3
		c0.4,0.5,0.9,0.9,1.4,1.2c1.4,0.7,2.6,0.6,3.9,0.3c0.1,0.1,0.2,0.2,0.3,0.3c0.2,0.1,0.4,0.2,0.6,0.3c-0.2,0.3-0.4,0.7-0.5,1
		c-0.5,1.3,0.6,2.6,1.7,3c0.2,0.1,0.5,0.1,0.7,0.1c-0.5,1.3,0.1,3,1.6,3.3c1.9,0.4,3.7-0.2,4.9-1.7c0.8-1.1,1-2.1,1.1-3.3
		C228.3,114.7,228.9,113.4,228,112z"/>
	<g id="XMLID_3893_">
		<path id="XMLID_3896_" class="st3" d="M204.7,89.6c-0.3,0.7-0.7,1.5-1.1,2.2c-0.2,0.3,0.2,0.5,0.4,0.3c0.5-0.6,1-1.3,1.5-2
			C205.8,89.6,205,89.1,204.7,89.6z"/>
		<path id="XMLID_3895_" class="st3" d="M197.3,91.6c0.3,0.2,0.6,0.4,0.9,0.5c0.3,0.2,0.7,0.4,1.1,0.5c0.2,0,0.4-0.2,0.3-0.4
			c-0.2-0.3-0.5-0.5-0.8-0.7c-0.3-0.2-0.6-0.5-1-0.7C197.3,90.8,197,91.3,197.3,91.6z"/>
		<path id="XMLID_3894_" class="st3" d="M200.3,89c0,0.4,0.2,0.9,0.3,1.3c0.1,0.4,0.2,0.8,0.4,1.1c0.1,0.1,0.4,0.1,0.4-0.1
			c0.1-0.3,0-0.7,0-1c-0.1-0.5-0.1-0.9-0.3-1.4C201,88.5,200.3,88.5,200.3,89z"/>
	</g>
</g>
<g id="XMLID_3872_">
	<path id="XMLID_3891_" class="st6" d="M157.5,190.4c0.4-8.5-0.4-17.1-0.4-25.6c-0.3-3,0.2-6,1.2-8.7c0.1-0.2,0.1-0.3,0.3-0.5
		c0.4-0.4,1.1-0.2,1.6,0c5.1,2.1,11,1.6,15.7-1.4c0.9,1.4,1.2,3.1,1.4,4.7c0.4,2.7,0.8,5.3,0.9,8c0,0,0,0,0,0l0,0c0,0.6,0,1.1,0,1.7
		c-0.1,3.3-0.7,6.6-1.2,9.9c-0.3,2.1-0.6,4.3-0.6,6.5c0,1.8,0.2,3.4-0.2,5.1c-1,4.3-1,9-1.4,13.3c-0.4,4.7-0.9,9.4-1.2,14.1
		c0,0.2,0,0.4,0,0.6c-0.2,0.1-3.8,0.9-3.8,0c-0.3-9.1-0.6-18.2-0.9-27.3c-0.1-3.8-0.3-7.7-1.2-11.4c-0.4,0-0.8,0.1-1.2,0.1
		c-2.2,12.1-4.4,24.1-6.6,36.2c-0.2,1.1-0.4,2.2-1.1,2.9c-0.7,0.7-2,0.5-2.2-0.6C157,208.8,157.1,199.6,157.5,190.4z"/>
	<g id="XMLID_3882_">
		<path id="XMLID_3890_" class="st33" d="M170.6,219.7c1.4-0.1,2.8-0.1,4.1,0.2c1.1,0.8,2.2,1.4,3.4,1.9c0.4,0.1,0.7,0.3,1,0.6
			c0.3,0.3,0.4,0.7,0.1,1c-0.2,0.3-0.6,0.3-0.9,0.3c-2.6,0-5.1-0.2-7.6-0.6c-0.2,0-0.3-0.1-0.4-0.2c-0.1-0.1-0.1-0.2-0.2-0.3
			C169.9,221.6,170.1,220.6,170.6,219.7z"/>
		<path id="XMLID_3889_" class="st33" d="M159.2,219.6c-1.4,0-2.8,0.1-4.1,0.4c-1,0.8-2.1,1.6-3.3,2.1c-0.3,0.2-0.7,0.3-1,0.6
			c-0.2,0.3-0.3,0.8-0.1,1c0.2,0.2,0.6,0.2,0.9,0.2c2.5-0.1,5.1-0.5,7.6-1.1c0.1,0,0.3-0.1,0.4-0.2c0.1-0.1,0.1-0.2,0.1-0.3
			C160,221.4,159.8,220.4,159.2,219.6z"/>
		<g id="XMLID_3886_">
			<path class="st34" d="M173.1,106.7c0-0.5-0.1-0.9-0.3-1.3c-0.4-0.6-1.2-0.7-1.9-0.8c-3,0-5.9,0.1-8.9,0.3c-0.3,0-0.5,0-0.7,0.2
				c-0.2,0.2-0.3,0.4-0.3,0.7c-0.2,1.2,0.2,2.5,0.2,3.8c0,1.3,0,2.6,0.3,3.9c0.4,2.5,1.6,4.8,3.7,6.2c0.7,0.5,1.5,0.8,2.4,0.8
				c1.1,0,2.2-0.7,3-1.5C173.5,115.8,173.4,111,173.1,106.7z"/>
			<path class="st30" d="M170.2,118.7c-0.6,1.2-1.9,1.6-3.4,1.2c-0.8-0.2-1.8-0.9-2.6-1c0.6,0.8,1.5,1.7,2.5,1.9
				c1,0.2,2.1-0.1,2.9-0.8C170,119.6,170.4,119.1,170.2,118.7z"/>
		</g>
		<path class="st7" d="M172.6,101.9c-1-0.7-2.2-0.9-3.3-1c-1.3-0.1-2.5-0.4-3.8-0.2c-0.7,0.1-1.3,0.3-2,0.4c-0.7,0.1-1.4,0-1.9-0.5
			c-0.2-0.2-0.4-0.4-0.7-0.4c-0.4,0-0.7,0.4-0.8,0.8c-0.7,2-1,4.2-0.7,6.3c0.2,1.7,1.5,3.4,2.1,5c0,0.1,0.1,0.1,0.1,0.2
			c0.1,0.1,0.3,0,0.4-0.1c0.1-0.1,0.1-0.3,0.1-0.4c0-1.2,0.1-2.5,0.5-3.6c0.4-1.4,0.9-0.8,2.1-0.9c1.9-0.1,3.9-1.7,5.8-0.7
			c0.6,0.3,1.1,0.9,1.5,1.4c0.6,0.8,1.3,1.7,1.3,2.7c0.9-0.4,1.1-1.6,1.2-2.6C174.5,106,174.4,103.3,172.6,101.9z"/>
		<path class="st7" d="M179.8,150.7c-0.1-1.3-0.3-2.5-0.4-3.8c-0.9-7.9-1.8-15.9-4.5-23.4c-0.7-1.9-2.4-4-4.2-2.1
			c-0.2,0.2-0.5,0.5-0.8,0.7c-1.8,1.2-4.2,1.1-6.2,0.4c-1.7-0.6-2.7-3.1-4.9-2.2c-2,0.9-2.9,4.3-3.2,6.3c-0.5,3.6-0.7,7.4-1.1,11
			c-0.7,6.5-1.4,13.1-1.6,19.6c-0.1,2.7-0.2,5.5-0.7,8.1c1.4,0.4,3,0.3,4.5,0.3c3.5,0,7,0.5,10.5,0.8c2.8,0.2,5.6,0.2,8.4-0.5
			c0.4-0.1,5.7-1.2,5.6-1.5C180.8,159.9,180.3,155.3,179.8,150.7z"/>
	</g>
	<path class="st35" d="M181.1,162.9c0.1,0,0.1-0.1,0.1-0.1c-0.3-0.5-0.8-1.5-1.3-2.7c-0.4-5.7-0.9-11.4-1.9-17
		c-1.2-6.9-3.9-13.3-5.5-20.1c-0.5-2-2.9-1.8-3.7-0.4c-0.1,0-0.1,0-0.2,0c-0.8-0.7-1.7-1.2-2.8-1.6c-1.3-0.5-2.6,0.7-2.6,2
		c0,1.3,0,2.7-0.1,4c-2.2,10.8-3.5,21.8-4,32.9c0,0,0,0,0,0c-0.1,0.6-0.2,1.1-0.4,1.7c-0.3,0.9-0.6,1.8-0.6,2.6c0,0.1,0,0.1-0.1,0.2
		c-0.2,1,0.3,1.8,1.2,2.1c6.9,2.5,14.3,2.1,20.9-1c0.1,0,0.2-0.1,0.2-0.1c0.1,0,0.1,0,0.2-0.1c0.1-0.1,0.2-0.2,0.3-0.2
		c0.2-0.2,0.4-0.5,0.4-0.9C181.4,163.7,181.3,163.3,181.1,162.9z"/>
	<g id="XMLID_3877_">
		<path id="XMLID_3880_" class="st23" d="M188.1,102.9c0.1-0.5,0.4-0.9,0.7-1.3c0.3-0.4,0.7-0.8,1.2-0.6c0.4,0.2,0.5,0.7,0.5,1.2
			c-0.1,2.2-1,4.2-1.9,6.1c-0.7-0.2-1.5-0.5-2.1-0.9c0.5-0.8,0.8-1.6,0.8-2.5c0.1-1-0.1-2,0.5-2.8c0.1,0.1,0.2,0.1,0.3,0.2
			C188.1,102.5,188.1,102.7,188.1,102.9z"/>
		<g id="XMLID_3878_">
			<path id="XMLID_3879_" class="st7" d="M159.8,137.1c-2.8,1.9-1.8-8.9-1.9-10.2c-0.2-1.5-0.4-4.1,0.9-5.3
				c2.3-2.1,8.6,0.4,11.3,0.7c3,0.3,6,0.1,8.8-0.8c0.6-0.2,1.3-0.4,1.8-0.8c1.4-1.1,5.5-13.8,5.8-13.7c1,0.3,1.9,0.5,2.9,0.8
				c-0.9,3.9-1.7,7.9-2.6,11.8c-0.7,3-0.8,6.5-3,9c-1.4,1.5-3.4,2.3-5.4,2.8C173,132.6,164.6,133.9,159.8,137.1z"/>
		</g>
	</g>
	<g id="XMLID_3873_">
		<path id="XMLID_3876_" class="st3" d="M152.8,95.9c0.2,0.8,0.3,1.6,0.4,2.4c0,0.3,0.5,0.3,0.5,0c0-0.8,0.1-1.6,0-2.4
			C153.6,95.2,152.7,95.3,152.8,95.9z"/>
		<path id="XMLID_3875_" class="st3" d="M147.9,101.9c0.4,0,0.7,0,1.1-0.1c0.4-0.1,0.8-0.1,1.1-0.2c0.2-0.1,0.3-0.4,0-0.5
			c-0.3-0.1-0.7-0.1-1.1-0.1c-0.4,0-0.8,0-1.2,0.1C147.4,101.2,147.5,101.8,147.9,101.9z"/>
		<path id="XMLID_3874_" class="st3" d="M148.9,97.9c0.3,0.3,0.6,0.6,1,0.9c0.3,0.2,0.6,0.5,1,0.6c0.2,0.1,0.3-0.2,0.3-0.3
			c-0.1-0.3-0.4-0.6-0.6-0.8c-0.3-0.3-0.6-0.7-1-1C149.1,97.1,148.5,97.5,148.9,97.9z"/>
	</g>
</g>
<g>
	<defs>
		<filter id="Adobe_OpacityMaskFilter_8_" filterUnits="userSpaceOnUse" x="298.5" y="222" width="44.5" height="3">
			<feFlood  style="flood-color:white;flood-opacity:1" result="back"/>
			<feBlend  in="SourceGraphic" in2="back" mode="normal"/>
		</filter>
	</defs>
	<mask maskUnits="userSpaceOnUse" x="298.5" y="222" width="44.5" height="3" id="XMLID_16_">
		<g class="st36">
			<defs>
				<filter id="Adobe_OpacityMaskFilter_9_" filterUnits="userSpaceOnUse" x="298.5" y="222" width="44.5" height="3">
					<feFlood  style="flood-color:white;flood-opacity:1" result="back"/>
					<feBlend  in="SourceGraphic" in2="back" mode="normal"/>
				</filter>
			</defs>
			<mask maskUnits="userSpaceOnUse" x="298.5" y="222" width="44.5" height="3" id="XMLID_16_">
				<g class="st37">
				</g>
			</mask>
			
				<linearGradient id="XMLID_17_" gradientUnits="userSpaceOnUse" x1="749.1302" y1="229.8321" x2="772.2987" y2="229.8321" gradientTransform="matrix(1.919 -5.460000e-02 2.840000e-02 0.9996 -1145.5664 35.3409)">
				<stop  offset="0" style="stop-color:#FFFFFF"/>
				<stop  offset="1" style="stop-color:#000000"/>
			</linearGradient>
			<path id="XMLID_32_" class="st38" d="M342.2,223.5c0.9-0.3,1.1-0.7,0.4-1.1c-0.6-0.4-2.3-0.2-3.1-0.2c-3.7-0.1-7.3-0.2-11-0.1
				c-7.4,0-14.8,0.3-22.1,0.8c-1.1,0.1-9,0.4-7.7,1.7c0.7,0.7,3.8,0.3,5,0.2c2.5,0,5.1,0,7.6,0c5.1,0,10.1,0,15.2-0.1
				C327.6,224.8,339,224.5,342.2,223.5z"/>
		</g>
	</mask>
	
		<linearGradient id="XMLID_18_" gradientUnits="userSpaceOnUse" x1="749.1302" y1="229.8321" x2="772.2987" y2="229.8321" gradientTransform="matrix(1.919 -5.460000e-02 2.840000e-02 0.9996 -1145.5664 35.3409)">
		<stop  offset="0" style="stop-color:#000000"/>
		<stop  offset="1" style="stop-color:#000000"/>
	</linearGradient>
	<path id="XMLID_3984_" class="st39" d="M342.2,223.5c0.9-0.3,1.1-0.7,0.4-1.1c-0.6-0.4-2.3-0.2-3.1-0.2c-3.7-0.1-7.3-0.2-11-0.1
		c-7.4,0-14.8,0.3-22.1,0.8c-1.1,0.1-9,0.4-7.7,1.7c0.7,0.7,3.8,0.3,5,0.2c2.5,0,5.1,0,7.6,0c5.1,0,10.1,0,15.2-0.1
		C327.6,224.8,339,224.5,342.2,223.5z"/>
	<g id="XMLID_3856_">
		<path id="XMLID_3871_" class="st6" d="M292,150.6c-0.3-0.3-0.8-0.6-1.2-0.3c-0.4,0.4-0.3,1.1-0.1,1.6c0.4,1,0.8,2.1,1.2,3.1
			c0.8,2,1.5,4.1,2.9,5.6c0.5,0.6,1.3,1.1,2.1,0.8c0.5-0.2,0.9-0.7,1.3-1.2c1.9-2.5-0.2-3.4-1.4-4.7
			C295.1,153.9,293.6,152.2,292,150.6z"/>
		<path id="XMLID_3870_" class="st6" d="M299.7,145.8c0-0.8-0.1-1.7-0.5-2.5c-0.4-0.8-1.2-1.4-1.8-1.3c-0.6,0.1-0.9,0.8-1.1,1.4
			c-0.6,1.6-0.9,3.4-1.3,5.1c-0.4,1.8-0.8,3.7-1.1,5.5c-0.1,0.6-0.2,1.2-0.1,1.8c0.3,1.1,2.1,2.6,2.9,2.2c0.7-0.4,1.3-3,1.6-3.9
			C299.1,151.6,299.8,148.8,299.7,145.8z"/>
		<path id="XMLID_3869_" class="st7" d="M322.4,205.9c-0.7-1.3-1.5-2.6-2-4c-0.6-1.7-0.9-3.5-1.1-5.3c-0.9-7-1.9-14-2.8-21
			c-0.1-0.6-0.2-1.2-0.5-1.7c-0.9-1.5-3-1.4-4.7-1.1c-0.2,0-0.5,0.1-0.7,0.2c-3.4,0.4-6.8,0.6-10.3,0.8c-0.9,0.1-1.7,0.9-1.8,1.7
			c-0.1,0-0.2,0-0.1,0.1c0,0,0.1,0,0.1,0c0,0.4,0.1,0.7,0.4,1c-0.1,10.5,0.9,20.9,2.9,31.2c0.9,4.5,2,9.1,2,13.7l2.9,0
			c0.3-13.1,0.6-26.2,0.9-39.4c0.2,1,0.5,2,0.8,2.9c1.5,4.5,3.3,8.9,4.2,13.5c0.1,0.5,0.3,0.8,0.6,1.1c0.9,2.4,2.1,4.7,3.6,6.7
			c3.2,4.2,5.4,8.1,8.7,13.1c1.3,0,2.6-0.5,3.6-1.3C327,214,324.7,209.9,322.4,205.9z"/>
		<path id="XMLID_3868_" class="st24" d="M304.5,223.7c-0.4,0.3,0.1,0.6,0.4,0.6c0.5,0,1,0,1.4-0.1c0.1,0,0.3-0.1,0.4-0.1
			c0.1-0.1,0.1-0.1,0.2-0.2c0.2-0.2,0.5-0.6,0.6-0.9c0-0.2-0.1-0.4-0.2-0.6c-0.2-0.4-0.6-0.9-0.6-1.4c-1,0.1-2-0.2-2.9,0
			c-0.1,0.4-0.3,0.7-0.2,0.9c-0.1-0.2-2.6,0.4-2.9,0.5c-0.5,0.1-1,0.2-1.4,0.2c-0.4,0-1.1-0.1-1.3,0.2c-0.1,0.1-0.1,0.3-0.1,0.4
			c0,0.1,0,0.2,0,0.3c0.1,0.2,0.2,0.3,0.4,0.4C300.4,224.8,302.4,223.6,304.5,223.7z"/>
		<path id="XMLID_3867_" class="st24" d="M327.6,221.1c-0.3,0.5,0.4,0.5,0.7,0.4c0.5-0.2,1-0.4,1.4-0.7c0.1-0.1,0.2-0.2,0.3-0.3
			c0.1-0.1,0.1-0.2,0.1-0.3c0.1-0.3,0.3-0.8,0.2-1.1c0-0.2-0.3-0.4-0.5-0.5c-0.4-0.3-1.1-0.9-1.3-1.4c-1,0.6-2.5,1.2-3.2,1.9
			c0.4,0.3,0.4,0.5,0.7,0.8c-0.2-0.1-2.4,1.6-2.6,1.8c-0.4,0.3-0.9,0.6-1.3,0.8c-0.4,0.2-1.2,0.3-1.2,0.8c0,0.2,0,0.3,0.1,0.5
			c0,0.1,0.1,0.2,0.2,0.3c0.1,0.2,0.4,0.2,0.6,0.2C324,224.1,325.5,222,327.6,221.1z"/>
		<path id="XMLID_3866_" class="st23" d="M303.4,130.1c0.5-0.8,0.8-1.9,0.7-3.2c0-2.3-0.3-4.7-1.4-6.7c-1.2-2.3-4-4.5-6.8-3.6
			c-3.2,1-2.6,5.4-2.2,8.3c0.3,2.3,1.3,4.6,3,6C299.5,132.9,302.2,132.3,303.4,130.1z"/>
		<path id="XMLID_3865_" class="st6" d="M309,141.4c-1.5-4-5.4-9.3-8.2-7.3c-0.4,0-0.7,0-1.1,0.1l-1.5,0.4c-2.9,0.8-3.1,3.6-1.4,5.1
			c-0.3,1.7-0.5,3.2-0.7,4.5c0.1,0.3,0.1,0.6,0.1,0.9c-0.4,1.8-0.6,3.5-0.7,5.3c0,1,0,2-0.2,3c-0.2,5.3,0.2,10.6-0.1,15.9
			c-0.1,1.5-0.2,3-0.3,4.5c0.7,1.1,2.1,1.8,4.1,1.8c1.7,0,3.4,0,5,0c1.6,0.1,3.2,0,4.6,0c0.5,0,0.9,0,1.4,0c1.5,0,2.6-0.5,3.4-1.2
			c0.4,0,0.8,0.1,1.2,0.1c2.6,0.2,4.6-2.1,4.7-4.1C319.9,158.6,313.2,152.5,309,141.4z"/>
		<path id="XMLID_3864_" class="st9" d="M311.4,128.1c-0.3-1-1.3-1.7-1.9-2.6c-1.1-1.8-1.3-3.8-1.3-5.9c-0.1-2.5-1.2-3.8-3.1-5
			c-3.1-2-7.3-2.1-10.4,0c-0.1,0.1-0.2,0.1-0.2,0.2c-0.3,0.4-0.5,0.8-0.8,1.2c-0.4,0-0.8,0.3-0.9,0.8c-0.2,0.7-0.3,1.5-0.5,2.2
			c-0.6,0.3-0.8,1.2-0.4,1.7c-0.8,4.3-1.2,8.6,0.1,12.8c0.2,0.5,0.6,0.8,1.1,0.8c0.3,0.1,0.6,0.2,1,0.3c0.4,0.2,0.8,0.2,1.1,0
			c0.4,0.6,0.8,1.2,1.3,1.8c0.8,1,2.5-0.3,1.8-1.4c-0.9-1.3-1.7-2.7-2.4-4.1c-0.9-2.7-1-5.7-0.9-8.7c2.5-0.1,5-0.6,7.3-1.5
			c0,0.3-0.1,0.6-0.1,0.9c-0.3,1.7-0.5,1.9,0,3.5c1,3.2-0.2,6.4,2.7,8.3c2.2,1.5,4.7,1,5.9-1.7C311.3,130.9,311.7,129.1,311.4,128.1
			z"/>
		<path id="XMLID_3863_" class="st6" d="M312.6,117.4c-2.5,6.9-5.2,13.7-8,20.4c-0.3,0.8-0.7,1.6-0.7,2.4c0,0.8,0.4,1.8,1.2,2.2
			c1,0.5,2.3,0.3,3.1-0.4c0.9-0.6,1.3-1.6,1.8-2.5c4.1-8.3,6.3-17.4,6.6-26.6c0-0.9,0-1.9,0.4-2.8c0.2-0.5,0.5-1,0.2-1.4
			c-0.4-0.5-1.5-0.6-1.9-0.2c-0.5,0.5-0.6,2.3-0.8,3C314,113.6,313.3,115.5,312.6,117.4z"/>
		<path id="XMLID_3862_" class="st23" d="M317.4,104.3c-0.3-0.8-1-1.3-1.8-1.4c-0.9-0.1-1.6,0.3-1.6,1.3c0,0.5,0.1,0.9,0.3,1.4
			c0.2,0.4,0.5,0.8,0.7,1.2c0,0.1,0,0.3,0,0.4c0,0.3,0.3,0.7,0.7,0.7c0.3,0,0.6,0,0.9,0c0.2,0,0.5-0.1,0.6-0.3
			C317.5,106.4,317.8,105.3,317.4,104.3z"/>
		<path id="XMLID_3861_" class="st23" d="M290.8,150.9c0.2-0.2,0.3-0.5,0.1-0.8c0-0.1-0.1-0.2-0.2-0.3c0.1-0.2,0.1-0.4-0.1-0.5
			c-0.1-0.1-0.2-0.2-0.3-0.3c0-0.1,0.1-0.3,0.1-0.4c0.3-0.5,1-0.6,1.3-1.1c0.5-0.9,0-2.1-1-2.5c-1-0.4-2,0.4-2.4,1.4c0,0,0,0,0,0
			c-0.1,0.2-0.2,0.4-0.2,0.6c-0.2,1.5,0.5,3.2,1.4,4.4C290,151.8,290.8,151.5,290.8,150.9z"/>
		<g id="XMLID_3857_">
			<path id="XMLID_3860_" class="st40" d="M292.2,104.1c0.2,0.8,0.3,1.6,0.4,2.4c0,0.3,0.5,0.3,0.5,0c0-0.8,0.1-1.6,0-2.4
				C293,103.4,292,103.5,292.2,104.1z"/>
			<path id="XMLID_3859_" class="st40" d="M287.3,110.1c0.4,0,0.7,0,1.1-0.1c0.4-0.1,0.8-0.1,1.1-0.2c0.2-0.1,0.3-0.4,0-0.5
				c-0.3-0.1-0.7-0.1-1.1-0.1c-0.4,0-0.8,0-1.2,0.1C286.8,109.4,286.9,110.1,287.3,110.1z"/>
			<path id="XMLID_3858_" class="st40" d="M288.2,106.2c0.3,0.3,0.6,0.6,1,0.9c0.3,0.2,0.6,0.5,1,0.6c0.2,0.1,0.3-0.2,0.3-0.3
				c-0.1-0.3-0.4-0.6-0.6-0.8c-0.3-0.3-0.6-0.7-1-1C288.5,105.3,287.9,105.8,288.2,106.2z"/>
		</g>
	</g>
</g>
<g>
	<defs>
		<filter id="Adobe_OpacityMaskFilter_10_" filterUnits="userSpaceOnUse" x="82.4" y="223.1" width="35.2" height="2.4">
			<feFlood  style="flood-color:white;flood-opacity:1" result="back"/>
			<feBlend  in="SourceGraphic" in2="back" mode="normal"/>
		</filter>
	</defs>
	<mask maskUnits="userSpaceOnUse" x="82.4" y="223.1" width="35.2" height="2.4" id="XMLID_19_">
		<g class="st41">
			<defs>
				<filter id="Adobe_OpacityMaskFilter_11_" filterUnits="userSpaceOnUse" x="82.4" y="223.1" width="35.2" height="2.4">
					<feFlood  style="flood-color:white;flood-opacity:1" result="back"/>
					<feBlend  in="SourceGraphic" in2="back" mode="normal"/>
				</filter>
			</defs>
			<mask maskUnits="userSpaceOnUse" x="82.4" y="223.1" width="35.2" height="2.4" id="XMLID_19_">
				<g class="st42">
				</g>
			</mask>
			
				<linearGradient id="XMLID_20_" gradientUnits="userSpaceOnUse" x1="636.5536" y1="224.2957" x2="654.9138" y2="224.2957" gradientTransform="matrix(1.919 -5.460000e-02 2.840000e-02 0.9996 -1145.5664 35.3409)">
				<stop  offset="0" style="stop-color:#FFFFFF"/>
				<stop  offset="1" style="stop-color:#000000"/>
			</linearGradient>
			<path id="XMLID_13_" class="st43" d="M116.9,224.2c0.7-0.2,0.9-0.5,0.3-0.9c-0.5-0.3-1.8-0.1-2.4-0.1c-2.9-0.1-5.8-0.1-8.7-0.1
				c-5.8,0-11.7,0.2-17.5,0.7c-0.9,0.1-7.1,0.3-6.1,1.4c0.5,0.5,3,0.2,3.9,0.2c2,0,4,0,6,0c4,0,8,0,12,0
				C105.4,225.3,114.4,225.1,116.9,224.2z"/>
		</g>
	</mask>
	
		<linearGradient id="XMLID_21_" gradientUnits="userSpaceOnUse" x1="636.5536" y1="224.2957" x2="654.9138" y2="224.2957" gradientTransform="matrix(1.919 -5.460000e-02 2.840000e-02 0.9996 -1145.5664 35.3409)">
		<stop  offset="0" style="stop-color:#000000"/>
		<stop  offset="1" style="stop-color:#000000"/>
	</linearGradient>
	<path id="XMLID_3979_" class="st44" d="M116.9,224.2c0.7-0.2,0.9-0.5,0.3-0.9c-0.5-0.3-1.8-0.1-2.4-0.1c-2.9-0.1-5.8-0.1-8.7-0.1
		c-5.8,0-11.7,0.2-17.5,0.7c-0.9,0.1-7.1,0.3-6.1,1.4c0.5,0.5,3,0.2,3.9,0.2c2,0,4,0,6,0c4,0,8,0,12,0
		C105.4,225.3,114.4,225.1,116.9,224.2z"/>
	<path class="st30" d="M105.2,223.2c-0.2-0.3-0.6-0.4-0.9-0.5c-1.1-0.5-2.2-1.1-3.2-1.8c-1.3-0.2-2.6-0.3-3.9-0.2
		c-0.5,0.8-0.7,1.8-0.4,2.6c0,0.1,0.1,0.2,0.1,0.3c0.1,0.1,0.2,0.1,0.4,0.2c2.3,0.4,4.7,0.6,7.1,0.6c0.3,0,0.7,0,0.9-0.3
		C105.5,223.9,105.4,223.4,105.2,223.2z"/>
	<path class="st30" d="M92.4,223.1c-0.3-0.2-0.6-0.3-0.9-0.5c-1.1-0.4-2.2-0.9-3.2-1.6c-1.3-0.1-2.5-0.1-3.8,0
		c-0.4,0.8-0.5,1.8-0.3,2.6c0,0.1,0.1,0.2,0.2,0.3c0.1,0.1,0.3,0.1,0.4,0.1c2.3,0.3,4.6,0.4,6.9,0.2c0.3,0,0.6-0.1,0.8-0.3
		C92.7,223.7,92.6,223.3,92.4,223.1z"/>
	<path class="st34" d="M105,169.1L105,169.1C105,169,105,169,105,169.1c-0.1-2.7-0.5-5.4-0.8-8.1c-0.2-1.7-0.4-3.4-1.3-4.8
		c-4.3,3-9.8,3.5-14.4,1.4c-0.5-0.2-1.1-0.4-1.5,0c-0.1,0.1-0.2,0.3-0.2,0.5c-1,2.8-1.3,5.8-1.1,8.8c-0.1,8.6,0.7,17.3,0.3,25.9
		c-0.4,9.3-0.5,18.6-1,27.9c0.2,1.1,2.1,1.4,2.7,0.7c0.6-0.7,0.2-2,0.4-3c2-12.2,4.1-24.3,6.1-36.5c0.4,0,0.7-0.1,1.1-0.1
		c0.9,3.7,1,7.6,1.1,11.5c0.3,9.2,0.5,18.4,0.8,27.6c0,0.9,3.3,0.1,3.5,0c0-0.2,0-0.4,0-0.6c0.3-4.7,0.7-9.5,1.1-14.2
		c0.4-4.4,0.4-9.1,1.3-13.5c0.4-1.8,0.1-3.4,0.2-5.2c0-2.2,0.3-4.4,0.6-6.5c0.5-3.3,1.1-6.6,1.1-10C105,170.2,105,169.6,105,169.1z"
		/>
	<path class="st23" d="M95.4,121.6c-0.1-2-1-3.8-1.8-5.6c-0.7-1.4-1.5-2.9-2.7-3.8c-0.3-0.2-0.5-0.4-0.8-0.4c-0.3,0-0.5,0.1-0.8,0.1
		c-2.4,0.8-4.9,1.6-7,3c-0.2,0.1-0.3,0.2-0.4,0.4c-0.1,0.2,0,0.3,0,0.5c1,4.9,3.1,11.4,8,12.6c2.4-1.2,2-0.3,4.4-1.2
		C93.6,126,95.5,123.1,95.4,121.6z"/>
	<path class="st9" d="M101.1,125.7c-0.6-0.7-1.4-1-1.7-1.8c-0.4-0.9-0.6-2-0.8-2.9c-0.5-2.6-1.3-5-2.3-7.5c0-0.1-0.1-0.2-0.1-0.3
		c0.5-1.2,0.3-2.7-1.1-3.7c-0.4-0.2-0.9-0.5-1.5-0.6c-0.5-0.3-1.2-0.4-1.9-0.4c-0.1,0-0.1,0-0.2,0c-5-0.5-12.9,0.6-12.5,4.6
		c-0.2,0.2-0.3,0.4-0.3,0.6c-0.1,0.6,0.1,1,0.4,1.3c-0.2,0.4-0.4,0.9-0.4,1.4c-0.2,0.3-0.5,0.7-0.6,1.1c-0.6,1.7-0.3,3.6,0.3,5.3
		c0.5,1.5,1.3,3,1.4,4.6c0,1.8-1.2,2.1-2.8,2.5c-3.1,0.8-4.8,2.6-4.9,5.9c0,1.5,0.4,3.2,1.3,4.4c0.9,1.2,2.5,2.7,3.9,3.2
		c0.6,0.3,1.2,0.3,1.8,0.1c2.6,0.4,5.4-0.1,7.1-2.3c0.2-0.3,0.4-0.6,0.6-0.9c0.7-0.6,1.2-1.4,1.4-2.5c0.5-2.4-1.3-4.4-3.4-4.6
		c-0.3-0.4-0.6-0.7-1-0.9c1.3-1,2.6-1.9,3.1-3.6c1.1-3.5-0.9-7.4-3.6-9.5c-0.3-0.2-0.2-0.4-0.5-0.5c0-0.1,0-0.2-0.1-0.3
		c1.3-0.3,1-2.1,0.3-3.1c0.3-0.4,0.8-0.7,1.3-0.9c0.5,0,1.1,0.1,1.4,0.2c1,0.1,1.9,0.3,2.9,0.3c1.3,0.1,2.6,0.4,3.9,0.5
		c0,0,0.1,0.1,0.1,0.1c0.1,0.1,0.1,0.2,0.2,0.2c0.6,1.4,1.1,2.9,1.5,4.4c0.3,1.1,0.4,2.1,0.6,3.2c-0.5,0.3-0.9,0.8-1,1.6
		c-0.1,1.9,0.2,4,1.2,5.6c0.2,0.4,0.7,0.8,0.9,1.2c0,0.1,0.1,0.1,0.2,0.1c-0.1,0-0.2,0.1-0.3,0.3c-0.6,0.6-1.2,1-1.4,1.9
		c-0.8,4,4.4,5,6.6,2.4C103.2,133.8,103.3,128.3,101.1,125.7z"/>
	<path class="st8" d="M107,180.9c0-2.5-0.4-5-0.6-7.4c-0.2-2.5-0.4-5-0.6-7.4c-0.5-4.9-1.2-9.7-1.9-14.5c-1.3-8.1-3.6-16.3-9.6-21.5
		c-1.7,0.4-3.5,0.5-5.4,0.5c0,0.1-0.1,0.2-0.1,0.3c-2.8,12.5-4,25.3-6.1,38c-0.3,1.6-0.7,3.3-1,5c-0.6,1.8-1.5,3.7-1.7,5.6
		c-0.1,0.3-0.3,0.5-0.3,0.8c-0.7,1-0.6,2.6,0.6,3.1c0.3,0.1,0.5,0.2,0.8,0.1c0,0,0.1,0,0.1,0.1c4.4,1.6,9.1,2.7,13.7,2.5
		c0.3,0,0.5-0.1,0.8-0.2c1.3,0.1,2.7,0.1,4,0.2c1.7,0,4,0.4,5.5-0.5c0.9-0.5,1.2-1.7,1.1-2.8C106.7,182.3,107,181.7,107,180.9z"/>
	<path class="st45" d="M93.9,117.7c-1.1-0.3-2.5,0.1-3.1,1.1c0,0,0,0,0,0.1c-0.5,0.1-1,0.3-1.5,0.4c-0.6-0.7-1.6-1-2.4-0.6
		c-1.2,0.3-2.3,1.2-2.4,2.5c-0.2,1.6,2.1,2,3.2,1.7c1.4-0.3,2.5-1.9,1.8-3.3c0,0,0,0,0,0c0.5-0.2,1-0.3,1.5-0.4
		c0.5,1.6,3.6,2.5,4.2,0.7C95.5,118.9,94.8,118,93.9,117.7z M87.2,122.6c-1.3,0.1-2.9-0.5-2.2-2c0.3-0.6,0.8-1.1,1.3-1.4
		c0,0.1,0.2,0.2,0.3,0.1c0.9-0.8,2.5-0.3,2.6,1C89.4,121.6,88.4,122.5,87.2,122.6z M94.8,119.6c-0.4,1.5-3.8,0.7-3.5-0.8
		c0,0,0,0,0,0c0.5-0.4,1-0.8,1.8-0.8C94,118,95.1,118.6,94.8,119.6z"/>
	<path class="st23" d="M94.4,143.7c-2.6,1.4-9.3,5.2-12.3,4.9c3-3,5.9-6.5,7.3-8.4c1.7-2.2,1.2-5.7,0.7-8.2c-0.3-1.6-2.1-1.6-3-0.6
		c-0.5,0.1-1,0.4-1.3,1c-2.9,6.7-8.5,12.4-9.8,19.8c-0.2,1,0.3,2.3,1.4,2.5c7.2,1.2,12.2-6.4,18.1-9.1
		C97.9,144.6,95.3,143.2,94.4,143.7z"/>
	<path class="st23" d="M105.4,144.8c-0.4-0.6-0.6-1.2-1-1.8c-0.4-0.6-0.9-1-1.5-1.4c-0.5-0.4-1,0.2-1,0.7c0.1,0.6,0.2,1.2,0.4,1.7
		c-0.6-0.2-1.3-0.4-1.9-0.7c-0.1,0-0.1,0-0.2,0c-0.6,0-1-0.3-1.3-0.7c-0.6,0-1.2,0.1-1.7,0.5c-1,0.9,4.2,3.9,4.8,4.4
		c0.3,0.3,0.6,0.5,1,0.7c1.3,0.4,2.6-1.4,2.1-2.6C105.5,145.4,105.6,145.1,105.4,144.8z"/>
	<path class="st23" d="M96.8,139.6c-0.1-0.6-0.4-1-1-1.3c-0.3-0.2-0.8,0.1-0.8,0.4c0,0.8-0.1,1.7-0.1,2.5c-0.1,0-0.2-0.1-0.2-0.1
		c-0.4-0.3-0.9,0.3-0.8,0.7c0.3,0.7,0.7,1.1,1.1,1.7c0.2,0.3,0.5,0.3,0.7,0.2c0.2,0.2,0.6,0.3,0.9-0.1c0.1-0.2,0.2-0.3,0.1-0.5
		C97.1,142,97.4,140.7,96.8,139.6z"/>
	<path class="st23" d="M99,139.8c0-0.6-0.3-1.1-0.8-1.4c-0.3-0.2-0.8,0-0.8,0.3c-0.2,0.8-0.3,1.7-0.5,2.5c-0.1-0.1-0.1-0.1-0.2-0.2
		c-0.4-0.3-0.9,0.2-0.9,0.6c0.1,0.7,0.6,1.2,0.9,1.9c0.2,0.3,0.4,0.4,0.7,0.3c0.2,0.2,0.6,0.3,0.9,0.1c0.1-0.1,0.2-0.3,0.2-0.4
		C99,142.2,99.4,141,99,139.8z"/>
	<g>
		<path class="st9" d="M103.3,102.3c-0.8,0.3-1.5,0.6-2.3,0.8c-0.3,0.1-0.2,0.5,0.1,0.5c0.8-0.1,1.6-0.3,2.4-0.5
			C104.1,103,103.8,102.1,103.3,102.3z"/>
		<path class="st9" d="M97.2,98.5c-0.2-0.4-0.8-0.2-0.8,0.2c0,0.4,0.2,0.7,0.3,1c0.1,0.3,0.2,0.8,0.5,1.1c0.1,0.1,0.4,0.2,0.5-0.1
			c0-0.4-0.1-0.7-0.1-1.1C97.5,99.3,97.4,98.8,97.2,98.5z"/>
		<path class="st9" d="M100.5,98.9c-0.3,0.3-0.5,0.7-0.7,1.1c-0.2,0.4-0.4,0.7-0.4,1.1c0,0.2,0.2,0.3,0.4,0.2
			c0.3-0.2,0.5-0.5,0.7-0.8c0.3-0.4,0.6-0.8,0.7-1.2C101.3,99,100.8,98.5,100.5,98.9z"/>
	</g>
</g>
<g>
	<defs>
		<filter id="Adobe_OpacityMaskFilter_12_" filterUnits="userSpaceOnUse" x="20.4" y="222.7" width="44.5" height="3">
			<feFlood  style="flood-color:white;flood-opacity:1" result="back"/>
			<feBlend  in="SourceGraphic" in2="back" mode="normal"/>
		</filter>
	</defs>
	<mask maskUnits="userSpaceOnUse" x="20.4" y="222.7" width="44.5" height="3" id="XMLID_22_">
		<g class="st46">
			<defs>
				<filter id="Adobe_OpacityMaskFilter_13_" filterUnits="userSpaceOnUse" x="20.4" y="222.7" width="44.5" height="3">
					<feFlood  style="flood-color:white;flood-opacity:1" result="back"/>
					<feBlend  in="SourceGraphic" in2="back" mode="normal"/>
				</filter>
			</defs>
			<mask maskUnits="userSpaceOnUse" x="20.4" y="222.7" width="44.5" height="3" id="XMLID_22_">
				<g class="st47">
				</g>
			</mask>
			
				<linearGradient id="XMLID_23_" gradientUnits="userSpaceOnUse" x1="604.3024" y1="222.6392" x2="627.4708" y2="222.6392" gradientTransform="matrix(1.919 -5.460000e-02 2.840000e-02 0.9996 -1145.5664 35.3409)">
				<stop  offset="0" style="stop-color:#FFFFFF"/>
				<stop  offset="1" style="stop-color:#000000"/>
			</linearGradient>
			<path id="XMLID_10_" class="st48" d="M64.1,224.2c0.9-0.3,1.1-0.7,0.4-1.1c-0.6-0.4-2.3-0.2-3.1-0.2c-3.7-0.1-7.3-0.2-11-0.1
				c-7.4,0-14.8,0.3-22.1,0.8c-1.1,0.1-9,0.4-7.7,1.7c0.7,0.7,3.8,0.3,5,0.2c2.5,0,5.1,0,7.6,0c5.1,0,10.1,0,15.2-0.1
				C49.4,225.5,60.9,225.3,64.1,224.2z"/>
		</g>
	</mask>
	
		<linearGradient id="XMLID_24_" gradientUnits="userSpaceOnUse" x1="604.3024" y1="222.6392" x2="627.4708" y2="222.6392" gradientTransform="matrix(1.919 -5.460000e-02 2.840000e-02 0.9996 -1145.5664 35.3409)">
		<stop  offset="0" style="stop-color:#000000"/>
		<stop  offset="1" style="stop-color:#000000"/>
	</linearGradient>
	<path id="XMLID_3983_" class="st49" d="M64.1,224.2c0.9-0.3,1.1-0.7,0.4-1.1c-0.6-0.4-2.3-0.2-3.1-0.2c-3.7-0.1-7.3-0.2-11-0.1
		c-7.4,0-14.8,0.3-22.1,0.8c-1.1,0.1-9,0.4-7.7,1.7c0.7,0.7,3.8,0.3,5,0.2c2.5,0,5.1,0,7.6,0c5.1,0,10.1,0,15.2-0.1
		C49.4,225.5,60.9,225.3,64.1,224.2z"/>
	<path class="st24" d="M58.3,222.6c0-0.1,0-0.3-0.1-0.4c-0.2-0.4-0.9-0.2-1.2-0.2c-0.5,0-0.9-0.1-1.4-0.2c-0.3-0.1-2.7-0.7-2.7-0.5
		c0.1-0.3-0.1-0.5-0.2-0.9c-0.8-0.3-1.8,0.1-2.7,0c0,0.5-0.3,0.9-0.5,1.3c-0.1,0.2-0.2,0.4-0.2,0.6c0.1,0.3,0.4,0.6,0.5,0.8
		c0.1,0.1,0.1,0.2,0.2,0.2c0.1,0.1,0.2,0.1,0.3,0.1c0.4,0.1,0.9,0.1,1.4,0.1c0.2,0,0.8-0.3,0.4-0.6c2,0,3.9,1.1,5.9,0.4
		c0.2-0.1,0.3-0.2,0.4-0.4C58.3,222.8,58.3,222.7,58.3,222.6z"/>
	<path class="st8" d="M60.7,177.4c0-0.3-2.8-0.2-2.9,0.1c-2.2,0.1-4.5,0.1-6.7,0.2c-0.5,0-1.1,0-1.4,0.4c-0.5,0.4-3.4,1.3-3.4,2
		c0.3,13.6,3.5,27.2,3.8,40.9c0.9,0,1.8,0,2.8,0c0-4.4,2.4-8.6,3.3-12.9C58,198.1,60.9,187.5,60.7,177.4z"/>
	<path class="st8" d="M43,176c-0.2-0.3-0.6-0.3-1-0.4c-1.6-0.2-3.6-0.3-4.4,1.1c-0.3,0.5,0.1,1.9-0.4,1.6
		c-14.4-7.7-1.8,13.2-2.6,19.8c-0.2,1.7-0.5,3.4-1,5c-0.5,1.3-1.2,2.5-1.9,3.8c-2.2,3.8-4.4,7.7-6.5,11.5c1,0.8,2.2,1.2,3.4,1.2
		c1.1-2.1,2.8-2.6,9.9-9.3c2.4-2.2,4.9-7.5,5.9-10.6c0.6-1.8,1.1-14.9,1.2-16.7c0.4-5.2,0.6-1.8,1-7C46.6,175.7,43.3,176.3,43,176z"
		/>
	<g id="XMLID_3822_">
		<path class="st23" d="M19.6,101.6c0.2-0.9,0.7-1.9,0.4-2.8c-0.1,0-0.3,0-0.4,0.1c-0.1,0.2-0.2,0.4-0.2,0.5c0-0.5-0.1-1-0.2-1.4
			c-0.1-0.5-0.5-0.9-1-0.9c-0.5,0-0.7,0.5-0.9,1c-0.6,2.1-0.3,4.3,0,6.4c0.8,0,1.6,0,2.3-0.2C19.4,103.4,19.4,102.5,19.6,101.6z"/>
		<g id="XMLID_3823_">
			<path id="XMLID_3829_" class="st23" d="M33.8,138.1c3.4,1.7,8-8.1,3.7-10.1c-3.9-1.8-10.5-2-14.1-4.8c-1.7-1.3-2.7-3.3-2.9-5.6
				c-0.4-4.6-0.6-9.2-0.8-13.8c-1,0-2-0.1-3-0.1c-0.5,5.7-1.1,11.4-1.6,17.1c-0.1,1.1-0.2,2.2,0.1,3.3c0.3,1,0.9,1.9,1.6,2.7
				C21.3,132.1,28.3,135.4,33.8,138.1z"/>
		</g>
	</g>
	<path class="st24" d="M32.8,223.5c0-0.4-0.8-0.6-1.1-0.8c-0.4-0.2-0.9-0.5-1.3-0.8c-0.3-0.2-2.3-1.8-2.5-1.7
		c0.2-0.2,0.3-0.5,0.6-0.7c-0.7-0.6-2.1-1.2-3-1.8c-0.2,0.5-0.9,1-1.2,1.4c-0.2,0.1-0.4,0.3-0.4,0.5c-0.1,0.3,0.1,0.8,0.2,1
		c0,0.1,0,0.2,0.1,0.3c0.1,0.1,0.2,0.2,0.3,0.3c0.4,0.3,0.8,0.5,1.3,0.7c0.3,0.1,0.9,0.1,0.6-0.4c2,0.8,3.4,2.8,5.6,2.9
		c0.2,0,0.4,0,0.6-0.2c0.1-0.1,0.1-0.2,0.2-0.3C32.8,223.8,32.9,223.6,32.8,223.5z"/>
	<g id="XMLID_3588_">
		<path class="st23" d="M74.7,105.4c-0.1-0.1-0.2-0.1-0.3,0c0.1-0.4-0.3-0.7-0.7-0.7c-0.4,0-0.7,0.2-1,0.5c-0.2,0.3-0.3,0.7-0.5,1
			c-0.1,0.5-0.3,0.9-0.4,1.4c-0.2-0.1-0.3-0.3-0.3-0.5c-0.1-0.1-0.3,0-0.4,0.1c-0.1,0.1-0.1,0.3-0.1,0.4c-0.1,0.9-0.3,1.9-0.4,2.8
			c0.3,0.2,0.7,0.4,1,0.5c0.4,0.1,0.8,0.1,1.1-0.1c0.4-0.3,0.6-0.8,0.7-1.4c0.2-0.6,0.4-1.2,0.7-1.7
			C74.5,106.9,74.9,106.1,74.7,105.4z"/>
		<path class="st23" d="M70.5,110.1c-1,4-2.1,8-3.3,12c-0.6,2-1.8,3.5-3.5,4.3c-3.5,1.8-7.3,2.2-11,3c-4.1,1-3.3,5.1,0,5.8
			c5.3,1,11.2-0.6,16-4.4c0.7-0.6,1.4-1.2,1.9-2.1c0.5-0.9,0.6-1.9,0.7-2.9c0.6-5.1,1.2-10.2,1.8-15.3
			C72.2,110.4,71.4,110.2,70.5,110.1z"/>
	</g>
	<path id="XMLID_3587_" class="st23" d="M37.9,111.3c-0.9,1.6-1,3.4-1.1,5.2c-0.1,2.2-0.2,4.5,0.5,6.6c0.5,1.5,0.3,1.1,3.6,2.9
		c3-0.1,0-0.3,3-0.1c10.8-2.5,6.1-9.2,5-14.7c0-0.2-0.1-0.4-0.2-0.5c-0.1-0.2-0.4-0.2-0.6-0.2c-2.8-0.5-5.7-0.3-8.6,0
		c-0.3,0-0.6,0.1-0.9,0.2C38.3,110.6,38.1,111,37.9,111.3z"/>
	<path id="XMLID_3586_" class="st7" d="M50.5,107.1c-0.6-0.4-1-0.1-1.4,0.2c-0.1,0-0.1,0-0.2,0c-0.3,0-0.5,0.1-0.7,0.2
		c-1-0.3-2-0.5-3.1-0.5c-0.4-0.4-0.8-0.8-1.4-0.8c-0.6-0.1-1.1,0.2-1.6,0.7c-0.6-1-1.7-1.6-2.9-0.7c-0.3,0.2-0.5,0.4-0.6,0.7
		c-0.1,0.1-0.3,0.2-0.4,0.3c-0.3,0-0.6,0-0.9,0.2c-0.8,0.4-1.3,1.2-1.1,2c-0.1,0.3-0.2,0.6-0.2,0.8c-0.1,0.2-0.2,0.5-0.2,0.7
		c-0.1,0.1-0.1,0.1-0.2,0.2c-0.2,0.1-0.4,0.1-0.6,0.3c-0.6,0.3-0.9,1.1-0.8,1.8c0,0.3,0,0.6,0.2,0.8c0.1,0.1,0.1,0.2,0.2,0.2
		c0.2,0.3,0.5,0.5,0.9,0.6c0,0.2,0.1,0.4,0.2,0.6c-0.2,1.3,0.1,2.6,0.8,3.9c0,0,0,0.1,0,0.1c0,0,0,0,0,0c0,0,0,0.1,0.1,0.1
		c0.4,0.6,1.4,0,1.1-0.6c-0.5-0.9-1-3.3,0.7-2.9c1,0.3,1,1,1.5,1.9c0.3,0.6,1.3,0.4,1.2-0.3c-0.1-0.9-0.3-1.9-0.6-2.8
		c-0.1-0.2-0.2-0.4-0.2-0.6c0.1,0,0.1,0,0.2-0.1c0.7-0.5,1.1-1.2,1.3-2.1c0,0,0,0,0.1,0c0,0.1,0.1,0.2,0.1,0.3
		c0.2,0.4,0.7,0.5,1,0.1c0.3-0.4,0.5-0.8,0.6-1.2c0.5,0.3,1.1,0.4,1.5-0.1c0.6,0.2,1.2,0.1,2-0.2c0.4-0.1,0.8-0.2,1.3-0.4
		c0.1,0,0.3,0.1,0.4,0.1c0.5,0.1,1.1-0.3,1.1-0.8c0.4-0.3,0.8-0.6,1-1C51.1,108.5,51.2,107.5,50.5,107.1z"/>
	<path id="XMLID_3585_" class="st7" d="M63.9,130.6c1.2-2-0.6-5.7-3.7-4.1c-0.8,0.4-2,0.4-2.8,0.5c-0.7,0.2-1.4,0.3-2.2,0.5
		c-1.3,0.1-2.7,0.1-4-0.1c-0.4,0-0.7,0-1,0.1c-0.1-0.2-0.3-0.3-0.4-0.5c-4.5,1-9.2,0.6-13.6-0.7c-0.3,0-0.6,0-0.9,0
		c-1,0-1.9-0.1-2.9-0.3c-0.5-0.1-1-0.2-1.4-0.2c-0.9-1.6-3.4-2.6-5-0.9c-0.3,0.3-0.6,0.7-0.9,1c-0.8,0.4-1.4,1.1-1.7,1.9
		c-0.5,0.6-1.1,1.1-1.6,1.7c-1.2,1.3-0.9,2.9,0,4c0.5,0.8,1.4,1.3,2.3,1.2c0.1,0.2,0.3,0.4,0.5,0.6c1,0.9,2.1,1.5,3.1,2.5
		c0.8,0.9,1.7,1.7,2.6,2.6c-0.7,2.4-1.2,4.9-1.5,7.4c-0.1,0.9-0.2,1.8-0.2,2.6c-1.1,7.5-0.9,15-0.6,22.6c-0.3,0.7-0.5,1.5-0.5,2.2
		c-1.9,1.2-2.1,4.6,0.6,5.1c3.2,0.6,6.2,1,9.4,1.2c0.1,0,0.1,0,0.2,0c0.6,0.2,1.2,0.3,1.9,0.4c2,0.4,4,0.6,6,0.9
		c3.9,0.4,7.8,0.5,11.7,0.3c2.1-0.1,4.1-1.7,4-4c-0.4-13.3-2.1-26.6-4.2-39.6c1.7-1.2,3.3-2.5,4.9-3.9c1.6-0.6,2.5-2.4,1.7-3.9
		C63.9,131.5,63.9,131.1,63.9,130.6z"/>
	<path class="st50" d="M52.3,142.3c0-1.6-1.2-2.6-2.7-2.7c-2.9-0.3-5.8-0.6-8.6-0.9c-0.5,0-0.9,0.1-1.3,0.3c-1.6-0.7-3.8-0.1-4,2.4
		c-0.3,4.9-0.6,9.5-1.3,14.3c-0.3,2,1.1,3.5,3.2,3.2c2.4-0.4,5.1,0,7.5,0.3c2.3,0.3,4.2,0.3,5.1-2.2
		C51.9,152.4,52.4,147.2,52.3,142.3z"/>
</g>
<g>
	<path class="st3" d="M313.3,77.4v-0.8c0,0,0,0,0,0c0.8-0.3,1.3-1,1.3-1.9c0-1.1-0.9-2-2-2c-0.4,0-0.7-0.3-0.7-0.7
		c0-0.3,0.2-0.5,0.4-0.6c0.3-0.1,0.7,0,1,0.3c0.3,0.3,0.7,0.2,0.9,0c0.3-0.3,0.2-0.7,0-0.9c-0.3-0.3-0.6-0.5-1-0.6v-0.8
		c0-0.4-0.3-0.7-0.7-0.7c-0.4,0-0.7,0.3-0.7,0.7v0.8c0,0-0.1,0-0.1,0c-0.7,0.3-1.2,1-1.2,1.8c0,1.1,0.9,2,2,2c0.4,0,0.7,0.3,0.7,0.7
		c0,0.3-0.2,0.5-0.4,0.6c-0.3,0.1-0.7,0-1.1-0.5c-0.2-0.3-0.7-0.3-0.9-0.1c-0.3,0.2-0.3,0.7-0.1,0.9c0.4,0.4,0.8,0.7,1.2,0.9v0.8
		c0,0.4,0.3,0.7,0.7,0.7C313,78,313.3,77.7,313.3,77.4L313.3,77.4z M313.3,77.4"/>
	<g>
		<path class="st3" d="M312.7,67.4c-3.3,0-6,2.7-6,6s2.7,6,6,6c3.3,0,6-2.7,6-6S316,67.4,312.7,67.4L312.7,67.4z M312.7,78
			c-2.6,0-4.7-2.1-4.7-4.7s2.1-4.7,4.7-4.7c2.6,0,4.7,2.1,4.7,4.7S315.3,78,312.7,78L312.7,78z M312.7,78"/>
		<path class="st3" d="M319.8,80c-1.4-1.2-3.5-1.1-4.8,0.3c-0.9,1-1.9,2-2.4,2.5c-0.5-1.2-1.7-2.1-3.1-2.1h-1.9l-0.5-0.4
			c-1-0.9-2.4-1.3-3.7-1.1c-1.2,0.1-2.2,0.7-3,1.6h-2.5c-0.4,0-0.7,0.3-0.7,0.7V88c0,0.4,0.3,0.7,0.7,0.7h14.1c1,0,2-0.5,2.6-1.3
			c0,0-0.5,0.6,5.2-6.5C320.1,80.7,320,80.3,319.8,80L319.8,80z M298.6,82h1.4v5.3h-1.4V82z M313.6,86.6c-0.4,0.5-1,0.8-1.6,0.8
			h-10.7v-5.6c0.6-0.7,1.4-1.2,2.3-1.3c1-0.1,1.9,0.2,2.6,0.8l0.7,0.6c0.1,0.1,0.3,0.2,0.4,0.2h2.1c0.9,0,1.6,0.6,1.9,1.3h-4.1
			c-0.4,0-0.7,0.3-0.7,0.7c0,0.4,0.3,0.7,0.7,0.7h4.9c0.2,0,0.3-0.1,0.4-0.2c0.5-0.2,0.4-0.2,3.4-3.3c0.6-0.7,1.6-0.8,2.4-0.5
			C313.2,87.2,313.7,86.6,313.6,86.6L313.6,86.6z M313.6,86.6"/>
	</g>
</g>
<g>
	<path class="st3" d="M179.3,72.8c0-1.5-1.2-2.6-2.6-2.6s-2.6,1.2-2.6,2.6s1.2,2.6,2.6,2.6S179.3,74.2,179.3,72.8L179.3,72.8z
		 M176.7,74.1c-0.7,0-1.3-0.6-1.3-1.3c0-0.7,0.6-1.3,1.3-1.3s1.3,0.6,1.3,1.3C178,73.5,177.4,74.1,176.7,74.1L176.7,74.1z
		 M176.7,74.1"/>
	<path class="st3" d="M185.9,70.1c0-1.5-1.2-2.6-2.6-2.6s-2.6,1.2-2.6,2.6s1.2,2.6,2.6,2.6S185.9,71.6,185.9,70.1L185.9,70.1z
		 M183.3,71.5c-0.7,0-1.3-0.6-1.3-1.3s0.6-1.3,1.3-1.3s1.3,0.6,1.3,1.3S184,71.5,183.3,71.5L183.3,71.5z M183.3,71.5"/>
	<path class="st3" d="M169,89.3c2.1,0.5,4.8,0.8,7.7,0.8c2.9,0,5.6-0.3,7.7-0.8c2.4-0.6,3.6-1.4,3.6-2.5c0-1.2-1.6-1.9-2.7-2.2v-2.4
		h1.3c0.4,0,0.7-0.3,0.7-0.7v-4.7c0-2.2-1.8-4-4-4c-2.1,0-3.8,1.6-4,3.7c-0.7-0.7-1.7-1.1-2.7-1.1c-1,0-1.9,0.4-2.7,1.1
		c-0.1-2.1-1.9-3.7-4-3.7c-2.2,0-4,1.8-4,4v4.7c0,0.4,0.3,0.7,0.7,0.7h1.3v2.4c-1.1,0.4-2.7,1-2.7,2.2
		C165.4,87.8,166.6,88.7,169,89.3L169,89.3z M172.7,83.6c-0.2,0-0.4,0-0.7,0.1v-1.6h0.7V83.6z M172.1,85c0.8-0.1,1.7-0.2,2.6-0.2
		v3.9c-0.9,0-1.8-0.1-2.6-0.2V85z M180.7,82.1h0.7v1.6c-0.2,0-0.4-0.1-0.7-0.1V82.1z M178.7,84.8c0.9,0,1.8,0.1,2.6,0.2v3.4
		c-0.8,0.1-1.7,0.2-2.6,0.2V84.8z M186.7,86.8c0,0-0.1,0.2-0.5,0.5c-0.2,0.1-0.5,0.3-0.9,0.4v-1.7C186.4,86.3,186.6,86.7,186.7,86.8
		L186.7,86.8z M180.7,76.7c0-1.5,1.2-2.6,2.6-2.6s2.6,1.2,2.6,2.6v4.1h-1.3c-0.4,0-0.7,0.3-0.7,0.7V88c-0.4,0.1-0.9,0.2-1.3,0.3
		v-6.8c0-0.4-0.3-0.7-0.7-0.7h-1.3C180.7,80.6,180.7,77,180.7,76.7L180.7,76.7z M176.7,76.7c1.4,0,2.6,1.3,2.6,2.7v4H178
		c-0.4,0-0.7,0.3-0.7,0.7c0,0,0,0,0,0c0,0,0,0,0,0v4.6c-0.2,0-1.1,0-1.3,0v-4.6c0,0,0,0,0,0c0,0,0,0,0,0c0-0.4-0.3-0.7-0.7-0.7H174
		c0-0.5,0-3.4,0-4C174,78,175.3,76.7,176.7,76.7L176.7,76.7z M167.4,80.8v-4.1c0-1.5,1.2-2.6,2.6-2.6s2.6,1.2,2.6,2.6v4.1h-1.3
		c-0.4,0-0.7,0.3-0.7,0.7v6.8c-0.5-0.1-0.9-0.2-1.3-0.3v-6.5c0-0.4-0.3-0.7-0.7-0.7H167.4z M168.1,85.9v1.7
		c-0.3-0.1-0.6-0.3-0.9-0.4c-0.4-0.2-0.5-0.4-0.5-0.5C166.7,86.7,167,86.3,168.1,85.9L168.1,85.9z M168.1,85.9"/>
	<path class="st3" d="M172.7,70.1c0-1.5-1.2-2.6-2.6-2.6s-2.6,1.2-2.6,2.6s1.2,2.6,2.6,2.6S172.7,71.6,172.7,70.1L172.7,70.1z
		 M170.1,71.5c-0.7,0-1.3-0.6-1.3-1.3s0.6-1.3,1.3-1.3s1.3,0.6,1.3,1.3S170.8,71.5,170.1,71.5L170.1,71.5z M170.1,71.5"/>
</g>
<g>
	<path class="st3" d="M124.9,37.6h-1.3c-0.4,0-0.7,0.3-0.7,0.7c0,0.4,0.3,0.7,0.7,0.7h1.3c0.4,0,0.7-0.3,0.7-0.7
		C125.5,37.9,125.2,37.6,124.9,37.6L124.9,37.6z M124.9,37.6"/>
	<path class="st3" d="M123.3,35.6l1.1-0.7c0.3-0.2,0.4-0.6,0.2-0.9c-0.2-0.3-0.6-0.4-0.9-0.2l-1.1,0.7c-0.3,0.2-0.4,0.6-0.2,0.9
		C122.6,35.6,123,35.7,123.3,35.6L123.3,35.6z M123.3,35.6"/>
	<path class="st3" d="M122.7,42.1l1.1,0.7c0.3,0.2,0.7,0.1,0.9-0.2c0.2-0.3,0.1-0.7-0.2-0.9l-1.1-0.7c-0.3-0.2-0.7-0.1-0.9,0.2
		C122.3,41.5,122.4,41.9,122.7,42.1L122.7,42.1z M122.7,42.1"/>
	<path class="st3" d="M119.7,36.3H119v-4.6c0-0.4-0.3-0.7-0.7-0.7c-0.4,0-0.7,0.3-0.7,0.7v0.8l-10,2.5h-2.5c-1.1,0-2,0.9-2,2v2.6
		c0,0.9,0.5,1.6,1.3,1.8v3.4c0,1.1,0.9,2,2,2s2-0.9,2-2v-3.1l9.2,2.3v0.8c0,0.4,0.3,0.7,0.7,0.7c0.4,0,0.7-0.3,0.7-0.7v-4.6h0.7
		c1.1,0,2-0.9,2-2C121.6,37.2,120.7,36.3,119.7,36.3L119.7,36.3z M104.6,37c0-0.4,0.3-0.7,0.7-0.7h2v3.9h-2c-0.4,0-0.7-0.3-0.7-0.7
		V37z M106.5,45.4c-0.4,0-0.7-0.3-0.7-0.7v-3.3h1.3v3.3C107.2,45.1,106.9,45.4,106.5,45.4L106.5,45.4z M108.5,40.4v-4.2l9.2-2.3v8.8
		L108.5,40.4z M119.7,38.9H119v-1.3h0.7c0.4,0,0.7,0.3,0.7,0.7C120.3,38.6,120,38.9,119.7,38.9L119.7,38.9z M119.7,38.9"/>
</g>
<g>
	<path class="st3" d="M247.5,30.2v-6.9c0-0.9-0.7-1.6-1.6-1.6h-0.5v-0.5c0-0.3-0.2-0.5-0.5-0.5h-2.2c-0.3,0-0.5,0.2-0.5,0.5v0.5
		h-5.5v-0.5c0-0.3-0.2-0.5-0.5-0.5h-2.2c-0.3,0-0.5,0.2-0.5,0.5v0.5h-0.5c-0.9,0-1.6,0.7-1.6,1.6v12c0,0.3,0.2,0.5,0.5,0.5h8.5
		c0.7,1.9,2.5,3.3,4.6,3.3c2.7,0,4.9-2.2,4.9-4.9C249.7,32.6,248.9,31.1,247.5,30.2L247.5,30.2z M243.2,21.7h1.1v0.5
		c0,0.3-0.2,0.5-0.5,0.5c-0.3,0-0.5-0.2-0.5-0.5V21.7z M234.4,21.7h1.1v0.5c0,0.3-0.2,0.5-0.5,0.5c-0.3,0-0.5-0.2-0.5-0.5V21.7z
		 M232.2,23.4c0-0.3,0.2-0.5,0.5-0.5h0.6c0.2,0.6,0.8,1.1,1.5,1.1s1.3-0.5,1.5-1.1h5.7c0.2,0.6,0.8,1.1,1.5,1.1
		c0.7,0,1.3-0.5,1.5-1.1h0.6c0.3,0,0.5,0.2,0.5,0.5V25h-14.2C232.2,24.7,232.2,24.1,232.2,23.4L232.2,23.4z M239.9,34.8h-7.7v-8.7
		h14.2v3.6c-0.5-0.2-1.1-0.3-1.6-0.3c-2.7,0-4.9,2.2-4.9,4.9C239.9,34.5,239.9,34.7,239.9,34.8L239.9,34.8z M244.8,38.2
		c-2.1,0-3.8-1.7-3.8-3.9c0-2.1,1.7-3.8,3.8-3.8c2.1,0,3.8,1.7,3.8,3.8C248.6,36.4,246.9,38.2,244.8,38.2L244.8,38.2z M244.8,38.2"
		/>
	<path class="st3" d="M247,33.8h-1.6v-1.6c0-0.3-0.2-0.5-0.5-0.5c-0.3,0-0.5,0.2-0.5,0.5v2.2c0,0.3,0.2,0.5,0.5,0.5h2.2
		c0.3,0,0.5-0.2,0.5-0.5S247.3,33.8,247,33.8L247,33.8z M247,33.8"/>
	<path class="st3" d="M236,27.2h-2.2c-0.3,0-0.5,0.2-0.5,0.5s0.2,0.5,0.5,0.5h2.2c0.3,0,0.5-0.2,0.5-0.5S236.3,27.2,236,27.2
		L236,27.2z M236,27.2"/>
	<path class="st3" d="M238.2,28.3h2.3c0.3,0,0.5-0.2,0.5-0.5s-0.2-0.5-0.5-0.5h-2.3c-0.3,0-0.5,0.2-0.5,0.5S237.9,28.3,238.2,28.3
		L238.2,28.3z M238.2,28.3"/>
	<path class="st3" d="M236,29.4h-2.2c-0.3,0-0.5,0.2-0.5,0.5c0,0.3,0.2,0.5,0.5,0.5h2.2c0.3,0,0.5-0.2,0.5-0.5
		C236.6,29.6,236.3,29.4,236,29.4L236,29.4z M236,29.4"/>
	<path class="st3" d="M236,31.6h-2.2c-0.3,0-0.5,0.2-0.5,0.5s0.2,0.5,0.5,0.5h2.2c0.3,0,0.5-0.2,0.5-0.5S236.3,31.6,236,31.6
		L236,31.6z M236,31.6"/>
	<path class="st3" d="M241,29.9c0-0.3-0.2-0.5-0.5-0.5h-2.3c-0.3,0-0.5,0.2-0.5,0.5c0,0.3,0.2,0.5,0.5,0.5h2.3
		C240.8,30.5,241,30.2,241,29.9L241,29.9z M241,29.9"/>
	<path class="st3" d="M242.6,28.3h2.2c0.3,0,0.5-0.2,0.5-0.5s-0.2-0.5-0.5-0.5h-2.2c-0.3,0-0.5,0.2-0.5,0.5S242.3,28.3,242.6,28.3
		L242.6,28.3z M242.6,28.3"/>
</g>
<g>
	<path class="st3" d="M77.7,67.2h-4.9l0.5-2.1H75c0.6,0,1-0.5,1-1v-0.5c0-0.3-0.2-0.5-0.5-0.5S75,63.2,75,63.5V64h-8.9
		c-0.3,0-0.5-0.2-0.5-0.5c0-0.3-0.2-0.5-0.5-0.5s-0.5,0.2-0.5,0.5c0,0.9,0.7,1.6,1.6,1.6h1.2l0.5,2.1h-4.9c-0.9,0-1.6,0.7-1.6,1.6
		v10.6c0,0.9,0.7,1.6,1.6,1.6h14.7c0.9,0,1.6-0.7,1.6-1.6V68.7C79.2,67.9,78.5,67.2,77.7,67.2L77.7,67.2z M72.2,65.1l-0.8,3.1h-2.3
		l-0.8-3.1H72.2z M78.2,79.3c0,0.3-0.2,0.5-0.5,0.5H62.9c-0.3,0-0.5-0.2-0.5-0.5V68.7c0-0.3,0.2-0.5,0.5-0.5H68l0.2,0.7
		c0.1,0.2,0.3,0.4,0.5,0.4h3.1c0.2,0,0.5-0.2,0.5-0.4l0.2-0.7h5.1c0.3,0,0.5,0.2,0.5,0.5V79.3z M78.2,79.3"/>
	<path class="st3" d="M76.6,72.4h-4.2c-0.3,0-0.5,0.2-0.5,0.5s0.2,0.5,0.5,0.5h4.2c0.3,0,0.5-0.2,0.5-0.5S76.9,72.4,76.6,72.4
		L76.6,72.4z M76.6,72.4"/>
	<path class="st3" d="M76.6,76.6h-4.2c-0.3,0-0.5,0.2-0.5,0.5s0.2,0.5,0.5,0.5h4.2c0.3,0,0.5-0.2,0.5-0.5S76.9,76.6,76.6,76.6
		L76.6,76.6z M76.6,76.6"/>
	<path class="st3" d="M76.6,74.5h-4.2c-0.3,0-0.5,0.2-0.5,0.5s0.2,0.5,0.5,0.5h4.2c0.3,0,0.5-0.2,0.5-0.5S76.9,74.5,76.6,74.5
		L76.6,74.5z M76.6,74.5"/>
	<path class="st3" d="M67.1,74.5c-1.7,0-3.1,1.4-3.1,3.1v0.5c0,0.3,0.2,0.5,0.5,0.5h5.2c0.3,0,0.5-0.2,0.5-0.5v-0.5
		C70.3,75.9,68.9,74.5,67.1,74.5L67.1,74.5z M65,77.7c0-1.2,0.9-2.1,2.1-2.1c1.2,0,2.1,0.9,2.1,2.1H65z M65,77.7"/>
	<path class="st3" d="M69.2,72.4c0-1.2-0.9-2.1-2.1-2.1c-1.2,0-2.1,0.9-2.1,2.1s0.9,2.1,2.1,2.1C68.3,74.5,69.2,73.6,69.2,72.4
		L69.2,72.4z M67.1,73.5c-0.6,0-1-0.5-1-1s0.5-1,1-1c0.6,0,1,0.5,1,1S67.7,73.5,67.1,73.5L67.1,73.5z M67.1,73.5"/>
	<path class="st3" d="M70.8,66.6c0,0.3-0.2,0.5-0.5,0.5c-0.3,0-0.5-0.2-0.5-0.5s0.2-0.5,0.5-0.5C70.6,66.1,70.8,66.3,70.8,66.6
		L70.8,66.6z M70.8,66.6"/>
</g>
</svg>
