<?xml version="1.0" encoding="utf-8"?>
<!-- Generator: Adobe Illustrator 19.0.0, SVG Export Plug-In . SVG Version: 6.00 Build 0)  -->
<svg version="1.1" xmlns="http://www.w3.org/2000/svg" xmlns:xlink="http://www.w3.org/1999/xlink" x="0px" y="0px"
	 viewBox="0 0 350 200" style="enable-background:new 0 0 350 200;" xml:space="preserve">
<style type="text/css">
	.st0{display:none;}
	.st1{fill:#C9D7FA;}
	.st2{fill:#E2FEFF;}
	.st3{fill:#AABCE0;}
	.st4{fill:#66CCC3;}
	.st5{fill:#869964;}
	.st6{fill:#0A1C2B;}
	.st7{fill:#FAE3D9;}
	.st8{opacity:0.47;fill:#7F7FC6;}
	.st9{fill:#414042;}
	.st10{fill:#050F16;}
	.st11{fill:#27485E;}
	.st12{fill:#F8A027;}
	.st13{fill:#D17F26;}
	.st14{fill:#B7B7B7;}
	.st15{fill:#E5263D;}
	.st16{fill:#BCBEC0;}
	.st17{fill:#DBDAD9;}
	.st18{fill:#F67280;}
	.st19{fill:#CC2340;}
	.st20{fill:#FFFFFF;}
	.st21{fill:#43C0B5;}
	.st22{opacity:0.1;enable-background:new    ;}
	.st23{fill:#0F1F2C;}
	.st24{fill:#98ABEF;}
	.st25{fill:#F6F1FC;}
	.st26{fill:url(#SVGID_1_);}
	.st27{fill:#E61F37;}
	.st28{fill:#E02459;}
	.st29{fill:url(#SVGID_2_);}
	.st30{fill:#071827;}
	.st31{fill:#F89F22;}
	.st32{fill:#F25F60;}
	.st33{fill:#FFDB56;}
	.st34{fill:#FFBB24;}
	.st35{fill:#E7343F;}
	.st36{clip-path:url(#SVGID_4_);fill:#F89F22;}
	.st37{clip-path:url(#SVGID_4_);fill:#FFCD00;}
	.st38{clip-path:url(#SVGID_4_);fill:#43C0B5;}
	.st39{clip-path:url(#SVGID_6_);fill:#3CAA9D;}
	.st40{clip-path:url(#SVGID_6_);fill:#E61F37;}
	.st41{fill:#E4DAEE;}
	.st42{fill:#CCCCCC;}
	.st43{fill:#E4253C;}
	.st44{fill:#E0831E;}
	.st45{fill:#39AA9C;}
</style>
<g id="Layer_2" class="st0">
</g>
<g id="Layer_6">
	<ellipse class="st1" cx="183.3" cy="153.2" rx="162.4" ry="18.9"/>
	<g>
		<path class="st2" d="M246.5,133.6c-75.4-15.3-70.6-62.4-110.9-48.5C95.3,99,109,37.7,71.8,40.3c-36.9,2.7-39.4,75.4-27.7,89.2
			C68.5,158.3,185.3,142,185.3,142s67.1,5.4,71.8,0.4c4.7-4.9,0.7-10.1,0.7-10.1L246.5,133.6z"/>
	</g>
	<g>
		<ellipse class="st3" cx="84.3" cy="159" rx="12" ry="1.4"/>
		<g>
			<path class="st4" d="M85.6,159.2l-1.2,0.4c0,0-0.4-1.1-1.1-3.1c-0.7-2-1.7-4.8-3-8.2c-2.6-6.8-6.3-15.7-10.6-24.4
				c-4.2-8.7-8.9-17.2-12.6-23.4c-3.7-6.2-6.4-10.3-6.4-10.3l1.1-0.7c0,0,2.7,4,6.4,10.3c3.7,6.3,8.4,14.8,12.7,23.5
				c4.3,8.7,8,17.7,10.6,24.5c1.3,3.4,2.3,6.3,3,8.3C85.2,158,85.6,159.2,85.6,159.2z"/>
			<path class="st4" d="M63.1,92.8c-1.7,3.7-6,5.3-6,5.3s-0.4-1.1-0.5-2.6c-0.2-1.5-0.1-3.6,0.7-5.4c1.7-3.8,5.9-5.5,5.9-5.5
				S64.8,89.1,63.1,92.8z"/>
			<path class="st4" d="M53.4,108.3c4.1,0.2,7.6-2.7,7.6-2.7s-3.1-3.4-7.2-3.5c-4.1-0.1-7.5,2.9-7.5,2.9s0.8,0.8,2,1.6
				C49.6,107.4,51.3,108.2,53.4,108.3z"/>
			<path class="st4" d="M49.5,96.6c2.7,0,4.9-2,4.9-2s-2.1-2.1-4.8-2.1c-2.7,0-4.9,2-4.9,2S46.9,96.6,49.5,96.6z"/>
			<path class="st4" d="M47.5,88.3C49.1,90.4,52,91,52,91s0.4-3-1.2-5.1c-1.6-2.2-4.6-2.7-4.6-2.7S46,86.1,47.5,88.3z"/>
			<path class="st4" d="M72.2,104.9c-2.3,4.5-7.7,6.2-7.7,6.2s-0.4-1.4-0.5-3.3c-0.1-1.9,0.1-4.4,1.2-6.6c2.2-4.5,7.5-6.4,7.5-6.4
				s0.4,1.4,0.6,3.4C73.5,100.1,73.3,102.6,72.2,104.9z"/>
			<path class="st4" d="M59.3,123.3c4.9,0.5,9.4-2.8,9.4-2.8s-3.6-4.3-8.6-4.8c-5-0.4-9.3,3.1-9.3,3.1S54.4,122.8,59.3,123.3z"/>
			<path class="st5" d="M80.8,121.9c-2.6,4.3-8,5.7-8,5.7s-0.3-1.4-0.3-3.3c0-1.9,0.3-4.4,1.6-6.6c2.5-4.4,7.9-6,7.9-6
				s0.4,1.4,0.4,3.4C82.4,117.2,82.1,119.7,80.8,121.9z"/>
			<path class="st4" d="M66.9,139.5c4.9,0.8,9.6-2.2,9.6-2.2s-0.8-1.1-2.3-2.4c-1.5-1.2-3.5-2.5-6-2.9c-4.9-0.7-9.5,2.5-9.5,2.5
				S62.1,138.7,66.9,139.5z"/>
			<path class="st4" d="M88.2,138.6c-2.8,4.2-8.3,5.3-8.3,5.3s-0.9-5.5,1.8-9.7c2.7-4.2,8.2-5.5,8.2-5.5S91,134.4,88.2,138.6z"/>
			<path class="st4" d="M73.3,155.4c4.8,1.1,9.7-1.7,9.7-1.7s-3.1-4.7-8-5.7c-4.9-1-9.6,2-9.6,2S68.5,154.3,73.3,155.4z"/>
		</g>
	</g>
	<g>
		<ellipse class="st1" cx="85.6" cy="179.4" rx="22.4" ry="2.7"/>
		<g>
			<g>
				<path class="st6" d="M95.2,69.4c4.4,2.5,4.5,5.2,3.8,6.9c0,0-5.4,2.5-6.9,2.9c0,0,1.9,3.9,1.8,5l-4.4-0.2c0,0-2.4-2-2.6-4.6
					c-0.1-2.6,1.1-5.1,3-6.3C91.8,71.9,95.3,72.4,95.2,69.4z"/>
				<path class="st7" d="M99,76.3c0,0,0.7,2.5,2.3,3c1.6,0.5,2,0.3,2,0.3s-0.6,2-0.2,3.5c0.3,1.5-0.3,3.2-2.4,4.2
					c-2,1-3.9,0.5-3.9,0.5l-1.9,2.4c0,0-2.8,0.2-4.2-0.9l1.2-3.1c0,0-3-1.4-1.8-2.9c1.2-1.5,3.9,0.9,3.9,0.9l-2-5L99,76.3z"/>
			</g>
			<path class="st8" d="M96.7,87.8l-0.4,0.5c-1.1,0-3.4-0.1-5.1-0.8l0.5-1.4C92.1,86.4,94,86,94,86C94.6,87.2,96.7,87.8,96.7,87.8z"
				/>
			<path class="st9" d="M73.9,175.6v4.1c0,0,5.5-0.8,9.2,0c3.6,0.8,3.8-2.9,0.7-3.2c-3.1-0.3-4.5-0.6-5.5-2.8h-4.5L73.9,175.6z"/>
			<path class="st6" d="M67.7,111.7c0,0-4.9,8.4,1.3,31.9c0,0-0.6,3.4,0.9,10.1c2.1,9.4,2.8,7,3.4,20.1c0.1,1.3,5.1,0,5.1,0
				l-1.4-28.5l-1.1-13.7l-1.5-17.7c0,0,0.2-1.4-0.4-2.2C73.3,110.9,67.7,111.7,67.7,111.7z"/>
			<path class="st10" d="M65.9,125.2c1.1,9.2,11.1,20,11.1,20l-0.6-29.5l-8.3-3.1l-1.7,2.9C66.2,115.5,65.5,122.3,65.9,125.2z"/>
			<path class="st9" d="M82.2,176.6v4.1c0,0,5.5-0.8,9.2,0c3.6,0.8,3.8-2.9,0.7-3.2c-3.1-0.3-4.5-0.6-5.5-2.8h-4.5L82.2,176.6z"/>
			<path class="st6" d="M82.9,117.1l3.9,26.5V175h-5c0,0-0.6-4.4-1.1-11c-0.4-6.7-3.5-11.7-2.4-18.8c0,0-13.3-21.5-10.2-34.9
				C70.5,100.3,82.9,117.1,82.9,117.1z"/>
			<path class="st11" d="M83.3,123.7c-6.4,3.7-15.6-1.2-15.6-1.2l-0.5-4.1h6.2L83.3,123.7z"/>
			<path class="st12" d="M96.5,90.2L94,97.4c0,0-7.2,10.9-9.7,24.9c-0.9,5.2-19.6-0.4-19.2-5.6c0.9-10.1,4.7-17.4,17.6-26.5
				c0.4-0.3,1.1-0.8,1.8-1.4c1.5-1.1,3.4-1.5,5.1-0.9L96.5,90.2z"/>
			<path class="st13" d="M86,90.2c0,0-5.4,10.1,1.9,19.4l4.3-9.2L89,93.4L86,90.2z"/>
			<path class="st7" d="M132.8,106.1c0,0,5.8,0.7,7.9-0.5c1.4-0.8,2.5-2.7,3.1-3.8c0.2-0.3-0.1-0.7-0.5-0.6
				c-1.1,0.3-3.1,0.6-5.5,0.1c-1.6-0.3,1.5-3.5-0.3-3.5s-2,3.5-2.6,4.3c-0.6,0.8-2.7,1.4-2.7,1.4L132.8,106.1z"/>
			<path class="st14" d="M133.4,103.4c2.1,2.5,4.8,2.8,4.8,2.8s-5.3,0.7-6.6,0C130.4,105.6,133.4,103.4,133.4,103.4z"/>
			<path class="st12" d="M89.7,88.7l17.4,13.2c2.2,1.7,5,2.5,7.8,2.2l18.3-2l1.7,5.5l-21.9,4.2c-2.8,0.6-5.7,0.1-8.1-1.5l-15.1-9.6
				c-3.5-2.2-5.1-6.6-3.7-10.5v0L89.7,88.7z"/>
		</g>
	</g>
	<g>
		<g>
			<ellipse class="st1" cx="46.3" cy="174.6" rx="15.6" ry="1.8"/>
			<g>
				<g>
					<path class="st15" d="M48.1,174.2l-1.3,0.3c0,0-4.7-19.5-8.4-39.3c-3.8-19.7-6.5-39.7-6.5-39.7l1.3-0.2c0,0,2.7,19.9,6.5,39.6
						C43.4,154.7,48.1,174.2,48.1,174.2z"/>
				</g>
				<path class="st15" d="M42.3,103.2c-3.1,2.8-7.9,2.7-7.9,2.7s0.4-4.7,3.5-7.5c3.2-2.8,7.9-2.6,7.9-2.6S45.5,100.4,42.3,103.2z"/>
				<path class="st15" d="M27.1,114.4c3.8,1.7,8.3,0.1,8.3,0.1s-1.8-4.4-5.6-6.1c-3.8-1.8-8.3-0.2-8.3-0.2S23.2,112.7,27.1,114.4z"
					/>
				<path class="st15" d="M27.9,101.3c2.5,1.2,5.4,0.2,5.4,0.2s-1.1-2.9-3.6-4.1c-2.5-1.2-5.4-0.2-5.4-0.2S25.4,100.1,27.9,101.3z"
					/>
				<path class="st15" d="M29.6,92.4c0.5,2.7,3,4.5,3,4.5s1.7-2.6,1.2-5.3c-0.5-2.7-3-4.5-3-4.5S29.2,89.7,29.6,92.4z"/>
				<path class="st15" d="M46.6,117.6c-3.8,3.5-9.6,3.5-9.6,3.5s0.3-5.8,4.1-9.3c3.8-3.5,9.6-3.4,9.6-3.4S50.4,114.1,46.6,117.6z"/>
				<path class="st15" d="M28.1,131.7c4.8,2.1,10.2,0,10.2,0s-2.3-5.3-7-7.4c-4.7-2.1-10.2-0.1-10.2-0.1S23.3,129.6,28.1,131.7z"/>
				<path class="st15" d="M50,136.2c-3.7,3.6-9.5,3.7-9.5,3.7s0.2-5.8,3.9-9.4c3.7-3.6,9.5-3.6,9.5-3.6S53.7,132.6,50,136.2z"/>
				<path class="st15" d="M31.8,150.7c4.8,1.9,10.2-0.3,10.2-0.3s-2.4-5.3-7.2-7.2c-4.8-2-10.2,0.1-10.2,0.1S27,148.8,31.8,150.7z"
					/>
				<path class="st15" d="M53.6,153.9c-3.6,3.7-9.4,3.9-9.4,3.9s0.1-5.8,3.7-9.5c3.7-3.6,9.5-3.8,9.5-3.8S57.2,150.2,53.6,153.9z"/>
				<path class="st15" d="M35.8,168.8c4.9,1.8,10.2-0.5,10.2-0.5s-2.5-5.2-7.4-7.1c-4.8-1.9-10.2,0.4-10.2,0.4S30.9,167,35.8,168.8z
					"/>
			</g>
		</g>
		<g>
			<ellipse class="st3" cx="220.7" cy="186.6" rx="12" ry="1.4"/>
			<g>
				<g>
					
						<rect x="227.8" y="138.1" transform="matrix(0.9516 0.3072 -0.3072 0.9516 61.1511 -62.2246)" class="st15" width="0.8" height="50"/>
				</g>
				<path class="st15" d="M239.3,146.4c-2.5,0.7-5.1-0.7-5.1-0.7s1.5-2.5,4-3.2c2.5-0.7,5.1,0.7,5.1,0.7S241.8,145.7,239.3,146.4z"
					/>
				<path class="st15" d="M227.6,148.3c1.6,2,4.6,2.4,4.6,2.4s0.3-2.9-1.4-5c-1.6-2-4.6-2.4-4.6-2.4S226,146.3,227.6,148.3z"/>
				<path class="st15" d="M231.7,141.3c1.1,1.3,3,1.6,3,1.6s0.2-1.9-0.9-3.3c-1.1-1.3-3-1.6-3-1.6S230.7,140,231.7,141.3z"/>
				<path class="st15" d="M235.1,136.9c-0.5,1.7,0.5,3.4,0.5,3.4s1.7-1,2.1-2.7c0.5-1.7-0.5-3.4-0.5-3.4S235.6,135.2,235.1,136.9z"
					/>
				<path class="st15" d="M237.5,155.6c-3.1,0.9-6.3-0.8-6.3-0.8s1.8-3.1,4.9-4c3.1-0.9,6.3,0.8,6.3,0.8S240.6,154.8,237.5,155.6z"
					/>
				<path class="st15" d="M223.2,158c2,2.5,5.6,3,5.6,3s0.3-3.6-1.7-6.1c-2-2.5-5.6-3-5.6-3S221.2,155.5,223.2,158z"/>
				<path class="st15" d="M233.8,167c-3.1,0.9-6.3-0.8-6.3-0.8s1.8-3.1,4.9-4c3.1-0.9,6.3,0.8,6.3,0.8S236.9,166.1,233.8,167z"/>
				<path class="st15" d="M219.6,169.4c2,2.5,5.6,3,5.6,3s0.3-3.6-1.7-6.1c-2-2.5-5.6-3-5.6-3S217.6,166.9,219.6,169.4z"/>
				<path class="st15" d="M230.4,177.8c-3.1,0.9-6.3-0.8-6.3-0.8s1.8-3.1,4.9-4c3.1-0.9,6.3,0.8,6.3,0.8S233.5,176.9,230.4,177.8z"
					/>
				<path class="st15" d="M216.1,180.2c2,2.5,5.6,3,5.6,3s0.3-3.6-1.7-6.1c-2-2.5-5.6-3-5.6-3S214.1,177.7,216.1,180.2z"/>
			</g>
		</g>
		<g>
			<ellipse class="st12" cx="311.1" cy="159.7" rx="12" ry="1.4"/>
			<g>
				<g>
					<path class="st12" d="M312.4,160.1l-1.3-0.1c0,0,0.2-1.3,0.4-3.5c0.2-2.2,0.7-5.4,1.4-9.1c1.3-7.5,3.7-17.4,6.7-27.1
						c3-9.7,6.5-19.2,9.3-26.3c2.8-7.1,4.6-11.8,4.6-11.8l1.2,0.5c0,0-1.9,4.7-4.6,11.8c-2.7,7.1-6.2,16.6-9.2,26.3
						c-3,9.7-5.4,19.5-6.7,27c-0.7,3.7-1.1,6.9-1.4,9.1C312.5,158.8,312.4,160.1,312.4,160.1z"/>
				</g>
				<path class="st12" d="M338.9,94.1c-4.1,0.9-8.2-1.6-8.2-1.6s2.7-3.9,6.8-4.8c4.2-0.9,8.2,1.7,8.2,1.7S343,93.2,338.9,94.1z"/>
				<path class="st12" d="M319.9,96.2c2.5,3.5,7.2,4.3,7.2,4.3s0.6-4.7-1.8-8.2c-2.5-3.5-7.1-4.4-7.1-4.4S317.4,92.7,319.9,96.2z"/>
				<path class="st12" d="M327.2,85.1c1.6,2.3,4.7,2.9,4.7,2.9s0.5-3.1-1.1-5.4c-1.6-2.3-4.7-2.9-4.7-2.9S325.6,82.8,327.2,85.1z"/>
				<path class="st12" d="M333.1,78.3c-0.9,2.6,0.4,5.5,0.4,5.5s2.8-1.4,3.7-4.1c0.9-2.6-0.4-5.5-0.4-5.5S334.1,75.6,333.1,78.3z"/>
				<path class="st12" d="M335.4,108.7c-5.1,1.2-10.1-1.7-10.1-1.7s3.2-4.9,8.3-6.1c5.1-1.1,10.1,1.9,10.1,1.9
					S340.4,107.6,335.4,108.7z"/>
				<path class="st12" d="M312.2,112.1c3.2,4.2,9,4.9,9,4.9s0.5-5.8-2.6-10c-3.1-4.2-8.9-5.1-8.9-5.1S309,107.9,312.2,112.1z"/>
				<path class="st12" d="M329.5,126.5c-5,1.4-10.2-1.1-10.2-1.1s0.7-1.3,2-2.7c1.4-1.4,3.4-3.1,5.8-3.7c5-1.3,10.2,1.5,10.2,1.5
					S334.5,125.1,329.5,126.5z"/>
				<path class="st12" d="M306.6,131.4c3.5,4,9.4,4.2,9.4,4.2s0-1.5-0.4-3.4c-0.4-2-1.2-4.4-2.9-6.4c-3.4-4-9.2-4.6-9.2-4.6
					S303.1,127.4,306.6,131.4z"/>
				<path class="st12" d="M325.1,143.6c-4.8,1.8-10.3-0.3-10.3-0.3s2.5-5.3,7.4-7c4.9-1.7,10.2,0.8,10.2,0.8
					S329.9,141.8,325.1,143.6z"/>
				<path class="st12" d="M302.7,150.4c1.9,1.8,4.4,2.6,6.3,3c2,0.4,3.4,0.3,3.4,0.3s-0.5-5.8-4.1-9.5c-3.7-3.8-9.6-3.8-9.6-3.8
					S298.8,146.7,302.7,150.4z"/>
			</g>
		</g>
	</g>
	<g>
		<ellipse class="st1" cx="266.4" cy="186.3" rx="22.4" ry="2.7"/>
		<g>
			<path class="st9" d="M273,182.5v4.1c0,0-5.5-0.8-9.2,0c-3.6,0.8-3.8-2.9-0.7-3.2c3.1-0.3,4.5-0.6,5.5-2.8h4.5L273,182.5z"/>
			<path class="st6" d="M279.2,118.5c0,0,4.9,8.4-1.3,31.9c0,0,0.6,3.4-0.9,10.1c-2.1,9.4-2.8,7-3.4,20.1c-0.1,1.3-5.1,0-5.1,0
				l1.4-28.5l1.1-13.7l1.5-17.7c0,0-0.2-1.4,0.4-2.2C273.7,117.7,279.2,118.5,279.2,118.5z"/>
			<path class="st10" d="M281,132.1c-1.1,9.2-11.1,20-11.1,20l0.6-29.5l8.3-3.1l1.7,2.9C280.7,122.4,281.4,129.2,281,132.1z"/>
			<path class="st9" d="M264.7,183.4v4.1c0,0-5.5-0.8-9.2,0c-3.6,0.8-3.8-2.9-0.7-3.2c3.1-0.3,4.5-0.6,5.5-2.8h4.5L264.7,183.4z"/>
			<path class="st6" d="M264,124l-3.9,26.5v31.4h5c0,0,0.6-4.4,1.1-11c0.4-6.7,3.5-11.7,2.4-18.8c0,0,13.3-21.5,10.2-34.9
				C276.4,107.2,264,124,264,124z"/>
			<path class="st11" d="M263.6,130.5c6.4,3.7,15.6-1.2,15.6-1.2l0.5-4.1h-6.2L263.6,130.5z"/>
			<path class="st16" d="M265.1,107.3h-12.9c-0.6,0-1-0.5-1-1V86c0-0.6,0.5-1,1-1h12.9c0.6,0,1,0.5,1,1v20.3
				C266.1,106.9,265.7,107.3,265.1,107.3z"/>
			<rect x="252.5" y="87" class="st6" width="12.2" height="18.3"/>
			<g>
				<path class="st17" d="M255.5,92h6.2c0.2,0,0.4-0.2,0.4-0.4l0,0c0-0.2-0.2-0.4-0.4-0.4h-6.2c-0.2,0-0.4,0.2-0.4,0.4l0,0
					C255.1,91.8,255.3,92,255.5,92z"/>
				<path class="st17" d="M255.5,95.3h6.2c0.2,0,0.4-0.2,0.4-0.4l0,0c0-0.2-0.2-0.4-0.4-0.4h-6.2c-0.2,0-0.4,0.2-0.4,0.4l0,0
					C255.1,95.1,255.3,95.3,255.5,95.3z"/>
				<path class="st17" d="M255.5,98.6h6.2c0.2,0,0.4-0.2,0.4-0.4l0,0c0-0.2-0.2-0.4-0.4-0.4h-6.2c-0.2,0-0.4,0.2-0.4,0.4l0,0
					C255.1,98.4,255.3,98.6,255.5,98.6z"/>
				<path class="st17" d="M255.5,101.9h3.9c0.2,0,0.4-0.2,0.4-0.4l0,0c0-0.2-0.2-0.4-0.4-0.4h-3.9c-0.2,0-0.4,0.2-0.4,0.4l0,0
					C255.1,101.7,255.3,101.9,255.5,101.9z"/>
			</g>
			<path class="st7" d="M264.2,99.9l-3.3-1c-0.2-0.1-0.4,0-0.6,0.2l-0.7,0.8c0,0.1-0.1,0.1-0.1,0.2l0,0c0,0.2,0.2,0.4,0.4,0.2
				l0.2-0.1c0.2-0.1,0.4-0.1,0.5,0l1,0.4v0.9h-1.4l-0.4-0.3c-0.2-0.1-0.4,0-0.4,0.2l0,0c0,0.1,0,0.1,0.1,0.2l1.3,1l2.4-0.5
				L264.2,99.9z"/>
			<path class="st7" d="M256.6,111.4c0,0,0.3,6.3,1.6,7.6c1,1.1,1.4-3.9,1.6-5.3c0-0.3,0-0.5,0-0.5h-0.8l-1-2.2l-0.9-0.4
				L256.6,111.4z"/>
			<path class="st7" d="M266.4,87.4c0,2.6,0.6,6.5,3.3,7.2l-1,3.2l3.6-1.5c0,0-0.1-4.3,0-4.8c0.1-0.5-1.9-3.3-1.9-3.3L266.4,87.4z"
				/>
			<path class="st15" d="M269.6,95.8l-1.8,1l0,0c-2.2,1.2-3.9,3.1-4.8,5.4l-4.8,11.6l-0.6,2.3c-0.2,0.7-0.1,1.5,0.2,2.2l0,0l0,0
				c0.8,1.7,3.2,2.1,4.4,0.6l2.5-3.3l-2.1,15.9c0,0,14.6-0.1,19-2.5c0,0-0.5-19.8-1.6-25.7c-1.2-5.9-4.4-6.9-4.4-6.9l-1.7-1.3
				l-1.5,0.4L269.6,95.8z"/>
			<path class="st7" d="M256,108.5l-0.1-1.2l0.9,0l0.1,0.3c0,0,0.2-1.2,0.1-1.8c-0.1-0.6,0.7-0.7,0.8,0c0.2,1.4,1,1.6,0.6,3.7
				l-0.2,0.9v0.7l-1.5,0.3L256,108.5z"/>
			<g>
				<polygon class="st18" points="259.5,101.4 263.2,94.6 263.6,95 259.8,101.7 				"/>
				<polygon class="st18" points="259.5,101.4 259.3,102.2 259.8,101.7 				"/>
				<path class="st7" d="M260.4,101.4l-0.5,0.2l-0.2-0.2c-0.1-0.1-0.1-0.1-0.1-0.2c0,0,0-0.1,0-0.1l0.1-0.1c0.1-0.1,0.2-0.1,0.3,0
					L260.4,101.4z"/>
				<path class="st18" d="M259.7,101.5l0.2,0.2l0,0.1l-0.4-0.3l0.1-0.2c0,0,0,0,0,0.1C259.6,101.4,259.6,101.4,259.7,101.5z"/>
			</g>
			<path class="st6" d="M277.1,87.1c-0.1,5.2-2.5,8.9-2.5,8.9s2.7,10.2,0.5,14.8c0,0-2.6-9.2-2.5-14.8c0,0-6.1-4.2-6.6-9.3
				c-0.5-5.1,2.7-6.9,5.2-7.2C273.8,79.2,277.2,83.4,277.1,87.1z"/>
		</g>
	</g>
</g>
<g id="Layer_3">
	<path class="st19" d="M21.8,67.5L5.9,71.6l-0.4-1.5c-0.2-0.8,0.3-1.7,1.1-1.9l12.9-3.3c0.8-0.2,1.7,0.3,1.9,1.1L21.8,67.5z"/>
	<path class="st19" d="M12.5,66.7l-5.8,1.5c-0.8,0.2-1.3,1.1-1.1,1.9l0.4,1.5l4.3-1.1L12.5,66.7z"/>
	<path class="st20" d="M24.5,77.9c0.2,0.8-0.3,1.7-1.1,1.9l-12.9,3.3c-0.8,0.2-1.7-0.3-1.9-1.1L5.9,71.6l15.9-4.1L24.5,77.9z"/>
	
		<rect x="12.1" y="71.8" transform="matrix(-0.9681 0.2505 -0.2505 -0.9681 44.6866 140.1557)" class="st21" width="2.6" height="2.3"/>
	<g class="st22">
		<rect x="12.6" y="74.6" transform="matrix(-0.9681 0.2505 -0.2505 -0.9681 46.2854 145.531)" width="2.6" height="2.3"/>
		<rect x="15.6" y="73.8" transform="matrix(-0.9681 0.2505 -0.2505 -0.9681 51.9441 143.2724)" width="2.6" height="2.3"/>
		<rect x="8.7" y="72.6" transform="matrix(-0.9681 0.2505 -0.2505 -0.9681 38.3205 142.6966)" width="2.8" height="2.3"/>
		<rect x="14.9" y="71.1" transform="matrix(-0.9681 0.2505 -0.2505 -0.9681 49.8738 138.0853)" width="2.6" height="2.3"/>
	</g>
	
		<rect x="16.3" y="76.5" transform="matrix(-0.9681 0.2505 -0.2505 -0.9681 54.1087 148.6954)" class="st21" width="2.6" height="2.6"/>
	<g class="st22">
		<rect x="18.5" y="73" transform="matrix(-0.9681 0.2505 -0.2505 -0.9681 57.6029 141.0138)" width="2.6" height="2.3"/>
		<rect x="17.8" y="70.3" transform="matrix(-0.9681 0.2505 -0.2505 -0.9681 55.5325 135.8266)" width="2.6" height="2.3"/>
		<rect x="19.3" y="75.7" transform="matrix(-0.9681 0.2505 -0.2505 -0.9681 59.7674 146.4367)" width="2.6" height="2.6"/>
		<rect x="9.4" y="75.4" transform="matrix(-0.9681 0.2505 -0.2505 -0.9681 40.3909 147.8838)" width="2.8" height="2.3"/>
		<rect x="10.1" y="78.1" transform="matrix(-0.9681 0.2505 -0.2505 -0.9681 42.5554 153.3067)" width="2.8" height="2.6"/>
		<rect x="13.3" y="77.3" transform="matrix(-0.9681 0.2505 -0.2505 -0.9681 48.4499 150.954)" width="2.6" height="2.6"/>
	</g>
	<g>
		<path class="st23" d="M9,68.9c0.1,0.4-0.1,0.8-0.6,0.9l0,0C8,70,7.6,69.7,7.5,69.3l-0.4-1.5C7,67.4,7.2,67,7.6,66.9l0,0
			C8,66.8,8.5,67,8.6,67.4L9,68.9z"/>
		<path class="st23" d="M19.4,66.2c0.1,0.4-0.1,0.8-0.6,0.9l0,0c-0.4,0.1-0.8-0.1-0.9-0.6l-0.4-1.5c-0.1-0.4,0.1-0.8,0.6-0.9l0,0
			c0.4-0.1,0.8,0.1,0.9,0.6L19.4,66.2z"/>
		<path class="st23" d="M14.2,67.6c0.1,0.4-0.1,0.8-0.6,0.9l0,0c-0.4,0.1-0.8-0.1-0.9-0.6l-0.4-1.5c-0.1-0.4,0.1-0.8,0.6-0.9l0,0
			c0.4-0.1,0.8,0.1,0.9,0.6L14.2,67.6z"/>
	</g>
	<g>
		<circle class="st24" cx="44" cy="33.5" r="7.6"/>
		<circle class="st21" cx="44" cy="33.5" r="7.6"/>
		<circle class="st25" cx="44" cy="33.5" r="5.6"/>
		<linearGradient id="SVGID_1_" gradientUnits="userSpaceOnUse" x1="45.6098" y1="39.8253" x2="43.7728" y2="32.845">
			<stop  offset="0" style="stop-color:#000000"/>
			<stop  offset="0.9946" style="stop-color:#000000;stop-opacity:0"/>
		</linearGradient>
		<circle class="st26" cx="44" cy="33.5" r="5.6"/>
		<g>
			<g>
				<g>
					<path class="st27" d="M44.9,28.8c-0.5,0.7-0.7,1.5-1,2.3c-0.3,0.9-0.7,1.8-0.9,2.7c-0.2,0.7,0.8,0.9,1.1,0.3
						c0.6-1.5,1.4-3.5,1.2-5.2C45.3,28.7,45,28.7,44.9,28.8L44.9,28.8z"/>
				</g>
			</g>
			<g>
				<g>
					<path class="st27" d="M43.8,34.4c0.7-0.1,1.3-0.6,1.8-1c0.5-0.4,1-0.7,1.3-1.3c0.1-0.2-0.2-0.4-0.4-0.4
						c-0.6,0.1-1.1,0.6-1.6,0.9c-0.5,0.4-1.1,0.7-1.5,1.2C43.2,34.1,43.4,34.4,43.8,34.4L43.8,34.4z"/>
				</g>
			</g>
		</g>
		<rect x="45.9" y="25.1" transform="matrix(0.957 0.29 -0.29 0.957 9.4508 -12.3288)" class="st28" width="0.8" height="1.2"/>
		<linearGradient id="SVGID_2_" gradientUnits="userSpaceOnUse" x1="46.5536" y1="25.2458" x2="46.1912" y2="26.0007">
			<stop  offset="0" style="stop-color:#000000"/>
			<stop  offset="0.9946" style="stop-color:#000000;stop-opacity:0"/>
		</linearGradient>
		<polyline class="st29" points="46.5,26.4 46.9,25.3 46.1,25 45.8,26.2 		"/>
		<path class="st27" d="M47.8,25.9c0.2-0.8-0.2-1.6-1-1.8c-0.8-0.2-1.6,0.2-1.8,1L47.8,25.9z"/>
		<g>
			<g>
				<path class="st27" d="M42.7,38.4c0.2-0.4,0.7-1.2,0.4-1.6c0-0.1-0.1-0.1-0.2-0.1c-0.5,0.2-0.5,1.1-0.6,1.6
					C42.3,38.5,42.6,38.6,42.7,38.4L42.7,38.4z"/>
			</g>
		</g>
		<g>
			<g>
				<path class="st27" d="M39.1,32.2c0.3,0.2,0.7,0.4,1.1,0.3c0.2-0.1,0.3-0.3,0.1-0.5c-0.3-0.3-0.7-0.3-1.1-0.4
					C39,31.6,38.9,32.1,39.1,32.2L39.1,32.2z"/>
			</g>
		</g>
		<g>
			<g>
				<path class="st27" d="M48.9,34.5c-0.3-0.3-0.8-0.6-1.3-0.5c-0.2,0-0.2,0.3-0.1,0.4c0.3,0.4,0.9,0.4,1.3,0.3
					C48.9,34.7,49,34.6,48.9,34.5L48.9,34.5z"/>
			</g>
		</g>
		<g>
			<g>
				<path class="st30" d="M46.1,37c0.1,0.3,0.2,0.7,0.4,0.9c0.1,0.1,0.3-0.1,0.3-0.2c-0.1-0.3-0.4-0.5-0.5-0.7
					C46.2,36.8,46,36.9,46.1,37L46.1,37z"/>
			</g>
		</g>
		<g>
			<g>
				<path class="st30" d="M39.4,35.9c0.3,0,1-0.2,1.1-0.6c0-0.1,0-0.2-0.1-0.2c-0.3-0.2-0.9,0.3-1.1,0.5
					C39.1,35.7,39.2,35.9,39.4,35.9L39.4,35.9z"/>
			</g>
		</g>
		<g>
			<g>
				<path class="st30" d="M41.3,29.3c0.1,0.3,0.2,0.6,0.3,0.8c0.2,0.2,0.6,0.1,0.5-0.2c-0.1-0.3-0.3-0.6-0.5-0.8
					C41.5,29,41.2,29.1,41.3,29.3L41.3,29.3z"/>
			</g>
		</g>
		<g>
			<g>
				<path class="st30" d="M47.9,30.6c-0.2,0.1-0.4,0.2-0.6,0.3C47.2,31,47,31.1,47,31.3c-0.1,0.2,0,0.3,0.2,0.3
					c0.4-0.1,0.7-0.5,0.9-0.8C48.1,30.6,48,30.5,47.9,30.6L47.9,30.6z"/>
			</g>
		</g>
	</g>
	<path class="st31" d="M99.4,36.8L98,35.5c-0.4,0.3-0.9,0.3-1.3,0L86.8,46c0.4,0.3,0.4,0.9,0.1,1.3l1.5,1.4c0.4-0.3,0.9-0.3,1.3,0
		l0,0c0.4,0.3,0.4,0.9,0.1,1.3l1.5,1.4c0.4-0.3,0.9-0.3,1.3,0l0,0l0,0l9.8-10.5l0,0l0,0c-0.4-0.3-0.4-0.9-0.1-1.3l-1.5-1.4
		c-0.4,0.3-0.9,0.3-1.3,0l0,0C99.2,37.8,99.2,37.2,99.4,36.8z"/>
	
		<rect x="88.9" y="41.4" transform="matrix(-0.6823 0.7311 -0.7311 -0.6823 190.218 5.8019)" class="st20" width="9.8" height="5.6"/>
	<polygon class="st21" points="92.5,43 93.8,43.6 94.8,42.6 94.6,44 95.9,44.6 94.5,44.9 94.4,46.3 93.7,45 92.3,45.3 93.2,44.3 	
		"/>
	<path class="st22" d="M91,51l5-12.6L95.1,38l0.2-0.8l-0.2-0.1L86.8,46c0.4,0.3,0.4,0.9,0.1,1.3l1.5,1.4c0.4-0.3,0.9-0.3,1.3,0l0,0
		c0.4,0.3,0.4,0.9,0.1,1.3L91,51z"/>
	<path class="st31" d="M90.3,36.4l-1.9-0.7c-0.2,0.4-0.8,0.6-1.2,0.4L82,49.5c0.5,0.2,0.7,0.7,0.6,1.2l1.9,0.7
		c0.2-0.4,0.8-0.6,1.2-0.4l0,0c0.5,0.2,0.7,0.7,0.6,1.2l1.9,0.7c0.2-0.4,0.8-0.6,1.2-0.4l0,0l0,0L94.6,39l0,0l0,0
		c-0.5-0.2-0.7-0.7-0.6-1.2l-1.9-0.7c-0.2,0.4-0.8,0.6-1.2,0.4l0,0C90.5,37.3,90.2,36.8,90.3,36.4z"/>
	<g>
		<path class="st20" d="M87.1,38.6C87,38.6,87,38.6,87.1,38.6l-0.7-0.3c-0.2-0.1-0.2-0.3-0.2-0.4c0.1-0.2,0.3-0.2,0.4-0.2l0.6,0.2
			c0.2,0.1,0.2,0.3,0.2,0.4C87.3,38.5,87.2,38.6,87.1,38.6z"/>
		<path class="st20" d="M92,40.5C91.9,40.5,91.9,40.5,92,40.5L90.7,40c-0.2-0.1-0.2-0.3-0.2-0.4c0.1-0.2,0.3-0.2,0.4-0.2l1.2,0.5
			c0.2,0.1,0.2,0.3,0.2,0.4C92.3,40.5,92.1,40.5,92,40.5z M89.5,39.5C89.5,39.5,89.5,39.5,89.5,39.5L88.2,39C88,39,88,38.8,88,38.6
			c0.1-0.2,0.3-0.2,0.4-0.2l1.2,0.5c0.2,0.1,0.2,0.3,0.2,0.4C89.8,39.5,89.7,39.6,89.5,39.5z"/>
		<path class="st20" d="M93.8,41.2C93.8,41.2,93.8,41.2,93.8,41.2L93.1,41c-0.2-0.1-0.2-0.3-0.2-0.4c0.1-0.2,0.3-0.2,0.4-0.2
			l0.6,0.2c0.2,0.1,0.2,0.3,0.2,0.4C94.1,41.2,93.9,41.3,93.8,41.2z"/>
		
			<rect x="82.9" y="42.5" transform="matrix(-0.3671 0.9302 -0.9302 -0.3671 162.2766 -19.7857)" class="st20" width="9.8" height="5.6"/>
	</g>
	<polygon class="st32" points="86.2,44.7 87.6,44.7 88.2,43.4 88.5,44.8 90,44.9 88.7,45.7 89.1,47.1 88,46.1 86.8,46.9 87.3,45.6 	
		"/>
	<g>
		<path class="st20" d="M95.7,37.7c-0.1,0-0.1,0-0.2-0.1L95,37.2c-0.1-0.1-0.1-0.3,0-0.5c0.1-0.1,0.3-0.1,0.5,0l0.5,0.4
			c0.1,0.1,0.1,0.3,0,0.5C95.9,37.7,95.8,37.7,95.7,37.7z"/>
		<path class="st20" d="M99.5,41.3c-0.1,0-0.1,0-0.2-0.1l-1-0.9c-0.1-0.1-0.1-0.3,0-0.5c0.1-0.1,0.3-0.1,0.5,0l1,0.9
			c0.1,0.1,0.1,0.3,0,0.5C99.7,41.3,99.6,41.3,99.5,41.3z M97.6,39.5c-0.1,0-0.1,0-0.2-0.1l-1-0.9c-0.1-0.1-0.1-0.3,0-0.5
			c0.1-0.1,0.3-0.1,0.5,0l1,0.9c0.1,0.1,0.1,0.3,0,0.5C97.8,39.5,97.7,39.5,97.6,39.5z"/>
		<path class="st20" d="M101,42.7c-0.1,0-0.1,0-0.2-0.1l-0.5-0.4c-0.1-0.1-0.1-0.3,0-0.5c0.1-0.1,0.3-0.1,0.5,0l0.5,0.4
			c0.1,0.1,0.1,0.3,0,0.5C101.2,42.6,101.1,42.7,101,42.7z"/>
	</g>
	<path class="st33" d="M261,47.3c-1.3,0-2.6,0.4-2.6,1.2s1.4,1.2,2.6,1.2c1.3,0,2.6-0.4,2.6-1.2S262.2,47.3,261,47.3z"/>
	<path class="st27" d="M261,39.1c-2.1,0-3.7,1.7-3.7,3.7c0,1.3,0.6,2.7,1.8,4.1c0.9,1.1,1.8,1.7,1.8,1.8c0,0,0.1,0,0.1,0
		s0.1,0,0.1,0c0,0,0.9-0.7,1.8-1.8c1.2-1.4,1.8-2.8,1.8-4.1C264.7,40.8,263,39.1,261,39.1z M262.4,42.8c0,0.8-0.6,1.4-1.4,1.4
		c-0.8,0-1.4-0.6-1.4-1.4s0.6-1.4,1.4-1.4C261.7,41.4,262.4,42.1,262.4,42.8z"/>
	<path class="st33" d="M270.9,41.1c-0.4-0.2-0.9-0.2-1.4-0.2c-0.5,0-1,0.1-1.4,0.2c-0.4,0.2-0.7,0.4-0.7,0.7s0.2,0.6,0.7,0.7
		c0.4,0.2,0.9,0.2,1.4,0.2c0.5,0,1-0.1,1.4-0.2c0.4-0.2,0.7-0.4,0.7-0.7S271.4,41.3,270.9,41.1z"/>
	<g>
		<path class="st34" d="M261,49.2c-1.1,0-2.3-0.3-2.6-0.9c0,0.1-0.1,0.2-0.1,0.3c0,0.8,1.4,1.2,2.6,1.2c1.3,0,2.6-0.4,2.6-1.2
			c0-0.1,0-0.2-0.1-0.3C263.3,48.9,262.1,49.2,261,49.2z"/>
		<path class="st34" d="M270.9,42c-0.4,0.2-0.9,0.2-1.4,0.2c-0.5,0-1-0.1-1.4-0.2c-0.3-0.1-0.5-0.3-0.6-0.5
			c-0.1,0.1-0.1,0.2-0.1,0.3c0,0.3,0.2,0.6,0.7,0.7c0.4,0.2,0.9,0.2,1.4,0.2c0.5,0,1-0.1,1.4-0.2c0.4-0.2,0.7-0.4,0.7-0.7
			c0-0.1,0-0.2-0.1-0.3C271.5,41.7,271.2,41.9,270.9,42z"/>
	</g>
	<path class="st27" d="M269.5,34.5c-1.6,0-2.9,1.3-2.9,2.9c0,1,0.5,2.1,1.4,3.2c0.7,0.8,1.4,1.3,1.4,1.4c0,0,0.1,0,0.1,0
		s0.1,0,0.1,0c0,0,0.7-0.5,1.4-1.4c0.9-1.1,1.4-2.2,1.4-3.2C272.5,35.8,271.2,34.5,269.5,34.5z M270.6,37.4c0,0.6-0.5,1.1-1.1,1.1
		c-0.6,0-1.1-0.5-1.1-1.1s0.5-1.1,1.1-1.1C270.1,36.3,270.6,36.8,270.6,37.4z"/>
	<g>
		<path class="st35" d="M261,39.1c-0.1,0-0.3,0-0.4,0c1.9,0.2,3.3,1.8,3.3,3.7c0,1.3-0.6,2.7-1.8,4.1c-0.6,0.7-1.2,1.2-1.5,1.5
			c0.2,0.1,0.3,0.2,0.3,0.2c0,0,0.1,0,0.1,0s0.1,0,0.1,0c0,0,0.9-0.7,1.8-1.8c1.2-1.4,1.8-2.8,1.8-4.1C264.7,40.8,263,39.1,261,39.1
			z"/>
		<path class="st35" d="M269.5,34.5c-0.1,0-0.3,0-0.4,0c1.4,0.2,2.5,1.4,2.5,2.9c0,1-0.5,2.1-1.4,3.2c-0.4,0.5-0.8,0.9-1.1,1.1
			c0.2,0.1,0.3,0.2,0.3,0.2c0,0,0.1,0,0.1,0c0,0,0.1,0,0.1,0c0,0,0.7-0.5,1.4-1.4c0.9-1.1,1.4-2.2,1.4-3.2
			C272.5,35.8,271.2,34.5,269.5,34.5z"/>
	</g>
	<path class="st21" d="M264.4,48.8c-0.1,0-0.2-0.1-0.2-0.2c0-0.1,0.1-0.2,0.2-0.2l0.3,0c0,0,0,0,0,0c0.1,0,0.2,0.1,0.2,0.2
		c0,0.1-0.1,0.2-0.2,0.2L264.4,48.8C264.4,48.8,264.4,48.8,264.4,48.8z M265.6,48.8c-0.1,0-0.2-0.1-0.2-0.2c0-0.1,0.1-0.2,0.2-0.2
		l0.3,0c0,0,0,0,0,0c0.1,0,0.2,0.1,0.2,0.2c0,0.1-0.1,0.2-0.2,0.2L265.6,48.8C265.6,48.8,265.6,48.8,265.6,48.8z M266.8,48.8
		c-0.1,0-0.2-0.1-0.2-0.2c0-0.1,0.1-0.2,0.2-0.2l0.3,0c0,0,0,0,0,0c0.1,0,0.2,0.1,0.2,0.2c0,0.1-0.1,0.2-0.2,0.2L266.8,48.8
		C266.8,48.8,266.8,48.8,266.8,48.8z M268,48.8c-0.1,0-0.2-0.1-0.2-0.2c0-0.1,0.1-0.2,0.2-0.2l0.3,0c0,0,0,0,0,0
		c0.1,0,0.2,0.1,0.2,0.2c0,0.1-0.1,0.2-0.2,0.2L268,48.8C268,48.8,268,48.8,268,48.8z M269.2,48.8c-0.1,0-0.2-0.1-0.2-0.2
		c0-0.1,0.1-0.2,0.2-0.2l0.3,0c0,0,0,0,0,0c0.1,0,0.2,0.1,0.2,0.2c0,0.1-0.1,0.2-0.2,0.2L269.2,48.8
		C269.2,48.8,269.2,48.8,269.2,48.8z M270.4,48.8c-0.1,0-0.2-0.1-0.2-0.2c0-0.1,0.1-0.2,0.2-0.2l0,0c0.1,0,0.2,0,0.2,0
		c0.1,0,0.2,0.1,0.3,0.2c0,0.1-0.1,0.2-0.2,0.3C270.6,48.7,270.5,48.8,270.4,48.8L270.4,48.8C270.4,48.8,270.4,48.8,270.4,48.8z
		 M271.5,48.4c-0.1,0-0.1,0-0.2-0.1c-0.1-0.1,0-0.2,0.1-0.3c0.1,0,0.1-0.1,0.2-0.2c0.1-0.1,0.2-0.1,0.3,0c0.1,0.1,0.1,0.2,0,0.3
		c-0.1,0.1-0.2,0.1-0.3,0.2C271.6,48.4,271.5,48.4,271.5,48.4z M272.2,47.5C272.2,47.5,272.1,47.5,272.2,47.5
		c-0.2-0.1-0.3-0.2-0.2-0.3c0-0.1,0.1-0.2,0.1-0.3c0-0.1,0.1-0.2,0.3-0.2c0.1,0,0.2,0.1,0.2,0.3c0,0.1,0,0.2-0.1,0.3
		C272.4,47.4,272.3,47.5,272.2,47.5z M272.2,46.3c-0.1,0-0.2-0.1-0.2-0.2c0-0.1-0.1-0.2-0.1-0.2c-0.1-0.1,0-0.2,0.1-0.3
		c0.1-0.1,0.2,0,0.3,0.1c0,0.1,0.1,0.2,0.1,0.3C272.5,46.2,272.4,46.3,272.2,46.3C272.3,46.3,272.2,46.3,272.2,46.3z M271.6,45.4
		c0,0-0.1,0-0.1,0c-0.1-0.1-0.1-0.1-0.2-0.1c-0.1-0.1-0.1-0.2-0.1-0.3c0.1-0.1,0.2-0.1,0.3-0.1c0.1,0.1,0.2,0.1,0.3,0.2
		c0.1,0.1,0.1,0.2,0,0.3C271.7,45.3,271.6,45.4,271.6,45.4z M270.5,45C270.5,45,270.5,45,270.5,45C270.4,45,270.4,45,270.5,45
		l-0.3,0c-0.1,0-0.2-0.1-0.2-0.2c0-0.1,0.1-0.2,0.2-0.2h0.2c0,0,0.1,0,0.1,0c0.1,0,0.2,0.1,0.2,0.2C270.7,44.9,270.6,45,270.5,45z
		 M269.3,45H269c-0.1,0-0.2-0.1-0.2-0.2c0-0.1,0.1-0.2,0.2-0.2h0.3c0.1,0,0.2,0.1,0.2,0.2S269.4,45,269.3,45z M268.1,45h-0.3
		c-0.1,0-0.2-0.1-0.2-0.2c0-0.1,0.1-0.2,0.2-0.2h0.3c0.1,0,0.2,0.1,0.2,0.2S268.2,45,268.1,45z M266.9,45h-0.3
		c-0.1,0-0.2-0.1-0.2-0.2c0-0.1,0.1-0.2,0.2-0.2h0.3c0.1,0,0.2,0.1,0.2,0.2S267,45,266.9,45z M265.8,44.7c0,0-0.1,0-0.1,0
		c-0.1-0.1-0.2-0.1-0.3-0.2c-0.1-0.1-0.1-0.2,0-0.3c0.1-0.1,0.2-0.1,0.3,0c0.1,0.1,0.1,0.1,0.2,0.2c0.1,0.1,0.1,0.2,0.1,0.3
		C265.9,44.7,265.9,44.7,265.8,44.7z M265.1,43.8c-0.1,0-0.2-0.1-0.2-0.2c0-0.1,0-0.2,0-0.3l0,0c0-0.1,0.1-0.2,0.2-0.2c0,0,0,0,0,0
		c0.1,0,0.2,0.1,0.2,0.2l0,0c0,0.1,0,0.2,0,0.2C265.4,43.6,265.3,43.8,265.1,43.8C265.2,43.8,265.1,43.8,265.1,43.8z M265.4,42.7
		c0,0-0.1,0-0.1,0c-0.1-0.1-0.1-0.2-0.1-0.3c0.1-0.1,0.1-0.2,0.2-0.3c0.1-0.1,0.2-0.1,0.3,0c0.1,0.1,0.1,0.2,0,0.3
		c-0.1,0.1-0.1,0.1-0.2,0.2C265.5,42.6,265.4,42.7,265.4,42.7z M266.4,42.1c-0.1,0-0.2-0.1-0.2-0.2c0-0.1,0.1-0.2,0.2-0.3
		c0.1,0,0.1,0,0.2,0h0.1c0.1,0,0.2,0.1,0.2,0.2s-0.1,0.2-0.2,0.2h-0.1C266.5,42.1,266.4,42.1,266.4,42.1
		C266.4,42.1,266.4,42.1,266.4,42.1z"/>
	<g>
		<g>
			<defs>
				<rect id="SVGID_3_" x="299.4" y="66.3" width="16.2" height="17.2"/>
			</defs>
			<clipPath id="SVGID_4_">
				<use xlink:href="#SVGID_3_"  style="overflow:visible;"/>
			</clipPath>
			<path class="st36" d="M305.9,83.2c0.5,0.5,1.2,0.5,1.7,0l0.4-0.4l-2.9-2.9l-1.2,1.2L305.9,83.2z M305.9,83.2"/>
			<path class="st37" d="M303.8,81.1l1.2-1.2L303.8,81.1z M303.8,81.1"/>
			<path class="st38" d="M314,68c-1-1-2.5-1.6-3.9-1.6c-0.2,0-0.3,0.1-0.3,0.3c0,0.2,0.1,0.3,0.3,0.3c1.3,0,2.6,0.5,3.5,1.5
				s1.5,2.2,1.5,3.5c0,0.2,0.1,0.3,0.3,0.3s0.3-0.1,0.3-0.3C315.6,70.4,315,69,314,68L314,68z M314,68"/>
		</g>
		<path class="st21" d="M312.3,69.6c0.6,0.6,0.9,1.4,0.9,2.3c0,0.2,0.1,0.3,0.3,0.3c0.2,0,0.3-0.1,0.3-0.3c0-2.1-1.7-3.8-3.8-3.8
			c-0.2,0-0.3,0.1-0.3,0.3c0,0.2,0.1,0.3,0.3,0.3C310.9,68.7,311.7,69,312.3,69.6L312.3,69.6z M312.3,69.6"/>
		<path class="st27" d="M304.7,68.7l1.2-1.2l4.2,4.2l-1.2,1.2L304.7,68.7z M304.7,68.7"/>
		<path class="st19" d="M308.8,72.8l1.2-1.2l4.2,4.2L313,77L308.8,72.8z M308.8,72.8"/>
		<path class="st21" d="M308.8,72.8l-4.2-4.2l-2.9,7.9l1.7,1.7L308.8,72.8z M308.8,72.8"/>
		<g>
			<defs>
				<rect id="SVGID_5_" x="299.4" y="66.3" width="16.2" height="17.2"/>
			</defs>
			<clipPath id="SVGID_6_">
				<use xlink:href="#SVGID_5_"  style="overflow:visible;"/>
			</clipPath>
			<path class="st39" d="M303.4,78.2l1.7,1.7L313,77l-4.2-4.2L303.4,78.2z M303.4,78.2"/>
			<path class="st40" d="M301.8,76.6l-1.7,1.7c-0.9,0.9-0.9,2.4,0,3.3l3.3-3.3L301.8,76.6z M301.8,76.6"/>
		</g>
		<path class="st19" d="M300.1,81.5c0.9,0.9,2.4,0.9,3.3,0l0.4-0.4l1.2-1.2l-1.7-1.7L300.1,81.5z M300.1,81.5"/>
	</g>
	<path class="st41" d="M322.1,29.6l-2.7,2.8c-0.1,0.1-0.2,0.2-0.4,0.2c-0.1,0-0.3,0-0.4-0.1c-0.2-0.2-0.2-0.5,0-0.7l2.7-2.8
		c0.2-0.2,0.5-0.2,0.7,0C322.3,29,322.3,29.4,322.1,29.6L322.1,29.6z M322.1,29.6"/>
	<path class="st42" d="M322.1,29.6l-1.7,1.8l0-1.5l1-1c0.2-0.2,0.5-0.2,0.7,0C322.3,29,322.3,29.4,322.1,29.6L322.1,29.6z
		 M322.1,29.6"/>
	<path class="st41" d="M323.3,28.3c-0.2,0-0.3-0.1-0.4-0.2c-0.2-0.2-0.1-0.6,0.1-0.7l2.5-1.9c0.2-0.2,0.6-0.1,0.7,0.1
		c0.2,0.2,0.1,0.6-0.1,0.7l-2.5,1.9C323.5,28.3,323.4,28.3,323.3,28.3L323.3,28.3z M323.3,28.3"/>
	<path class="st21" d="M318.3,31.1c-0.9,0-1.6,0.7-1.6,1.6c0,0.9,0.7,1.6,1.6,1.6c0.9,0,1.6-0.7,1.6-1.6
		C319.9,31.8,319.1,31.1,318.3,31.1L318.3,31.1z M318.3,31.1"/>
	<path class="st31" d="M322.4,26.9c-0.9,0-1.6,0.7-1.6,1.6c0,0.9,0.7,1.6,1.6,1.6c0.9,0,1.6-0.7,1.6-1.6
		C324,27.6,323.3,26.9,322.4,26.9L322.4,26.9z M322.4,26.9"/>
	<path class="st43" d="M326.6,23.7c-0.9,0-1.6,0.7-1.6,1.6c0,0.9,0.7,1.6,1.6,1.6c0.9,0,1.6-0.7,1.6-1.6
		C328.1,24.4,327.4,23.7,326.6,23.7"/>
	<path class="st43" d="M328.2,29.4l0.2,11.4l-3.1,0l-0.2-11.4c0-0.3,0.2-0.5,0.5-0.5l2.1,0C328,28.9,328.2,29.1,328.2,29.4
		L328.2,29.4z M328.2,29.4"/>
	<path class="st31" d="M324.1,32.6l0.1,8.2l-3.1,0l-0.1-8.2c0-0.3,0.2-0.5,0.5-0.5l2.1,0C323.8,32.1,324.1,32.3,324.1,32.6
		L324.1,32.6z M324.1,32.6"/>
	<path class="st21" d="M319.9,36.9l0.1,4l-3.1,0l-0.1-4c0-0.3,0.2-0.5,0.5-0.5l2.1,0C319.7,36.3,319.9,36.6,319.9,36.9L319.9,36.9z
		 M319.9,36.9"/>
	<path class="st19" d="M326.6,23.7c0.9,0,1.6,0.7,1.6,1.6c0,0.9-0.7,1.6-1.6,1.6l0,0L326.6,23.7"/>
	<path class="st19" d="M326.6,26.8"/>
	<path class="st19" d="M328.2,29.4l0.2,11.4l-1.6,0l-0.2-11.9l1,0C328,28.9,328.2,29.1,328.2,29.4L328.2,29.4z M328.2,29.4"/>
	<path class="st44" d="M322.4,30l0-3.1c0.9,0,1.6,0.7,1.6,1.6C324,29.3,323.3,30,322.4,30L322.4,30z M322.4,30"/>
	<path class="st44" d="M324.1,32.6l0.1,8.2l-1.6,0l-0.1-8.7l1,0C323.8,32.1,324.1,32.3,324.1,32.6L324.1,32.6z M324.1,32.6"/>
	<path class="st45" d="M318.3,34.3l0-3.1c0.9,0,1.6,0.7,1.6,1.6C319.9,33.5,319.2,34.3,318.3,34.3L318.3,34.3z M318.3,34.3"/>
	<path class="st45" d="M319.9,36.9l0.1,4l-1.6,0l-0.1-4.6l1,0C319.7,36.3,319.9,36.6,319.9,36.9L319.9,36.9z M319.9,36.9"/>
	<path class="st41" d="M329.5,41c0,0.3-0.2,0.5-0.4,0.5l-12.9,0.2c-0.2,0-0.4-0.2-0.4-0.5c0-0.3,0.2-0.5,0.4-0.5l12.9-0.2
		C329.3,40.5,329.5,40.7,329.5,41L329.5,41z M329.5,41"/>
	<path class="st42" d="M329.4,41c0,0.3-0.2,0.5-0.5,0.5l-8.4,0.1l0-1l8.4-0.1C329.2,40.5,329.4,40.7,329.4,41L329.4,41z M329.4,41"
		/>
</g>
</svg>
