<?xml version="1.0" encoding="utf-8"?>
<!-- Generator: Adobe Illustrator 21.0.0, SVG Export Plug-In . SVG Version: 6.00 Build 0)  -->
<svg version="1.1" id="Layer_1" xmlns="http://www.w3.org/2000/svg" xmlns:xlink="http://www.w3.org/1999/xlink" x="0px" y="0px"
	 viewBox="0 0 253 179" style="enable-background:new 0 0 253 179;" xml:space="preserve">
<style type="text/css">
	.st0{fill:#0B1927;stroke:#0B1927;stroke-width:3;stroke-miterlimit:10;}
	.st1{fill:#0B1927;stroke:#0B1927;stroke-miterlimit:10;}
	.st2{fill:#E5263D;}
	.st3{fill:#43C0B5;}
	.st4{fill:#F9A127;}
	.st5{fill:#0F1F2D;}
</style>
<path class="st0" d="M101.4,98c1.9-1.9,1.9-5,0-6.8c-1.9-1.9-5-1.9-6.8,0c-1.9,1.9-1.9,5,0,6.8C96.4,99.8,99.5,99.8,101.4,98z"/>
<path class="st1" d="M141.5,113.9c0-8-6.5-14.5-14.5-14.5s-14.5,6.5-14.5,14.5s6.5,14.5,14.5,14.5S141.5,121.9,141.5,113.9z
	 M122.2,113.9c0-2.7,2.2-4.8,4.8-4.8c2.7,0,4.8,2.2,4.8,4.8c0,2.7-2.2,4.8-4.8,4.8C124.3,118.7,122.2,116.6,122.2,113.9z"/>
<path class="st0" d="M127,152.7c21.4,0,38.8-17.4,38.8-38.8S148.4,75.2,127,75.2c-5.4,0-10.6,1.1-15.6,3.3c-2.4,1.1-3.6,3.9-2.5,6.4
	c1.1,2.4,3.9,3.6,6.4,2.5c3.7-1.6,7.6-2.4,11.7-2.4c16,0,29.1,13,29.1,29.1S143,143,127,143s-29.1-13-29.1-29.1c0-0.2,0-0.3,0-0.5
	c0.1-2.7-2.1-4.9-4.7-5c-2.7-0.1-4.9,2.1-5,4.7c0,0.2,0,0.5,0,0.7C88.2,135.3,105.6,152.7,127,152.7z"/>
<path class="st0" d="M131.8,36.4V7.3c0-2.7-2.2-4.8-4.8-4.8c-2.7,0-4.8,2.2-4.8,4.8v29.1c0,2.7,2.2,4.8,4.8,4.8
	C129.7,41.2,131.8,39.1,131.8,36.4z"/>
<path class="st0" d="M72.9,45.3c1.9-1.9,1.9-5,0-6.9L52.3,17.9c-1.9-1.9-5-1.9-6.9,0c-1.9,1.9-1.9,5,0,6.9L66,45.3
	C67.9,47.2,71,47.2,72.9,45.3z"/>
<path class="st0" d="M188,45.3l20.5-20.5c1.9-1.9,1.9-5,0-6.9c-1.9-1.9-5-1.9-6.9,0l-20.5,20.5c-1.9,1.9-1.9,5,0,6.9
	C183,47.2,186.1,47.2,188,45.3z"/>
<path class="st0" d="M4.2,114.7c-1.8,2-1.6,5.1,0.4,6.8c2,1.8,5.1,1.6,6.8-0.4c1-1.2,2.1-2.3,3.2-3.5C38.6,153.8,82,176.9,127,176.9
	s88.4-23.1,112.4-59.2c1.1,1.2,2.1,2.3,3.2,3.5c1.8,2,4.8,2.2,6.8,0.4c2-1.8,2.2-4.8,0.4-6.8C219,79.9,173.3,50.9,127,50.9
	C80.7,50.9,35,79.9,4.2,114.7z M127,60.6c48.3,0,88.2,33,105.4,49.9c-21.9,34.5-62.9,56.7-105.4,56.7s-83.5-22.1-105.4-56.7
	C38.8,93.6,78.7,60.6,127,60.6z"/>
<path class="st2" d="M134.5,112c-1.1,0-2-0.6-2.3-1.6c-0.4-1-0.1-2,0.8-2.7c0.3-0.2,0.6-0.4,0.9-0.6c2.1-1.2,4.1-2.4,6.2-3.6
	c0.3-0.1,0.5-0.3,0.8-0.4c1.1-0.5,2.5,0.1,3,1.2c0.6,1.2,0.1,2.4-0.8,3c-0.2,0.1-0.3,0.2-0.5,0.3c-2.2,1.3-4.4,2.5-6.6,3.8
	C135.5,111.8,135,112,134.5,112z"/>
<path class="st3" d="M112.1,125.1c-0.9-0.1-1.6-0.6-2-1.5c-0.4-0.9-0.2-1.8,0.5-2.5c0.2-0.3,0.5-0.5,0.8-0.6
	c2.2-1.3,4.4-2.5,6.6-3.8c0.2-0.1,0.4-0.3,0.7-0.3c0.8-0.3,1.6-0.3,2.3,0.2c1.1,0.7,1.6,2.4,0.4,3.6c-0.3,0.3-0.7,0.6-1.1,0.8
	c-1.3,0.8-2.6,1.5-3.9,2.2c-0.9,0.5-1.9,1.1-2.8,1.6C113,125,112.7,125.1,112.1,125.1z"/>
<path class="st2" d="M121.8,109.8c0,1.7-1.8,2.9-3.4,2.2c-0.3-0.1-0.5-0.3-0.8-0.4c-2-1.2-4-2.3-6-3.5c-0.3-0.2-0.6-0.3-0.9-0.6
	c-1.4-1.1-1.2-3.3,0.4-4.1c0.7-0.3,1.3-0.3,2,0c0.2,0.1,0.4,0.2,0.7,0.3c2.1,1.2,4.2,2.4,6.3,3.6c0.3,0.1,0.5,0.3,0.8,0.5
	C121.5,108.4,121.9,109.1,121.8,109.8z"/>
<path class="st3" d="M141.7,124.8c-0.4,0-0.8-0.1-1.1-0.3c-0.6-0.3-1.1-0.6-1.7-1c-1.7-1-3.3-1.9-5-2.9c-0.3-0.2-0.7-0.4-1-0.7
	c-1.3-1.1-1-3.3,0.8-4c0.6-0.2,1.2-0.2,1.7,0.1c0.4,0.2,0.7,0.4,1.1,0.6c1.8,1.1,3.7,2.1,5.5,3.2c0.4,0.2,0.8,0.4,1.1,0.7
	c1.5,1.1,1.3,3.2-0.3,4.1C142.5,124.7,142.1,124.8,141.7,124.8z"/>
<path class="st4" d="M124.5,101.2c0-1.4,0-2.8,0-4.2c0-0.7,0.3-1.3,0.9-1.8c0.7-0.6,1.5-0.7,2.4-0.4c0.9,0.3,1.3,1,1.5,1.9
	c0,0.2,0,0.4,0,0.6c0,2.6,0,5.2,0,7.9c0,0.5-0.1,1-0.3,1.4c-0.5,0.9-1.7,1.4-2.7,1.1c-1-0.3-1.7-1.1-1.8-2.1c0-0.8,0-1.6,0-2.4
	C124.5,102.5,124.5,101.8,124.5,101.2C124.5,101.2,124.5,101.2,124.5,101.2z"/>
<path class="st4" d="M124.8,126.5c0-1.3,0-2.7,0-4c0-0.5,0.1-0.9,0.3-1.3c0.5-0.9,1.6-1.4,2.7-1.1c1,0.2,1.7,1.1,1.8,2.1
	c0,0.3,0,0.6,0,0.9c0,2.3,0,4.7,0,7c0,0.3,0,0.6,0,0.9c-0.1,1.2-1.2,2.2-2.4,2.2c-1.2,0-2.3-1-2.4-2.2c0-0.3,0-0.6,0-0.9
	C124.8,128.8,124.8,127.7,124.8,126.5C124.8,126.5,124.8,126.5,124.8,126.5z"/>
<path class="st5" d="M108.9,111.9c0.6,0,1.2,0,1.8,0c1.3,0,2.3,1,2.3,2.4c0,1.5-1.1,2.3-2.3,2.4c0,0-0.1,0-0.1,0c-1.1,0-2.3,0-3.4,0
	c-0.3,0-0.6-0.1-0.9-0.2c-1.1-0.4-1.6-1.5-1.5-2.6c0.1-0.9,0.9-1.9,2.1-2C107.6,111.9,108.3,111.9,108.9,111.9
	C108.9,111.9,108.9,111.9,108.9,111.9z"/>
<path class="st5" d="M121,100c0,1-0.6,1.8-1.6,2.2c-1,0.4-2.2-0.1-2.7-0.7c-0.1-0.2-0.3-0.4-0.4-0.6c-0.5-0.8-0.9-1.5-1.4-2.3
	c-0.1-0.2-0.2-0.4-0.3-0.7c-0.5-1.1,0.1-2.4,1-3c0.8-0.5,2.2-0.5,3.1,0.6c0.1,0.1,0.2,0.2,0.3,0.4c0.6,0.9,1.1,1.9,1.7,2.8
	C120.9,99.1,121,99.5,121,100z"/>
<path class="st5" d="M121.3,127.8c0,0.4-0.1,0.9-0.3,1.3c-0.6,0.9-1.1,1.9-1.7,2.8c-0.1,0.2-0.2,0.3-0.4,0.5
	c-0.6,0.7-1.4,0.9-2.3,0.7c-0.9-0.2-1.5-0.7-1.8-1.6c-0.2-0.7-0.2-1.3,0.2-1.9c0.6-1.1,1.2-2.2,1.9-3.2c1.2-1.7,3.3-1.2,4.1,0.2
	C121.2,127,121.3,127.4,121.3,127.8z"/>
<path class="st5" d="M137,133.4c-0.8,0-1.4-0.3-1.9-0.9c-0.1-0.1-0.1-0.2-0.2-0.2c-0.6-1.1-1.2-2.1-1.8-3.2
	c-0.6-1.2-0.1-2.5,1.1-3.1c0.9-0.5,2.1-0.3,2.8,0.5c0.1,0.1,0.2,0.3,0.3,0.5c0.5,0.9,1.1,1.9,1.6,2.8c0.1,0.1,0.1,0.3,0.2,0.4
	C139.8,131.5,138.8,133.4,137,133.4z"/>
<path class="st5" d="M135,102.2c-1.8,0-3-1.8-2.3-3.3c0.2-0.5,0.5-1,0.8-1.4c0.4-0.6,0.7-1.3,1.1-1.9c0.5-0.8,1.3-1.2,2.3-1.1
	c1.6,0.2,2.5,1.9,2,3.1c-0.1,0.1-0.1,0.3-0.2,0.4c-0.6,1-1.1,2-1.7,3c-0.2,0.4-0.5,0.6-0.8,0.8C135.9,102,135.5,102.2,135,102.2z"/>
<path class="st5" d="M145.2,116.2c-0.6,0-1.2,0-1.8,0c-1.1-0.1-2-0.9-2.2-1.9c-0.2-1.2,0.4-2.3,1.5-2.8c0.2-0.1,0.4-0.1,0.6-0.1
	c1.2,0,2.5,0,3.7,0c1.2,0,2.2,1.2,2.2,2.4c0,1.2-1,2.3-2.2,2.4C146.4,116.2,145.8,116.1,145.2,116.2
	C145.2,116.2,145.2,116.2,145.2,116.2z"/>
</svg>
