<?xml version="1.0" encoding="utf-8"?>
<!-- Generator: Adobe Illustrator 21.0.0, SVG Export Plug-In . SVG Version: 6.00 Build 0)  -->
<svg version="1.1" id="Layer_1" xmlns="http://www.w3.org/2000/svg" xmlns:xlink="http://www.w3.org/1999/xlink" x="0px" y="0px"
	 viewBox="0 0 410 276" style="enable-background:new 0 0 410 276;" xml:space="preserve">
<style type="text/css">
	.st0{opacity:0.22;}
	.st1{fill:#A5A5A5;}
	.st2{fill:#F89F22;}
	.st3{fill:#FFB769;}
	.st4{fill:#D6B057;}
	.st5{fill:#242449;}
	.st6{fill:#0F1F2C;}
	.st7{fill:#E4253C;}
	.st8{fill:#43C0B5;}
	.st9{fill:#A2A4A8;}
	.st10{fill:#E4C8AB;}
	.st11{fill:#FFFFFF;}
	.st12{fill:#B5B7B9;}
	.st13{fill:#E7CFB4;}
	.st14{fill:#666666;}
	.st15{fill:#B0B0B0;}
	.st16{opacity:0.21;}
	.st17{fill:#606060;}
	.st18{opacity:0.21;fill:#606060;}
	.st19{fill:#ED8C18;}
	.st20{fill:#D67913;}
	.st21{fill:#808080;}
	.st22{fill:#8E8E8E;}
	.st23{fill:#4D4D4D;}
	.st24{fill:#A99371;}
	.st25{fill:#DEDAE8;}
</style>
<g class="st0">
	<path class="st1" d="M398.8,248.2c4.3-16.1-61.1-15.7-71.2-15.7c-11.2,0-22.6,0.4-33.8,0c-4.7-0.2-9.4-1.1-14-2.1
		c-4.6-1-9.2-0.8-13.9-1.2c-19.4-1.8-38.9-1.5-58.4-1.5c-6.3,0-12.7-0.1-19,0c-11.4,0-22.8,0.3-34.1,1.6c-4.3,0.5-8.5,1.5-12.8,1.9
		c-8.6,0.8-17,2.4-25.6,3.1c-6.9,0.6-13.9,0.9-20.8,1.7c-6.5,0.7-13.7,0.5-20.1-0.6c-4.8-0.9-9.5-1.3-14.2-2.7
		c-5.2-1.5-10.9-2.6-16.4-2.6c-7.8,0.1-15.4,0.1-22.8,2.8c-2.6,0.9-5.8,2.5-7.8,4.5c-4.5,4.6-5.2,15.9-0.6,20.7
		c7.6,8,24,11.1,34.7,11.2c11.7,0.2,23.1-0.7,34.9-1.2c10.9-0.5,21.8-1.2,32.8-1.1c22.4,0,44.7,0,67-1.5c21-1.4,42-0.9,63-0.9
		c21.5,0,42.9,0.2,64.3,3c9.3,1.2,18.8,1.7,28.2,2.6c8.4,0.8,16.4,0,24.8-0.7c7-0.6,14-2.4,20.4-5.5
		C388.3,261.5,397.2,254,398.8,248.2"/>
</g>
<g>
	<g>
		<g>
			<g>
				<path class="st2" d="M35.1,88.1c8.5-1.7,10.1-10.8,10.3-11.9c0-0.1,0-0.1,0-0.2l-0.5-1.1l-2-3.9l-2-3.9L40.4,66
					c0-0.1-0.1-0.1-0.1-0.2c-1-0.5-9.3-4.6-15.7,1.2c-0.2,0.2-0.1,0.6,0.2,0.6c1.4,0.1,4.3,0.3,5.6,1c0.3,0.1,0.2,0.6-0.1,0.7
					c-1.9,0.4-6.9,2.1-9.5,7c-3.2,6.2-2.3,6.9-2.3,6.9l0.1-0.1l-0.1,0.1c0,0,0.1,1.2,7,2.3c5.5,0.9,9.8-2.2,11.3-3.4
					c0.3-0.2,0.7,0,0.6,0.3c-0.3,1.4-1.8,3.9-2.6,5.1C34.6,87.8,34.8,88.1,35.1,88.1z"/>
			</g>
			<g>
				<path class="st3" d="M37.9,83.8c6-1,6.9-7.9,7-8.7c0-0.1,0-0.1,0-0.2l-2-3.9l-2-3.9c0-0.1-0.1-0.1-0.1-0.1
					c-0.7-0.4-6.8-3.8-11.2,0.4c-0.2,0.2,0,0.5,0.2,0.5c1,0.1,3.1,0.4,4,0.9c0.2,0.1,0.2,0.5,0,0.5c-1.3,0.3-4.9,1.4-6.6,5.1
					c-2.1,4.6-1.4,5.2-1.4,5.2s0.1,0.8,4.2,1.8c0.3,0.1,0.6,0.1,0.9,0.2c4,0.9,7-1.3,8-2.2c0.2-0.2,0.5,0,0.4,0.3
					c-0.2,1.1-1.2,2.9-1.7,3.8C37.5,83.5,37.7,83.8,37.9,83.8z"/>
			</g>
		</g>
		<g>
			<g>
				<path class="st4" d="M60.5,90.2c7.8-4.9,10.1-13.6,10.7-16.5l-19.4,3.9c0.1,0,0.2,0,0.2,0c0,0.1,0,0.1,0,0.2
					c-0.1,4.9-3.1,11.7-4.7,14.6C45.6,95.8,51.2,96.2,60.5,90.2z"/>
			</g>
			<g>
				<path class="st5" d="M45.6,69.5c0-0.1-0.1-0.1-0.1-0.2l0,0c-2.8-5.7-2.7-8.7-2.5-9.8c-1.1,1.1-2.3,2.2-3.5,3.4
					c0,0-1,2.4,2.1,8.6c3.1,6.2,5.6,6.8,5.6,6.8c1.6-0.3,3.2-0.5,4.7-0.8l0.1,0c0,0,0,0,0,0l0,0C51,77.1,48.5,75.4,45.6,69.5z"/>
			</g>
			<g>
				<path class="st6" d="M60.5,90.2c7.8-4.9,10.1-13.6,10.7-16.5l-19.4,3.9c0.1,0,0.2,0,0.2,0c0,0.1,0,0.1,0,0.2
					c-0.1,4.9-3.1,11.7-4.7,14.6C45.6,95.8,51.2,96.2,60.5,90.2z"/>
			</g>
			<g>
				<path class="st7" d="M89.2,65.3c1.8-1.3,3.4-2.6,4.8-3.9c10.2-9.1,13.2-17.8,14-20.9c-0.5-0.5-1-1.1-1.3-1.7l0,0
					c0,0,0-0.1,0-0.1c0,0,0-0.1-0.1-0.1c-0.3-0.6-0.5-1.1-0.6-1.7c-2.7-1.1-9.5-3.1-19.6-2c-3.4,0.4-7.2,1.1-11.3,2.4
					c-6.7,2-12.1,5.1-17.5,9.3c0,0,0,0,0,0l-9.3,8.3L43,59.5c0,0,0,0,0,0c0,0-0.1,0.1-0.1,0.1c-0.2,1-0.3,3.8,2.2,9.1
					c0.1,0.3,0.3,0.5,0.4,0.8c2.9,5.8,5.4,7.6,6.4,8.1l19.2-3.9c0,0,0,0,0,0l0,0c0,0,0,0,0,0C77.8,71.9,83.6,69.4,89.2,65.3z"/>
			</g>
			<g>
				<path class="st6" d="M112.9,37.3c1-0.9,1.3-1.7,1.1-2.1c0,0,0,0,0,0l0,0c-0.2-0.2-0.6-0.4-1.3-0.4c-0.3,0-0.6,0-1,0.1
					c-1.3,0.2-3.5,1-5.6,2c0,0,0,0-0.1,0c0.1,0.6,0.3,1.2,0.6,1.7c0,0,0,0.1,0.1,0.1c0.4,0.7,0.8,1.3,1.4,1.8c0,0,0,0,0,0
					c0,0,0,0,0,0c0,0,0,0,0,0c1.8-0.9,3.5-2,4.5-2.9C112.7,37.5,112.8,37.4,112.9,37.3z"/>
			</g>
		</g>
		<g>
			<path class="st8" d="M90.2,46.9c-2.4-4.3-7.7-6-12.2-3.8c-4.5,2.3-6.4,7.8-4.1,12.3c2.3,4.5,7.8,6.3,12.3,4.1
				c0.9-0.4,1.6-1,2.3-1.6c2.8-2.7,3.7-7,1.9-10.7C90.3,47.1,90.3,47,90.2,46.9L90.2,46.9z"/>
		</g>
	</g>
	<g>
		<g>
			<path class="st9" d="M106.7,38.8L106.7,38.8C106.7,38.8,106.7,38.7,106.7,38.8C106.6,38.7,106.6,38.7,106.7,38.8L106.7,38.8v-0.1
				C106.7,38.7,106.7,38.7,106.7,38.8C106.7,38.7,106.7,38.7,106.7,38.8L106.7,38.8z"/>
		</g>
	</g>
</g>
<g>
	<g>
		<g>
			<g>
				<path class="st5" d="M79.9,92.1c0,0,2.7,1.4,3.2,8.6c0.5,7.2,2.2,11.7,2.2,11.7s-2.2,1.6-4.1,0.9c-2-0.7-2.7-0.8-2.7-3.8
					c0-3-1.7-16.8-1.7-16.8L79.9,92.1z"/>
			</g>
		</g>
	</g>
	<g>
		<g>
			<g>
				<path class="st5" d="M74.7,95.7c2.8,0.1,5.5,2.1,6.4,4.8c1.1-1.7,1.4-3.9,0.7-5.8c-0.7-1.9-2.4-3.4-4.3-4
					c-1.4,1.2-2.4,3.1-2.5,5L74.7,95.7z"/>
			</g>
		</g>
	</g>
	<g>
		<g>
			<polygon class="st7" points="71.3,112.9 62.5,116.1 56.1,121.9 56,95.9 48,97.1 45.4,127.1 53.9,134.3 71,128.5 			"/>
		</g>
	</g>
	<g>
		<g>
			<g>
				<g>
					<g>
						<polygon class="st6" points="60,243.5 59.7,245.8 63.8,248.7 66.2,246.8 64.3,244.2 60.3,241.2 						"/>
					</g>
				</g>
			</g>
			<g>
				<g>
					<g>
						<polygon class="st8" points="61.7,173.9 60.9,180.8 66.5,204.7 59.8,242.7 64,244.3 76.1,207.3 78.1,196.5 78.6,173.6 						
							"/>
					</g>
				</g>
			</g>
		</g>
		<g>
			<g>
				<g>
					<g>
						<polygon class="st8" points="94.1,182.4 83.7,246.1 79.6,246 79.9,205 73.2,176.1 						"/>
					</g>
				</g>
			</g>
			<g>
				<g>
					<g>
						<polygon class="st6" points="79.7,245.5 79.6,247.8 83.9,250.2 86.2,248 84.1,245.6 						"/>
					</g>
				</g>
			</g>
		</g>
		<g>
			<g>
				<g>
					<g>
						<path class="st7" d="M62.2,165.4c4-23.2,3.2-40.2,3.5-44.8c0.3-4.6,3.5-7,3.5-7c1.4-0.3,2.6-1.2,4.1-1.5
							c9.6-2.2,14.7,5.4,18,13.5c4.2,10,7.6,20.4,10.4,30.9c2.4,9.3,4.8,18.6,5.7,28.2c0.4,3.9,0.7,7.7-3.6,9.3
							c-6.8,2.6-14.3,2.4-21.4,3.1c-8.2,0.8-16.3,1.4-24.5,1.5C53.6,198.7,58.2,188.6,62.2,165.4z"/>
					</g>
				</g>
			</g>
		</g>
	</g>
	<g>
		<g>
			<polygon class="st10" points="48.9,97.1 45.4,93.4 46.8,87.1 50.3,87.2 51.2,92.7 52.9,93.8 52.8,96.5 			"/>
		</g>
	</g>
	<g>
		<g>
			<polygon class="st7" points="77.9,111.8 87,113.6 105.3,132.1 127,131.8 128.1,138.6 102.6,142.5 81.9,128.5 			"/>
		</g>
	</g>
	<g>
		<g>
			<polygon class="st11" points="80.1,112.3 81.2,137.1 69.1,113.3 72.8,112 75.5,111.3 			"/>
		</g>
	</g>
	<g>
		<g>
			<polygon class="st10" points="127.3,133.5 131.3,131.1 136.4,132.5 136.4,135.3 127.8,136.7 			"/>
		</g>
	</g>
	<g>
		<g>
			<g>
				<path class="st10" d="M80.9,98.1c-3-6.9-11.8-3.7-13,2.8c-0.7,3.7,1.1,10.1,5.5,10.3c0.2,0.6,0.6,1.8,1.1,2.1
					c0.6,0.3,2.2-0.5,2.8-0.8c0.2-0.1,0.4-0.2,0.5-0.3c0.1-0.2,0.1-0.7-0.1-1.1c0.5-0.1,0.9-0.3,1.4-0.6c1.9-1.2,3-3.5,3.2-5.7
					C82.4,102.4,81.8,100.2,80.9,98.1z"/>
			</g>
		</g>
	</g>
	<g>
		<g>
			<g>
				<path class="st6" d="M77.3,90.8c0,0,1.8,3.7-3,6c-4.8,2.2-7.2,6.9-5.4,10.8s6.2,6.2,4.5,7.7c-1.7,1.5-9.2,2.1-9.2,2.1
					S56.5,103.7,61,96S73.9,86.3,77.3,90.8z"/>
			</g>
		</g>
	</g>
</g>
<g>
	<g>
		<polygon class="st6" points="116.5,242 116.1,244.9 121.5,248.5 124.7,246 122.2,242.8 116.9,239.2 		"/>
	</g>
	<g>
		<g>
			<polygon class="st12" points="116.3,241.1 120.4,204.6 115.5,163.7 116.6,155.1 138.8,154.2 139.6,168.4 135.8,204.6 
				121.8,242.9 			"/>
		</g>
	</g>
	<g>
		<polygon class="st6" points="134.2,114.4 145.5,116.5 171.9,122.7 170.2,131.5 143.3,131.1 		"/>
	</g>
	<g>
		<g>
			<polygon class="st12" points="155.1,158.3 155.1,195.1 147.7,242.5 142.4,242.5 139.4,198.6 132.6,154.8 			"/>
		</g>
		<g>
			<polygon class="st6" points="142.4,244.7 148.1,247.7 151,244.8 148.2,241.9 142.4,241.8 			"/>
		</g>
	</g>
	<g>
		<g>
			<path class="st6" d="M111.5,173.6c-0.1-1.6-0.1-2.9-0.1-3.4c-0.3-4.3-0.3-8.6-0.1-12.8c0.1-3.8-0.1-13.3,0.2-17.1
				c0.3-3.2,1.5-11.1,2.5-14.1c2.7-7.5,1.6-8,16.2-11.5c6.4-1.5,8.3,2.4,13.9,6.6c0.6,0.4,0.8,3.1,1,3.8c0.3,1.2,0.7,2.5,1,3.7
				c0.3,1,0.6,1.9,0.9,2.9l0,0c0,0,6.2,19.8,9.5,23.8c3.3,4,9.9,9.5,0.1,14c-1.7,0.7-3.5,1.4-5.3,1.9c0,0-8.4-0.2-12.6,0.2
				c-3.9,0.4-7.8,1.1-11.6,2.1c-2.5,0.7-5.1,1.5-7.3,2.9c-2.1,1.3-3.5,3.2-5.7,4.6c-0.2,0.1-0.4,0.3-0.7,0.3
				C112.2,181.5,111.7,177,111.5,173.6z"/>
		</g>
	</g>
	<g>
		<g>
			<path class="st13" d="M130.3,116.4c-0.6,0.6-2.2,1.3-4.2,1.2c-0.4,0-0.8-0.3-0.9-0.7c-0.3-1.1-0.6-2.1-0.8-3.2
				c-1.5,0-3.2-0.2-3.9-1.5c-0.2-0.4-0.3-0.9-0.4-1.3c-0.3-1.9-0.6-3.8-0.9-5.6c-0.1-0.6-0.2-1.3-0.1-2c0.3-1.1,1.3-1.9,2.3-2.5
				c2.6-1.4,5.8-1.9,8.5-0.8c0.7,0.3,1.4,0.7,1.9,1.3c0.8,0.9,0.9,2.2,1,3.4c0.1,1.1,0.2,2.2,0.2,3.3c0.1,1.3,0.1,2.8-0.9,3.6
				c-0.5,0.4-1.3,0.6-1.7,1.1C129.8,113.8,130.5,115.2,130.3,116.4z"/>
		</g>
		<g>
			<path class="st6" d="M140.1,93.2c0.1-0.5,0.3-1.1,0.4-1.6c0.4-1.1,1-2.2,1.3-3.3c0.2-1.2,0-2.5-1-3.2c-0.6-0.4-1.4-0.5-2.2-0.4
				c-2.5,0.1-5,0.9-7.1,2.3c-2,1.3-3.6,2.9-6.1,2.8c-2.3-0.1-3.7,0.8-5.6,2.3c-2.1,1.6-5.1,2.9-6.9,4.8c-0.7,0.8-1.2,1.8-1.4,2.9
				c-0.9,3.6,0.5,7.7,3.4,10c0.7,0.5,1.4,1,2.1,1.3c1.5,0.8,3.4,1.8,5,1.8c-0.4-1.4-3.2-5.2-2.5-6.7c1.1-2.3,5-3,7.2-3.3
				c2.4-0.3,5,0.6,7.3,0.2c1.7-0.3,3.5-1.8,4.5-3.1C139.9,98.4,139.7,95.2,140.1,93.2z"/>
		</g>
	</g>
</g>
<g>
	<g id="XMLID_60_">
		<path class="st14" d="M197.7,178.4l-0.4,7.5c-0.1,2.4-2.1,4.3-4.5,4.2l-19.1-1c-2.4-0.1-4.2-2.2-4.1-4.6l0.4-7.5L197.7,178.4z"/>
	</g>
	<g>
		<path class="st2" d="M142.8,75c1.4-26.3,23.3-46.5,48.9-45.1s45.3,23.7,43.9,50c-0.5,9.3-3.6,17.9-8.5,25l0,0
			c-14.1,21.5-18,39.9-18,39.9l-23.3-1.2l-23.3-1.2c0,0-2-18.7-13.7-41.6l0,0C144.5,93.2,142.3,84.4,142.8,75z"/>
	</g>
	<g>
		<path class="st15" d="M209.6,144.9l-1.7,31.7c-0.1,1.3-1.1,2.3-2.4,2.3l-43.2-2.3c-1.3-0.1-2.2-1.2-2.2-2.5l1.7-31.7L209.6,144.9z
			"/>
	</g>
	<g class="st16">
		<path class="st17" d="M144.1,66.2c10.5,24.2,31.5,61.9,65,78.5c0,0.1,0,0.1,0,0.1l-23.3-1.2l-23.3-1.2c0,0-2-18.7-13.7-41.6l0,0
			c-4.1-7.6-6.3-16.4-5.8-25.8C143,72,143.4,69,144.1,66.2z"/>
	</g>
	<g>
		<g>
			<path class="st18" d="M227.8,83.4c1.2-22.9-15.9-42.5-38.3-43.6c-13.1-0.7-25,5-33,14.5c7.6-12.1,21.2-19.8,36.2-19
				c22.4,1.2,39.5,20.7,38.3,43.6c-0.5,9.5-4.1,18.1-9.7,24.9C225.1,97.9,227.4,91,227.8,83.4z"/>
		</g>
	</g>
	<g>
		<g>
			<polygon class="st19" points="194.7,144.1 203.5,83.5 195.4,89.8 189.1,78.3 181.6,88.7 174.3,81.9 176.7,143.1 174.3,143 
				171.7,76.2 181.3,85.1 189.4,73.8 196.1,86.1 206.8,78 197.1,144.2 			"/>
		</g>
	</g>
	<g>
		<g>
			<path class="st20" d="M198,138.2l-0.9,6l-2.4-0.1l1.1-7.5C196.5,137.1,197.3,137.7,198,138.2z"/>
		</g>
		<g>
			<path class="st20" d="M175.7,117.9l1,25.2l-2.4-0.1l-1.1-28C174,116,174.8,116.9,175.7,117.9z"/>
		</g>
	</g>
	<g>
		<g>
			
				<rect x="182.2" y="130.5" transform="matrix(5.271314e-02 -0.9986 0.9986 5.271314e-02 21.1761 331.1392)" class="st21" width="5.9" height="47.8"/>
		</g>
		<g>
			
				<rect x="181.5" y="143" transform="matrix(5.271403e-02 -0.9986 0.9986 5.271403e-02 8.0625 342.3262)" class="st21" width="5.9" height="47.8"/>
		</g>
	</g>
	<g>
		<g>
			<path class="st22" d="M182.3,163.9l-21.6-1.1l0.4-6.6l13.3,0.7C177.1,159.4,179.7,161.8,182.3,163.9z"/>
		</g>
		<g>
			<path class="st22" d="M161.4,150.2l0.4-7.9l0.8,0c2,3,4.1,5.7,6.2,8.2L161.4,150.2z"/>
		</g>
		<g>
			<path class="st22" d="M205.5,178.9l-43.2-2.3c-1.3-0.1-2.2-1.2-2.2-2.5l0.3-5.5l31.2,1.6c6.2,3.6,11.7,5.7,16.2,6.9
				C207.5,178.2,206.6,178.9,205.5,178.9z"/>
		</g>
		<g>
			<path class="st14" d="M174.4,156.8l-13.3-0.7l0.3-5.9l7.4,0.4C170.7,152.8,172.5,154.9,174.4,156.8z"/>
		</g>
		<g>
			<path class="st14" d="M191.6,170.2l-31.2-1.6l0.3-5.9l21.6,1.1C185.5,166.4,188.6,168.5,191.6,170.2z"/>
		</g>
	</g>
	<g>
		<path class="st23" d="M169.8,181.5c5.1,5.6,15.3,7.8,18.7,8.3l-14.8-0.8c-2.4-0.1-4.2-2.2-4.1-4.6L169.8,181.5z"/>
	</g>
</g>
<g>
	<path class="st3" d="M211.3,26.4l1,0.7c0.6,0.4,1.4,0.2,1.7-0.3l7-10.4c0.4-0.6,0.2-1.4-0.3-1.7l-1-0.7c-0.6-0.4-1.4-0.2-1.7,0.3
		l-7,10.4C210.6,25.2,210.8,26,211.3,26.4z"/>
</g>
<g>
	<g>
		<path class="st13" d="M164.2,138.7l6.6,0.4l3.8-4.4l-2.1-1.8l-4.4,1.5l-1.2-0.8l-4.5,1.7C162.4,135.3,164.3,138.7,164.2,138.7z"/>
	</g>
	<g>
		<polygon class="st6" points="123.4,120.3 145.2,138.8 163.8,134.5 166.7,139.9 144.9,149.9 137.6,147.6 118.8,129.3 		"/>
	</g>
</g>
<g>
	<g>
		<g>
			<path class="st7" d="M374.7,44.3c0-7.2-5.8-13-12.9-13c-1,0-2.4,0.5-3.3,0c-0.7-0.4-1-1.5-1.6-2.1c-0.7-0.7-1.5-1.4-2.4-1.9
				c-1.7-1.1-3.8-1.6-5.8-1.6c-1.7,0-3.3,0.4-4.7,1c0,0,0,0,0,0c0,0,0,0,0,0c-0.1,0-0.2,0.1-0.3,0.1c0,0,0,0,0,0
				c-1.1,0.5-5.4,2.7-5.7,7.5c2.5-0.1,5,0.9,6.8,2.8c1.8-1.8,4.5-2.6,7-2.1c2,0.4,3.8,1.6,4.9,3.3c1.1,1.7,1.5,3.8,1.1,5.8
				c0,0.2-0.2,0.3-0.4,0.3c0,0-0.1,0-0.1,0c-0.2,0-0.3-0.2-0.3-0.5c0.8-3.8-1.6-7.4-5.4-8.2c-2.4-0.5-4.9,0.3-6.5,2.1
				c-0.1,0.2-0.4,0.2-0.5,0c0,0,0,0-0.1-0.1c-2.9-3.4-8-3.8-11.4-0.9c-0.2,0.1-0.4,0.1-0.5,0c-0.1-0.2-0.1-0.4,0-0.5
				c1.4-1.2,3-1.8,4.6-2c0.3-4.9,4.3-7.3,5.9-8.1c-2.7-2.2-6.1-3.6-9.9-3.6c-5.5,0-10.4,2.9-13.2,7.3c-0.9-0.2-1.9-0.3-2.9-0.3
				c-4.8,0-9.4,2.7-11.8,6.9c-0.6,1.1-1,2.2-1.3,3.3c0,0.2-0.1,0.3-0.2,0.4c2.8-1,6.7-1.8,10.9-0.6c0.2,0.1,0.3,0.3,0.3,0.5
				c-0.1,0.2-0.3,0.3-0.5,0.3c-8.9-2.4-16.2,3.9-16.3,3.9c-0.1,0-0.1,0.1-0.2,0.1c-1,0.8-1.8,1.6-2.6,2.6c-2.2,2.9-3.4,6.6-3.5,10.3
				c0,9.5,7.6,17.2,17.1,17.2c1.1,0,2.2-0.6,3.2-0.3c-0.6-1.5-0.9-3.5-0.2-5.5c0.1-0.2,0.3-0.3,0.5-0.3c0.2,0.1,0.3,0.3,0.3,0.5
				c-1.3,4.2,2,8.1,2,8.1c0,0,0.1,0.1,0.1,0.2c0.6,0.7,1.2,1.3,2,1.8c2.2,1.4,4.9,2.1,7.5,2.1c2.2,0,4.3-0.5,6.2-1.4
				c0,0,0,0,0.1-0.1c5.8-3.2,6.6-9.6,6.6-9.7c0-0.2,0.2-0.4,0.4-0.3c0.2,0,0.4,0.2,0.3,0.4c0,0.2-0.7,5.5-5.2,9c2.7,3.1,6.6,5,11,5
				c2.1,0,4.4-0.6,6.4-1.4c2.1-0.8,3.7,2.3,4.5,3.7c1.2,2,1.8,4.5,3.5,6.2c2.5,2.4,5.1,0.3,5.4-2.7c0.2-1.7,0.1-3.4-0.1-5.1
				c-0.1-0.8-0.3-1.8,0.1-2.6c0.5-0.9,1.3-0.8,2.2-1c1.7-0.4,3.4-1.2,4.7-2.3c2.8-2.3,4.5-5.7,4.5-9.3c0-1.4-0.2-2.7-0.7-4
				c-0.6,0.3-1.8,0.7-3.4,0.8c-0.3,0-0.5,0-0.8,0c-2.1,0-5.1-0.6-8.4-2.9c-0.2-0.1-0.2-0.4-0.1-0.5c0.1-0.2,0.4-0.2,0.5-0.1
				c6.7,4.8,12.2,1.9,12.2,1.8c0,0,0.1,0,0.1,0c3.8-1.8,6.5-5.7,6.5-10.2C381.3,50,378.6,46.1,374.7,44.3z M331.9,63.8
				c0,0-0.1,0-0.1,0c-0.2,0-0.3-0.1-0.4-0.3c-1.5-4.3-6.1-6.5-10.4-5.1c0,0,0,0-0.1,0c0,0,0,0-0.1,0c-0.2,0.1-0.4,0-0.5-0.2
				c0-0.1,0-0.2,0-0.3c-0.8-3.4-3.3-6.1-6.5-7.2c-5.2-1.8-11,1-12.8,6.2c-0.1,0.2-0.3,0.3-0.5,0.2c-0.2-0.1-0.3-0.3-0.2-0.5
				c1.9-5.7,8.1-8.7,13.8-6.7c3.5,1.2,6.1,4.1,7,7.6c4.6-1.3,9.4,1.2,11,5.7C332.2,63.5,332.1,63.7,331.9,63.8z M364.1,55.4
				c-0.1,0.2-0.4,0.2-0.5,0.1c-1.9-1.5-4.3-2.2-6.7-2c-2.4,0.3-4.6,1.4-6.2,3.3c-1.5,1.9-2.2,4.3-2,6.7c0,0.2-0.1,0.4-0.3,0.4
				c0,0,0,0,0,0c-0.2,0-0.4-0.1-0.4-0.3c-0.3-2.6,0.5-5.2,2.2-7.3c1.7-2.1,4-3.3,6.7-3.6c2.6-0.3,5.2,0.5,7.3,2.2
				C364.2,55,364.2,55.3,364.1,55.4z"/>
		</g>
	</g>
</g>
<g>
	<g>
		<g>
			<g>
				<polygon class="st24" points="279.6,118.8 275.5,116 276.6,114.2 279.9,115.5 280,114.4 283.2,117.2 282.3,119.2 				"/>
			</g>
		</g>
		<g>
			<g>
				<polygon class="st8" points="319.6,112.8 303.4,123.3 282.4,115.9 280.9,120 303.6,134.2 326.4,125.8 				"/>
			</g>
		</g>
	</g>
	<g id="XMLID_55_">
		<g id="XMLID_59_">
			<g>
				<polygon class="st6" points="320,242.3 320,244.6 314,247.6 311,244.6 314,241.6 314.4,241.6 314.5,242.3 				"/>
			</g>
		</g>
		<g id="XMLID_58_">
			<g>
				<polygon class="st5" points="320,242.3 314.5,242.3 314.4,241.6 320,241.6 				"/>
			</g>
		</g>
		<g>
			<g>
				<path class="st8" d="M328.2,111.1c6.4,0.4,13,3.7,14.8,10c0.2,0.5,0.3,1,0.3,1.6c0.3,3.2-0.7,5.6,0.2,8.8
					c0.8,2.8,1.5,5.6,2.1,8.5c0.8,4.1,1.5,8.3,2,12.4c0.6,4.6,1.1,9.1,1.2,13.6c0,0.5,0.1,1.9,0.2,3.6c0.1,3.5,0,8.2-1.4,8.3
					c-0.3,0-0.5-0.1-0.8-0.2c-1.9-0.9-3.4-2.1-5-3.2c-0.6-0.4-1.2-0.7-1.8-1c-1.3-0.6-2.7-1.1-4.2-1.5c2.4,0.1,2.7-0.3,2.7-0.3
					s-2.2-8.8-3.7-16.4c-0.8-3.9-1.4-7.6-1.5-9.5c-0.2-5.9-0.9-25.4-0.9-25.4l-3.7-7.5l-0.7,0c0,0,0.1,0,0.1,0
					C328.1,112.1,328.1,111.6,328.2,111.1z"/>
			</g>
			<g>
				<path class="st8" d="M301,173.9c0.4-3.9,0.8-7.7,1.2-11.6c1-7.7,2.2-15.4,4.4-22.8c0.8-2.8,1.8-5.7,2.8-8.5
					c1.2-3.4,2.3-6.8,3.5-10.3c1.5-4.3,3.9-7.2,8.2-8.7c0.8-0.3,1.6-0.5,2.4-0.6c0,0.1,0,0.2,0.1,0.3c0,0.4,0.2,0.9,0.4,1.2l-2.8,0
					c0,0-8,27.9-8.3,32.7c-0.1,1.8-0.5,5.8-0.9,10c-0.7,6.7-1.4,13.8-1.4,13.8s3.5,0.1,8.6,0.5c-0.4,0-0.8,0-1.1,0
					c-3.5,0-7.2,1.5-10.6,2.4c-0.2,0.1-0.5,0.1-0.7,0.2c-1.4,0.4-2.5,1.4-3.6,2.2C301.5,175.8,300.8,176.3,301,173.9z"/>
			</g>
		</g>
		<g>
			<g>
				<path class="st8" d="M307.6,171.3c3.4-1,7-2.5,10.6-2.4c0.4,0,0.8,0,1.1,0c0.3,0,0.6,0,1,0.1c2.4,0.2,5,0.4,7.8,0.8
					c0.1,0,0.3,0,0.4,0c3.5,0.8,5.9,1.1,7.3,1.1c1.4,0.4,2.8,0.9,4.2,1.5c0.7,0.3,1.3,0.7,1.8,1l0,3.8l-6.8,64.4h-5.5v0.7h0
					l-6.1-43.2l0-0.2l-3.3,43.4h0v-0.7h-5.6l-7.1-48.4L307.6,171.3z"/>
			</g>
		</g>
		<g id="XMLID_57_">
			<g>
				<polygon class="st6" points="335,241.6 335.4,241.6 338.4,244.6 335.4,247.6 329.5,244.6 329.5,242.3 335,242.3 				"/>
			</g>
		</g>
		<g id="XMLID_56_">
			<g>
				<polygon class="st5" points="335,241.6 335,242.3 329.5,242.3 329.5,241.6 				"/>
			</g>
		</g>
		<g>
			<g>
				<path class="st6" d="M310.7,169.4c0,0,3.5,0.1,8.6,0.5c0.3,0,0.6,0,1,0.1c2.4,0.2,5,0.4,7.8,0.8c0.1,0,0.3,0,0.4,0
					c3.5,0.8,5.9,1.1,7.3,1.1c2.4,0.1,2.7-0.3,2.7-0.3s-2.2-8.8-3.7-16.4c-0.8-3.9-1.4-7.6-1.5-9.5c-0.2-5.9-0.9-25.4-0.9-25.4
					l-3.7-7.5l-0.7,0c-0.9,0.1-1.9,0.2-2.8,0.3c-0.2,0-0.5,0.1-0.7,0c-0.1,0-0.2-0.1-0.3-0.2c0,0-0.1-0.1-0.1-0.1l-2.8,0
					c0,0-8,27.9-8.3,32.7c-0.1,1.8-0.5,5.8-0.9,10C311.4,162.3,310.7,169.4,310.7,169.4z"/>
			</g>
		</g>
		<g>
			<g>
				<path class="st13" d="M319.1,102.5c0.2-0.8-0.2-1.5-0.3-2.3c0-0.2-0.1-0.4,0-0.6c1.3-0.2,2.7-0.7,3.7-1.2
					c2.1-0.9,6.1-1.9,8.2-0.8c1.7,0.8,1.2,3.5,1.1,5.2c0,0.4-0.1,0.9,0,1.3c0.1,0.4,0.4,0.7,0.5,1.1c-0.2,0.7-0.5,1.3-1,1.9
					c-1.4,1.5-2.7,2.3-3.1,4c-0.1,0.5-0.1,1-0.1,1.6c0,0-0.1,0-0.1,0c-0.9,0.1-1.9,0.2-2.8,0.3c-0.2,0-0.5,0.1-0.7,0
					c-0.1,0-0.2-0.1-0.3-0.2c0,0-0.1-0.1-0.1-0.1c-0.3-0.3-0.4-0.7-0.4-1.2c0-0.1,0-0.2-0.1-0.3c-0.4-1.6-2.1-2.3-3-3.7
					c-1.1-1.6-1.6-3.4-1.9-5.3c0,0,0-0.1,0-0.1C318.8,102.4,319,102.5,319.1,102.5z"/>
			</g>
		</g>
		<g>
			<g>
				<path class="st6" d="M312.4,93.6c-0.1,1.9,1.4,5.1,3.2,5.9c0.4,0.2,0.7,0.2,1.1,0.3c0.4,1.1,1,2.1,1.9,2.6
					c0.1,0.1,0.3,0.1,0.4,0.2c0.2-0.8-0.2-1.5-0.3-2.3c0-0.2-0.1-0.4,0-0.6c1.3-0.2,2.7-0.7,3.7-1.2c2.1-0.9,6.1-1.9,8.2-0.8
					c1.7,0.8,1.2,3.5,1.1,5.2c0,0.4-0.1,0.9,0,1.3c0.1,0.4,0.4,0.7,0.5,1.1c0.1,0.1,0.1,0.3,0.1,0.4c1.4-0.6,2.2-2.2,3-3.4
					c0.4-0.6,0.8-1.3,1-2c1.3-3.2,0.8-7.6-1.2-10.6c-0.6-0.9-1.3-1.7-2.1-2.2c-2-1.2-4.7-1.3-6.8-2.1c-3-1.1-4.5-0.1-7.3,0.8
					c-1.1,0.4-2.4,0.7-3,1.7c-0.3,0.6-0.4,1.3-0.7,1.9c-0.4,0.8-1.2,1.1-1.9,1.6C312.8,91.8,312.4,92.7,312.4,93.6z"/>
			</g>
		</g>
	</g>
	<g>
		<g>
			<g>
				<polygon class="st13" points="364.9,92 365.6,87.1 363.6,86.7 362.3,89.9 361.4,89.3 361.3,93.5 363.4,94.3 				"/>
			</g>
		</g>
		<g>
			<g>
				<polygon class="st8" points="333.5,117.4 352.2,112.5 360.9,92.1 365,93.7 360.1,120.1 338.5,131.2 				"/>
			</g>
		</g>
	</g>
</g>
<g>
	<g>
		<g>
			<g>
				<g>
					<polygon class="st6" points="288.5,243 288.8,245.6 283.9,248.7 281.1,246.4 283.4,243.6 288.3,240.5 					"/>
				</g>
				<g>
					<polygon class="st6" points="288.7,164.5 289.5,172.4 282.5,207.3 288.7,242.2 283.7,243.7 267.6,202.2 266.7,189.5 
						268.9,163.3 					"/>
				</g>
			</g>
			<g>
				<g>
					<polygon class="st6" points="250.8,167.2 250.7,200.2 257.2,242.7 262,242.7 264.7,203.4 271,164.1 					"/>
				</g>
				<g>
					<polygon class="st6" points="261.9,244.7 256.8,247.3 254.2,244.8 256.8,242.2 261.9,242.1 					"/>
				</g>
			</g>
		</g>
		<g>
			<g>
				<path class="st25" d="M246.8,162.4c3.5-10.7,3.8-21.9,4.8-33c0.3-3.3,0.6-6.6,2-9.6c1.6-3.4,4.2-5.3,7.2-6.3
					c3.8-1.3,8.4-1.2,12.4-1.4c3.8-0.1,7.2,14.2,11,21.1c2.4,4.2,4.8,8,6.4,12.6c1.5,4.4,3,9,3.9,13.6c1.4,7,4.8,11.8,1.5,14.2
					c-0.3,0.1-0.6,0.2-0.9,0.3c-5.4,1.9-11,3.4-16.7,4.1c-5.1,0.7-10.2,0.8-15.3,0.3c-6.9-0.7-13.7-1.7-19.8-5.3
					C244.5,169.4,245.7,165.9,246.8,162.4z"/>
			</g>
		</g>
	</g>
</g>
<g>
	<g>
		
			<rect x="238.9" y="93" transform="matrix(-0.8944 0.4473 -0.4473 -0.8944 536.6155 147.6857)" class="st8" width="23.9" height="88.4"/>
	</g>
	<g>
		<polygon class="st13" points="241.8,92.3 221.6,78.6 220.4,103 		"/>
	</g>
	<g>
		<polygon class="st5" points="229.2,83.7 221.6,78.6 221.1,87.7 		"/>
	</g>
	<g>
		<path class="st12" d="M268.1,191.3l15.9-7.9c1.5-0.8,2.1-2.6,1.4-4.1l-4-7.9l-21.4,10.7l4,7.9
			C264.8,191.5,266.6,192.1,268.1,191.3z"/>
	</g>
	<g>
		<polygon class="st11" points="259.9,182.1 281.3,171.4 279.3,167.4 257.9,177.9 		"/>
	</g>
</g>
<g>
	<g>
		<g>
			<polygon class="st24" points="274.4,155.3 270.5,158.8 269,157.2 271.1,154.2 270,153.8 273.7,151.3 275.5,152.7 			"/>
		</g>
	</g>
	<g>
		<g>
			<polygon class="st25" points="275.4,126.3 282.1,134.3 272.2,151.7 275.9,154.4 296.3,134.9 280.5,112.4 			"/>
		</g>
	</g>
</g>
<g>
	<g>
		<path class="st24" d="M275.1,101.3c-2.2-6.5-11.7-8.8-13.9-1.2c-0.7,2.3-1.1,4.7-0.6,7c0.5,2.3,1.9,4.6,4.1,5.5c0,0,0,0,0,0
			c-0.1,0.6-0.2,1.2-0.3,1.8c0,0.1,0,0.3,0,0.4c0.1,0.1,0.2,0.2,0.4,0.2c0.7,0.1,1.4,0.2,2.2,0.3c0.4,0.1,0.7,0.1,1.1,0
			c0.8-0.2,1.1-1.1,1.1-1.9c0-0.2,0-0.4,0-0.6C273.4,111.4,276.5,105.6,275.1,101.3z"/>
	</g>
	<g>
		<g>
			<path class="st6" d="M263.4,90.2c-1.7-0.3-3.2,1.4-4.8,2.3c-1.3,0.7-2.9,0.9-4.2,1.5c-1.4,0.6-2.8,1.9-2.8,3.5
				c-1.4-0.7-2.9-1.5-4.5-1.2c-1.6,0.3-3,2.2-2.4,3.7c0.6,1.4,2.4,1.7,3,3.1c1,2.2-1.6,5.5,0.1,7c0.4,0.3,1,0.4,1.4,0.8
				c0.5,0.4,0.7,1.2,0.9,1.9c1,3.1,4.1,5,7.2,4.6c1.9-0.9,3.4-2.7,4.1-4.8c0.8-2.5-0.5-3.4-0.8-5.8c-0.2-2.6,0.6-5.3,2.2-7.3
				c1.1-1.3,2.6-2.4,4.2-2.6c0.7-0.1,0.4,0.5,1.2,0c0.3-0.2,0.7-1,0.8-1.4C267.2,94.1,265.7,90.5,263.4,90.2z"/>
		</g>
		<g>
			<path class="st6" d="M282.3,93.5c0.9,0.3,1.9,0.2,2.7,0.6c1.3,0.6,1.2,1.9,1.6,3.1c0.4,1.3,1,3,1.8,4c0.6,0.7,1.5,1.1,2.2,1.7
				c0.7,0.6,1.4,1.4,1.4,2.4c0,0.9-0.7,1.8-0.7,2.8c-0.1,1.4,0.1,2.1-0.3,3.6c-0.2,0.7-0.5,1.5-1,2c-0.7,0.7-1.8,0.7-2.7,0.5
				c-0.9-0.2-1.9-0.4-2.8-0.1c-2,0.7-1.6,2.7-2.1,4.3c-0.8,2.5-3.8,4-6,3.1c-1.9-0.8-3-3-2.9-5.2c0-1.1,0.5-2.1,0.5-3.2
				c0-1.1-0.6-2.5,0.4-3.4c0.2-0.2,0.5-0.3,0.7-0.5c0.2-0.2,0.3-0.4,0.3-0.7c0.2-0.9,0-1.8-0.5-2.5c-0.4-0.5-0.9-0.8-1.1-1.4
				c-0.3-0.7-0.1-1.4,0-2.2c0.1-1.8-0.9-3.5-2.4-4.2c-1-0.5-1.9-0.7-2.7-1.4c-0.1-0.1-2.1-1.8-2.1-1.5c0.1-0.6,0.5-1.2,0.8-1.7
				c0.6-0.9,1.3-1.7,2.2-2.2c2.9-1.7,3,2.2,5.3,1.7c0.6-0.1,1-0.6,1.5-0.9c0.9-0.6,2.1-0.4,3.1,0.1
				C280.4,92.6,281.3,93.3,282.3,93.5z"/>
		</g>
	</g>
</g>
<g>
	<polygon class="st24" points="244.5,153.4 247.3,152.8 250.9,155.5 248.2,158.6 245.5,156.4 	"/>
</g>
<g>
	<path class="st6" d="M28.4,54.3c3.2,0.4,10.4,2.2,14.4,4.9c0.1,0.1,0.1,0.1,0.2,0.2l14.6-13c-2.5-1.2-11-4.6-19.7-1.3
		C27.6,49.1,24.5,53.8,28.4,54.3z"/>
</g>
<g>
	<path class="st3" d="M171.1,24.5l-1,0.7c-0.6,0.4-1.4,0.2-1.7-0.3l-7-10.4c-0.4-0.6-0.2-1.4,0.3-1.7l1-0.7c0.6-0.4,1.4-0.2,1.7,0.3
		l7,10.4C171.9,23.3,171.7,24.1,171.1,24.5z"/>
</g>
<g>
	<path class="st3" d="M171.1,24.5l-1,0.7c-0.6,0.4-1.4,0.2-1.7-0.3l-7-10.4c-0.4-0.6-0.2-1.4,0.3-1.7l1-0.7c0.6-0.4,1.4-0.2,1.7,0.3
		l7,10.4C171.9,23.3,171.7,24.1,171.1,24.5z"/>
</g>
<g>
	<path class="st3" d="M190.6,22.3h1.2c0.7,0,1.3-0.6,1.3-1.3l0-12.6c0-0.7-0.6-1.3-1.3-1.3l-1.2,0c-0.7,0-1.3,0.6-1.3,1.3l0,12.6
		C189.4,21.7,189.9,22.3,190.6,22.3z"/>
</g>
</svg>
