<?xml version="1.0" encoding="utf-8"?>
<!-- Generator: Adobe Illustrator 21.0.0, SVG Export Plug-In . SVG Version: 6.00 Build 0)  -->
<svg version="1.1" id="Layer_1" xmlns="http://www.w3.org/2000/svg" xmlns:xlink="http://www.w3.org/1999/xlink" x="0px" y="0px"
	 viewBox="0 0 159 139" style="enable-background:new 0 0 159 139;" xml:space="preserve">
<style type="text/css">
	.st0{fill:#F1F1F1;}
	.st1{fill:#EAEAEA;}
	.st2{fill:#F4F4F4;}
	.st3{fill:#E1E1E1;}
	.st4{fill:#3CBEB3;}
</style>
<path class="st0" d="M106.5,62.7c-3.9,0-7-2.1-8.3-5.7c-1.3-3.4-0.2-7.3,2.7-9.5c1-0.7,2.1-1.4,3.1-2c7.3-4.2,14.7-8.5,22-12.7
	c0.9-0.5,1.8-1,2.8-1.5c4-1.7,8.9,0.3,10.8,4.2c2.1,4.2,0.3,8.6-2.8,10.8c-0.6,0.4-1.2,0.8-1.8,1.1c-7.8,4.5-15.6,9-23.4,13.5
	C110.1,62,108.3,62.8,106.5,62.7z"/>
<path class="st1" d="M27,109.2c-3.1-0.3-5.8-2-7.2-5.5c-1.3-3.3-0.6-6.3,1.7-8.9c0.8-0.9,1.8-1.7,2.9-2.3c7.8-4.5,15.6-9,23.4-13.5
	c0.8-0.4,1.5-0.9,2.4-1.2c2.8-1,5.6-0.9,8.1,0.7c4,2.6,5.6,8.7,1.5,12.9c-1.1,1.1-2.5,2-3.8,2.8c-4.6,2.7-9.2,5.3-13.8,8
	c-3.4,1.9-6.7,3.9-10.1,5.8C30.2,109.1,29.2,109.2,27,109.2z"/>
<path class="st0" d="M61.6,55c0.1,6.1-6.6,10.4-12,7.8c-0.9-0.5-1.9-0.9-2.8-1.5c-7.2-4.1-14.4-8.3-21.5-12.4
	c-1.1-0.6-2.2-1.2-3.1-2c-5-3.8-4.2-11.8,1.5-14.5c2.3-1.1,4.8-1.1,7.2-0.1c0.8,0.3,1.6,0.8,2.3,1.2c7.5,4.3,15,8.6,22.4,13
	c0.9,0.5,1.8,1,2.7,1.7C60.5,50,61.7,52.2,61.6,55z"/>
<path class="st1" d="M132.1,108.3c-1.3,0-2.7-0.3-3.9-1c-2-1.1-4-2.2-6-3.4c-6-3.4-11.9-6.9-17.8-10.4c-1.2-0.7-2.4-1.5-3.5-2.4
	c-4.5-4-3.5-11.7,3-14.2c2-0.8,4.2-0.7,6.2,0.2c1.3,0.6,2.5,1.3,3.7,2c6.6,3.8,13.1,7.6,19.7,11.4c1.4,0.8,2.8,1.6,4,2.5
	c5.2,3.8,4.5,11.5-1.2,14.5C135,108.1,133.7,108.3,132.1,108.3z"/>
<path class="st2" d="M71,24.1c0-4.9,0-9.9,0-14.8c0-2.7,1.2-4.8,3.2-6.4c2.6-2.1,5.5-2.4,8.5-1.3c3,1.1,4.8,3.5,5.3,6.7
	C88,9,88,9.7,88,10.4c0,9.3,0,18.7,0,28c0,1.8-0.2,3.5-1.2,5.1c-1.9,3.3-5.9,5-9.5,4c-3.5-0.9-6.2-4-6.3-7.6
	c-0.1-2.8-0.1-5.6-0.1-8.5C70.9,29,70.9,26.6,71,24.1C70.9,24.1,70.9,24.1,71,24.1z"/>
<path class="st2" d="M72,114.3c0-4.8,0-9.5,0-14.3c0-1.6,0.3-3.1,1.1-4.6c1.9-3.3,5.8-4.9,9.5-4c3.4,0.8,6.1,4,6.4,7.6
	c0.1,1.1,0.1,2.1,0.1,3.2c0,8.3,0,16.6,0,24.9c0,1.1,0,2.1-0.1,3.2c-0.3,4.2-4.2,7.8-8.5,7.8c-4.3,0-8.2-3.5-8.5-7.9
	c-0.1-1.1,0-2.1,0-3.2C72,122.7,72,118.5,72,114.3C72,114.3,72,114.3,72,114.3z"/>
<path class="st3" d="M15.5,62.3c2.1,0,4.2,0,6.3,0c4.6,0.1,8.3,3.5,8.3,8.4c0,5.3-3.8,8.3-8.1,8.7c-0.2,0-0.4,0-0.5,0
	c-4,0-8.1,0-12.1,0c-1,0-2.1-0.3-3-0.7c-3.8-1.5-5.8-5.2-5.2-9.3c0.5-3.1,3.3-6.7,7.5-7C10.9,62.3,13.2,62.3,15.5,62.3
	C15.5,62.3,15.5,62.3,15.5,62.3z"/>
<path class="st3" d="M58.6,20.1c0,3.6-2,6.4-5.6,7.9c-3.6,1.5-7.7-0.3-9.5-2.7c-0.5-0.7-1-1.4-1.5-2.2c-1.6-2.7-3.3-5.4-4.9-8.1
	c-0.4-0.8-0.8-1.5-1.2-2.3C34.1,8.6,36.4,4,39.5,2.1c2.8-1.6,7.9-1.8,11,2c0.3,0.4,0.6,0.8,0.9,1.3c2,3.3,3.9,6.7,5.9,10
	C58.2,16.8,58.5,18.3,58.6,20.1z"/>
<path class="st3" d="M59.7,119c0,1.6-0.3,3.1-1.2,4.5c-2,3.3-3.9,6.6-5.9,10c-0.4,0.6-0.8,1.2-1.2,1.7c-2.2,2.4-5,3.3-8.1,2.6
	c-3.1-0.7-5.2-2.6-6.3-5.7c-0.8-2.3-0.6-4.6,0.6-6.6c2.1-3.8,4.3-7.7,6.8-11.3c4.2-6,11.8-4.2,14.5,0.7
	C59.3,116.1,59.7,117.5,59.7,119z"/>
<path class="st3" d="M115.7,139c-2.8,0.1-5.1-1-6.9-3.2c-0.2-0.3-0.5-0.5-0.6-0.8c-2.1-3.8-4.4-7.6-6.4-11.5
	c-2.1-4.3-0.3-8.9,3.9-11.2c3.3-1.7,7.6-1,10.1,1.8c0.5,0.5,0.9,1.1,1.2,1.7c1.9,3.4,3.8,6.7,5.7,10.1c0.3,0.5,0.4,1,0.6,1.4
	C125.6,132.2,121.8,138.8,115.7,139z"/>
<path class="st3" d="M108.6,27.6c-6.4,0.1-10.6-6.6-8.1-11.7c0.8-1.7,1.8-3.4,2.7-5.1c1.3-2.3,2.5-4.7,3.9-6.9
	c1.9-2.9,4.7-4.2,8.1-3.9c5.8,0.5,9,6.9,7.2,11.2c-0.2,0.5-0.3,1-0.6,1.5c-2,3.5-3.9,7.1-5.9,10.6c-0.7,1.2-1.7,2.3-2.9,3
	C111.6,27.2,110.1,27.7,108.6,27.6z"/>
<path class="st3" d="M144.7,77.5c-2.1,0-4.2,0.1-6.3,0c-3.8-0.2-7.2-3.1-7.9-6.7c-0.8-4.2,1.3-8.3,5.3-9.8c0.6-0.3,1.4-0.5,2-0.5
	c4.4,0,8.8-0.2,13.2,0c4.3,0.2,7.8,4.1,7.8,8.5c0,4.3-3.5,8.2-7.8,8.5C149,77.6,146.8,77.5,144.7,77.5
	C144.7,77.5,144.7,77.5,144.7,77.5z"/>
<path class="st4" d="M84.4,77.7c0.2,0,0.3,0,0.5-0.1c0.5-0.2,0.8-0.7,0.8-1.2l0.1-4.3l4.1-1.2c0.5-0.1,0.9-0.6,1-1.1
	c0.1-0.5-0.2-1-0.6-1.3l-3.7-2.3l1-4.2c0.1-0.5-0.1-1.1-0.5-1.4c-0.4-0.3-1-0.4-1.5-0.1l-3.8,2.1l-3.1-3c-0.4-0.4-0.9-0.5-1.4-0.3
	c-0.5,0.2-0.8,0.7-0.8,1.2l-0.1,4.3L72.3,66c-0.5,0.1-0.9,0.6-1,1.1c-0.1,0.5,0.2,1,0.6,1.3l3.7,2.3l-1,4.2
	c-0.1,0.5,0.1,1.1,0.5,1.4c0.4,0.3,1,0.4,1.5,0.1l3.8-2.1l3.1,3C83.7,77.5,84,77.7,84.4,77.7z M83.1,73.3l-1.6-1.6
	c-0.3-0.2-0.6-0.4-0.9-0.4c-0.2,0-0.4,0.1-0.6,0.2l-2,1.1l0.5-2.2c0.1-0.6-0.1-1.2-0.6-1.5l-1.9-1.2l2.2-0.6c0.6-0.2,0.9-0.7,1-1.2
	l0.1-2.3l1.6,1.6c0.4,0.4,1,0.5,1.6,0.2l2-1.1l-0.5,2.2c-0.1,0.6,0.1,1.2,0.6,1.5l1.9,1.2l-2.2,0.6c-0.6,0.2-0.9,0.7-1,1.2
	L83.1,73.3z"/>
<path class="st4" d="M55,60.6l13,4.5c0.1,0,0.3,0.1,0.4,0.1c0.6,0,1.1-0.3,1.3-0.9c0.2-0.7-0.1-1.5-0.8-1.7l-13-4.5
	c-0.7-0.2-1.5,0.1-1.7,0.8C53.9,59.6,54.3,60.4,55,60.6z"/>
<path class="st4" d="M72.1,36.4c-0.7,0.2-1.1,0.9-0.9,1.7L76.1,55c0.2,0.6,0.7,1,1.3,1c0.1,0,0.2,0,0.4-0.1c0.7-0.2,1.1-0.9,0.9-1.7
	l-4.9-16.9C73.6,36.6,72.8,36.2,72.1,36.4z"/>
<path class="st4" d="M89,58.2c0.2,0.2,0.5,0.3,0.8,0.3c0.4,0,0.8-0.2,1.1-0.5l11.3-14.6c0.5-0.6,0.3-1.4-0.2-1.9
	c-0.6-0.5-1.4-0.3-1.9,0.2L88.8,56.4C88.3,56.9,88.4,57.8,89,58.2z"/>
<path class="st4" d="M83.2,59c0.1,0,0.2,0,0.3,0c0.6,0,1.2-0.4,1.3-1l3.4-15.4c0.2-0.7-0.3-1.4-1-1.6c-0.7-0.2-1.4,0.3-1.6,1
	l-3.4,15.4C82.1,58.1,82.5,58.8,83.2,59z"/>
<path class="st4" d="M71.5,59.6c0.3,0.3,0.6,0.4,1,0.4c0.3,0,0.6-0.1,0.9-0.3c0.5-0.5,0.6-1.3,0.1-1.9l-6.7-7.6
	c-0.5-0.5-1.3-0.6-1.9-0.1c-0.5,0.5-0.6,1.3-0.1,1.9L71.5,59.6z"/>
<path class="st4" d="M67.6,68.2l-7.7,0.6c-0.7,0.1-1.3,0.7-1.2,1.4c0.1,0.7,0.6,1.2,1.3,1.2c0,0,0.1,0,0.1,0l7.7-0.6
	c0.7-0.1,1.3-0.7,1.2-1.4C69,68.7,68.3,68.1,67.6,68.2z"/>
<path class="st4" d="M67.5,32.6c0.7,0.6,1.6,0.9,2.6,0.9c0.2,0,0.4,0,0.5,0c1.1-0.1,2.1-0.7,2.8-1.6l0,0c0.7-0.9,1-2,0.8-3.1
	c-0.1-1.1-0.7-2.1-1.6-2.8c-1.8-1.4-4.5-1.1-5.9,0.7C65.3,28.5,65.7,31.1,67.5,32.6z M68.8,28.3c0.3-0.4,0.7-0.6,1.2-0.6
	c0.3,0,0.7,0.1,0.9,0.3c0.3,0.2,0.5,0.6,0.6,1c0.1,0.4-0.1,0.8-0.3,1.1l0,0c-0.2,0.3-0.6,0.5-1,0.6c-0.4,0.1-0.8-0.1-1.1-0.3
	c-0.3-0.2-0.5-0.6-0.6-1C68.5,29,68.6,28.6,68.8,28.3z"/>
<path class="st4" d="M47.7,60.7c1.1-0.1,2.1-0.7,2.8-1.6c0.7-0.9,1-2,0.8-3.1c-0.1-1.1-0.7-2.1-1.6-2.8c-0.9-0.7-2-1-3.1-0.8
	c-1.1,0.1-2.1,0.7-2.8,1.6s-1,2-0.8,3.1s0.7,2.1,1.6,2.8c0.7,0.6,1.6,0.9,2.6,0.9C47.3,60.7,47.5,60.7,47.7,60.7z M45.6,56.7
	c-0.1-0.4,0.1-0.8,0.3-1.1c0.2-0.3,0.6-0.5,1-0.6c0.1,0,0.1,0,0.2,0c0.3,0,0.7,0.1,0.9,0.3c0.3,0.2,0.5,0.6,0.6,1
	c0.1,0.4-0.1,0.8-0.3,1.1c-0.2,0.3-0.6,0.5-1,0.6c-0.4,0.1-0.8-0.1-1.1-0.3C45.9,57.5,45.7,57.1,45.6,56.7z"/>
<path class="st4" d="M103.8,39.1c0.8,0.6,1.7,0.9,2.6,0.9c1.2,0,2.5-0.6,3.3-1.6l0,0c1.4-1.8,1.1-4.5-0.7-5.9c-0.9-0.7-2-1-3.1-0.8
	c-1.1,0.1-2.1,0.7-2.8,1.6c-0.7,0.9-1,2-0.8,3.1C102.4,37.4,103,38.4,103.8,39.1z M105.2,34.9c0.2-0.3,0.6-0.5,1-0.6
	c0.1,0,0.1,0,0.2,0c0.3,0,0.7,0.1,0.9,0.3c0.7,0.5,0.8,1.5,0.3,2.1l0,0c-0.5,0.7-1.5,0.8-2.1,0.3c-0.3-0.2-0.5-0.6-0.6-1
	C104.8,35.6,104.9,35.2,105.2,34.9z"/>
<path class="st4" d="M97.4,90.3l-7.6-11.5c-0.4-0.6-1.2-0.8-1.8-0.4c-0.6,0.4-0.8,1.2-0.4,1.8l7.6,11.5c0.3,0.4,0.7,0.6,1.1,0.6
	c0.3,0,0.5-0.1,0.7-0.2C97.7,91.7,97.8,90.9,97.4,90.3z"/>
<path class="st4" d="M113.1,67.7l-17.6-0.5c-0.7,0-1.3,0.6-1.4,1.3c0,0.7,0.6,1.3,1.3,1.4l17.6,0.5c0,0,0,0,0,0
	c0.7,0,1.3-0.6,1.3-1.3C114.4,68.4,113.8,67.8,113.1,67.7z"/>
<path class="st4" d="M106.1,55.7c-0.3-0.7-1.1-0.9-1.8-0.6l-14,7.2c-0.7,0.3-0.9,1.1-0.6,1.8c0.2,0.5,0.7,0.7,1.2,0.7
	c0.2,0,0.4,0,0.6-0.1l14-7.2C106.2,57.1,106.5,56.3,106.1,55.7z"/>
<path class="st4" d="M91.5,73.8c-0.3,0.7-0.1,1.5,0.6,1.8l9,4.6c0.2,0.1,0.4,0.1,0.6,0.1c0.5,0,1-0.3,1.2-0.7
	c0.3-0.7,0.1-1.5-0.6-1.8l-9-4.6C92.7,72.9,91.9,73.1,91.5,73.8z"/>
<path class="st4" d="M84.8,81.5c-0.1-0.7-0.8-1.2-1.5-1.1c-0.7,0.1-1.2,0.8-1.1,1.5l1.3,7.6c0.1,0.6,0.7,1.1,1.3,1.1
	c0.1,0,0.2,0,0.2,0c0.7-0.1,1.2-0.8,1.1-1.5L84.8,81.5z"/>
<path class="st4" d="M124.4,66c-0.9-0.7-2-1-3.1-0.8c-1.1,0.1-2.1,0.7-2.8,1.6s-1,2-0.8,3.1c0.1,1.1,0.7,2.1,1.6,2.8
	c0.7,0.6,1.6,0.9,2.6,0.9c0.2,0,0.4,0,0.5,0c1.1-0.1,2.1-0.7,2.8-1.6C126.5,70.1,126.2,67.5,124.4,66z M123,70.3
	c-0.2,0.3-0.6,0.5-1,0.6c-0.4,0.1-0.8-0.1-1.1-0.3c-0.3-0.2-0.5-0.6-0.6-1c-0.1-0.4,0.1-0.8,0.3-1.1c0.2-0.3,0.6-0.5,1-0.6
	c0.1,0,0.1,0,0.2,0c0.3,0,0.7,0.1,0.9,0.3C123.4,68.7,123.5,69.6,123,70.3z"/>
<path class="st4" d="M103.7,95.1c-1.8-1.4-4.5-1.1-5.9,0.7l0,0c-1.4,1.8-1.1,4.5,0.7,5.9c0.7,0.6,1.6,0.9,2.6,0.9c0.2,0,0.4,0,0.5,0
	c1.1-0.1,2.1-0.7,2.8-1.6C105.9,99.1,105.5,96.5,103.7,95.1z M102.4,99.3c-0.2,0.3-0.6,0.5-1,0.6c-0.4,0.1-0.8-0.1-1.1-0.3
	c-0.7-0.5-0.8-1.5-0.3-2.1l0,0c0.2-0.3,0.6-0.5,1-0.6c0.4-0.1,0.8,0.1,1.1,0.3C102.7,97.7,102.9,98.6,102.4,99.3z"/>
<path class="st4" d="M70.2,78.2c-0.7,0.7-16.3,17-23.6,36c-0.3,0.7,0.1,1.5,0.8,1.7c0.2,0.1,0.3,0.1,0.5,0.1c0.5,0,1-0.3,1.2-0.9
	c7.1-18.6,22.9-35,23-35.1c0.5-0.5,0.5-1.4,0-1.9C71.5,77.6,70.7,77.6,70.2,78.2z"/>
</svg>
