<?xml version="1.0" encoding="utf-8"?>
<!-- Generator: Adobe Illustrator 21.0.0, SVG Export Plug-In . SVG Version: 6.00 Build 0)  -->
<svg version="1.1" id="Layer_1" xmlns="http://www.w3.org/2000/svg" xmlns:xlink="http://www.w3.org/1999/xlink" x="0px" y="0px"
	 viewBox="0 0 159 139" style="enable-background:new 0 0 159 139;" xml:space="preserve">
<style type="text/css">
	.st0{fill:#F1F1F1;}
	.st1{fill:#EAEAEA;}
	.st2{fill:#F4F4F4;}
	.st3{fill:#E1E1E1;}
	.st4{fill:#0B1C2B;}
</style>
<path class="st0" d="M106.5,62.7c-3.9,0-7-2.1-8.3-5.7c-1.3-3.4-0.2-7.3,2.7-9.5c1-0.7,2.1-1.4,3.1-2c7.3-4.2,14.7-8.5,22-12.7
	c0.9-0.5,1.8-1,2.8-1.5c4-1.7,8.9,0.3,10.8,4.2c2.1,4.2,0.3,8.6-2.8,10.8c-0.6,0.4-1.2,0.8-1.8,1.1c-7.8,4.5-15.6,9-23.4,13.5
	C110.1,62,108.3,62.8,106.5,62.7z"/>
<path class="st1" d="M27,109.2c-3.1-0.3-5.8-2-7.2-5.5c-1.3-3.3-0.6-6.3,1.7-8.9c0.8-0.9,1.8-1.7,2.9-2.3c7.8-4.5,15.6-9,23.4-13.5
	c0.8-0.4,1.5-0.9,2.4-1.2c2.8-1,5.6-0.9,8.1,0.7c4,2.6,5.6,8.7,1.5,12.9c-1.1,1.1-2.5,2-3.8,2.8c-4.6,2.7-9.2,5.3-13.8,8
	c-3.4,1.9-6.7,3.9-10.1,5.8C30.2,109.1,29.2,109.2,27,109.2z"/>
<path class="st0" d="M61.6,55c0.1,6.1-6.6,10.4-12,7.8c-0.9-0.5-1.9-0.9-2.8-1.5c-7.2-4.1-14.4-8.3-21.5-12.4
	c-1.1-0.6-2.2-1.2-3.1-2c-5-3.8-4.2-11.8,1.5-14.5c2.3-1.1,4.8-1.1,7.2-0.1c0.8,0.3,1.6,0.8,2.3,1.2c7.5,4.3,15,8.6,22.4,13
	c0.9,0.5,1.8,1,2.7,1.7C60.5,50,61.7,52.2,61.6,55z"/>
<path class="st1" d="M132.1,108.3c-1.3,0-2.7-0.3-3.9-1c-2-1.1-4-2.2-6-3.4c-6-3.4-11.9-6.9-17.8-10.4c-1.2-0.7-2.4-1.5-3.5-2.4
	c-4.5-4-3.5-11.7,3-14.2c2-0.8,4.2-0.7,6.2,0.2c1.3,0.6,2.5,1.3,3.7,2c6.6,3.8,13.1,7.6,19.7,11.4c1.4,0.8,2.8,1.6,4,2.5
	c5.2,3.8,4.5,11.5-1.2,14.5C135,108.1,133.7,108.3,132.1,108.3z"/>
<path class="st2" d="M71,24.1c0-4.9,0-9.9,0-14.8c0-2.7,1.2-4.8,3.2-6.4c2.6-2.1,5.5-2.4,8.5-1.3c3,1.1,4.8,3.5,5.3,6.7
	C88,9,88,9.7,88,10.4c0,9.3,0,18.7,0,28c0,1.8-0.2,3.5-1.2,5.1c-1.9,3.3-5.9,5-9.5,4c-3.5-0.9-6.2-4-6.3-7.6
	c-0.1-2.8-0.1-5.6-0.1-8.5C70.9,29,70.9,26.6,71,24.1C70.9,24.1,70.9,24.1,71,24.1z"/>
<path class="st2" d="M72,114.3c0-4.8,0-9.5,0-14.3c0-1.6,0.3-3.1,1.1-4.6c1.9-3.3,5.8-4.9,9.5-4c3.4,0.8,6.1,4,6.4,7.6
	c0.1,1.1,0.1,2.1,0.1,3.2c0,8.3,0,16.6,0,24.9c0,1.1,0,2.1-0.1,3.2c-0.3,4.2-4.2,7.8-8.5,7.8c-4.3,0-8.2-3.5-8.5-7.9
	c-0.1-1.1,0-2.1,0-3.2C72,122.7,72,118.5,72,114.3C72,114.3,72,114.3,72,114.3z"/>
<path class="st3" d="M15.5,62.3c2.1,0,4.2,0,6.3,0c4.6,0.1,8.3,3.5,8.3,8.4c0,5.3-3.8,8.3-8.1,8.7c-0.2,0-0.4,0-0.5,0
	c-4,0-8.1,0-12.1,0c-1,0-2.1-0.3-3-0.7c-3.8-1.5-5.8-5.2-5.2-9.3c0.5-3.1,3.3-6.7,7.5-7C10.9,62.3,13.2,62.3,15.5,62.3
	C15.5,62.3,15.5,62.3,15.5,62.3z"/>
<path class="st3" d="M58.6,20.1c0,3.6-2,6.4-5.6,7.9c-3.6,1.5-7.7-0.3-9.5-2.7c-0.5-0.7-1-1.4-1.5-2.2c-1.6-2.7-3.3-5.4-4.9-8.1
	c-0.4-0.8-0.8-1.5-1.2-2.3C34.1,8.6,36.4,4,39.5,2.1c2.8-1.6,7.9-1.8,11,2c0.3,0.4,0.6,0.8,0.9,1.3c2,3.3,3.9,6.7,5.9,10
	C58.2,16.8,58.5,18.3,58.6,20.1z"/>
<path class="st3" d="M59.7,119c0,1.6-0.3,3.1-1.2,4.5c-2,3.3-3.9,6.6-5.9,10c-0.4,0.6-0.8,1.2-1.2,1.7c-2.2,2.4-5,3.3-8.1,2.6
	c-3.1-0.7-5.2-2.6-6.3-5.7c-0.8-2.3-0.6-4.6,0.6-6.6c2.1-3.8,4.3-7.7,6.8-11.3c4.2-6,11.8-4.2,14.5,0.7
	C59.3,116.1,59.7,117.5,59.7,119z"/>
<path class="st3" d="M115.7,139c-2.8,0.1-5.1-1-6.9-3.2c-0.2-0.3-0.5-0.5-0.6-0.8c-2.1-3.8-4.4-7.6-6.4-11.5
	c-2.1-4.3-0.3-8.9,3.9-11.2c3.3-1.7,7.6-1,10.1,1.8c0.5,0.5,0.9,1.1,1.2,1.7c1.9,3.4,3.8,6.7,5.7,10.1c0.3,0.5,0.4,1,0.6,1.4
	C125.6,132.2,121.8,138.8,115.7,139z"/>
<path class="st3" d="M108.6,27.6c-6.4,0.1-10.6-6.6-8.1-11.7c0.8-1.7,1.8-3.4,2.7-5.1c1.3-2.3,2.5-4.7,3.9-6.9
	c1.9-2.9,4.7-4.2,8.1-3.9c5.8,0.5,9,6.9,7.2,11.2c-0.2,0.5-0.3,1-0.6,1.5c-2,3.5-3.9,7.1-5.9,10.6c-0.7,1.2-1.7,2.3-2.9,3
	C111.6,27.2,110.1,27.7,108.6,27.6z"/>
<path class="st3" d="M144.7,77.5c-2.1,0-4.2,0.1-6.3,0c-3.8-0.2-7.2-3.1-7.9-6.7c-0.8-4.2,1.3-8.3,5.3-9.8c0.6-0.3,1.4-0.5,2-0.5
	c4.4,0,8.8-0.2,13.2,0c4.3,0.2,7.8,4.1,7.8,8.5c0,4.3-3.5,8.2-7.8,8.5C149,77.6,146.8,77.5,144.7,77.5
	C144.7,77.5,144.7,77.5,144.7,77.5z"/>
<path class="st4" d="M120.8,76.2c0.8,0,1.5-0.7,1.5-1.5V62.8c0-0.8-0.7-1.5-1.5-1.5h-18.8l9.4-9.4c0.6-0.6,0.6-1.5,0-2.1l-8.1-8.1
	c-0.6-0.6-1.5-0.6-2.1,0c-2.3,2.3-6.1,2.3-8.4,0c-2.3-2.3-2.3-6.1,0-8.4c0.6-0.6,0.6-1.5,0-2.1l-6.7-6.7c-0.6-0.6-1.5-0.6-2.1,0
	L47.2,61.3H34.4c-0.8,0-1.5,0.7-1.5,1.5v11.9c0,0.8,0.7,1.5,1.5,1.5c3.3,0,6,2.7,6,6c0,3.3-2.7,6-6,6c-0.8,0-1.5,0.7-1.5,1.5v11.9
	c0,0.8,0.7,1.5,1.5,1.5h86.5c0.8,0,1.5-0.7,1.5-1.5V89.6c0-0.8-0.7-1.5-1.5-1.5c-3.3,0-6-2.7-6-6C114.9,78.8,117.6,76.2,120.8,76.2z
	 M85.1,27.6l4.6,4.6c-2.9,4-1.9,9.6,2.1,12.5c3.1,2.2,7.3,2.2,10.4,0l6.1,6.1L97.9,61.3h-4.7l3.4-3.4c0.6-0.6,0.6-1.5,0-2.1
	L80.2,39.3c-0.6-0.6-1.5-0.6-2.1,0L56.1,61.3h-4.7L85.1,27.6z M60.4,61.3l18.8-18.8l14.3,14.3l-4.5,4.5H60.4z M119.4,91v9.1h-11.9
	v-6h-3v6H50.8v-1.5h-3v1.5H35.9V91c4.9-0.8,8.2-5.4,7.3-10.3c-0.6-3.8-3.6-6.7-7.3-7.3v-9.1h11.9v4.5h3v-4.5h68.6v9.1
	c-4.9,0.8-8.2,5.4-7.3,10.3C112.7,87.4,115.6,90.3,119.4,91z"/>
<rect x="104.5" y="67.2" class="st4" width="3" height="6"/>
<rect x="104.5" y="76.2" class="st4" width="3" height="6"/>
<rect x="104.5" y="85.1" class="st4" width="3" height="6"/>
<rect x="47.8" y="71.7" class="st4" width="3" height="6"/>
<rect x="47.8" y="80.6" class="st4" width="3" height="6"/>
<rect x="47.8" y="89.6" class="st4" width="3" height="6"/>
<path class="st4" d="M98.5,71.7c-1.6,0-3-1.3-3-3c0-0.8-0.7-1.5-1.5-1.5H61.2c-0.8,0-1.5,0.7-1.5,1.5c0,1.6-1.3,3-3,3
	c-0.8,0-1.5,0.7-1.5,1.5v17.9c0,0.8,0.7,1.5,1.5,1.5c1.6,0,3,1.3,3,3c0,0.8,0.7,1.5,1.5,1.5H94c0.8,0,1.5-0.7,1.5-1.5
	c0-1.6,1.3-3,3-3c0.8,0,1.5-0.7,1.5-1.5V73.2C100,72.4,99.3,71.7,98.5,71.7z M97,89.8c-2.1,0.5-3.7,2.2-4.3,4.3H62.5
	c-0.5-2.1-2.2-3.7-4.3-4.3V74.5c2.1-0.5,3.7-2.2,4.3-4.3h30.2c0.5,2.1,2.2,3.7,4.3,4.3V89.8z"/>
</svg>
