<?xml version="1.0" encoding="utf-8"?>
<!-- Generator: Adobe Illustrator 21.0.0, SVG Export Plug-In . SVG Version: 6.00 Build 0)  -->
<svg version="1.1" id="Layer_1" xmlns="http://www.w3.org/2000/svg" xmlns:xlink="http://www.w3.org/1999/xlink" x="0px" y="0px"
	 viewBox="0 0 159 139" style="enable-background:new 0 0 159 139;" xml:space="preserve">
<style type="text/css">
	.st0{fill:#F1F1F1;}
	.st1{fill:#EAEAEA;}
	.st2{fill:#F4F4F4;}
	.st3{fill:#E1E1E1;}
	.st4{fill:#E61F37;}
</style>
<path class="st0" d="M106.5,62.7c-3.9,0-7-2.1-8.3-5.7c-1.3-3.4-0.2-7.3,2.7-9.5c1-0.7,2.1-1.4,3.1-2c7.3-4.2,14.7-8.5,22-12.7
	c0.9-0.5,1.8-1,2.8-1.5c4-1.7,8.9,0.3,10.8,4.2c2.1,4.2,0.3,8.6-2.8,10.8c-0.6,0.4-1.2,0.8-1.8,1.1c-7.8,4.5-15.6,9-23.4,13.5
	C110.1,62,108.3,62.8,106.5,62.7z"/>
<path class="st1" d="M27,109.2c-3.1-0.3-5.8-2-7.2-5.5c-1.3-3.3-0.6-6.3,1.7-8.9c0.8-0.9,1.8-1.7,2.9-2.3c7.8-4.5,15.6-9,23.4-13.5
	c0.8-0.4,1.5-0.9,2.4-1.2c2.8-1,5.6-0.9,8.1,0.7c4,2.6,5.6,8.7,1.5,12.9c-1.1,1.1-2.5,2-3.8,2.8c-4.6,2.7-9.2,5.3-13.8,8
	c-3.4,1.9-6.7,3.9-10.1,5.8C30.2,109.1,29.2,109.2,27,109.2z"/>
<path class="st0" d="M61.6,55c0.1,6.1-6.6,10.4-12,7.8c-0.9-0.5-1.9-0.9-2.8-1.5c-7.2-4.1-14.4-8.3-21.5-12.4
	c-1.1-0.6-2.2-1.2-3.1-2c-5-3.8-4.2-11.8,1.5-14.5c2.3-1.1,4.8-1.1,7.2-0.1c0.8,0.3,1.6,0.8,2.3,1.2c7.5,4.3,15,8.6,22.4,13
	c0.9,0.5,1.8,1,2.7,1.7C60.5,50,61.7,52.2,61.6,55z"/>
<path class="st1" d="M132.1,108.3c-1.3,0-2.7-0.3-3.9-1c-2-1.1-4-2.2-6-3.4c-6-3.4-11.9-6.9-17.8-10.4c-1.2-0.7-2.4-1.5-3.5-2.4
	c-4.5-4-3.5-11.7,3-14.2c2-0.8,4.2-0.7,6.2,0.2c1.3,0.6,2.5,1.3,3.7,2c6.6,3.8,13.1,7.6,19.7,11.4c1.4,0.8,2.8,1.6,4,2.5
	c5.2,3.8,4.5,11.5-1.2,14.5C135,108.1,133.7,108.3,132.1,108.3z"/>
<path class="st2" d="M71,24.1c0-4.9,0-9.9,0-14.8c0-2.7,1.2-4.8,3.2-6.4c2.6-2.1,5.5-2.4,8.5-1.3c3,1.1,4.8,3.5,5.3,6.7
	C88,9,88,9.7,88,10.4c0,9.3,0,18.7,0,28c0,1.8-0.2,3.5-1.2,5.1c-1.9,3.3-5.9,5-9.5,4c-3.5-0.9-6.2-4-6.3-7.6
	c-0.1-2.8-0.1-5.6-0.1-8.5C70.9,29,70.9,26.6,71,24.1C70.9,24.1,70.9,24.1,71,24.1z"/>
<path class="st2" d="M72,114.3c0-4.8,0-9.5,0-14.3c0-1.6,0.3-3.1,1.1-4.6c1.9-3.3,5.8-4.9,9.5-4c3.4,0.8,6.1,4,6.4,7.6
	c0.1,1.1,0.1,2.1,0.1,3.2c0,8.3,0,16.6,0,24.9c0,1.1,0,2.1-0.1,3.2c-0.3,4.2-4.2,7.8-8.5,7.8c-4.3,0-8.2-3.5-8.5-7.9
	c-0.1-1.1,0-2.1,0-3.2C72,122.7,72,118.5,72,114.3C72,114.3,72,114.3,72,114.3z"/>
<path class="st3" d="M15.5,62.3c2.1,0,4.2,0,6.3,0c4.6,0.1,8.3,3.5,8.3,8.4c0,5.3-3.8,8.3-8.1,8.7c-0.2,0-0.4,0-0.5,0
	c-4,0-8.1,0-12.1,0c-1,0-2.1-0.3-3-0.7c-3.8-1.5-5.8-5.2-5.2-9.3c0.5-3.1,3.3-6.7,7.5-7C10.9,62.3,13.2,62.3,15.5,62.3
	C15.5,62.3,15.5,62.3,15.5,62.3z"/>
<path class="st3" d="M58.6,20.1c0,3.6-2,6.4-5.6,7.9c-3.6,1.5-7.7-0.3-9.5-2.7c-0.5-0.7-1-1.4-1.5-2.2c-1.6-2.7-3.3-5.4-4.9-8.1
	c-0.4-0.8-0.8-1.5-1.2-2.3C34.1,8.6,36.4,4,39.5,2.1c2.8-1.6,7.9-1.8,11,2c0.3,0.4,0.6,0.8,0.9,1.3c2,3.3,3.9,6.7,5.9,10
	C58.2,16.8,58.5,18.3,58.6,20.1z"/>
<path class="st3" d="M59.7,119c0,1.6-0.3,3.1-1.2,4.5c-2,3.3-3.9,6.6-5.9,10c-0.4,0.6-0.8,1.2-1.2,1.7c-2.2,2.4-5,3.3-8.1,2.6
	c-3.1-0.7-5.2-2.6-6.3-5.7c-0.8-2.3-0.6-4.6,0.6-6.6c2.1-3.8,4.3-7.7,6.8-11.3c4.2-6,11.8-4.2,14.5,0.7
	C59.3,116.1,59.7,117.5,59.7,119z"/>
<path class="st3" d="M115.7,139c-2.8,0.1-5.1-1-6.9-3.2c-0.2-0.3-0.5-0.5-0.6-0.8c-2.1-3.8-4.4-7.6-6.4-11.5
	c-2.1-4.3-0.3-8.9,3.9-11.2c3.3-1.7,7.6-1,10.1,1.8c0.5,0.5,0.9,1.1,1.2,1.7c1.9,3.4,3.8,6.7,5.7,10.1c0.3,0.5,0.4,1,0.6,1.4
	C125.6,132.2,121.8,138.8,115.7,139z"/>
<path class="st3" d="M108.6,27.6c-6.4,0.1-10.6-6.6-8.1-11.7c0.8-1.7,1.8-3.4,2.7-5.1c1.3-2.3,2.5-4.7,3.9-6.9
	c1.9-2.9,4.7-4.2,8.1-3.9c5.8,0.5,9,6.9,7.2,11.2c-0.2,0.5-0.3,1-0.6,1.5c-2,3.5-3.9,7.1-5.9,10.6c-0.7,1.2-1.7,2.3-2.9,3
	C111.6,27.2,110.1,27.7,108.6,27.6z"/>
<path class="st3" d="M144.7,77.5c-2.1,0-4.2,0.1-6.3,0c-3.8-0.2-7.2-3.1-7.9-6.7c-0.8-4.2,1.3-8.3,5.3-9.8c0.6-0.3,1.4-0.5,2-0.5
	c4.4,0,8.8-0.2,13.2,0c4.3,0.2,7.8,4.1,7.8,8.5c0,4.3-3.5,8.2-7.8,8.5C149,77.6,146.8,77.5,144.7,77.5
	C144.7,77.5,144.7,77.5,144.7,77.5z"/>
<path class="st4" d="M113.1,64.3c0.2,0.1,0.4,0.1,0.6,0.1c0.5,0,0.9-0.3,1.1-0.7c0.3-0.6,0.1-1.4-0.6-1.7c-3-1.5-8.6-1.5-8.8-1.5
	c-0.7,0-1.3,0.6-1.3,1.3s0.6,1.3,1.3,1.3C106.9,63,111,63.3,113.1,64.3z"/>
<path class="st4" d="M120.6,80.2l-5.3-1.5c-0.2-0.1-0.4-0.3-0.4-0.5v-1.8c0.4-0.3,0.8-0.6,1.2-1c1.9-1.8,2.9-4.2,2.9-6.8v-2.4l0.5-1
	c0.6-1.1,0.9-2.4,0.9-3.6v-6.6c0-0.7-0.6-1.3-1.3-1.3h-12.3c-4.5,0-8.1,3.7-8.1,8.1v0.1c0,1,0.2,2.1,0.7,3l0.7,1.3v2.1
	c0,3.3,1.6,6.3,4.1,8.1l0,1.9c0,0.3,0,0.4-1.1,0.7l-2.6,0.7L93,76.9c0-0.4-0.1-0.7-0.3-1l-2.4-2.5v-4.2c0.3-0.2,0.5-0.4,0.7-0.6
	c3-2.8,4.7-6.8,4.7-10.9v-3.4c0.9-2,1.4-4.1,1.4-6.2V34.4c0-0.7-0.6-1.3-1.3-1.3H76.7c-6.8,0-12.2,5.5-12.2,12.2v2.7
	c0,2.2,0.5,4.3,1.4,6.2v2.9c0,4.8,2.1,9.1,5.5,12v4.3L68.9,76c-0.3,0.3-0.4,0.6-0.3,1l-7.9,2.9c-0.6,0.2-1.1,0.5-1.6,0.8L57.8,80
	c3.7-1.6,4.9-3.9,4.9-4c0.2-0.4,0.2-0.8,0-1.1c-0.9-1.8-1-5.2-1.1-8c0-0.9-0.1-1.8-0.1-2.5c-0.4-6.1-5.1-10.8-10.9-10.8
	s-10.4,4.6-10.9,10.8c-0.1,0.8-0.1,1.6-0.1,2.5c-0.1,2.7-0.2,6.1-1.1,8c-0.2,0.4-0.2,0.8,0,1.1c0.1,0.1,1.2,2.4,4.9,4L40,81.7
	c-1.8,0.9-3,2.8-3,4.8V96c0,0.7,0.6,1.3,1.3,1.3s1.3-0.6,1.3-1.3v-9.5c0-1.1,0.6-2,1.6-2.5l4.3-2.1l1.5,1.4c1,1,2.4,1.5,3.7,1.5
	c1.3,0,2.7-0.5,3.7-1.5l1.5-1.4l1.4,0.7c-0.7,1.1-1,2.3-1,3.6V96c0,0.7,0.6,1.3,1.3,1.3s1.3-0.6,1.3-1.3v-9.9c0-1.8,1.1-3.3,2.8-3.9
	l8.3-3l3.5,5.2c0.4,0.7,1.2,1.1,1.9,1.2c0.1,0,0.2,0,0.3,0c0.7,0,1.4-0.3,1.9-0.8l2.1-2.1V96c0,0.7,0.6,1.3,1.3,1.3s1.3-0.6,1.3-1.3
	V82.7l2.1,2.1c0.5,0.5,1.2,0.8,1.9,0.8c0.1,0,0.2,0,0.3,0c0.8-0.1,1.5-0.5,1.9-1.2l3.5-5.2l8.3,3c1.7,0.6,2.8,2.2,2.8,3.9V96
	c0,0.7,0.6,1.3,1.3,1.3s1.3-0.6,1.3-1.3v-9.9c0-1.8-0.7-3.5-1.9-4.7l0.3-0.1c0.3-0.1,0.8-0.2,1.2-0.4l3.3,3.3V96
	c0,0.7,0.6,1.3,1.3,1.3s1.3-0.6,1.3-1.3V84.2l3.3-3.3c0.2,0.1,0.4,0.2,0.5,0.2l5.3,1.5c1.2,0.3,2.1,1.5,2.1,2.7V96
	c0,0.7,0.6,1.3,1.3,1.3s1.3-0.6,1.3-1.3V85.4C124.5,83,122.9,80.9,120.6,80.2z M56,78l0-1.5c1.5-1,2.7-2.5,3.4-4.2
	c0.2,1.1,0.4,2.1,0.7,3.1C59.6,76,58.4,77.1,56,78z M42.3,64.6c0.2-2.3,1.1-4.4,2.6-6c1.5-1.6,3.6-2.4,5.7-2.4s4.2,0.9,5.7,2.4
	c1.5,1.6,2.4,3.7,2.6,6C59,65.3,59,66.1,59,67c0,0.1,0,0.2,0,0.2c-1.4-2.1-3.5-3.7-6.3-4.6c-2.6-0.8-4.8-0.8-4.9-0.8
	c-0.3,0-0.7,0.1-0.9,0.4l-2.3,2.4c-0.5,0.5-0.5,1.3,0,1.8c0.5,0.5,1.3,0.5,1.8,0l1.9-2c1.7,0.1,7,0.7,9.1,5.3
	c-0.5,3.4-3.4,5.9-6.9,5.9c-3.8,0-6.9-3.1-6.9-6.9c0-0.7-0.6-1.3-1.3-1.3c-0.1,0-0.1,0-0.2,0c0-0.1,0-0.2,0-0.3
	C42.2,66.1,42.3,65.3,42.3,64.6z M41.1,75.3c0.4-0.9,0.6-2,0.7-3.1c0.7,1.7,1.9,3.1,3.4,4.2V78C42.8,77.1,41.6,76,41.1,75.3z
	 M48.7,81.5l-1.2-1.1c0.2-0.4,0.3-0.8,0.3-1.3v-1.4c0.9,0.3,1.8,0.4,2.8,0.4c1,0,1.9-0.2,2.8-0.4l0,1.4c0,0.4,0.1,0.9,0.3,1.3
	l-1.2,1.1C51.5,82.5,49.8,82.5,48.7,81.5z M68.4,57.2V54c0-0.2,0-0.4-0.1-0.6c-0.8-1.7-1.2-3.5-1.2-5.4v-2.7c0-5.3,4.3-9.7,9.7-9.7
	h17.9v12.4c0,1.9-0.4,3.7-1.2,5.4c-0.1,0.2-0.1,0.4-0.1,0.6v3.7c0,3.5-1.4,6.7-3.9,9.1c-0.3,0.3-0.6,0.6-1,0.8c0,0,0,0,0,0
	c-2.4,1.8-5.3,2.7-8.3,2.5C73.4,69.6,68.4,64,68.4,57.2z M79.8,72.6c0.3,0,0.7,0,1,0c2.5,0,4.8-0.6,6.9-1.7v2.3L80.8,78l-6.9-4.7
	v-2.4C75.6,71.9,77.6,72.5,79.8,72.6z M75.6,83C75.6,83,75.5,83,75.6,83c-0.1,0-0.1,0-0.1,0l-4-6l1.3-1.3l6,4.1L75.6,83z M86.1,83
	C86.1,83,86.1,83,86.1,83C86,83,86,83,86,83l-3.2-3.2l6-4.1l1.3,1.3L86.1,83z M102.6,68.3v-2.4c0-0.2,0-0.4-0.1-0.6l-0.8-1.6
	c-0.3-0.6-0.4-1.2-0.4-1.9v-0.1c0-3.1,2.5-5.6,5.6-5.6h11.1v5.3c0,0.9-0.2,1.7-0.6,2.5l-0.6,1.3c-0.1,0.2-0.1,0.4-0.1,0.6v2.7
	c0,1.9-0.7,3.7-2.1,5c-1.4,1.3-3.2,2-5,2C105.6,75.5,102.6,72.2,102.6,68.3z M109.2,78.1c0.1,0,0.2,0,0.3,0c1,0,1.9-0.1,2.8-0.4v0.5
	c0,0.3,0,0.5,0.1,0.7l-2.9,2.9l-2.9-2.9c0.1-0.2,0.1-0.5,0.1-0.8l0-0.5C107.5,77.9,108.4,78.1,109.2,78.1z"/>
<path class="st4" d="M117.8,86.5c-0.7,0-1.3,0.6-1.3,1.3V96c0,0.7,0.6,1.3,1.3,1.3c0.7,0,1.3-0.6,1.3-1.3v-8.2
	C119,87.1,118.5,86.5,117.8,86.5z"/>
<path class="st4" d="M43.8,88.2c-0.7,0-1.3,0.6-1.3,1.3V96c0,0.7,0.6,1.3,1.3,1.3S45,96.7,45,96v-6.5C45,88.8,44.5,88.2,43.8,88.2z"
	/>
<path class="st4" d="M72.5,47.8C72.5,47.8,72.5,47.8,72.5,47.8c1.7-0.3,5-0.7,8.4-0.5c4,0.3,6.9,1.3,8.6,3c0.5,0.5,1.3,0.5,1.8,0
	c0.5-0.5,0.5-1.3,0-1.8c-4.8-4.8-15-3.9-19.1-3.3c-1.3,0.2-2.2,1.3-2.2,2.6v3c0,0.7,0.6,1.3,1.3,1.3s1.3-0.6,1.3-1.3L72.5,47.8
	L72.5,47.8z"/>
<path class="st4" d="M65.7,89.3c-0.7,0-1.3,0.6-1.3,1.3V96c0,0.7,0.6,1.3,1.3,1.3S67,96.7,67,96v-5.5C67,89.8,66.4,89.3,65.7,89.3z"
	/>
<path class="st4" d="M95.9,89.3c-0.7,0-1.3,0.6-1.3,1.3V96c0,0.7,0.6,1.3,1.3,1.3c0.7,0,1.3-0.6,1.3-1.3v-5.5
	C97.1,89.8,96.6,89.3,95.9,89.3z"/>
</svg>
