<?xml version="1.0" encoding="utf-8"?>
<!-- Generator: Adobe Illustrator 21.0.0, SVG Export Plug-In . SVG Version: 6.00 Build 0)  -->
<svg version="1.1" id="Layer_1" xmlns="http://www.w3.org/2000/svg" xmlns:xlink="http://www.w3.org/1999/xlink" x="0px" y="0px"
	 viewBox="0 0 25 26" style="enable-background:new 0 0 25 26;" xml:space="preserve">
<style type="text/css">
	.st0{fill:#FFFFFF;}
	.st1{clip-path:url(#SVGID_2_);fill:#FFFFFF;}
</style>
<g>
	<path class="st0" d="M23.4,22.3H1.1c-0.6,0-1.1,0.5-1.1,1.1c0,0.6,0.5,1.1,1.1,1.1h22.3c0.6,0,1.1-0.5,1.1-1.1
		C24.5,22.8,24.1,22.3,23.4,22.3L23.4,22.3z M23.4,22.3"/>
	<g>
		<defs>
			<rect id="SVGID_1_" x="0" width="24.8" height="24.8"/>
		</defs>
		<use xlink:href="#SVGID_1_"  style="overflow:visible;fill:#FFFFFF;"/>
		<clipPath id="SVGID_2_">
			<use xlink:href="#SVGID_1_"  style="overflow:visible;"/>
		</clipPath>
		<path class="st1" d="M2.5,19.4c-0.6,0-1.1,0.5-1.1,1.1c0,0.6,0.5,1.1,1.1,1.1H22c0.6,0,1.1-0.5,1.1-1.1c0-0.6-0.5-1.1-1.1-1.1
			h-0.3v-10H22c0.3,0,0.6-0.3,0.6-0.6c0-0.3-0.3-0.6-0.6-0.6H2.5C2.2,8.3,2,8.5,2,8.8c0,0.3,0.2,0.6,0.6,0.6h0.3v10H2.5z M19.5,9.4
			v10h-3.3v-10H19.5z M13.9,9.4v10h-3.3v-10H13.9z M5,9.4h3.3v10H5V9.4z M5,9.4"/>
		<path class="st1" d="M1.1,7.3h22.3c0.6,0,1.1-0.5,1.1-1.1c0-0.5-0.3-0.9-0.8-1.1l-11.1-5c-0.3-0.1-0.6-0.1-0.9,0l-11.2,5
			C0.2,5.3-0.1,5.9,0,6.4C0.1,6.9,0.6,7.3,1.1,7.3L1.1,7.3z M1.1,7.3"/>
	</g>
</g>
</svg>
