<?xml version="1.0" encoding="utf-8"?>
<!-- Generator: Adobe Illustrator 21.0.0, SVG Export Plug-In . SVG Version: 6.00 Build 0)  -->
<svg version="1.1" id="Layer_1" xmlns="http://www.w3.org/2000/svg" xmlns:xlink="http://www.w3.org/1999/xlink" x="0px" y="0px"
	 viewBox="0 0 24 24" style="enable-background:new 0 0 24 24;" xml:space="preserve">
<style type="text/css">
	.st0{fill:#FFFFFF;}
</style>
<g>
	<path class="st0" d="M16.5,0h-9C3.4,0,0,3.4,0,7.5v9C0,20.6,3.4,24,7.5,24h9c4.1,0,7.5-3.4,7.5-7.5v-9C24,3.4,20.6,0,16.5,0L16.5,0
		z M21.7,16.5c0,2.9-2.4,5.2-5.2,5.2h-9c-2.9,0-5.3-2.4-5.3-5.2v-9c0-2.9,2.4-5.3,5.3-5.3h9c2.9,0,5.2,2.4,5.2,5.3V16.5z M21.7,16.5
		"/>
	<path class="st0" d="M12,6c-3.3,0-6,2.7-6,6s2.7,6,6,6s6-2.7,6-6S15.3,6,12,6L12,6z M12,15.7c-2.1,0-3.7-1.7-3.7-3.7
		c0-2.1,1.7-3.7,3.7-3.7c2.1,0,3.7,1.7,3.7,3.7C15.7,14.1,14.1,15.7,12,15.7L12,15.7z M12,15.7"/>
	<path class="st0" d="M19.2,5.5c0,0.4-0.4,0.8-0.8,0.8c-0.4,0-0.8-0.4-0.8-0.8c0-0.4,0.4-0.8,0.8-0.8C18.9,4.8,19.2,5.1,19.2,5.5
		L19.2,5.5z M19.2,5.5"/>
</g>
</svg>
