<?xml version="1.0" encoding="utf-8"?>
<!-- Generator: Adobe Illustrator 21.0.0, SVG Export Plug-In . SVG Version: 6.00 Build 0)  -->
<svg version="1.1" id="Layer_1" xmlns="http://www.w3.org/2000/svg" xmlns:xlink="http://www.w3.org/1999/xlink" x="0px" y="0px"
	 viewBox="0 0 64 21" style="enable-background:new 0 0 64 21;" xml:space="preserve">
<style type="text/css">
	.st0{fill:#FFFFFF;}
</style>
<g>
	<path class="st0" d="M0.7,0.3c8.8,0,17.7,0,26.5,0c0,3,0,5.9,0,8.8c-0.1,0-0.2,0-0.3,0c-8.7,0-17.3,0-26,0c-0.1,0-0.2,0-0.2,0
		C0.7,6.2,0.7,3.2,0.7,0.3z"/>
	<path class="st0" d="M0.7,12.4c0.1,0,0.2,0,0.3,0c8.6,0,17.3,0,25.9,0c0.1,0,0.2,0,0.3,0c0,2.9,0,5.9,0,8.8c-8.8,0-17.7,0-26.5,0
		C0.7,18.2,0.7,15.3,0.7,12.4z"/>
	<path class="st0" d="M63.3,4.7c0,0.2-0.1,0.4-0.1,0.6c-0.5,1.7-1.9,2.7-3.7,2.5c-0.6-0.1-1.2-0.2-1.8-0.3c-0.2,0-0.5,0-0.7,0.1
		c-0.3,0-0.6,0.1-1,0.1c-3.1,0-6.2,0-9.3,0c-0.1,0-0.2,0-0.3,0c0.1-0.5,0.1-1,0.2-1.5c0.5-0.1,3.5,0,3.9,0.1c0,0,0-0.1,0-0.1
		c0-0.8,0-1.5,0-2.3c0-0.3-0.1-0.6-0.2-0.9c-0.2-0.7-0.7-1-1.4-1c-0.5,0-1,0-1.5,0c-0.1,0-0.2,0-0.3,0c0.1-0.5,0.1-1,0.2-1.4
		c0,0,0.1-0.1,0.1-0.1c0.9,0,1.8,0,2.7,0.1c1.4,0.3,2.1,1.2,2.3,2.6c0.1,0.8,0.1,1.7,0.1,2.5c0,0.2,0,0.3,0,0.5c0.1,0,0.2,0,0.2,0
		c1.1,0,2.2,0,3.3,0c0.2,0,0.3-0.1,0.4-0.3c0-0.1,0-0.3,0-0.4c0-0.9,0-1.9,0-2.8c0-1,0.4-1.7,1.4-2c0.8-0.3,1.7-0.4,2.6-0.2
		C62,0.6,63,1.7,63.3,3.2c0,0.1,0,0.1,0.1,0.2C63.3,3.8,63.3,4.3,63.3,4.7z M58.5,2.3c0,1.2,0,2.4,0,3.6c0.1,0,0.2,0.1,0.3,0.1
		c0.3,0,0.7,0.1,1,0.1c0.8,0,1.3-0.3,1.5-1.1c0.2-0.6,0.2-1.3,0-1.9c-0.1-0.4-0.3-0.8-0.8-0.9C59.7,1.9,59.1,2,58.5,2.3z"/>
	<path class="st0" d="M63.3,21.2c-0.5-0.1-1.1-0.2-1.6-0.3c-0.3-0.1-0.6-0.1-0.9,0c-0.8,0.2-1.6,0.2-2.4,0C57.5,20.7,57,20,56.9,19
		c0-1,0.4-1.7,1.4-2c0.5-0.2,1.1-0.2,1.7-0.3c0.4,0,0.9,0,1.3,0c0.2-0.8-0.2-1.3-1-1.3c-0.8,0-1.6,0.1-2.3,0.4
		c-0.2,0.1-0.4,0.1-0.6,0.2c-0.1-0.5-0.1-1-0.2-1.5c0.6-0.2,1.1-0.3,1.7-0.5c0.9-0.2,1.8-0.3,2.6-0.1c1.1,0.2,1.6,0.8,1.8,1.9
		c0,0.1,0,0.1,0,0.1C63.3,17.7,63.3,19.5,63.3,21.2z M61.4,18c-0.1,0-0.2,0-0.3,0c-0.4,0-0.9,0-1.3,0c-0.5,0-0.9,0.4-0.8,0.9
		c0,0.5,0.4,0.8,0.9,0.7c0.5,0,0.9-0.2,1.4-0.2c0,0,0.1-0.1,0.1-0.1C61.4,18.9,61.4,18.5,61.4,18z"/>
	<path class="st0" d="M36.4,0.5c-0.1,0.5-0.1,1-0.2,1.5c-0.6,0-1.2,0-1.8,0c-0.2,0-0.4,0-0.5,0c-0.6,0.1-1,0.5-1.2,1.1
		C32.5,4,32.5,5,32.6,5.9C32.8,6.5,33.3,6.9,34,7c0.8,0,1.7,0,2.5,0c1.9,0,3.8,0,5.7,0c0.1,0,0.3,0,0.4,0c0.5-0.1,0.8-0.5,0.8-1
		c0-0.5-0.4-0.9-1-0.9c-0.8,0-1.6,0-2.5,0c-1.2-0.1-1.9-0.8-2.1-1.8c-0.2-1.3,0.4-2.2,1.6-2.6c0.5-0.1,1-0.2,1.5-0.2
		c1.5,0,3,0,4.5,0c0.1,0,0.1,0,0.2,0c-0.1,0.5-0.1,1-0.2,1.5c-0.1,0-0.2,0-0.3,0c-1.3,0-2.6,0-3.9,0c-0.2,0-0.4,0-0.6,0
		c-0.5,0.1-0.8,0.4-0.7,0.9c0,0.5,0.3,0.8,0.8,0.8c0.6,0,1.3,0,1.9,0c0.4,0,0.8,0,1.1,0.1c1,0.3,1.6,1.2,1.6,2.2
		c0,0.3,0,0.6-0.1,0.8c-0.2,0.9-0.9,1.3-1.7,1.5c-0.4,0.1-0.9,0.1-1.3,0.1c-2.9,0-5.8,0-8.7,0c-1.8,0-3-1.2-3.1-3
		c-0.1-0.9-0.1-1.8,0.2-2.7c0.4-1.4,1.5-2.3,3-2.3C34.5,0.5,35.4,0.5,36.4,0.5z"/>
	<path class="st0" d="M40.5,21c-0.7,0-1.4,0-2.1,0c0-0.1,0-0.2,0-0.3c0-1.3,0-2.7,0-4c0-0.1,0-0.3,0-0.4c-0.1-0.4-0.3-0.6-0.6-0.7
		c-0.5-0.1-1,0-1.4,0.2c0,0.3,0.1,0.6,0.1,0.8c0,1.3,0,2.7,0,4c0,0.1,0,0.2,0,0.3c-0.7,0-1.3,0-2.1,0c0-0.1,0-0.2,0-0.3
		c0-1.3,0-2.6,0-3.9c0-1-0.4-1.3-1.4-1.1c-0.6,0.1-0.6,0.1-0.6,0.7c0,1.4,0,2.9,0,4.3c0,0.1,0,0.2,0,0.3c-0.7,0-1.4,0-2.1,0
		c0-0.1,0-0.2,0-0.3c0-1.7,0-3.4,0-5.2c0-0.8,0.2-1.1,1-1.3c1.1-0.3,2.1-0.5,3.2-0.2c0.3,0.1,0.6,0.2,0.8,0.3c0.1,0.1,0.2,0.1,0.4,0
		c1-0.4,2.1-0.6,3.1-0.3c0.9,0.2,1.5,0.9,1.5,1.8c0.1,1.1,0,2.1,0,3.2C40.5,19.7,40.5,20.3,40.5,21z"/>
	<path class="st0" d="M53.7,14.1c0-1,0-2,0-3c0.7-0.1,1.4-0.2,2.1-0.4c0,0.1,0,0.2,0,0.3c0,2.8,0,5.6,0,8.4c0,0.8-0.2,1-0.9,1.3
		c-1,0.3-2,0.4-3.1,0.2c-1.5-0.2-2.5-1.3-2.6-2.9c-0.1-0.8,0-1.5,0.2-2.2c0.4-1.2,1.3-1.9,2.5-1.9C52.5,13.9,53.1,14,53.7,14.1z
		 M53.7,17.5c0-0.5,0-1.1,0-1.6c0-0.2,0-0.3-0.2-0.3c-0.2,0-0.5-0.1-0.7-0.1c-0.7-0.1-1.2,0.2-1.4,0.9c-0.2,0.7-0.2,1.5,0,2.2
		c0.2,0.6,0.7,0.9,1.3,0.9c0.2,0,0.5,0,0.7-0.1c0.2,0,0.3-0.1,0.3-0.4C53.7,18.6,53.7,18.1,53.7,17.5z"/>
	<path class="st0" d="M42.1,16c-0.1-0.5-0.1-1-0.2-1.5c0.8-0.3,1.6-0.5,2.5-0.6c0.6,0,1.2,0,1.8,0.1c1.2,0.2,1.8,0.9,1.8,2.1
		c0,1.7,0,3.3,0,5c0,0,0,0,0,0.1c-0.5-0.1-1.1-0.2-1.6-0.3c-0.3-0.1-0.6-0.1-0.9,0c-0.8,0.2-1.6,0.2-2.4,0c-0.9-0.3-1.5-0.9-1.5-1.9
		c0-1,0.4-1.7,1.4-2c0.5-0.2,1.1-0.2,1.7-0.3c0.4,0,0.9,0,1.3,0c0.2-0.8-0.2-1.3-1-1.3c-0.8,0-1.6,0.1-2.3,0.4
		C42.5,15.9,42.3,15.9,42.1,16z M46.1,18c-0.6,0-1.1,0-1.6,0c-0.5,0-0.9,0.4-0.8,0.9c0,0.5,0.4,0.8,0.9,0.7c0.5,0,1-0.2,1.4-0.2
		c0,0,0.1-0.1,0.1-0.1C46.1,18.9,46.1,18.5,46.1,18z"/>
</g>
</svg>
