<?xml version="1.0" encoding="utf-8"?>
<!-- Generator: Adobe Illustrator 21.0.0, SVG Export Plug-In . SVG Version: 6.00 Build 0)  -->
<svg version="1.1" id="Layer_1" xmlns="http://www.w3.org/2000/svg" xmlns:xlink="http://www.w3.org/1999/xlink" x="0px" y="0px"
	 viewBox="0 0 34 23" style="enable-background:new 0 0 34 23;" xml:space="preserve">
<style type="text/css">
	.st0{fill:#FFFFFF;}
</style>
<path class="st0" d="M9.1,10.2c-0.6,0-1.1,0.2-1.1,0.2l-0.1,0.8c0,0,0.4-0.2,1-0.2c0.3,0,0.6,0,0.6,0.3c0,0.2,0,0.2,0,0.2
	s-0.3,0-0.4,0c-0.8,0-1.6,0.3-1.6,1.4c0,0.8,0.6,1,0.9,1c0.7,0,0.9-0.4,0.9-0.4l0,0.4H10l0.4-2.5C10.4,10.2,9.4,10.2,9.1,10.2z
	 M8.6,13.2c-0.3,0-0.4-0.2-0.4-0.3c0-0.3,0.1-0.6,0.8-0.6c0.2,0,0.2,0,0.2,0C9.3,12.4,9.2,13.2,8.6,13.2z"/>
<path class="st0" d="M12,11.1c0.1,0,0.6,0,0.6,0l0.1-0.8c0,0-0.3-0.1-0.9-0.1c-0.7,0-1.4,0.3-1.4,1.2c0,1.1,1.2,1,1.2,1.4
	c0,0.3-0.3,0.3-0.6,0.3c-0.4,0-0.8-0.1-0.8-0.1l-0.1,0.8c0,0,0.3,0.1,1,0.1c0.2,0,1.4,0.1,1.4-1.2c0-1.2-1.1-0.9-1.1-1.4
	C11.5,11.1,11.7,11.1,12,11.1z"/>
<path class="st0" d="M14,11.2h0.5l0.1-0.9h-0.5l0.1-0.5h-0.9c0,0-0.5,3-0.5,3.4c0,0.5,0.3,0.8,0.7,0.8c0.3,0,0.6-0.1,0.7-0.1
	l0.1-0.8c-0.1,0-0.2,0-0.2,0c-0.3,0-0.4-0.2-0.3-0.3L14,11.2z"/>
<path class="st0" d="M17.9,6.1h-1.7c-0.2,0.3-0.4,0.6-0.6,0.9h2.9C18.3,6.7,18.1,6.4,17.9,6.1z"/>
<path class="st0" d="M30.8,16.6C30.7,16.6,30.7,16.5,30.8,16.6C30.7,16.5,30.7,16.5,30.8,16.6c0-0.1,0-0.1,0-0.1c0,0,0,0,0-0.1
	c0,0,0,0,0,0s0,0,0,0c0,0,0,0-0.1,0h-0.1v0.3h0v-0.1h0c0,0,0,0,0,0C30.7,16.5,30.7,16.6,30.8,16.6L30.8,16.6L30.8,16.6L30.8,16.6z
	 M30.6,16.5L30.6,16.5L30.6,16.5L30.6,16.5C30.7,16.4,30.7,16.4,30.6,16.5C30.7,16.4,30.7,16.4,30.6,16.5
	C30.7,16.4,30.7,16.4,30.6,16.5C30.7,16.5,30.7,16.5,30.6,16.5C30.7,16.5,30.7,16.5,30.6,16.5z"/>
<path class="st0" d="M19,8h-4c-0.3,0.5-0.4,0.8-0.5,0.9h4.8C19.3,8.6,19.2,8.3,19,8z"/>
<polygon class="st0" points="6.2,9.5 5.3,12.2 5.3,9.5 3.9,9.5 3.2,13.9 4.1,13.9 4.6,10.6 4.7,13.9 5.4,13.9 6.5,10.6 6,13.9 
	7,13.9 7.7,9.5 "/>
<path class="st0" d="M24.1,10.2c-0.6,0-1.1,0.2-1.1,0.2l-0.1,0.8c0,0,0.4-0.2,1-0.2c0.3,0,0.6,0,0.6,0.3c0,0.2,0,0.2,0,0.2
	s-0.3,0-0.4,0c-0.8,0-1.6,0.3-1.6,1.4c0,0.8,0.6,1,0.9,1c0.7,0,0.9-0.4,0.9-0.4l0,0.4H25l0.4-2.5C25.4,10.2,24.4,10.2,24.1,10.2z
	 M23.6,13.2c-0.3,0-0.4-0.2-0.4-0.3c0-0.3,0.1-0.6,0.8-0.6c0.2,0,0.2,0,0.2,0C24.3,12.4,24.2,13.2,23.6,13.2z"/>
<path class="st0" d="M30.8,13.5c0,0-0.1-0.1-0.1-0.1c0,0-0.1,0-0.1,0c0,0-0.1,0-0.1,0c0,0-0.1,0.1-0.1,0.1c0,0,0,0.1,0,0.1
	s0,0.1,0,0.1c0,0,0.1,0.1,0.1,0.1c0,0,0.1,0,0.1,0c0,0,0.1,0,0.1,0c0,0,0.1-0.1,0.1-0.1c0,0,0-0.1,0-0.1
	C30.8,13.6,30.8,13.5,30.8,13.5z M30.7,13.7C30.7,13.8,30.7,13.8,30.7,13.7c-0.1,0.1-0.2,0.1-0.2,0.1c0,0-0.1,0-0.1,0
	c0,0-0.1,0-0.1-0.1s0-0.1,0-0.1s0-0.1,0-0.1c0,0,0-0.1,0.1-0.1s0.1,0,0.1,0c0,0,0.1,0,0.1,0c0,0,0.1,0,0.1,0.1c0,0,0,0.1,0,0.1
	C30.8,13.7,30.8,13.7,30.7,13.7z"/>
<path class="st0" d="M30.6,13.7C30.6,13.7,30.6,13.7,30.6,13.7C30.6,13.6,30.6,13.6,30.6,13.7c0-0.1,0-0.1,0-0.1c0,0,0,0,0-0.1
	c0,0,0,0,0,0c0,0,0,0,0,0c0,0,0,0-0.1,0h-0.1v0.3h0v-0.1h0c0,0,0,0,0,0C30.5,13.7,30.6,13.7,30.6,13.7L30.6,13.7L30.6,13.7
	L30.6,13.7z M30.5,13.6L30.5,13.6L30.5,13.6L30.5,13.6C30.5,13.5,30.6,13.5,30.5,13.6C30.6,13.5,30.6,13.5,30.5,13.6
	C30.6,13.5,30.6,13.5,30.5,13.6C30.6,13.6,30.6,13.6,30.5,13.6C30.6,13.6,30.6,13.6,30.5,13.6z"/>
<path class="st0" d="M27.2,10.3c-0.4,0-0.7,0.6-0.7,0.6l0.1-0.5h-0.9l-0.6,3.6h1c0.3-1.5,0.3-2.8,1-2.5c0.1-0.6,0.2-0.8,0.3-1.1
	C27.4,10.3,27.4,10.3,27.2,10.3z"/>
<path class="st0" d="M29.6,9.5l-0.2,1.2c0,0-0.3-0.5-0.9-0.5c-0.8,0-1.6,1-1.6,2.2c0,0.8,0.4,1.5,1.1,1.5c0.6,0,0.9-0.4,0.9-0.4
	l0,0.3h0.9l0.7-4.4L29.6,9.5z M28.5,13c-0.3,0-0.5-0.3-0.5-0.7c0-0.7,0.3-1.2,0.7-1.2c0.3,0,0.5,0.2,0.5,0.8
	C29.2,12.4,29,13,28.5,13z"/>
<path class="st0" d="M33.1,0.7H0.9c-0.5,0-0.9,0.4-0.9,0.9v20.2c0,0.5,0.4,0.9,0.9,0.9h32.1c0.5,0,0.9-0.4,0.9-0.9V1.6
	C33.9,1.1,33.6,0.7,33.1,0.7z M30.9,16.6c0,0-0.1,0.1-0.1,0.1s-0.1,0-0.1,0c0,0-0.1,0-0.1,0c0,0-0.1-0.1-0.1-0.1c0,0,0-0.1,0-0.1
	c0,0,0-0.1,0-0.1c0,0,0.1-0.1,0.1-0.1c0,0,0.1,0,0.1,0c0,0,0.1,0,0.1,0c0,0,0.1,0.1,0.1,0.1c0,0,0,0.1,0,0.1
	C30.9,16.5,30.9,16.6,30.9,16.6z M31.5,11.7c0,4.8-3.9,8.7-8.7,8.7c-2.2,0-4.3-0.9-5.8-2.2c-1.5,1.4-3.6,2.2-5.8,2.2
	c-4.8,0-8.7-3.9-8.7-8.7C2.5,6.9,6.3,3,11.1,3c0,0,0,0,0.1,0c2.2,0,4.3,0.9,5.8,2.2C18.5,3.8,20.6,3,22.8,3
	C27.6,3,31.5,6.9,31.5,11.7C31.5,11.7,31.5,11.7,31.5,11.7z"/>
<path class="st0" d="M16.1,17.2c0.3,0.3,0.6,0.7,0.9,1c0,0,0,0,0,0c0,0,0,0,0,0h0c0.3-0.3,0.6-0.6,0.9-0.9H16.1z"/>
<path class="st0" d="M17.3,12.4c0,0,0.1-0.6,0.1-0.8c0-0.6-0.3-1.4-1.3-1.4c-0.9,0-1.6,1-1.6,2.1c0,1.3,0.9,1.6,1.6,1.6
	c0.7,0,1-0.2,1-0.2l0.2-0.9c0,0-0.5,0.2-1,0.2c-1,0-0.8-0.7-0.8-0.7L17.3,12.4z M16.1,11c0.5,0,0.4,0.6,0.4,0.6h-1
	C15.5,11.6,15.6,11,16.1,11z"/>
<path class="st0" d="M21.6,10.3c0.5,0,0.8,0.3,0.8,0.3l0.2-1c0,0-0.6-0.2-1-0.2c-1.1,0-2.1,0.9-2.1,2.7c0,1.2,0.6,1.9,1.7,1.9
	c0.3,0,0.8-0.1,0.8-0.1l0.2-1c0,0-0.5,0.2-0.8,0.2c-0.7,0-0.9-0.5-0.9-1C20.4,10.9,21,10.3,21.6,10.3z"/>
<path class="st0" d="M14.9,15.3c0.2,0.3,0.3,0.6,0.5,0.9h3.1c0.2-0.3,0.4-0.6,0.5-0.9H14.9z"/>
<path class="st0" d="M19.5,10.3c-0.4,0-0.7,0.6-0.7,0.6l0.1-0.5H18l-0.6,3.6h1c0.3-1.5,0.3-2.8,1-2.5c0.1-0.6,0.2-0.8,0.3-1.1
	C19.6,10.3,19.6,10.3,19.5,10.3z"/>
</svg>
