<?xml version="1.0" encoding="utf-8"?>
<!-- Generator: Adobe Illustrator 21.0.0, SVG Export Plug-In . SVG Version: 6.00 Build 0)  -->
<svg version="1.1" id="Layer_1" xmlns="http://www.w3.org/2000/svg" xmlns:xlink="http://www.w3.org/1999/xlink" x="0px" y="0px"
	 viewBox="0 0 24 22" style="enable-background:new 0 0 24 22;" xml:space="preserve">
<style type="text/css">
	.st0{fill:#FFFFFF;}
</style>
<g>
	<g>
		<path class="st0" d="M23.3,16.4c-3.1-0.5-4.6-3.7-4.6-3.9c0,0,0,0,0,0c-0.2-0.3-0.2-0.6-0.1-0.8c0.2-0.4,0.8-0.6,1.3-0.7
			c0.1,0,0.2-0.1,0.3-0.1c0.4-0.2,0.7-0.4,0.9-0.6c0.2-0.2,0.3-0.5,0.3-0.6c0-0.4-0.3-0.7-0.8-0.9c-0.2-0.1-0.3-0.1-0.5-0.1
			c-0.1,0-0.3,0-0.5,0.1c-0.4,0.2-0.7,0.3-1,0.3c-0.1,0-0.3,0-0.3-0.1c0-0.1,0-0.3,0-0.5l0-0.1c0.1-1.6,0.2-3.6-0.3-4.7
			c-0.4-0.8-0.8-1.5-1.4-2.1c-0.5-0.5-1.1-0.9-1.7-1.1C13.8,0.1,12.7,0,12.2,0h-0.1c-0.1,0-0.4,0-0.4,0c-0.5,0-1.6,0.1-2.7,0.6
			C8.4,0.9,7.9,1.2,7.4,1.7C6.8,2.3,6.3,3,5.9,3.8C5.4,4.9,5.5,6.9,5.6,8.5v0c0,0.2,0,0.3,0,0.5C5.6,9,5.5,9.1,5.3,9.1
			C5,9.1,4.6,9,4.2,8.8C4.1,8.7,4,8.7,3.8,8.7c-0.2,0-0.5,0.1-0.7,0.2C2.9,9.1,2.7,9.3,2.6,9.6c0,0.2,0,0.5,0.3,0.8
			c0.2,0.2,0.5,0.4,0.9,0.5C4,10.9,4.1,11,4.2,11c0.4,0.1,1.1,0.3,1.3,0.7c0.1,0.2,0,0.5-0.1,0.8c0,0,0,0,0,0c0,0.1-0.4,0.9-1.2,1.8
			c-0.4,0.5-0.9,0.9-1.4,1.3c-0.6,0.4-1.3,0.7-2,0.8c-0.3,0-0.5,0.3-0.5,0.6c0,0.1,0,0.2,0.1,0.2v0c0.1,0.3,0.4,0.5,0.8,0.7
			c0.5,0.2,1.3,0.4,2.3,0.6c0.1,0.1,0.1,0.3,0.1,0.5c0,0.2,0.1,0.4,0.1,0.6C3.8,19.8,3.9,20,4.3,20c0.2,0,0.3,0,0.5-0.1
			c0.3-0.1,0.7-0.1,1.2-0.1c0.3,0,0.6,0,0.9,0.1C7.5,20,8,20.3,8.6,20.7c0.8,0.6,1.8,1.3,3.2,1.3c0,0,0.1,0,0.1,0c0,0,0.1,0,0.2,0
			c1.5,0,2.4-0.7,3.2-1.3l0,0c0.6-0.4,1.1-0.8,1.6-0.8c0.3,0,0.6-0.1,0.9-0.1c0.5,0,0.9,0.1,1.2,0.1c0.2,0,0.4,0.1,0.5,0.1h0
			c0.3,0,0.5-0.2,0.6-0.5c0.1-0.2,0.1-0.4,0.1-0.5c0-0.2,0.1-0.4,0.1-0.5c1-0.2,1.8-0.4,2.3-0.6c0.4-0.2,0.7-0.4,0.8-0.7
			c0-0.1,0.1-0.2,0.1-0.2C23.7,16.7,23.5,16.5,23.3,16.4L23.3,16.4z M23.3,16.4"/>
	</g>
</g>
</svg>
