<?xml version="1.0" encoding="utf-8"?>
<!-- Generator: Adobe Illustrator 21.0.0, SVG Export Plug-In . SVG Version: 6.00 Build 0)  -->
<svg version="1.1" id="Layer_1" xmlns="http://www.w3.org/2000/svg" xmlns:xlink="http://www.w3.org/1999/xlink" x="0px" y="0px"
	 viewBox="0 0 24 16" style="enable-background:new 0 0 24 16;" xml:space="preserve">
<style type="text/css">
	.st0{fill:#FFFFFF;}
</style>
<g>
	<path class="st0" d="M22.2,1.9c-0.7,0.3-1.5,0.5-2.3,0.6c0.8-0.5,1.5-1.3,1.8-2.2c-0.8,0.5-1.6,0.8-2.6,1C18.4,0.5,17.3,0,16.2,0
		c-2.2,0-4,1.8-4,4c0,0.3,0,0.6,0.1,0.9C8.9,4.8,5.9,3.2,3.9,0.7C3.6,1.3,3.4,2,3.4,2.8c0,1.4,0.7,2.6,1.8,3.4
		c-0.6,0-1.3-0.2-1.8-0.5v0c0,2,1.4,3.6,3.2,4C6.2,9.7,5.9,9.8,5.5,9.8c-0.3,0-0.5,0-0.8-0.1c0.5,1.6,2,2.8,3.8,2.8
		c-1.4,1.1-3.1,1.7-5,1.7c-0.3,0-0.6,0-1-0.1C4.3,15.3,6.5,16,8.7,16c7.4,0,11.5-6.2,11.5-11.5c0-0.2,0-0.4,0-0.5
		C21,3.4,21.7,2.7,22.2,1.9L22.2,1.9z M22.2,1.9"/>
</g>
</svg>
