<?xml version="1.0" encoding="utf-8"?>
<!-- Generator: Adobe Illustrator 21.0.0, SVG Export Plug-In . SVG Version: 6.00 Build 0)  -->
<svg version="1.1" id="Layer_1" xmlns="http://www.w3.org/2000/svg" xmlns:xlink="http://www.w3.org/1999/xlink" x="0px" y="0px"
	 viewBox="0 0 37 12" style="enable-background:new 0 0 37 12;" xml:space="preserve">
<style type="text/css">
	.st0{fill:#FFFFFF;}
</style>
<path class="st0" d="M15.8,0.2c0,0.4,0,0.8,0,1.2c0,1.2,0,2.3,0,3.5c0,0.1,0,0.1,0,0.2c-0.1,0-0.1,0-0.2,0c-4.8,0-9.6,0-14.4,0
	c0,0-0.1,0-0.1,0c0-1.6,0-3.3,0-4.9C6,0.2,10.9,0.2,15.8,0.2z"/>
<path class="st0" d="M1.1,6.9c0,0,0.1,0,0.1,0c4.8,0,9.6,0,14.4,0c0.1,0,0.1,0,0.2,0c0,1.6,0,3.3,0,4.9c-4.9,0-9.8,0-14.7,0
	C1.1,10.2,1.1,8.5,1.1,6.9z"/>
<path class="st0" d="M35.9,2.6c0,0.1,0,0.2-0.1,0.3c-0.2,0.9-1.1,1.5-2.1,1.4c-0.3,0-0.7-0.1-1-0.2c-0.1,0-0.3,0-0.4,0
	c-0.2,0-0.4,0-0.5,0c-1.7,0-3.4,0-5.1,0c-0.1,0-0.1,0-0.2,0c0-0.3,0.1-0.6,0.1-0.8c0.7,0,1.4,0,2.1,0c0,0,0,0,0,0c0-0.5,0-1,0-1.6
	c0-0.1,0-0.2-0.1-0.3c-0.1-0.4-0.4-0.5-0.8-0.5c-0.3,0-0.6,0-1,0c0,0,0,0,0,0c0-0.2,0-0.4,0.1-0.6c0-0.3,0-0.3,0.3-0.3
	c0.3,0,0.6,0,0.9,0c0.9,0,1.5,0.6,1.7,1.5c0.1,0.4,0,0.7,0.1,1.1c0,0.2,0,0.4,0,0.6c0,0,0.1,0,0.1,0c0.6,0,1.2,0,1.9,0
	c0.1,0,0.2-0.1,0.2-0.2c0-0.1,0-0.2,0-0.3c0-0.5,0-1,0-1.4c0-0.6,0.2-0.9,0.8-1.1c0.2-0.1,0.5-0.1,0.7-0.2c0.2,0,0.4,0,0.6,0
	c0,0,0.1,0,0.1,0c0.8,0.1,1.3,0.6,1.5,1.3c0,0.1,0.1,0.3,0.1,0.4C35.9,2.2,35.9,2.4,35.9,2.6z M33.2,3.3c0.3,0,0.5,0,0.7,0.1
	c0.4,0,0.7-0.2,0.8-0.6c0.1-0.4,0.1-0.7,0-1.1c-0.1-0.3-0.3-0.5-0.7-0.5c-0.2,0-0.5,0-0.7,0.1c-0.1,0-0.1,0-0.1,0.1
	C33.2,2,33.2,2.7,33.2,3.3z"/>
<path class="st0" d="M35.9,11.8c-0.3-0.1-0.6-0.1-0.9-0.2c-0.2,0-0.3,0-0.5,0c-0.4,0.1-0.9,0.1-1.3,0c-0.5-0.1-0.8-0.5-0.8-1
	c0-0.6,0.2-1,0.8-1.1c0.3-0.1,0.6-0.1,0.9-0.1c0.2,0,0.5,0,0.7,0c0.1-0.4-0.1-0.7-0.6-0.7c-0.4,0-0.9,0.1-1.3,0.2
	c-0.1,0-0.2,0.1-0.3,0.1c0-0.3-0.1-0.5-0.1-0.8c0.3-0.1,0.6-0.2,0.9-0.3c0.5-0.1,1-0.1,1.5,0c0.6,0.1,0.9,0.5,1,1c0,0,0,0.1,0,0.1
	C35.9,9.9,35.9,10.8,35.9,11.8z M34.8,10c-0.1,0-0.1,0-0.2,0c-0.2,0-0.5,0-0.7,0c-0.3,0-0.5,0.2-0.5,0.5c0,0.3,0.2,0.4,0.5,0.4
	c0.3,0,0.5-0.1,0.8-0.1c0,0,0.1-0.1,0.1-0.1C34.8,10.5,34.8,10.3,34.8,10z"/>
<path class="st0" d="M26.1,0.3C26,0.5,26,0.8,26,1.1c-0.1,0-0.1,0-0.2,0c-0.7,0-1.5,0-2.2,0c-0.1,0-0.2,0-0.3,0
	c-0.3,0.1-0.4,0.2-0.4,0.5c0,0.3,0.2,0.5,0.5,0.5c0.4,0,0.7,0,1.1,0c0.2,0,0.4,0,0.6,0.1c0.6,0.2,0.9,0.6,0.9,1.2
	c0,0.2,0,0.3-0.1,0.5c-0.1,0.5-0.5,0.7-1,0.8c-0.2,0-0.5,0.1-0.7,0.1c-1.6,0-3.2,0-4.8,0c-1,0-1.6-0.7-1.7-1.7c0-0.5-0.1-1,0.1-1.5
	c0.2-0.8,0.9-1.3,1.7-1.3c0.5,0,1,0,1.5,0c0,0.3-0.1,0.5-0.1,0.8c-0.2,0-0.4,0-0.6,0c-0.2,0-0.3,0-0.5,0c-0.4,0-0.7,0.2-0.9,0.7
	c-0.1,0.5-0.1,1,0,1.5c0.1,0.4,0.3,0.6,0.7,0.6c0.5,0,0.9,0,1.4,0c1,0,2.1,0,3.1,0c0.1,0,0.2,0,0.2,0c0.3-0.1,0.5-0.3,0.5-0.6
	c0-0.3-0.2-0.5-0.5-0.5c-0.5,0-0.9,0-1.4,0c-0.5,0-0.9-0.3-1.1-0.8c-0.2-0.5,0-1.1,0.4-1.4c0.3-0.2,0.7-0.3,1.1-0.4
	C24.2,0.3,25.1,0.3,26.1,0.3C26,0.3,26.1,0.3,26.1,0.3z"/>
<path class="st0" d="M23.2,11.7c-0.3,0-0.6,0-1,0c0,0-0.1,0-0.2,0c0-0.1,0-0.1,0-0.2c0-0.7,0-1.5,0-2.2c0-0.1,0-0.2,0-0.2
	c0-0.2-0.1-0.3-0.3-0.4c-0.3,0-0.5,0-0.8,0.1c0,0.2,0,0.3,0,0.5c0,0.7,0,1.5,0,2.2c0,0.1,0,0.1,0,0.2c-0.4,0-0.8,0-1.1,0
	c0-0.1,0-0.1,0-0.2c0-0.7,0-1.4,0-2.2c0-0.6-0.3-0.7-0.8-0.6c-0.3,0.1-0.3,0.1-0.3,0.4c0,0.8,0,1.6,0,2.4c0,0.1,0,0.1,0,0.2
	c-0.4,0-0.8,0-1.2,0c0-0.1,0-0.1,0-0.2c0-1,0-1.9,0-2.9c0-0.4,0.1-0.6,0.5-0.7c0.6-0.2,1.3-0.3,1.9-0.1c0.1,0,0.2,0.1,0.3,0.1
	C20.5,8,20.5,8,20.7,8c0.5-0.2,1.1-0.3,1.7-0.1c0.5,0.1,0.8,0.5,0.9,1C23.2,9.8,23.2,10.7,23.2,11.7C23.2,11.6,23.2,11.6,23.2,11.7z
	"/>
<path class="st0" d="M30.5,7.9c0-0.5,0-1.1,0-1.7c0.4-0.1,0.8-0.1,1.1-0.2c0,0.1,0,0.1,0,0.2c0,1.6,0,3.1,0,4.7
	c0,0.4-0.1,0.6-0.5,0.7c-0.6,0.2-1.1,0.2-1.7,0.1c-0.8-0.1-1.4-0.7-1.4-1.6c0-0.4,0-0.8,0.1-1.2c0.2-0.7,0.7-1,1.4-1.1
	C29.9,7.8,30.2,7.8,30.5,7.9z M30.5,9.8c0-0.2,0-0.4,0-0.6c0-0.5,0-0.5-0.5-0.6c-0.4,0-0.7,0.1-0.8,0.4c-0.2,0.4-0.2,0.9,0,1.3
	c0.1,0.3,0.4,0.5,0.7,0.5c0.2,0,0.3,0,0.5,0c0.1,0,0.1-0.1,0.1-0.1C30.5,10.4,30.5,10.1,30.5,9.8z"/>
<path class="st0" d="M26.3,9.4C26.3,9.3,26.3,9.3,26.3,9.4c0-0.6-0.1-0.8-0.7-0.7c-0.5,0-0.9,0.1-1.3,0.3c0,0-0.1,0-0.2,0.1
	c0-0.3-0.1-0.5-0.1-0.8c0.8-0.2,1.6-0.5,2.4-0.3c0.6,0.1,1,0.5,1,1.1c0,1,0,1.9,0,2.9c-0.1,0-0.3,0-0.4-0.1c-0.2,0-0.5-0.1-0.7-0.1
	c-0.1,0-0.3,0-0.4,0.1c-0.4,0.1-0.8,0.1-1.2,0c-0.5-0.1-0.8-0.5-0.8-1c0-0.5,0.2-0.9,0.8-1.1c0.3-0.1,0.6-0.1,0.9-0.1
	C25.7,9.3,26,9.4,26.3,9.4z M26.3,10c-0.1,0-0.1,0-0.1,0c-0.2,0-0.5,0-0.7,0c-0.3,0-0.5,0.2-0.5,0.5c0,0.3,0.2,0.4,0.5,0.4
	c0.3,0,0.6-0.1,0.8-0.1C26.3,10.6,26.3,10.3,26.3,10z"/>
</svg>
