<?xml version="1.0" encoding="utf-8"?>
<!-- Generator: Adobe Illustrator 21.0.0, SVG Export Plug-In . SVG Version: 6.00 Build 0)  -->
<svg version="1.1" id="Layer_1" xmlns="http://www.w3.org/2000/svg" xmlns:xlink="http://www.w3.org/1999/xlink" x="0px" y="0px"
	 viewBox="0 0 24 16" style="enable-background:new 0 0 24 16;" xml:space="preserve">
<style type="text/css">
	.st0{fill:#FFFFFF;}
</style>
<g>
	<path class="st0" d="M22.6,1.5c-0.6-1.1-1.3-1.3-2.7-1.4C18.5,0,15,0,12,0C9,0,5.5,0,4.1,0.1C2.7,0.2,2,0.4,1.3,1.5
		c-0.7,1.1-1,3.1-1,6.5v0c0,3.4,0.3,5.3,1,6.4c0.6,1.1,1.3,1.3,2.7,1.4C5.5,16,9,16,12,16c3,0,6.5,0,7.9-0.1
		c1.4-0.1,2.1-0.3,2.7-1.4c0.7-1.1,1-3.1,1-6.4v0C23.6,4.6,23.3,2.7,22.6,1.5L22.6,1.5z M9.1,12.4V3.6L16.4,8L9.1,12.4z M9.1,12.4"
		/>
</g>
</svg>
