<?xml version="1.0" encoding="utf-8"?>
<!-- Generator: Adobe Illustrator 19.0.0, SVG Export Plug-In . SVG Version: 6.00 Build 0)  -->
<svg version="1.1" id="Layer_1" xmlns="http://www.w3.org/2000/svg" xmlns:xlink="http://www.w3.org/1999/xlink" x="0px" y="0px"
	 viewBox="0 0 30 32" style="enable-background:new 0 0 30 32;" xml:space="preserve">
<style type="text/css">
	.st0{fill:#F79028;}
</style>
<path id="XMLID_14_" class="st0" d="M28.4,5.5l-9.7-5.3C17.7-0.3,16.5,0.1,16,1l-5.7,10.6H3.3c-0.9,0-1.6,0.7-1.6,1.6V16l0,0v14.4
	c0,0.9,0.7,1.6,1.6,1.6h22.1c0.9,0,1.6-0.7,1.6-1.6v-4h0.7c0.3,0,0.6-0.3,0.6-0.6v-4.6c0-0.3-0.3-0.6-0.6-0.6H27V16
	c0-0.7-0.5-1.4-1.2-1.5l3.4-6.3C29.7,7.2,29.3,6,28.4,5.5z M21.5,3.1l-6.1,11.3h-1.7l6.5-12L21.5,3.1z M17.1,1.6
	c0.2-0.3,0.7-0.5,1-0.3l1,0.5l-6.8,12.6h-2.1L17.1,1.6z M3.3,12.8h6.3l-0.8,1.5H3.3c-0.1,0-0.2,0-0.3,0v-1.3C3,13,3.1,12.8,3.3,12.8
	z M27,21.7v3.3h0h-3.6c-0.3,0-0.6-0.3-0.6-0.6v-2.1c0-0.3,0.3-0.6,0.6-0.6H27L27,21.7z M23.4,20.5c-1,0-1.8,0.8-1.8,1.8v2.1
	c0,1,0.8,1.8,1.8,1.8h2.4v4c0,0.2-0.2,0.3-0.3,0.3H3.3c-0.2,0-0.3-0.2-0.3-0.3V16l0,0c0-0.2,0.2-0.3,0.3-0.3h5.8h2.5h4.5h8.7h0.7
	c0.2,0,0.3,0.2,0.3,0.3v4.5L23.4,20.5L23.4,20.5z M28.1,7.6l-3.7,6.8h-7.6l5.8-10.7l5.2,2.8C28.2,6.8,28.3,7.2,28.1,7.6z"/>
<path id="XMLID_11_" class="st0" d="M25.7,7l-0.3-0.2c-0.8-0.4-1.8-0.1-2.2,0.7l-0.4,0.7c-0.2,0.4-0.3,0.8-0.1,1.3
	c0.1,0.4,0.4,0.8,0.8,1l0.3,0.2c0.2,0.1,0.5,0.2,0.8,0.2c0.6,0,1.2-0.3,1.5-0.8l0.4-0.7C26.8,8.4,26.5,7.4,25.7,7z M25.3,8.6
	l-0.4,0.7c-0.1,0.2-0.4,0.3-0.6,0.2L24,9.3c-0.1,0-0.2-0.2-0.2-0.2c0-0.1,0-0.2,0-0.3l0.4-0.7c0.1-0.1,0.2-0.2,0.4-0.2
	c0.1,0,0.1,0,0.2,0L25.2,8C25.3,8.2,25.4,8.4,25.3,8.6z"/>
</svg>
