<?xml version="1.0" encoding="utf-8"?>
<!-- Generator: Adobe Illustrator 19.0.0, SVG Export Plug-In . SVG Version: 6.00 Build 0)  -->
<svg version="1.1" id="Layer_1" xmlns="http://www.w3.org/2000/svg" xmlns:xlink="http://www.w3.org/1999/xlink" x="0px" y="0px"
	 viewBox="0 0 42 24" style="enable-background:new 0 0 42 24;" xml:space="preserve">
<style type="text/css">
	.st0{fill:#F8A027;}
</style>
<g id="XMLID_8_">
	<path id="XMLID_13_" class="st0" d="M4.5,24H26h5.5c1.4,0,2.5-1.1,2.5-2.5v-1.2l4.8-0.6c0.7-0.1,1.3-0.4,1.7-0.9
		c0.4-0.5,0.6-1.2,0.5-1.8l-0.5-3.8c0-0.4-0.4-0.7-0.8-0.7c-1.5,0.2-2.9-0.9-3.1-2.5c-0.2-1.5,0.9-2.9,2.4-3.1
		c0.4-0.1,0.7-0.4,0.7-0.8l-0.5-3.8c-0.1-0.7-0.4-1.3-0.9-1.7c-0.5-0.4-1.2-0.6-1.8-0.5L9.7,3.2C9,3.3,8.4,3.6,8,4.1H4.5
		C3.1,4.1,2,5.3,2,6.6v3.9c0,0.4,0.3,0.8,0.7,0.8c1.5,0,2.8,1.3,2.8,2.8s-1.2,2.8-2.8,2.8c-0.4,0-0.7,0.3-0.7,0.8v3.9
		C2,22.9,3.1,24,4.5,24z M36.6,1.5c0.3,0,0.5,0,0.7,0.2c0.2,0.2,0.3,0.4,0.4,0.7l0.4,3.2C37.2,5.8,36.5,6.3,36,7
		c-0.7,0.9-1,2-0.9,3.2s0.7,2.2,1.6,2.9c0.7,0.6,1.5,0.9,2.4,0.9l0.4,3.2c0,0.3,0,0.5-0.2,0.7c-0.2,0.2-0.4,0.3-0.7,0.4l-4.7,0.6
		v-1.2c0-0.4-0.3-0.8-0.7-0.8c-1.5,0-2.8-1.3-2.8-2.8s1.2-2.8,2.8-2.8c0.4,0,0.7-0.3,0.7-0.8V6.6c0-1.4-1.1-2.5-2.5-2.5H26H14.8
		L36.6,1.5z M3.5,18.3c0.9-0.2,1.6-0.6,2.3-1.2c0.8-0.8,1.2-1.9,1.2-3s-0.4-2.2-1.2-3C5.2,10.4,4.4,10,3.5,9.8V6.6c0-0.5,0.4-1,1-1
		h3H9h16.2v9.3c0,0.4,0.3,0.8,0.8,0.8c0.4,0,0.8-0.3,0.8-0.8V5.7h4.7c0.5,0,1,0.4,1,1v3.2c-0.9,0.2-1.6,0.6-2.3,1.2
		c-0.8,0.8-1.2,1.9-1.2,3s0.4,2.2,1.2,3c0.6,0.6,1.4,1.1,2.3,1.2V19v1.5v1c0,0.5-0.4,1-1,1h-4.7v-1.3V21c0-0.4-0.3-0.8-0.8-0.8
		c-0.4,0-0.8,0.3-0.8,0.8v0.3v1.1h-9.3h-5.6H4.5c-0.5,0-1-0.4-1-1V18.3z"/>
	<path id="XMLID_3_" class="st0" d="M25.2,18.3c0,0,0,0.1,0.1,0.1c0,0,0.1,0.1,0.1,0.1c0,0,0.1,0.1,0.1,0.1c0,0,0.1,0.1,0.1,0.1
		c0,0,0.1,0,0.1,0c0,0,0.1,0,0.1,0c0,0,0.1,0,0.1,0c0,0,0.1,0,0.1,0c0,0,0.1,0,0.1-0.1c0,0,0.1-0.1,0.1-0.1c0,0,0.1-0.1,0.1-0.1
		c0,0,0.1-0.1,0.1-0.1c0,0,0-0.1,0-0.1c0,0,0-0.1,0-0.1c0,0,0-0.1,0-0.1c0,0,0-0.1,0-0.1c0,0,0-0.1-0.1-0.1c0,0-0.1-0.1-0.1-0.1
		c0,0-0.1-0.1-0.1-0.1c0,0-0.1-0.1-0.1-0.1c0,0-0.1,0-0.1,0c-0.1,0-0.2,0-0.3,0c0,0-0.1,0-0.1,0c0,0-0.1,0-0.1,0.1
		c0,0-0.1,0.1-0.1,0.1c0,0-0.1,0.1-0.1,0.1c0,0-0.1,0.1-0.1,0.1c0,0,0,0.1,0,0.1c0,0,0,0.1,0,0.1c0,0,0,0.1,0,0.1
		S25.2,18.2,25.2,18.3z"/>
	<path id="XMLID_9_" class="st0" d="M11,15.4l0.4,0.4l-0.2,1.3l-0.3,2c0,0.3,0.1,0.6,0.3,0.7c0.2,0.2,0.5,0.2,0.8,0.1l3-1.6l3,1.6
		c0.1,0.1,0.2,0.1,0.4,0.1c0.2,0,0.3,0,0.4-0.1c0.2-0.2,0.4-0.5,0.3-0.7l-0.6-3.3l2.4-2.4c0.2-0.2,0.3-0.5,0.2-0.8
		c-0.1-0.3-0.3-0.5-0.6-0.5l-3.3-0.5l-1.5-3c-0.1-0.3-0.4-0.4-0.7-0.4c-0.3,0-0.6,0.2-0.7,0.4l-1.3,2.7l-0.2,0.4l-1.3,0.2l-2.1,0.3
		c-0.3,0-0.5,0.2-0.6,0.5s0,0.6,0.2,0.8L11,15.4z M11.9,13.3l1.4-0.2c0,0,0,0,0.1,0c0.2-0.1,0.4-0.2,0.5-0.4l1-2l1,2
		c0.1,0.2,0.3,0.4,0.6,0.4l2.2,0.3l-1.6,1.6c-0.2,0.2-0.3,0.4-0.2,0.7l0.4,2.2l-2-1c-0.2-0.1-0.5-0.1-0.7,0l-2,1l0.4-2.2
		c0-0.1,0-0.2,0-0.3c0-0.1-0.1-0.2-0.2-0.3L11.8,14l-0.7-0.6L11.9,13.3z"/>
</g>
</svg>
