<?xml version="1.0" encoding="utf-8"?>
<!-- Generator: Adobe Illustrator 19.0.0, SVG Export Plug-In . SVG Version: 6.00 Build 0)  -->
<svg version="1.1" id="Layer_1" xmlns="http://www.w3.org/2000/svg" xmlns:xlink="http://www.w3.org/1999/xlink" x="0px" y="0px"
	 viewBox="0 0 32 31" style="enable-background:new 0 0 32 31;" xml:space="preserve">
<style type="text/css">
	.st0{fill:#47B356;}
</style>
<g id="XMLID_2_">
	<path id="XMLID_3_" class="st0" d="M27,4.5C24,1.6,20.1,0,16,0S8,1.6,5,4.5c-2.9,2.9-4.5,6.8-4.5,11s1.6,8,4.5,11
		C8,29.4,11.9,31,16,31s8-1.6,11-4.5c2.9-2.9,4.5-6.8,4.5-11S29.9,7.5,27,4.5L27,4.5z M7.2,26c0.5-4.4,4.3-7.8,8.8-7.8
		c2.4,0,4.6,0.9,6.2,2.6c1.4,1.4,2.3,3.3,2.5,5.2c-2.4,2-5.4,3.2-8.8,3.2S9.6,28,7.2,26L7.2,26z M16,16.3c-2.6,0-4.7-2.1-4.7-4.7
		c0-2.6,2.1-4.7,4.7-4.7s4.7,2.1,4.7,4.7C20.7,14.2,18.6,16.3,16,16.3L16,16.3z M26.3,24.5c-0.5-1.9-1.4-3.6-2.8-5
		c-1.1-1.1-2.4-2-3.9-2.5c1.7-1.2,2.9-3.2,2.9-5.4c0-3.6-2.9-6.5-6.5-6.5S9.5,8,9.5,11.6c0,2.2,1.1,4.2,2.9,5.4
		c-1.3,0.5-2.6,1.2-3.6,2.2c-1.5,1.4-2.6,3.2-3.1,5.2c-2.1-2.4-3.3-5.5-3.3-9C2.3,8,8.5,1.8,16,1.8c7.5,0,13.7,6.1,13.7,13.7
		C29.7,18.9,28.4,22.1,26.3,24.5L26.3,24.5z M26.3,24.5"/>
</g>
</svg>
