<?xml version="1.0" encoding="utf-8"?>
<!-- Generator: Adobe Illustrator 19.0.0, SVG Export Plug-In . SVG Version: 6.00 Build 0)  -->
<svg version="1.1" id="Layer_1" xmlns="http://www.w3.org/2000/svg" xmlns:xlink="http://www.w3.org/1999/xlink" x="0px" y="0px"
	 viewBox="0 0 28 28" style="enable-background:new 0 0 28 28;" xml:space="preserve">
<style type="text/css">
	.st0{fill:#E73A4E;}
</style>
<path id="XMLID_14_" class="st0" d="M7.9,11.5c0,0.6-0.5,1.1-1.1,1.1s-1.1-0.5-1.1-1.1l0,0c0-0.6,0.5-1.1,1.1-1.1S7.9,10.9,7.9,11.5
	L7.9,11.5z M17.4,11.5L17.4,11.5c0-0.6-0.5-1.1-1.1-1.1s-1.1,0.5-1.1,1.1l0,0c0,0.6,0.5,1.1,1.1,1.1S17.4,12.1,17.4,11.5z
	 M22.1,11.5L22.1,11.5c0-0.6-0.5-1.1-1.1-1.1S20,10.9,20,11.5l0,0c0,0.6,0.5,1.1,1.1,1.1S22.1,12.1,22.1,11.5z M7.9,16.3
	c0-0.6-0.5-1.1-1.1-1.1s-1.1,0.5-1.1,1.1l0,0c0,0.6,0.5,1.1,1.1,1.1S7.9,16.9,7.9,16.3L7.9,16.3z M6.8,19.9c-0.6,0-1.1,0.5-1.1,1.1
	l0,0c0,0.6,0.5,1.1,1.1,1.1s1.1-0.5,1.1-1.1l0,0C7.9,20.4,7.4,19.9,6.8,19.9z M12.7,11.5c0-0.6-0.5-1.1-1.1-1.1s-1.1,0.5-1.1,1.1
	l0,0c0,0.6,0.5,1.1,1.1,1.1S12.7,12.1,12.7,11.5L12.7,11.5z M12.7,16.3c0-0.6-0.5-1.1-1.1-1.1s-1.1,0.5-1.1,1.1l0,0
	c0,0.6,0.5,1.1,1.1,1.1S12.7,16.9,12.7,16.3L12.7,16.3z M11.6,19.9c-0.6,0-1.1,0.5-1.1,1.1l0,0c0,0.6,0.5,1.1,1.1,1.1
	s1.1-0.5,1.1-1.1l0,0C12.7,20.4,12.2,19.9,11.6,19.9z M27.9,21.4c0,3.6-3,6.6-6.6,6.6s-6.6-3-6.6-6.6s3-6.6,6.6-6.6
	S27.9,17.8,27.9,21.4z M25.7,21.4c0-2.4-2-4.4-4.4-4.4s-4.4,2-4.4,4.4s2,4.4,4.4,4.4S25.7,23.8,25.7,21.4z M22.9,20.3h-0.5v-1.1
	c0-0.6-0.5-1.1-1.1-1.1s-1.1,0.5-1.1,1.1v2.2c0,0.6,0.5,1.1,1.1,1.1h1.6c0.6,0,1.1-0.5,1.1-1.1S23.5,20.3,22.9,20.3z M23.6,2.3h-1.4
	V1.2c0-0.6-0.5-1.1-1.1-1.1S20,0.6,20,1.2v1.1h-5V1.2c0-0.6-0.5-1.1-1.1-1.1s-1.1,0.5-1.1,1.1v1.1H7.9V1.2c0-0.6-0.5-1.1-1.1-1.1
	S5.7,0.6,5.7,1.2v1.1H4.4C2,2.3,0,4.2,0,6.6v17C0,26,2,28,4.4,28h8.3c0.6,0,1.1-0.5,1.1-1.1s-0.5-1.1-1.1-1.1H4.4
	c-1.2,0-2.2-1-2.2-2.2v-17c0-1.2,1-2.2,2.2-2.2h1.4v1.1c0,0.6,0.5,1.1,1.1,1.1s1.1-0.5,1.1-1.1V4.4h4.9v1.1c0,0.6,0.5,1.1,1.1,1.1
	c0.6,0,1.1-0.5,1.1-1.1V4.4h5v1.1c0,0.6,0.5,1.1,1.1,1.1s1.1-0.5,1.1-1.1V4.4h1.4c1.2,0,2.2,1,2.2,2.2v6.2c0,0.6,0.5,1.1,1.1,1.1
	s1.1-0.5,1.1-1.1V6.6C27.9,4.2,26,2.3,23.6,2.3z"/>
</svg>
