<?xml version="1.0" encoding="utf-8"?>
<!-- Generator: Adobe Illustrator 21.0.0, SVG Export Plug-In . SVG Version: 6.00 Build 0)  -->
<svg version="1.1" id="Layer_1" xmlns="http://www.w3.org/2000/svg" xmlns:xlink="http://www.w3.org/1999/xlink" x="0px" y="0px"
	 viewBox="0 0 28 18" style="enable-background:new 0 0 28 18;" xml:space="preserve">
<style type="text/css">
	.st0{fill:#E5263D;}
</style>
<path class="st0" d="M24.5,0H3.5C2.2,0,1.2,1,1.2,2.3v13.5c0,1.2,1,2.3,2.3,2.3h21.1c1.2,0,2.3-1,2.3-2.3V2.3C26.8,1,25.8,0,24.5,0z
	 M2.7,2.5L9.2,9l-6.5,6.5V2.5z M14.6,11.2c-0.3,0.3-0.9,0.3-1.2,0L3.8,1.5h20.4C23.5,2.2,14.9,10.8,14.6,11.2z M10.2,10.1l2.1,2.2
	c0.9,0.9,2.4,0.9,3.3,0l2.1-2.2l6.4,6.4H3.8L10.2,10.1z M18.8,9l6.5-6.5v12.9L18.8,9z"/>
</svg>
