<?xml version="1.0" encoding="utf-8"?>
<!-- Generator: Adobe Illustrator 19.0.0, SVG Export Plug-In . SVG Version: 6.00 Build 0)  -->
<svg version="1.1" id="Layer_1" xmlns="http://www.w3.org/2000/svg" xmlns:xlink="http://www.w3.org/1999/xlink" x="0px" y="0px"
	 viewBox="0 0 28 28" style="enable-background:new 0 0 28 28;" xml:space="preserve">
<style type="text/css">
	.st0{fill:#E7394E;}
</style>
<g id="XMLID_10_">
	<path id="XMLID_18_" class="st0" d="M19.3,0H8.7C3.9,0,0,3.9,0,8.7v10.5C0,24.1,3.9,28,8.7,28h10.5c4.8,0,8.7-3.9,8.7-8.7V8.7
		C28,3.9,24.1,0,19.3,0L19.3,0z M25.4,19.3c0,3.4-2.7,6.1-6.1,6.1H8.7c-3.4,0-6.1-2.7-6.1-6.1V8.7c0-3.4,2.7-6.1,6.1-6.1h10.5
		c3.4,0,6.1,2.7,6.1,6.1V19.3z M25.4,19.3"/>
	<path id="XMLID_14_" class="st0" d="M14,7c-3.9,0-7,3.1-7,7s3.1,7,7,7s7-3.1,7-7S17.9,7,14,7L14,7z M14,18.4c-2.4,0-4.4-2-4.4-4.4
		c0-2.4,2-4.4,4.4-4.4c2.4,0,4.4,2,4.4,4.4C18.4,16.4,16.4,18.4,14,18.4L14,18.4z M14,18.4"/>
	<path id="XMLID_11_" class="st0" d="M22.5,6.5c0,0.5-0.4,0.9-0.9,0.9c-0.5,0-0.9-0.4-0.9-0.9s0.4-0.9,0.9-0.9
		C22,5.5,22.5,6,22.5,6.5L22.5,6.5z M22.5,6.5"/>
</g>
</svg>
