<?xml version="1.0" encoding="utf-8"?>
<!-- Generator: Adobe Illustrator 21.0.0, SVG Export Plug-In . SVG Version: 6.00 Build 0)  -->
<svg version="1.1" id="Layer_1" xmlns="http://www.w3.org/2000/svg" xmlns:xlink="http://www.w3.org/1999/xlink" x="0px" y="0px"
	 viewBox="0 0 17 18" style="enable-background:new 0 0 17 18;" xml:space="preserve">
<style type="text/css">
	.st0{fill:#E5253E;stroke:#E5253E;stroke-width:0.25;stroke-miterlimit:10;}
</style>
<g>
	<path class="st0" d="M8.3,0.1c-4,0-7.2,3.2-7.2,7.2c0,0.4,0,0.9,0.1,1.3c0,0,0,0.1,0,0.2c0.1,0.5,0.3,1,0.5,1.4
		c0.8,1.8,2.5,4.6,6.2,7.6C8.1,18,8.2,18,8.3,18c0.1,0,0.2,0,0.3-0.1c3.7-3,5.4-5.8,6.2-7.6c0.2-0.5,0.4-0.9,0.5-1.4
		c0-0.1,0-0.2,0-0.2c0.1-0.4,0.1-0.9,0.1-1.3C15.5,3.3,12.3,0.1,8.3,0.1L8.3,0.1z M14.4,8.5C14.4,8.5,14.4,8.5,14.4,8.5
		c0,0,0,0.1,0,0.2v0c-0.1,0.4-0.2,0.8-0.4,1.2c0,0,0,0,0,0c-0.7,1.7-2.2,4.2-5.6,7c-3.3-2.8-4.9-5.3-5.6-7c0,0,0,0,0,0
		C2.6,9.5,2.4,9.1,2.3,8.6v0c0-0.1,0-0.1,0-0.2c0,0,0,0,0,0C2.2,8.1,2.2,7.7,2.2,7.3c0-3.4,2.8-6.2,6.2-6.2c3.4,0,6.2,2.8,6.2,6.2
		C14.5,7.7,14.5,8.1,14.4,8.5L14.4,8.5z M14.4,8.5"/>
	<path class="st0" d="M8.3,2.8c-2.5,0-4.6,2-4.6,4.6c0,2.5,2,4.6,4.6,4.6c2.5,0,4.6-2,4.6-4.6C12.9,4.9,10.8,2.8,8.3,2.8L8.3,2.8z
		 M8.3,10.9c-2,0-3.5-1.6-3.5-3.5c0-1.9,1.6-3.5,3.5-3.5c1.9,0,3.5,1.6,3.5,3.5C11.9,9.3,10.3,10.9,8.3,10.9L8.3,10.9z M8.3,10.9"/>
</g>
</svg>
