<?xml version="1.0" encoding="utf-8"?>
<!-- Generator: Adobe Illustrator 19.0.0, SVG Export Plug-In . SVG Version: 6.00 Build 0)  -->
<svg version="1.1" id="Layer_1" xmlns="http://www.w3.org/2000/svg" xmlns:xlink="http://www.w3.org/1999/xlink" x="0px" y="0px"
	 viewBox="0 0 22 27" style="enable-background:new 0 0 22 27;" xml:space="preserve">
<style type="text/css">
	.st0{fill:#E7394E;stroke:#E7394E;stroke-width:0.6;stroke-miterlimit:10;}
</style>
<g id="XMLID_8_">
	<path id="XMLID_13_" class="st0" d="M11,1.1c-5.5,0-9.9,4.4-9.9,9.9c0,0.6,0.1,1.2,0.2,1.9c0,0,0,0.1,0.1,0.3
		c0.2,0.7,0.4,1.3,0.7,2c1.1,2.5,3.4,6.4,8.6,10.5c0.1,0.1,0.3,0.2,0.4,0.2c0.2,0,0.3-0.1,0.4-0.2c5.1-4.1,7.5-8,8.6-10.5
		c0.3-0.6,0.5-1.3,0.7-2c0-0.2,0.1-0.3,0.1-0.3c0.1-0.6,0.2-1.2,0.2-1.9C20.9,5.6,16.5,1.1,11,1.1L11,1.1z M19.4,12.7
		C19.4,12.7,19.3,12.7,19.4,12.7c0,0.1,0,0.1-0.1,0.3v0c-0.1,0.6-0.3,1.1-0.6,1.7c0,0,0,0,0,0c-1,2.3-3.1,5.8-7.7,9.6
		c-4.6-3.8-6.7-7.3-7.7-9.6c0,0,0,0,0,0c-0.2-0.5-0.4-1.1-0.6-1.7v0c0-0.1,0-0.2,0-0.2c0,0,0,0,0,0c-0.1-0.5-0.2-1.1-0.2-1.6
		c0-4.7,3.8-8.5,8.5-8.5c4.7,0,8.5,3.8,8.5,8.5C19.5,11.6,19.5,12.1,19.4,12.7L19.4,12.7z M19.4,12.7"/>
	<path id="XMLID_9_" class="st0" d="M11,4.9c-3.5,0-6.3,2.8-6.3,6.3c0,3.5,2.8,6.3,6.3,6.3c3.5,0,6.3-2.8,6.3-6.3
		C17.3,7.7,14.5,4.9,11,4.9L11,4.9z M11,16.1c-2.7,0-4.9-2.2-4.9-4.9c0-2.7,2.2-4.9,4.9-4.9c2.7,0,4.9,2.2,4.9,4.9
		C15.9,13.9,13.7,16.1,11,16.1L11,16.1z M11,16.1"/>
</g>
</svg>
