<?xml version="1.0" encoding="utf-8"?>
<!-- Generator: Adobe Illustrator 21.0.0, SVG Export Plug-In . SVG Version: 6.00 Build 0)  -->
<svg version="1.1" id="Layer_1" xmlns="http://www.w3.org/2000/svg" xmlns:xlink="http://www.w3.org/1999/xlink" x="0px" y="0px"
	 viewBox="0 0 17 18" style="enable-background:new 0 0 17 18;" xml:space="preserve">
<style type="text/css">
	.st0{fill:#E5253E;stroke:#E5253E;stroke-width:0.75;stroke-miterlimit:10;}
</style>
<g>
	<g>
		<path class="st0" d="M13.2,10.5c-0.3-0.3-0.7-0.5-1.2-0.5c-0.4,0-0.8,0.2-1.2,0.5l-1.1,1.1c-0.1,0-0.2-0.1-0.3-0.1
			c-0.1-0.1-0.2-0.1-0.3-0.2c-1-0.6-1.9-1.5-2.8-2.6c-0.4-0.5-0.7-1-0.9-1.5C5.7,6.9,6,6.7,6.2,6.4c0.1-0.1,0.2-0.2,0.3-0.3
			c0.7-0.7,0.7-1.6,0-2.4L5.6,2.8C5.5,2.7,5.4,2.6,5.3,2.5C5.1,2.3,4.8,2.1,4.6,1.9C4.3,1.5,3.9,1.4,3.5,1.4C3,1.4,2.6,1.5,2.3,1.9
			l0,0L1.1,3C0.7,3.5,0.4,4,0.4,4.6c-0.1,1,0.2,1.9,0.4,2.5c0.6,1.5,1.4,2.9,2.6,4.4c1.5,1.8,3.3,3.2,5.4,4.2c0.8,0.4,1.8,0.8,3,0.9
			c0.1,0,0.1,0,0.2,0c0.8,0,1.5-0.3,2-0.8c0,0,0,0,0,0c0.2-0.2,0.4-0.4,0.6-0.6c0.1-0.1,0.3-0.3,0.4-0.4c0.3-0.4,0.5-0.8,0.5-1.2
			c0-0.4-0.2-0.8-0.5-1.2L13.2,10.5z M14.4,14.1C14.4,14.1,14.4,14.1,14.4,14.1c-0.1,0.1-0.3,0.3-0.4,0.4c-0.2,0.2-0.4,0.4-0.7,0.7
			c-0.3,0.4-0.8,0.5-1.3,0.5c-0.1,0-0.1,0-0.2,0c-1-0.1-2-0.5-2.7-0.8c-1.9-0.9-3.6-2.3-5.1-4C3,9.5,2.2,8.2,1.7,6.8
			C1.4,6,1.3,5.3,1.3,4.7c0-0.4,0.2-0.7,0.5-1L3,2.5c0.2-0.2,0.3-0.2,0.5-0.2c0.2,0,0.4,0.1,0.5,0.2l0,0c0.2,0.2,0.4,0.4,0.6,0.6
			c0.1,0.1,0.2,0.2,0.3,0.3l0.9,0.9c0.4,0.4,0.4,0.7,0,1.1C5.8,5.6,5.7,5.7,5.6,5.8C5.3,6.1,5,6.3,4.7,6.6c0,0,0,0,0,0
			C4.4,6.9,4.4,7.2,4.5,7.4l0,0C4.8,8,5.1,8.6,5.6,9.2l0,0c0.9,1.2,1.9,2.1,3,2.8c0.1,0.1,0.3,0.2,0.4,0.2c0.1,0.1,0.2,0.1,0.3,0.2
			c0,0,0,0,0,0c0.1,0.1,0.2,0.1,0.3,0.1c0.3,0,0.5-0.2,0.5-0.2l1.2-1.2c0.1-0.1,0.3-0.3,0.5-0.3c0.2,0,0.4,0.1,0.5,0.2l1.9,1.9
			C14.8,13.3,14.8,13.7,14.4,14.1L14.4,14.1z M14.4,14.1"/>
		<path class="st0" d="M9.1,4.3c0.9,0.2,1.7,0.6,2.4,1.2c0.7,0.7,1.1,1.5,1.2,2.4c0,0.2,0.2,0.4,0.5,0.4c0,0,0.1,0,0.1,0
			c0.3,0,0.4-0.3,0.4-0.5c-0.2-1.1-0.7-2.1-1.5-2.9c-0.8-0.8-1.8-1.3-2.9-1.5C9,3.3,8.8,3.5,8.8,3.7C8.7,4,8.9,4.2,9.1,4.3L9.1,4.3z
			 M9.1,4.3"/>
		<path class="st0" d="M16.6,7.6c-0.3-1.8-1.1-3.4-2.4-4.7c-1.3-1.3-2.9-2.1-4.7-2.4c-0.2,0-0.5,0.1-0.5,0.4c0,0.3,0.1,0.5,0.4,0.5
			c1.6,0.3,3.1,1,4.2,2.2c1.2,1.2,1.9,2.6,2.2,4.2c0,0.2,0.2,0.4,0.5,0.4c0,0,0.1,0,0.1,0C16.4,8.1,16.6,7.8,16.6,7.6L16.6,7.6z
			 M16.6,7.6"/>
	</g>
</g>
</svg>
