<?xml version="1.0" encoding="utf-8"?>
<!-- Generator: Adobe Illustrator 19.0.0, SVG Export Plug-In . SVG Version: 6.00 Build 0)  -->
<svg version="1.1" id="Layer_1" xmlns="http://www.w3.org/2000/svg" xmlns:xlink="http://www.w3.org/1999/xlink" x="0px" y="0px"
	 viewBox="0 0 28 26" style="enable-background:new 0 0 28 26;" xml:space="preserve">
<style type="text/css">
	.st0{fill:#ECE812;}
</style>
<g id="XMLID_4_">
	<g id="XMLID_5_">
		<path id="XMLID_6_" class="st0" d="M27.5,19.4c-3.7-0.6-5.4-4.4-5.4-4.6c0,0,0,0,0,0c-0.2-0.4-0.2-0.7-0.1-0.9
			c0.2-0.5,1-0.7,1.5-0.9c0.1,0,0.3-0.1,0.4-0.1c0.5-0.2,0.9-0.4,1.1-0.7c0.3-0.3,0.3-0.6,0.3-0.8c0-0.4-0.3-0.8-0.9-1
			c-0.2-0.1-0.4-0.1-0.6-0.1c-0.1,0-0.4,0-0.6,0.1c-0.4,0.2-0.8,0.3-1.2,0.3c-0.2,0-0.3,0-0.4-0.1c0-0.2,0-0.4,0-0.5l0-0.1
			c0.1-1.9,0.3-4.2-0.4-5.6c-0.4-0.9-1-1.8-1.7-2.4c-0.6-0.6-1.3-1-2-1.3C16.2,0.1,15,0,14.4,0h-0.1c-0.2,0-0.5,0-0.5,0
			c-0.6,0-1.8,0.1-3.2,0.7C9.9,1,9.2,1.5,8.7,2C8,2.7,7.4,3.5,7,4.4C6.4,5.8,6.5,8.2,6.6,10v0c0,0.2,0,0.4,0,0.6
			c-0.1,0-0.2,0.1-0.5,0.1c-0.4,0-0.8-0.1-1.2-0.3c-0.1-0.1-0.3-0.1-0.5-0.1c-0.3,0-0.6,0.1-0.8,0.2c-0.3,0.2-0.5,0.5-0.6,0.8
			c0,0.2,0,0.6,0.4,1c0.2,0.2,0.6,0.4,1,0.6c0.1,0,0.3,0.1,0.4,0.1c0.5,0.2,1.3,0.4,1.5,0.9c0.1,0.2,0.1,0.6-0.1,0.9c0,0,0,0,0,0
			C6.2,15,5.8,16,4.9,17c-0.5,0.6-1.1,1.1-1.7,1.5c-0.7,0.5-1.5,0.8-2.4,0.9c-0.3,0.1-0.6,0.3-0.5,0.7c0,0.1,0,0.2,0.1,0.3v0
			c0.1,0.3,0.4,0.6,0.9,0.8c0.6,0.3,1.5,0.5,2.7,0.7C4,22,4.1,22.3,4.2,22.5c0,0.2,0.1,0.4,0.2,0.7c0.1,0.2,0.3,0.5,0.7,0.5
			c0.2,0,0.4,0,0.6-0.1c0.4-0.1,0.8-0.2,1.5-0.2c0.3,0,0.7,0,1,0.1c0.7,0.1,1.3,0.5,1.9,1c1,0.7,2.1,1.5,3.8,1.5c0,0,0.1,0,0.1,0
			c0.1,0,0.1,0,0.2,0c1.7,0,2.8-0.8,3.8-1.5l0,0c0.7-0.5,1.3-0.9,1.9-1c0.4-0.1,0.7-0.1,1-0.1c0.6,0,1,0.1,1.5,0.2
			c0.3,0.1,0.5,0.1,0.6,0.1h0c0.4,0,0.6-0.2,0.7-0.5c0.1-0.2,0.1-0.4,0.2-0.6c0-0.2,0.1-0.5,0.2-0.6c1.2-0.2,2.1-0.4,2.7-0.7
			c0.5-0.2,0.8-0.5,0.9-0.8c0-0.1,0.1-0.2,0.1-0.3C28,19.8,27.8,19.5,27.5,19.4L27.5,19.4z M27.5,19.4"/>
	</g>
</g>
</svg>
