<?xml version="1.0" encoding="utf-8"?>
<!-- Generator: Adobe Illustrator 19.0.0, SVG Export Plug-In . SVG Version: 6.00 Build 0)  -->
<svg version="1.1" id="Layer_1" xmlns="http://www.w3.org/2000/svg" xmlns:xlink="http://www.w3.org/1999/xlink" x="0px" y="0px"
	 viewBox="0 0 28 28" style="enable-background:new 0 0 28 28;" xml:space="preserve">
<style type="text/css">
	.st0{fill:#101F2B;}
</style>
<g id="XMLID_2_">
	<path id="XMLID_4_" class="st0" d="M13.3,0.4C6.1,0.7,0.4,6.7,0.5,13.9c0,2.2,0.5,4.3,1.5,6.1l-1.4,7c-0.1,0.4,0.3,0.7,0.6,0.6
		L8,26c1.8,0.9,3.7,1.4,5.8,1.4c7.4,0.1,13.5-5.7,13.7-13.1C27.8,6.4,21.3,0,13.3,0.4z M21.5,21.4c-2,2-4.7,3.1-7.5,3.1
		c-1.7,0-3.2-0.4-4.7-1.1l-1-0.5l-4.2,1L5,19.6l-0.5-0.9c-0.8-1.5-1.2-3.1-1.2-4.8c0-2.8,1.1-5.5,3.1-7.5c2-2,4.7-3.1,7.5-3.1
		c2.8,0,5.5,1.1,7.5,3.1c2,2,3.1,4.7,3.1,7.5C24.6,16.7,23.5,19.4,21.5,21.4z"/>
	<path id="XMLID_3_" class="st0" d="M20.6,16.8l-2.6-0.8c-0.3-0.1-0.7,0-1,0.3L16.3,17c-0.3,0.3-0.7,0.4-1,0.2
		c-1.2-0.5-3.9-2.8-4.5-4c-0.2-0.3-0.2-0.8,0.1-1.1l0.6-0.7c0.2-0.3,0.3-0.7,0.1-1l-1.1-2.5c-0.3-0.6-1-0.8-1.5-0.3
		c-0.7,0.6-1.6,1.6-1.7,2.6C7,12,7.8,14.4,10.8,17.1c3.4,3.2,6.2,3.6,8,3.2c1-0.2,1.8-1.2,2.3-2C21.5,17.7,21.2,17,20.6,16.8z"/>
</g>
</svg>
