<?xml version="1.0" encoding="utf-8"?>
<!-- Generator: Adobe Illustrator 19.0.0, SVG Export Plug-In . SVG Version: 6.00 Build 0)  -->
<svg version="1.1" id="Layer_1" xmlns="http://www.w3.org/2000/svg" xmlns:xlink="http://www.w3.org/1999/xlink" x="0px" y="0px"
	 viewBox="0 0 28 18" style="enable-background:new 0 0 28 18;" xml:space="preserve">
<style type="text/css">
	.st0{fill:#D22527;}
</style>
<g id="XMLID_2_">
	<path id="XMLID_3_" class="st0" d="M26,1.7c-0.7-1.3-1.5-1.5-3.1-1.6C21.4,0,17.4,0,14,0c-3.4,0-7.4,0-8.9,0.1
		C3.5,0.2,2.7,0.5,2,1.7C1.3,3,0.9,5.2,0.9,9v0c0,3.8,0.4,6,1.1,7.2c0.7,1.3,1.5,1.5,3.1,1.6C6.6,17.9,10.6,18,14,18
		c3.4,0,7.4-0.1,8.9-0.1c1.6-0.1,2.3-0.3,3.1-1.6c0.7-1.2,1.1-3.4,1.1-7.2v0C27.1,5.2,26.7,3,26,1.7L26,1.7z M10.7,13.9V4.1L18.9,9
		L10.7,13.9z M10.7,13.9"/>
</g>
</svg>
