<?xml version="1.0" encoding="utf-8"?>
<!-- Generator: Adobe Illustrator 21.0.0, SVG Export Plug-In . SVG Version: 6.00 Build 0)  -->
<svg version="1.1" id="Layer_1" xmlns="http://www.w3.org/2000/svg" xmlns:xlink="http://www.w3.org/1999/xlink" x="0px" y="0px"
	 viewBox="20 20 85 85" style="enable-background:new 0 0 65 65;" xml:space="preserve">
<style type="text/css">
	.st0{fill:#F9A024;}
	.st1{fill:#0B1927;}
</style>
<path class="st0" d="M90,77H49c-1.7,0-3-1.3-3-3V62c0-1.7,1.3-3,3-3h41c1.7,0,3,1.3,3,3v12C93,75.7,91.7,77,90,77z"/>
<g>
	<path class="st1" d="M96.6,35H34.4c-0.8,0-1.4,0.6-1.4,1.4v62.2c0,0.8,0.6,1.4,1.4,1.4h62.2c0.8,0,1.4-0.6,1.4-1.4V36.4
		C98,35.6,97.4,35,96.6,35L96.6,35z M35.8,37.8H50v8.5H35.8V37.8z M95.2,97.2H35.8v-48h59.3V97.2z M95.2,46.3H52.8v-8.5h42.4V46.3z
		 M95.2,46.3"/>
	<path class="st1" d="M42.9,74.6h45.2c0.8,0,1.4-0.6,1.4-1.4v-17c0-0.8-0.6-1.4-1.4-1.4H42.9c-0.8,0-1.4,0.6-1.4,1.4v17
		C41.5,73.9,42.1,74.6,42.9,74.6L42.9,74.6z M44.3,57.6h42.4v14.1H44.3V57.6z M44.3,57.6"/>
	<path class="st1" d="M42.9,91.5h45.2c0.8,0,1.4-0.6,1.4-1.4c0-0.8-0.6-1.4-1.4-1.4H42.9c-0.8,0-1.4,0.6-1.4,1.4
		C41.5,90.9,42.1,91.5,42.9,91.5L42.9,91.5z M42.9,91.5"/>
	<path class="st1" d="M42.9,83h45.2c0.8,0,1.4-0.6,1.4-1.4s-0.6-1.4-1.4-1.4H42.9c-0.8,0-1.4,0.6-1.4,1.4S42.1,83,42.9,83L42.9,83z
		 M42.9,83"/>
</g>
</svg>
