<?xml version="1.0" encoding="utf-8"?>
<!-- Generator: Adobe Illustrator 21.0.0, SVG Export Plug-In . SVG Version: 6.00 Build 0)  -->
<svg version="1.1" id="Layer_1" xmlns="http://www.w3.org/2000/svg" xmlns:xlink="http://www.w3.org/1999/xlink" x="0px" y="0px"
	 viewBox="0 0 81 66" style="enable-background:new 0 0 81 66;" xml:space="preserve">
<style type="text/css">
	.st0{fill:#E42137;}
	.st1{fill:#3EBEB3;}
	.st2{fill:#FAA024;}
	.st3{fill:#0B1927;}
</style>
<g id="Layer_2">
	<circle class="st0" cx="70" cy="42" r="7"/>
	<circle class="st1" cx="11" cy="42" r="7"/>
	<circle class="st2" cx="44" cy="7" r="7"/>
</g>
<path class="st3" d="M27.6,30.7h26.1c0.8,0,1.5-0.7,1.5-1.5c0-7.4-5.6-12.1-14.6-12.1s-14.6,4.6-14.6,12.1
	C26.1,30,26.8,30.7,27.6,30.7z M40.7,20.2c2.5,0,10.4,0.6,11.4,7.5H29.3C30.3,20.7,38.2,20.2,40.7,20.2z"/>
<path class="st3" d="M40.7,15.5c4,0,7.3-3.3,7.3-7.3S44.7,1,40.7,1s-7.3,3.3-7.3,7.3C33.4,12.3,36.7,15.5,40.7,15.5z M40.7,4
	c2.3,0,4.2,1.9,4.2,4.2s-1.9,4.2-4.2,4.2c-2.3,0-4.2-1.9-4.2-4.2S38.4,4,40.7,4z"/>
<path class="st3" d="M14.6,52.4C5.6,52.4,0,57,0,64.5C0,65.3,0.7,66,1.5,66h26.1c0.8,0,1.5-0.7,1.5-1.5C29.2,57,23.6,52.4,14.6,52.4
	z M3.2,62.9c1-6.9,8.9-7.5,11.4-7.5S25,56,26,62.9H3.2z"/>
<path class="st3" d="M14.6,50.9c4,0,7.3-3.3,7.3-7.3s-3.3-7.3-7.3-7.3s-7.3,3.3-7.3,7.3l0,0C7.3,47.6,10.6,50.9,14.6,50.9z
	 M14.6,39.3c2.3,0,4.2,1.9,4.2,4.2c0,2.3-1.9,4.2-4.2,4.2c-2.3,0-4.2-1.9-4.2-4.2C10.4,41.2,12.3,39.3,14.6,39.3z"/>
<path class="st3" d="M66.8,52.4c-9,0-14.6,4.6-14.6,12.1c0,0.8,0.7,1.5,1.5,1.5h26.1c0.8,0,1.5-0.7,1.5-1.5
	C81.4,57,75.8,52.4,66.8,52.4z M55.4,62.9c1-6.9,8.9-7.5,11.4-7.5s10.4,0.6,11.4,7.5H55.4z"/>
<path class="st3" d="M66.8,50.9c4,0,7.3-3.3,7.3-7.3s-3.3-7.3-7.3-7.3s-7.3,3.3-7.3,7.3l0,0C59.5,47.6,62.8,50.9,66.8,50.9z
	 M66.8,39.3c2.3,0,4.2,1.9,4.2,4.2c0,2.3-1.9,4.2-4.2,4.2s-4.2-1.9-4.2-4.2C62.6,41.2,64.5,39.3,66.8,39.3z"/>
<path class="st3" d="M42.2,43.3v-9.1c0-0.8-0.7-1.5-1.5-1.5c-0.8,0-1.5,0.7-1.5,1.5v9.1l-6.4,6.4c-0.6,0.6-0.6,1.6,0,2.2
	c0.6,0.6,1.6,0.6,2.2,0l5.8-5.8l5.8,5.8c0.6,0.6,1.6,0.5,2.2-0.2c0.5-0.6,0.5-1.4,0-2L42.2,43.3z"/>
</svg>
