<?xml version="1.0" encoding="utf-8"?>
<!-- Generator: Adobe Illustrator 21.0.0, SVG Export Plug-In . SVG Version: 6.00 Build 0)  -->
<svg version="1.1" id="Layer_1" xmlns="http://www.w3.org/2000/svg" xmlns:xlink="http://www.w3.org/1999/xlink" x="0px" y="0px"
	 viewBox="0 0 79 70" style="enable-background:new 0 0 79 70;" xml:space="preserve">
<style type="text/css">
	.st0{fill:#FAA024;}
	.st1{fill:#E42137;}
	.st2{fill:#3EBEB3;}
	.st3{fill:#0B1927;}
</style>
<path class="st0" d="M43.8,34.2l4.4,8.9l9.8,1.4c1.8,0.3,2.5,2.4,1.2,3.6L52.1,55l1.7,9.7c0.3,1.7-1.5,3.1-3.1,2.3l-8.7-4.6L33.2,67
	c-1.6,0.8-3.4-0.5-3.1-2.3l1.7-9.7l-7.1-6.9c-1.3-1.2-0.6-3.4,1.2-3.6l9.8-1.4l4.4-8.9C40.8,32.6,43,32.6,43.8,34.2z"/>
<path class="st1" d="M68.6,47.2l2.8,5.6l6.2,0.9c1.1,0.2,1.6,1.5,0.8,2.3l-4.5,4.4l1.1,6.2c0.2,1.1-1,2-2,1.4l-5.6-2.9l-5.6,2.9
	c-1,0.5-2.2-0.3-2-1.4l1.1-6.2l-4.5-4.4c-0.8-0.8-0.4-2.2,0.8-2.3l6.2-0.9l2.8-5.6C66.7,46.2,68.1,46.2,68.6,47.2z"/>
<path class="st2" d="M12.6,47.2l2.8,5.6l6.2,0.9c1.1,0.2,1.6,1.5,0.8,2.3l-4.5,4.4l1.1,6.2c0.2,1.1-1,2-2,1.4l-5.6-2.9l-5.6,2.9
	c-1,0.5-2.2-0.3-2-1.4l1.1-6.2l-4.5-4.4c-0.8-0.8-0.4-2.2,0.8-2.3l6.2-0.9l2.8-5.6C10.7,46.2,12.1,46.2,12.6,47.2z"/>
<path class="st3" d="M50.8,57.3l6.5-6.4c0.9-0.9,1.2-2.1,0.8-3.3c-0.4-1.2-1.4-2-2.6-2.2L52.4,45v-4.5l3.7-0.7V42
	c0,0.6,0.5,1.1,1.1,1.1c0.6,0,1.1-0.5,1.1-1.1v-9.8c0-2.3-1.3-4.3-3.4-5.3l-8.7-4c-0.4-0.2-0.7-0.6-0.7-1.1v-2.9
	c2.1-1.7,3.5-4.3,3.5-7.3V6.9c0-3.7-1.2-6.2-1.3-6.3c-0.2-0.4-0.6-0.6-1-0.6h-8.8c-1.1,0-2.1,0.4-2.9,1c0,0-0.1,0-0.1,0
	c-1.6,0.1-4.5,1.4-4.5,5.3v5.3c0,2.9,1.4,5.6,3.5,7.3v2.9c0,0.5-0.3,0.9-0.7,1.1l-8.7,4c-2.1,0.9-3.4,3-3.4,5.3V42
	c0,0.6,0.5,1.1,1.1,1.1c0.6,0,1.1-0.5,1.1-1.1V39l3.7,1.5V45l-3.1,0.5c-1.2,0.2-2.2,1-2.6,2.2c-0.4,1.2-0.1,2.4,0.8,3.3l6.5,6.4
	l-1.5,9c-0.2,1.2,0.3,2.4,1.3,3.1c1,0.7,2.3,0.8,3.4,0.2l8.1-4.2l8.1,4.2c0.5,0.2,1,0.4,1.5,0.4c0.7,0,1.3-0.2,1.9-0.6
	c1-0.7,1.5-1.9,1.3-3.1L50.8,57.3z M33.5,3.9c0.1,0.3,0.3,0.5,0.6,0.6c0.6,0.2,1.2-0.1,1.4-0.7c0.3-1,1.3-1.6,2.3-1.6h8.1
	c0.3,0.8,0.7,2.2,0.8,4c-1.5,0.5-5.3,1.4-9.7-0.4c-0.5-0.2-1.1,0-1.4,0.4c0,0-1.1,1.7-3.1,2.7V6.3C32.6,5.2,32.9,4.4,33.5,3.9z
	 M32.6,11.6v-0.3c2.2-0.7,3.7-2.2,4.5-3.1c4.1,1.5,7.8,0.9,9.7,0.3v3.1c0,3.9-3.2,7.1-7.1,7.1S32.6,15.5,32.6,11.6z M39.7,20.9
	c1.3,0,2.5-0.3,3.6-0.7v1.6c0,1.3,0.8,2.6,2,3.1l0.1,0c-0.7,2.5-3,4.3-5.7,4.3s-5-1.8-5.7-4.3l0.1,0c1.2-0.6,2-1.8,2-3.1v-1.6
	C37.2,20.6,38.4,20.9,39.7,20.9z M29.1,39.7C29.1,39.7,29.1,39.7,29.1,39.7V35c0-0.6-0.5-1.1-1.1-1.1c-0.6,0-1.1,0.5-1.1,1.1v3.1
	l-3.7-1.5v-4.4c0-1.4,0.8-2.7,2.1-3.3l6.7-3c1.1,3.3,4.1,5.5,7.7,5.5s6.6-2.3,7.7-5.5l6.7,3c1.3,0.6,2.1,1.9,2.1,3.3v5.4l-3.7,0.7
	V35c0-0.6-0.5-1.1-1.1-1.1s-1.1,0.5-1.1,1.1v4.7c0,0,0,0,0,0v5.1l-3.7-0.5l-4-8.2c-0.5-1.1-1.6-1.8-2.9-1.8s-2.3,0.7-2.9,1.8l-4,8.2
	l-3.7,0.5L29.1,39.7L29.1,39.7z M49.8,67.6c-0.3,0.2-0.7,0.3-1.1,0.1l-8.6-4.5c-0.2-0.1-0.3-0.1-0.5-0.1s-0.3,0-0.5,0.1l-8.6,4.5
	c-0.3,0.2-0.7,0.2-1.1-0.1c-0.3-0.2-0.5-0.6-0.4-1l1.6-9.5c0.1-0.4-0.1-0.7-0.3-1l-6.9-6.8c-0.3-0.3-0.4-0.7-0.3-1
	c0.1-0.4,0.4-0.6,0.8-0.7l9.6-1.4c0.4-0.1,0.7-0.3,0.8-0.6l4.3-8.7c0.2-0.4,0.5-0.6,0.9-0.6s0.7,0.2,0.9,0.6l4.3,8.7
	c0.2,0.3,0.5,0.5,0.8,0.6l9.6,1.4c0.4,0.1,0.7,0.3,0.8,0.7c0.1,0.4,0,0.8-0.3,1l-6.9,6.8c-0.3,0.3-0.4,0.6-0.3,1l1.6,9.5
	C50.3,67,50.1,67.4,49.8,67.6z"/>
<path class="st3" d="M23.3,57.9L21,60.1c-0.3,0.3-0.4,0.6-0.3,1l1.1,6.4c0,0.2-0.1,0.2-0.1,0.3c-0.1,0.1-0.2,0.1-0.3,0l-5.7-3
	c-0.3-0.2-0.7-0.2-1,0l-5.7,3c-0.1,0.1-0.3,0-0.3,0c-0.1-0.1-0.1-0.1-0.1-0.3l1.1-6.4c0.1-0.4-0.1-0.7-0.3-1l-4.6-4.5
	c-0.1-0.1-0.1-0.2-0.1-0.3c0-0.1,0.1-0.2,0.2-0.2l6.4-0.9c0.4-0.1,0.7-0.3,0.8-0.6l2.9-5.8c0.1-0.1,0.2-0.2,0.3-0.2
	c0.1,0,0.2,0,0.3,0.2l2.5,5.1c0.3,0.5,0.9,0.8,1.5,0.5c0.5-0.3,0.8-0.9,0.5-1.5l-2.5-5.1c-0.4-0.9-1.3-1.4-2.2-1.4s-1.8,0.5-2.2,1.4
	l-2.6,5.3l-5.8,0.8c-0.9,0.1-1.7,0.8-2,1.7c-0.3,0.9-0.1,1.9,0.6,2.6l4.2,4.1l-1,5.8c-0.2,0.9,0.2,1.9,1,2.4C7.7,69.8,8.2,70,8.7,70
	c0.4,0,0.8-0.1,1.2-0.3l5.2-2.7l5.2,2.7c0.8,0.4,1.9,0.4,2.6-0.2c0.8-0.6,1.2-1.5,1-2.4l-1-5.8l1.9-1.8c0.4-0.4,0.4-1.1,0-1.5
	C24.4,57.5,23.7,57.5,23.3,57.9z"/>
<path class="st3" d="M76.9,54.6c-0.3-0.9-1.1-1.6-2-1.7L69,52.1l-2.6-5.3c-0.4-0.9-1.3-1.4-2.2-1.4c-1,0-1.8,0.5-2.2,1.4l-2.5,5.1
	c-0.3,0.5,0,1.2,0.5,1.5s1.2,0,1.5-0.5l2.5-5.1c0.1-0.1,0.2-0.2,0.3-0.2s0.2,0,0.3,0.2l2.9,5.8c0.2,0.3,0.5,0.5,0.8,0.6l6.4,0.9
	c0.2,0,0.2,0.1,0.2,0.2c0,0.1,0,0.2-0.1,0.3l-4.6,4.5c-0.3,0.3-0.4,0.6-0.3,1l1.1,6.4c0,0.2-0.1,0.2-0.1,0.3c-0.1,0.1-0.2,0.1-0.3,0
	l-5.7-3c-0.3-0.2-0.7-0.2-1,0l-5.7,3c-0.1,0.1-0.3,0-0.3,0c-0.1-0.1-0.1-0.1-0.1-0.3l1.1-6.4c0.1-0.4-0.1-0.7-0.3-1l-2.3-2.2
	c-0.4-0.4-1.1-0.4-1.5,0c-0.4,0.4-0.4,1.1,0,1.5l1.9,1.8l-1,5.8c-0.2,0.9,0.2,1.9,1,2.4c0.8,0.6,1.8,0.6,2.6,0.2l5.2-2.7l5.2,2.7
	c0.4,0.2,0.8,0.3,1.2,0.3c0.5,0,1-0.2,1.5-0.5c0.8-0.6,1.2-1.5,1-2.4l-1-5.8l4.2-4.1C76.9,56.5,77.2,55.5,76.9,54.6z"/>
</svg>
