<?xml version="1.0" encoding="utf-8"?>
<!-- Generator: Adobe Illustrator 21.0.0, SVG Export Plug-In . SVG Version: 6.00 Build 0)  -->
<svg version="1.1" id="Layer_1" xmlns="http://www.w3.org/2000/svg" xmlns:xlink="http://www.w3.org/1999/xlink" x="0px" y="0px"
	 viewBox="-5 -5 70 70" style="enable-background:new 0 0 70 70;" xml:space="preserve">
<style type="text/css">
	.st0{fill:#E42137;}
	.st1{fill:#0B1927;}
</style>
<path class="st0" d="M37.9,62V27.8c0-1.4,0.8-2.5,1.9-2.5h7.7c1.1,0,1.9,1.1,1.9,2.5V62c0,1.4-0.8,2.5-1.9,2.5h-7.7
	C38.8,64.5,37.9,63.4,37.9,62z"/>
<path class="st1" d="M63.9,26.5h-8.1c-0.7,0-1.3,0.6-1.3,1.3v6.4c0,0.7,0.6,1.3,1.3,1.3s1.3-0.6,1.3-1.3V29h5.6v33.4h-2.8h-2.8V43.7
	c0-0.7-0.6-1.3-1.3-1.3s-1.3,0.6-1.3,1.3v18.8H52V36.2c0-0.7-0.6-1.3-1.3-1.3h-8.1c-0.7,0-1.3,0.6-1.3,1.3v26.3h-2.5V45.1
	c0-0.7-0.6-1.3-1.3-1.3h-8.1c-0.7,0-1.3,0.6-1.3,1.3v17.4h-2.5V52.4c0-0.7-0.6-1.3-1.3-1.3h-8.1c-0.7,0-1.3,0.6-1.3,1.3v10.1H4
	c-0.7,0-1.3-0.6-1.3-1.3V3.8c0-0.7,0.6-1.3,1.3-1.3h32.8v8.4c0,2.1,1.7,3.8,3.8,3.8h8.4v15.6c0,0.7,0.6,1.3,1.3,1.3s1.3-0.6,1.3-1.3
	V13.5c0-0.3-0.1-0.7-0.4-0.9L38.9,0.4C38.7,0.1,38.4,0,38,0H4C1.9,0,0.2,1.7,0.2,3.8v57.4C0.2,63.3,1.9,65,4,65h59.9
	c0.7,0,1.3-0.6,1.3-1.3v-36C65.2,27.1,64.6,26.5,63.9,26.5z M39.3,10.9V4.3l7.9,7.9h-6.6C39.9,12.2,39.3,11.6,39.3,10.9z M17.5,62.5
	v-8.8H23v8.8H17.5z M30.7,62.5V46.3h5.6v16.1H30.7z M43.9,62.5v-25h5.6v25H43.9z"/>
<path class="st1" d="M55.8,40c0.3,0,0.7-0.1,0.9-0.4c0.2-0.2,0.4-0.6,0.4-0.9c0-0.3-0.1-0.7-0.4-0.9c-0.2-0.2-0.6-0.4-0.9-0.4
	s-0.7,0.1-0.9,0.4c-0.2,0.2-0.4,0.6-0.4,0.9c0,0.3,0.1,0.7,0.4,0.9C55.1,39.8,55.5,40,55.8,40z"/>
<path class="st1" d="M18.7,6.9c-0.7,0-1.3,0.6-1.3,1.3v2.3C11.6,11.1,7,16.1,7,22.1c0,6.4,5.2,11.7,11.7,11.7c6,0,11-4.6,11.6-10.4
	h2.3c0.7,0,1.3-0.6,1.3-1.3C33.8,13.7,27,6.9,18.7,6.9z M18.7,31.2c-5,0-9.1-4.1-9.1-9.1c0-4.6,3.4-8.4,7.9-9v9
	c0,0.7,0.6,1.3,1.3,1.3h9C27.1,27.8,23.3,31.2,18.7,31.2z M19.9,20.8V9.6c5.9,0.6,10.7,5.3,11.3,11.3L19.9,20.8L19.9,20.8z"/>
<path class="st1" d="M33.8,38.6c0-0.7-0.6-1.3-1.3-1.3H8.3c-0.7,0-1.3,0.6-1.3,1.3s0.6,1.3,1.3,1.3h24.2
	C33.3,39.9,33.8,39.3,33.8,38.6z"/>
<path class="st1" d="M8.3,43.5C7.6,43.5,7,44,7,44.8S7.6,46,8.3,46h8.1c0.7,0,1.3-0.6,1.3-1.3s-0.6-1.3-1.3-1.3H8.3z"/>
<path class="st1" d="M21.9,43.9c-0.2,0.2-0.4,0.6-0.4,0.9s0.1,0.7,0.4,0.9c0.2,0.2,0.6,0.4,0.9,0.4c0.3,0,0.7-0.1,0.9-0.4
	c0.2-0.2,0.4-0.6,0.4-0.9s-0.1-0.7-0.4-0.9c-0.2-0.2-0.6-0.4-0.9-0.4C22.5,43.5,22.1,43.6,21.9,43.9z"/>
</svg>
