<?xml version="1.0" encoding="utf-8"?>
<!-- Generator: Adobe Illustrator 21.0.0, SVG Export Plug-In . SVG Version: 6.00 Build 0)  -->
<svg version="1.1" id="Layer_1" xmlns="http://www.w3.org/2000/svg" xmlns:xlink="http://www.w3.org/1999/xlink" x="0px" y="0px"
	 viewBox="0 0 74 65" style="enable-background:new 0 0 74 65;" xml:space="preserve">
<style type="text/css">
	.st0{fill:#3EBEB3;}
	.st1{fill:#0B1927;}
</style>
<path class="st0" d="M53.1,60.4H20.9c-1.3,0-2.4-1.8-2.4-4.1V39.9c0-2.3,1-4.1,2.4-4.1h32.2c1.3,0,2.4,1.8,2.4,4.1v16.4
	C55.4,58.6,54.4,60.4,53.1,60.4z"/>
<path class="st1" d="M72.6,43.2c0.7,0,1.2-0.6,1.2-1.2v-9.8c0-0.7-0.6-1.2-1.2-1.2H57.2l7.7-7.7c0.5-0.5,0.5-1.3,0-1.7l-6.7-6.7
	c-0.5-0.5-1.3-0.5-1.7,0c-1.9,1.9-5,1.9-7,0c-1.9-1.9-1.9-5,0-7C50,7.2,50,6.5,49.5,6L44,0.5c-0.5-0.5-1.3-0.5-1.7,0L11.9,30.9H1.4
	c-0.7,0-1.2,0.6-1.2,1.2v9.8c0,0.7,0.6,1.2,1.2,1.2c2.7,0,4.9,2.2,4.9,4.9c0,2.7-2.2,4.9-4.9,4.9c-0.7,0-1.2,0.6-1.2,1.2V64
	c0,0.7,0.6,1.2,1.2,1.2h71.3c0.7,0,1.2-0.6,1.2-1.2v-9.8c0-0.7-0.6-1.2-1.2-1.2c-2.7,0-4.9-2.2-4.9-4.9
	C67.7,45.4,69.9,43.2,72.6,43.2z M43.1,3.1L47,6.9c-2.4,3.3-1.6,7.9,1.7,10.3c2.6,1.8,6,1.8,8.6,0l5,5l-8.6,8.6h-3.9l2.8-2.8
	c0.5-0.5,0.5-1.3,0-1.7L39.1,12.8c-0.5-0.5-1.3-0.5-1.7,0L19.3,30.9h-3.9L43.1,3.1z M22.8,30.9l15.5-15.5L50,27.2l-3.7,3.7H22.8z
	 M71.4,55.3v7.5h-9.8v-4.9h-2.5v4.9H14.9v-1.2h-2.5v1.2H2.6v-7.5c4-0.7,6.7-4.5,6.1-8.5c-0.5-3.1-3-5.5-6.1-6.1v-7.5h9.8V37h2.5
	v-3.7h56.5v7.5c-4,0.7-6.7,4.5-6.1,8.5C65.9,52.4,68.3,54.8,71.4,55.3z"/>
<rect x="59.1" y="35.8" class="st1" width="2.5" height="4.9"/>
<rect x="59.1" y="43.2" class="st1" width="2.5" height="4.9"/>
<rect x="59.1" y="50.5" class="st1" width="2.5" height="4.9"/>
<rect x="12.4" y="39.5" class="st1" width="2.5" height="4.9"/>
<rect x="12.4" y="46.8" class="st1" width="2.5" height="4.9"/>
<rect x="12.4" y="54.2" class="st1" width="2.5" height="4.9"/>
<path class="st1" d="M54.2,39.5c-1.4,0-2.5-1.1-2.5-2.5c0-0.7-0.6-1.2-1.2-1.2h-27c-0.7,0-1.2,0.6-1.2,1.2c0,1.4-1.1,2.5-2.5,2.5
	c-0.7,0-1.2,0.6-1.2,1.2v14.8c0,0.7,0.6,1.2,1.2,1.2c1.4,0,2.5,1.1,2.5,2.5c0,0.7,0.6,1.2,1.2,1.2h27c0.7,0,1.2-0.6,1.2-1.2
	c0-1.4,1.1-2.5,2.5-2.5c0.7,0,1.2-0.6,1.2-1.2V40.7C55.4,40,54.9,39.5,54.2,39.5z M53,54.4c-1.7,0.5-3.1,1.8-3.5,3.5H24.6
	c-0.5-1.7-1.8-3.1-3.5-3.5V41.8c1.7-0.5,3.1-1.8,3.5-3.5h24.9c0.5,1.7,1.8,3.1,3.5,3.5V54.4z"/>
</svg>
