<?xml version="1.0" encoding="utf-8"?>
<!-- Generator: Adobe Illustrator 21.0.0, SVG Export Plug-In . SVG Version: 6.00 Build 0)  -->
<svg version="1.1" id="Layer_1" xmlns="http://www.w3.org/2000/svg" xmlns:xlink="http://www.w3.org/1999/xlink" x="0px" y="0px"
	 viewBox="0 0 78 65" style="enable-background:new 0 0 78 65;" xml:space="preserve">
<style type="text/css">
	.st0{fill:#E42137;}
	.st1{fill:#3EBEB3;}
	.st2{fill:#0B1927;}
</style>
<path class="st0" d="M64.1,62.1v-24c0-1,1-1.8,2.3-1.8h9.3c1.3,0,2.3,0.8,2.3,1.8v24c0,1-1,1.8-2.3,1.8h-9.3
	C65.1,63.9,64.1,63.1,64.1,62.1z"/>
<path class="st1" d="M3.9,59h22.6c2.1,0,3.9-1.7,3.9-3.9V26.4c0-2.1-1.7-3.9-3.9-3.9H3.9c-2.1,0-3.9,1.7-3.9,3.9v28.7
	C0,57.3,1.7,59,3.9,59z"/>
<path class="st2" d="M73.3,32.8h-1.2v-26c0-3.4-2.8-6.2-6.2-6.2H13.8c-3.4,0-6.2,2.8-6.2,6.2v18.6H6.3c-2.1,0-3.7,1.7-3.7,3.7v32.3
	c0,2.1,1.7,3.7,3.7,3.7l0,0h47.1c0.7,0,1.2-0.6,1.2-1.2c0-3.4-2.8-6.2-6.2-6.2h-3.7v-7.4h14.9v11.2c0,2.1,1.7,3.7,3.7,3.7l0,0h9.9
	c2.1,0,3.7-1.7,3.7-3.7l0,0V36.5C77,34.4,75.4,32.8,73.3,32.8z M29.9,61.3c0,0.7-0.6,1.2-1.2,1.2H6.3c-0.7,0-1.2-0.6-1.2-1.2V60
	h24.8V61.3z M29.9,57.6H5.1V29c0-0.7,0.6-1.2,1.2-1.2h22.3c0.7,0,1.2,0.6,1.2,1.2V57.6z M48.5,60c1.6,0,3,1,3.5,2.5H32.1
	c0.1-0.4,0.2-0.8,0.2-1.2V60H48.5z M32.4,57.6v-7.4h2.5v7.4H32.4z M37.3,57.6v-7.4h5v7.4H37.3z M59.7,47.6H32.4v-7.4h27.3V47.6z
	 M59.7,36.5v1.2H32.4V29c0-0.6-0.1-1.2-0.4-1.7c0,0,0,0,0.1,0L44.3,15c0.5-0.5,0.5-1.3,0-1.8c-0.5-0.5-1.2-0.5-1.7,0L30.2,25.5
	c0,0,0,0.1-0.1,0.1c-0.5-0.2-1-0.3-1.5-0.3H10V6.7C10,4.6,11.7,3,13.8,3h52.1c2.1,0,3.7,1.7,3.7,3.7v26h-6.2
	C61.3,32.8,59.7,34.4,59.7,36.5z M74.5,61.3c0,0.7-0.6,1.2-1.2,1.2h-9.9c-0.7,0-1.2-0.6-1.2-1.2V60h12.4V61.3z M74.5,57.6H62.1V36.5
	c0-0.7,0.6-1.2,1.2-1.2h9.9c0.7,0,1.2,0.6,1.2,1.2V57.6z"/>
<path class="st2" d="M17.4,40.4c-0.5-0.5-1.3-0.5-1.8,0l-5.3,5.3c-0.5,0.5-0.5,1.3,0,1.8c0.5,0.5,1.3,0.5,1.8,0c0,0,0,0,0,0l5.3-5.3
	C17.6,41.8,17.2,41,17.4,40.4z"/>
<path class="st2" d="M23.1,40.4l-5.3,5.3c-0.5,0.5-0.5,1.3,0,1.8c0.5,0.5,1.3,0.5,1.8,0c0,0,0,0,0,0l5.3-5.3c0.5-0.5,0.5-1.3,0-1.8
	C24.3,39.9,23.6,39.9,23.1,40.4z"/>
<path class="st2" d="M50.1,13.3L37.8,25.5c-0.5,0.5-0.5,1.3,0,1.8c0.5,0.5,1.3,0.5,1.8,0c0,0,0,0,0,0L51.8,15c0.5-0.5,0.5-1.3,0-1.8
	C51.3,12.8,50.6,12.8,50.1,13.3z"/>
<path class="st2" d="M69.2,43.8l-3.5,3.5c-0.5,0.5-0.5,1.3,0,1.8c0.5,0.5,1.3,0.5,1.8,0c0,0,0,0,0,0l3.5-3.5c0.5-0.5,0.5-1.3,0-1.8
	C70.5,43.3,69.7,43.3,69.2,43.8z"/>
<path class="st2" d="M39.8,45.2c0.7,0,1.2-0.6,1.2-1.2c0-0.7-0.6-1.2-1.2-1.2h0c-0.7,0-1.2,0.6-1.2,1.2
	C38.6,44.6,39.1,45.2,39.8,45.2z"/>
<path class="st2" d="M42.3,5.5h-5c-0.7,0-1.2,0.6-1.2,1.2s0.6,1.2,1.2,1.2h5c0.7,0,1.2-0.6,1.2-1.2S43,5.5,42.3,5.5z"/>
</svg>
